<svg xmlns="http://www.w3.org/2000/svg" xmlns:xlink="http://www.w3.org/1999/xlink" id="Layer_1" x="0px" y="0px" viewBox="0 0 283.5 283.5" style="enable-background:new 0 0 283.5 283.5;" xml:space="preserve"> <style type="text/css"> .st0{fill:#FFCB11;} .st1{fill:#FFF3C8;} .st2{fill:#FFFFFF;} .st3{fill:#31383F;} </style> <g> <path class="st0" d="M25.1,230.5V121.1c0,0,4.2-58.1,59.4-58.1s64.3,56.7,64.3,56.7v113.6c0,0,18.2,2.2,18.2,12.6s0,21.4,0,21.4 s0.5,11.3-14.3,11.3c-14.8,0-134.8,0-134.8,0s-14-2.7-14-15.5c0-12.8-1.5-22.7,20.2-32.8"></path> <path class="st1" d="M86,253.7c0,0,24.1-8.6,41.4-31c0,0-17.7-6.4-17.7-16.3c0-9.9,7.9-12.8,7.9-12.8s12.6-6.4,13.1-20 c0,0,18.7,3.2,18.7-14s-15-16-15-16s2.5-6.7-12.8-9.4c-15.3-2.7-35-22.4-35-22.4s-21.7,22.2-43.6,24.9c-3,1.2-4.4,6.4-4.4,6.4 s-14.5,1-13.6,12.6c1,11.6-1.5,19.2,16.8,17.2c0,0,6.2,20.7,18,23.7s1.5,19.5-3,21.4s-14,7.1-7.1,10.6S74.9,252.7,86,253.7z"></path> <polygon class="st2" points="45.5,225.9 58,278.3 113.4,278.3 130.6,225.9 114.3,237.1 88.1,252.5 "></polygon> <g> <path class="st3" d="M187.1,191.3c52.3,0,94.9-42.6,94.9-94.9c0-52.3-42.6-94.9-94.9-94.9c-16.4,0-32.7,4.3-46.9,12.4 c-13.8,7.8-25.5,19.1-33.8,32.6c-0.6,0.9-0.8,2-0.5,3.1c0.3,1.1,0.9,2,1.8,2.6c0.7,0.4,1.4,0.6,2.2,0.6c1.4,0,2.8-0.7,3.5-2 C129.4,25,156.9,9.7,187.1,9.7c47.8,0,86.7,38.9,86.7,86.7c0,47.8-38.9,86.7-86.7,86.7c-1,0-2.2,0-3.5-0.1l-0.8,0l7.2-7.2 c0.8-0.8,1.2-1.8,1.2-2.9c0-1.1-0.4-2.1-1.2-2.9c-0.8-0.8-1.8-1.2-2.9-1.2c-1.1,0-2.1,0.4-2.9,1.2l-14.3,14.3 c-0.8,0.8-1.2,1.8-1.2,2.9c0,1.1,0.4,2.1,1.2,2.9l14.3,14.3c0.8,0.8,1.8,1.2,2.9,1.2c1.1,0,2.1-0.4,2.9-1.2 c0.8-0.8,1.2-1.8,1.2-2.9c0-1.1-0.4-2.1-1.2-2.9l-7.4-7.4l0.9,0C184.9,191.2,186.1,191.3,187.1,191.3z"></path> <path class="st3" d="M209.7,65.4c-0.6-0.9-1.5-1.5-2.6-1.8c-0.3-0.1-0.5-0.1-0.8-0.1c-2,0-3.7,1.4-4,3.3l-9.6,47.8 c-0.2,1.2,0.1,2.5,0.9,3.4c0.8,1,1.9,1.5,3.2,1.5h24.5v10.2c0,2.3,1.8,4.1,4.1,4.1c2.3,0,4.1-1.8,4.1-4.1v-10.2h5.4 c2.3,0,4.1-1.8,4.1-4.1c0-2.3-1.8-4.1-4.1-4.1h-5.4V67.7c0-2.3-1.8-4.1-4.1-4.1c-2.3,0-4.1,1.8-4.1,4.1v43.7h-19.5l8.6-42.9 C210.5,67.4,210.3,66.3,209.7,65.4z"></path> <path class="st3" d="M160.8,232.2L153,229v-95.1h29.3c2.3,0,4.1-1.8,4.1-4.1c0-2.3-1.8-4.1-4.1-4.1h-28.9l0.1-0.4 c1.6-5.9,6.4-9.2,13.7-13.5c8.6-5.1,19.2-11.5,19.2-27.3c0-11.5-9.4-20.8-20.8-20.8c-11.5,0-20.8,9.4-20.8,20.8 c0,2.3,1.8,4.1,4.1,4.1c2.3,0,4.1-1.8,4.1-4.1c0-6.9,5.7-12.6,12.6-12.6c6.9,0,12.6,5.7,12.6,12.6c0,11.1-7.1,15.3-15.2,20.2 c-3.7,2.2-7.5,4.5-10.7,7.5l-0.5,0.4l-0.1-0.6c-3-14.8-11-28.3-22.7-37.9c-11.8-9.8-26.8-15.2-42.2-15.2 c-36.5,0-66.2,29.7-66.2,66.2v104l-7.8,3.2c-6.9,2.9-11.4,9.6-11.4,17v19.1c0,7.5,6.1,13.7,13.7,13.7h143.4 c7.5,0,13.7-6.1,13.7-13.7v-19.1C172.1,241.8,167.7,235.1,160.8,232.2z M30.1,265.7v8.1h-15c-3,0-5.4-2.4-5.4-5.4v-19.1 c0-1.3,0.2-2.5,0.7-3.7l0.2-0.5l15.7,12.6C28.7,259.7,30.1,262.6,30.1,265.7z M31.4,251.3l-14.7-11.8l23.4-9.7l0.4-0.2l0.1,0.4 c1.8,7.9,6.1,24,13.7,43.3l0.2,0.5H38.3v-8.1C38.3,260.1,35.8,254.8,31.4,251.3z M86.8,67c32,0,58,26,58,58v16.1l-0.5-0.2 c-1.6-0.6-3.3-0.9-4.9-0.9h-1.5l-0.1-0.3c-0.8-3.3-3.3-5.9-6.7-6.7c-14.5-3.4-27.6-11-37.9-21.7c-1.6-1.7-4-2.7-6.4-2.7 c-2.4,0-4.7,1-6.4,2.7C70.1,122.1,57,129.6,42.5,133c-3.4,0.8-6,3.4-6.7,6.7l-0.1,0.3h-1.5c-1.7,0-3.4,0.3-4.9,0.9l-0.5,0.2V125 C28.8,93,54.8,67,86.8,67z M43.8,141.7c0-0.3,0.2-0.6,0.6-0.7c16.1-3.8,30.6-12.1,42-24c0.1-0.1,0.2-0.2,0.4-0.2 c0.1,0,0.3,0.1,0.4,0.2c11.4,11.9,25.9,20.2,42,24c0.4,0.1,0.6,0.4,0.6,0.7l-2.7,29.8l-0.1,0.1c-3.9,3.4-15.6,11.4-40.2,11.4 c-2.3,0-4.1,1.8-4.1,4.1c0,2.3,1.8,4.1,4.1,4.1c14.3,0,26.6-2.5,36.3-7.3l1.4-0.7l-0.9,1.2c-1.3,1.6-2.8,3-4.6,4l-24.9,13.8 c-2.2,1.2-4.8,1.9-7.3,1.9c-2.5,0-5-0.7-7.3-1.9l-24.9-13.8c-4.3-2.4-7.2-6.8-7.6-11.7L43.8,141.7z M67,209.4v-4.7l8.5,4.7 c3.5,1.9,7.4,2.9,11.3,2.9c3.9,0,7.8-1,11.3-2.9l8.5-4.7v4.7c0,5.5,3.3,10.5,8.4,12.6l5.5,2.3l-0.3,0.4 c-14.8,17.6-29.2,23.6-33.3,24.9l-0.1,0l-0.1,0c-4-1.4-18.4-7.2-33.3-24.9l-0.3-0.4l5.5-2.3C63.7,219.9,67,215,67,209.4z M114.8,200.2l8.2-4.5c6.7-3.7,11.2-10.5,11.9-18.2l0-0.5h4.5c1.7,0,3.4-0.3,4.9-0.9l0.5-0.2v49.7l-26.6-11.1 c-2-0.8-3.3-2.8-3.3-5V200.2z M139.3,168.7h-3.7l1.9-20.4h1.9c3,0,5.4,2.4,5.4,5.4v9.6C144.8,166.2,142.3,168.7,139.3,168.7z M34.2,148.2h1.9l1.9,20.4h-3.7c-3,0-5.4-2.4-5.4-5.4v-9.6C28.8,150.7,31.2,148.2,34.2,148.2z M38.7,176.9l0,0.5 c0.7,7.7,5.1,14.5,11.9,18.2l8.2,4.5v9.3c0,2.2-1.3,4.2-3.3,5l-26.6,11.1v-49.7l0.5,0.2c1.6,0.6,3.2,0.9,4.9,0.9H38.7z M50.9,234.4c17.8,19.2,34.2,23.5,34.9,23.7c0.7,0.2,1.3,0.2,2,0c0.7-0.2,17.1-4.5,34.9-23.7l1-1l-0.4,1.4 c-2.4,9.1-6.6,23.2-13,38.9l-0.1,0.2H63.3l-0.1-0.2c-6.4-15.7-10.6-29.8-13-38.9l-0.4-1.4L50.9,234.4z M156.9,239.5l-14.7,11.8 c-4.4,3.5-6.9,8.8-6.9,14.4v8.1h-16.1l0.2-0.5c7.6-19.3,11.8-35.4,13.7-43.3l0.1-0.4L156.9,239.5z M143.5,265.7c0-3.1,1.4-6,3.8-8 l15.7-12.6l0.2,0.5c0.4,1.2,0.7,2.4,0.7,3.7v19.1c0,3-2.4,5.4-5.4,5.4h-15V265.7z"></path> </g> </g> </svg>