<svg xmlns="http://www.w3.org/2000/svg" xmlns:xlink="http://www.w3.org/1999/xlink" id="Layer_1" x="0px" y="0px" viewBox="0 0 141.7 141.7" style="enable-background:new 0 0 141.7 141.7;" xml:space="preserve"> <style type="text/css"> .st0{fill:#FFFFFF;} .st1{fill:#31383F;} </style> <g> <path class="st0" d="M134.3,76.2l-2.4-3.3c-1.1-1.5-1.1-3.4,0-4.9l2.3-3.3c1.9-2.7,2.5-6,1.8-9.2c-0.8-3.2-2.8-5.9-5.7-7.4 l-3.6-1.9c-1.6-0.8-2.4-2.6-2.2-4.3l0.7-4c0.5-3.2-0.3-6.5-2.4-9.1c-2.1-2.5-5.1-4.1-8.4-4.2l-4-0.1c-1.8-0.1-3.4-1.3-3.8-3 l-1.1-3.9c-1.4-4.8-5.9-8.2-11-8.2c-1.5,0-3.1,0.3-4.5,0.9l-3.7,1.6c-1.6,0.7-3.6,0.3-4.8-1.1l-2.7-3c-2.2-2.4-5.3-3.8-8.5-3.8 c-3.3,0-6.4,1.4-8.6,3.9l-2.6,3.1c-1.2,1.3-3.1,1.8-4.8,1.1l-3.8-1.5c-1.4-0.6-2.9-0.9-4.3-0.9c-5.1,0-9.7,3.5-11,8.4l-1.1,3.9 c-0.5,1.7-2,2.9-3.8,3l-4,0.2c-3.3,0.2-6.3,1.8-8.3,4.3c-2,2.6-2.8,5.9-2.2,9.1l0.7,4c0.3,1.8-0.5,3.5-2.1,4.4l-3.5,2 c-2.9,1.6-4.9,4.3-5.6,7.5c-0.7,3.2,0,6.6,1.9,9.2l2.4,3.3c1.1,1.5,1.1,3.4,0,4.9l-2.3,3.3c-1.9,2.7-2.5,6-1.8,9.2 c0.8,3.2,2.8,5.9,5.7,7.4l3.6,1.9c1.6,0.8,2.4,2.6,2.1,4.3l-0.7,4c-0.5,3.2,0.3,6.5,2.4,9.1c2.1,2.5,5.1,4.1,8.4,4.2l4,0.2 c1.8,0.1,3.3,1.3,3.8,3l1.1,3.9c1.4,4.8,5.9,8.2,11,8.2c1.5,0,3.1-0.3,4.5-0.9l3.7-1.6c1.6-0.7,3.6-0.2,4.8,1.1l2.7,3 c2.2,2.4,5.2,3.8,8.5,3.8c3.3,0,6.4-1.4,8.6-3.9l2.6-3.1c1.2-1.3,3.1-1.8,4.8-1.1l3.8,1.5c6.6,2.6,13.6-1.2,15.3-7.5l1.1-3.9 c0.5-1.7,2-2.9,3.8-3l4-0.2c3.3-0.2,6.3-1.8,8.3-4.3c2-2.6,2.8-5.9,2.2-9.1l-0.7-4c-0.3-1.8,0.5-3.5,2.1-4.4l3.5-2 c2.9-1.6,4.9-4.3,5.6-7.5C136.9,82.1,136.2,78.8,134.3,76.2z"></path> <path class="st1" d="M71.3,140.3c-3.4,0-6.6-1.4-8.8-3.9l-2.8-3.1c-1.2-1.4-3.3-1.8-4.9-1.1l-3.9,1.6c-1.4,0.6-3.1,1-4.7,1 c-5.2,0-9.9-3.5-11.4-8.5l-1.2-4c-0.5-1.8-2.1-3-4-3.1l-4.2-0.2c-3.4-0.1-6.5-1.7-8.7-4.4c-2.1-2.7-3-6.1-2.5-9.4l0.7-4.2 c0.3-1.8-0.6-3.6-2.2-4.5l-3.7-2c-3-1.6-5.1-4.4-5.9-7.7c-0.8-3.3-0.1-6.8,1.9-9.5l2.4-3.4c1.1-1.5,1.1-3.6,0-5.1l-2.5-3.4 c-2-2.7-2.7-6.2-2-9.5c0.7-3.3,2.8-6.1,5.8-7.8l3.7-2c1.6-0.9,2.5-2.7,2.2-4.6L14,37.4c-0.6-3.3,0.2-6.8,2.3-9.4 c2.1-2.7,5.2-4.3,8.6-4.5l4.2-0.3c1.9-0.1,3.4-1.4,3.9-3.2l1.1-4c1.4-5.1,6.1-8.7,11.4-8.7c1.5,0,3,0.3,4.5,0.9l3.9,1.6 c1.7,0.7,3.7,0.2,4.9-1.2l2.7-3.2c2.3-2.6,5.5-4.1,9-4.1c3.3,0,6.5,1.4,8.8,3.9L82,8.5c1.2,1.4,3.2,1.8,4.9,1.1l3.9-1.6 c1.4-0.6,3.1-1,4.7-1c5.2,0,9.9,3.5,11.4,8.5l1.2,4c0.5,1.8,2.1,3,4,3.1l4.2,0.1c3.4,0.1,6.5,1.7,8.7,4.4c2.1,2.7,3,6.1,2.5,9.4 l-0.7,4.2c-0.3,1.8,0.6,3.6,2.2,4.5l3.7,2c3,1.6,5.1,4.4,5.9,7.7c0.8,3.3,0.1,6.8-1.9,9.5l-2.4,3.4c-1.1,1.5-1.1,3.6,0,5.1l2.5,3.4 c2,2.7,2.7,6.2,2,9.5c-0.7,3.3-2.8,6.1-5.8,7.8l-3.6,2c-1.7,0.9-2.5,2.7-2.2,4.6l0.8,4.1c0.6,3.3-0.2,6.8-2.3,9.4 c-2.1,2.7-5.2,4.3-8.6,4.5l-4.2,0.2c-1.9,0.1-3.4,1.4-3.9,3.1l-1.1,4c-1.8,6.5-9.1,10.5-15.9,7.8l-3.9-1.6 c-1.7-0.7-3.7-0.2-4.9,1.2l-2.7,3.2C78,138.8,74.7,140.3,71.3,140.3z M56.5,127.7c2.4,0,4.8,1,6.4,2.8l2.8,3.1 c1.4,1.6,3.5,2.5,5.7,2.5c2.2,0,4.3-1,5.8-2.6l2.7-3.2c2.4-2.7,6.3-3.7,9.7-2.3l3.9,1.6c4.5,1.8,9.1-0.8,10.3-5l1.1-4 c0.9-3.5,4-6,7.7-6.2l4.2-0.2c2.2-0.1,4.2-1.2,5.6-2.9c1.3-1.7,1.9-3.9,1.5-6.1l-0.8-4.1c-0.7-3.6,1-7.2,4.3-9l3.6-2 c1.9-1.1,3.3-2.9,3.8-5c0.5-2.1,0-4.4-1.3-6.2l0,0l-2.4-3.4c-2.2-2.9-2.2-6.9,0-9.9l2.4-3.4c1.3-1.8,1.7-4.1,1.2-6.2 c-0.5-2.1-1.9-4-3.8-5l-3.7-2c-3.2-1.7-5-5.3-4.4-8.9l0.7-4.2c0.4-2.1-0.2-4.4-1.6-6.1c-1.4-1.7-3.4-2.7-5.6-2.8l-4.2-0.1 c-3.7-0.2-6.8-2.6-7.8-6.1l-1.2-4c-0.9-3.2-4-5.5-7.4-5.5c-1,0-2.1,0.2-3,0.6l-3.9,1.6c-3.3,1.4-7.3,0.5-9.7-2.2l-2.8-3.1 c-1.5-1.6-3.5-2.6-5.7-2.6c-2.2,0-4.3,1-5.8,2.6l-2.7,3.2c-2.4,2.7-6.3,3.7-9.7,2.3l-3.9-1.6c-4.4-1.8-9.1,0.8-10.3,5l-1.1,4 c-0.9,3.5-4,6-7.7,6.2l-4.2,0.3c-2.2,0.1-4.2,1.2-5.6,2.9c-1.3,1.7-1.9,3.9-1.5,6.1l0.8,4.1c0.7,3.6-1,7.2-4.2,9l-3.6,2 c-1.9,1.1-3.3,2.9-3.8,5c-0.5,2.1,0,4.4,1.3,6.1l2.5,3.4c2.2,3,2.2,7,0,10l-2.4,3.4c-1.3,1.8-1.7,4.1-1.2,6.2c0.5,2.1,1.9,4,3.8,5 l3.7,2c3.2,1.7,5,5.3,4.4,8.9l-0.7,4.2c-0.4,2.1,0.2,4.4,1.6,6.1c1.4,1.7,3.4,2.7,5.6,2.8L30,115c3.7,0.2,6.8,2.6,7.8,6.1l1.2,4 c0.9,3.2,4,5.5,7.4,5.5c1,0,2.1-0.2,3-0.6l3.9-1.6C54.2,127.9,55.3,127.7,56.5,127.7z"></path> <g> <path class="st1" d="M38.3,83.2c-3.4,0-6.9-1.3-8.3-3.2c-0.2-0.3-0.3-0.6-0.3-0.9c0-1,0.9-1.9,1.9-1.9c0.4,0,0.8,0.1,1.1,0.4 c1.6,1.2,3.5,1.9,5.5,1.9c3.1,0,4.9-1.4,4.9-3.6c0-2.3-1.8-3.3-5.2-3.3c-1.6,0.1-3-0.3-3-1.9c0-1,0.8-1.9,1.9-1.9 c3.3,0.1,5.9-0.5,5.9-3.1c0-2.2-2.1-3.3-4.8-3.3c-1.9,0-3.5,0.6-5,1.7c-0.3,0.2-0.7,0.3-1.1,0.3c-0.9,0-1.9-0.8-1.9-1.8 c0-0.5,0.2-1,0.6-1.3c1.9-1.7,4.4-2.7,7.7-2.7c5.2,0,8.7,2.4,8.7,6.4c0,3.2-2.7,5-5.2,5.5c2.3,0.2,5.6,2.1,5.6,5.8 C47.3,80.3,43.8,83.2,38.3,83.2z"></path> <path class="st1" d="M59.6,83.2c-6.7,0-9.6-6.3-9.6-12.4c0-6.1,2.9-12.3,9.6-12.3s9.6,6.3,9.6,12.3C69.2,76.9,66.3,83.2,59.6,83.2 z M59.6,62.3c-3.8,0-5.2,4-5.2,8.5s1.4,8.6,5.2,8.6c3.9,0,5.2-4,5.2-8.6S63.5,62.3,59.6,62.3z"></path> <path class="st1" d="M81.4,83.2c-6.7,0-9.6-6.3-9.6-12.4c0-6.1,2.9-12.3,9.6-12.3S91,64.8,91,70.8C91,76.9,88.1,83.2,81.4,83.2z M81.4,62.3c-3.8,0-5.2,4-5.2,8.5s1.4,8.6,5.2,8.6c3.9,0,5.2-4,5.2-8.6S85.2,62.3,81.4,62.3z"></path> <path class="st1" d="M110,83c-0.6,0-1.2-0.3-1.6-0.8l-7.5-9.5l-2.1,2.4v5.7c0,1.1-1,2.1-2.2,2.1c-1.1,0-2.1-1-2.1-2.1V60.7 c0-1.1,0.9-2.1,2.1-2.1c1.1,0,2.1,1,2.1,2.1v9.5l8.8-10.8c0.4-0.5,1-0.7,1.5-0.7c1.1,0,2,0.9,2,2c0,0.4-0.1,0.9-0.4,1.2l-7.1,8.2 l7.9,9.6c0.3,0.4,0.4,0.8,0.4,1.2C112.1,81.9,111.2,83,110,83z"></path> </g> </g> </svg>