<svg xmlns="http://www.w3.org/2000/svg" xmlns:xlink="http://www.w3.org/1999/xlink" id="Layer_1" x="0px" y="0px" viewBox="0 0 141.7 141.7" style="enable-background:new 0 0 141.7 141.7;" xml:space="preserve"> <style type="text/css"> .st0{fill:#FFFFFF;} .st1{fill:#31383F;} </style> <g> <path class="st0" d="M3.8,20.2v67.4c0,0-0.8,10.2,10.8,10.2s53.8,0,53.8,0l-18.2,18.8l12.5,1.2l1.5,13.8l20.2-21.8 c0,0,7.7,2.2,16.3,0.1l20,20.6l1.8-12.7l13.6-1L116.8,98h11.8c0,0,9.3,0.2,9.3-12s0-65.4,0-65.4s1.3-10.1-10.6-10.1 s-114.3,0-114.3,0S3.8,11.8,3.8,20.2z"></path> <g> <path class="st1" d="M121.1,29H21c-1.2,0.1-2.1,1-2.1,2.2c0,1.2,1,2.2,2.2,2.2l99.9,0c1.2,0,2.2-1,2.2-2.2 C123.2,30,122.3,29,121.1,29z"></path> <path class="st1" d="M61.3,44.3H21.1c-1.2,0-2.2,1-2.2,2.2s1,2.2,2.2,2.2h40.2c1.2,0,2.2-1,2.2-2.2S62.5,44.3,61.3,44.3z"></path> <path class="st1" d="M50,59.9H21.1c-1.2,0-2.2,1-2.2,2.2s1,2.2,2.2,2.2H50c1.2,0,2.2-1,2.2-2.2S51.2,59.9,50,59.9z"></path> <path class="st1" d="M45.6,75H21.1c-1.2,0-2.2,1-2.2,2.2c0,1.2,1,2.2,2.2,2.2h24.5c1.2,0,2.2-1,2.2-2.2C47.8,76,46.8,75,45.6,75z"></path> <path class="st1" d="M92.4,67.5c-3.6,0-7,1.4-9.6,4c-2.6,2.6-4,6-4,9.6c0,3.6,1.4,7,4,9.6c2.6,2.6,6,4,9.6,4c3.6,0,7-1.4,9.6-4 c2.6-2.6,4-6,4-9.6c0-3.6-1.4-7-4-9.6C99.5,69,96,67.5,92.4,67.5z M92.4,90.3c-5,0-9.1-4.1-9.1-9.1c0-5,4.1-9.1,9.1-9.1 c0,0,0,0,0,0c2.4,0,4.7,0.9,6.5,2.7c1.7,1.7,2.7,4,2.7,6.5C101.5,86.2,97.5,90.3,92.4,90.3z"></path> <path class="st1" d="M140.3,88.9V19.5c0-6-4.9-10.9-10.9-10.9H12.3c-6,0-10.9,4.9-10.9,10.9v69.4c0,6,4.9,10.9,10.9,10.9h51.4 l-15.5,15.5c-0.6,0.6-0.8,1.5-0.5,2.4c0.1,0.3,0.3,0.6,0.5,0.8c0.4,0.4,0.9,0.6,1.4,0.6l11.2,0.8l0.9,11.1 c0.1,0.9,0.6,1.6,1.4,1.9c0.8,0.3,1.7,0.1,2.3-0.5l20-20l0.3,0.1c4.3,0.9,8.9,0.9,13.2,0l0.3-0.1l20,20c0.6,0.6,1.5,0.8,2.3,0.5 c0.8-0.3,1.4-1.1,1.4-1.9l0.9-11.1l11.2-0.8c0.5,0,1-0.3,1.4-0.6c0.2-0.2,0.4-0.5,0.5-0.8c0.3-0.8,0.1-1.7-0.5-2.4l-15.5-15.5h8.3 C135.4,99.8,140.3,94.9,140.3,88.9z M5.8,88.9V19.5c0-3.6,2.9-6.5,6.5-6.5h117.2c3.6,0,6.5,2.9,6.5,6.5v69.4 c0,3.6-2.9,6.5-6.5,6.5h-8.4c2.2-4.4,3.4-9.3,3.4-14.3c0-13.4-8.4-25.5-21-30.1c-7-2.6-15-2.6-22,0c-12.6,4.6-21,16.7-21,30.1 c0,5,1.2,9.9,3.4,14.3H12.3C8.7,95.4,5.8,92.5,5.8,88.9z M65.8,125.8l-0.6-8.2c-0.1-1.1-1-2-2.1-2l-8.3-0.6L68,101.8l0.4,0.5 c3.1,3.6,7.1,6.4,11.4,8.3l0.8,0.4L65.8,125.8z M92.4,108.7c-13.1,0-24.4-9.3-27-22c-0.1-0.6-0.2-1.1-0.3-1.7L65,84.5 c0-0.2-0.1-0.3-0.1-0.5c-0.1-0.8-0.1-1.5-0.1-2.3l0-0.2c0-0.1,0-0.2,0-0.3c0-15.2,12.4-27.6,27.6-27.6c15.2,0,27.6,12.4,27.6,27.6 c0,0.1,0,0.1,0,0.2c0,1.9-0.2,3.7-0.6,5.3C116.8,99.5,105.5,108.7,92.4,108.7z M121.7,115.6c-1.1,0.1-2,0.9-2.1,2l-0.6,8.2 L104.2,111l0.8-0.4c4.3-1.9,8.3-4.7,11.4-8.3l0.4-0.5L130,115L121.7,115.6z"></path> </g> </g> </svg>