<svg xmlns="http://www.w3.org/2000/svg" xmlns:xlink="http://www.w3.org/1999/xlink" id="Layer_1" x="0px" y="0px" viewBox="0 0 141.7 141.7" style="enable-background:new 0 0 141.7 141.7;" xml:space="preserve"> <style type="text/css"> .st0{fill:#FFFFFF;} .st1{fill:#31383F;} .st2{fill:#323840;} </style> <rect x="16.1" y="64.1" class="st0" width="18.4" height="31.1"></rect> <rect x="107.3" y="64.1" class="st0" width="18.4" height="31.1"></rect> <path class="st0" d="M40.3,60.9c0,0-31.2-11.9-24.4-50.6c0,0,38.5-1,36.8,42.3c0,0,20.5-5.6,36.4-0.1c0,0-3.4-43.2,36.1-41.6 c0,0,10.6,31.2-24.3,50.6c0,0,4.9,7.9,4.9,17.7s-6.5,22.8-8.3,27.7c-1.8,4.9-0.5,31.5-26,31.5s-25.2-16.1-25.2-27.7 c-2.6-4.9-10.2-21.4-10.2-30S35,63.8,40.3,60.9z"></path> <path class="st1" d="M120,112.8l-1-0.3V98.9l1.4-0.1c4.8-0.3,8.6-4.2,8.6-9.1l-0.1-30.6c0-6.4-1.1-12.7-3.3-18.8l-0.2-0.5l0.2-0.5 c1.1-2.7,1.9-5.6,2.5-8.6c1.6-10.2-0.2-18.7-0.5-20.1l0-0.1l-0.4-1.8l-1.5-0.2c-0.1,0-10.1-1.4-19.9,3.6l-0.8,0.4l-0.7-0.5 c-9.8-7-21.3-10.7-33.4-10.7c-12,0-23.6,3.7-33.5,10.7l-0.7,0.5l-0.8-0.4c-7.8-4.1-15.7-4.1-19.7-3.7c-0.2,0-0.4,0-0.4,0l-1.4,0.2 L14,10.3c-0.5,2.3-2,10.8-0.3,20.4c0.6,3.1,1.4,5.8,2.4,8.3l0.2,0.5l-0.2,0.5c-2.2,6.4-3.4,12.9-3.4,19.1v30.6c0,5,4.1,9,9,9h6.9 c2.4,0,4.8-1,6.4-2.7l1.6-1.7l0.9,2.1c0.8,2.1,1.8,4.2,2.8,6.2c0.1,0.3,0.2,0.5,0.3,0.7c0.2,0.4,0.4,0.8,0.5,1.2l0.7,1.5 c0.6,1.3,1.2,2.7,1.8,4.3c0.6,1.7,0.8,6.4,0.7,9.2c0,8,3.6,14,10.4,17.4c4.3,2.2,9.8,3.3,16.2,3.3c6.3,0,11.9-1.1,16.2-3.3 c6.8-3.5,10.4-9.5,10.4-17.3c-0.1-1.9-0.3-7.4,0.8-9.4c0.8-2,1.7-3.9,2.5-5.7l4.3-9.6l1.5,1.4c1.7,1.6,4,2.6,6.3,2.6h1.5v13.6 l-1,0.4c-3.8,1.4-6.3,5-6.3,9c0,5.3,4.3,9.7,9.7,9.7c5.3,0,9.7-4.3,9.7-9.7C126.6,117.9,123.9,114.2,120,112.8z M121.9,12.8h1.9v1.9 c0.6,5.5,0.5,10.7-0.4,15.6c-2.3,12.4-9.4,21.5-20.9,27.1l-1.1,0.6l-1-1c-2.1-2-4.6-3.8-7.8-5.3l-1-0.5v-1.2 c0.5-14,4.4-24.2,11.4-30.3C109.2,14.1,116.7,12.9,121.9,12.8z M42.4,14.2C51,8.8,60.9,5.9,71,5.9c10.1,0,19.9,2.9,28.4,8.3l1.6,1 l-1.4,1.3c-7.6,6.8-11.8,17.2-12.6,31l0,2.3l-2.2-0.6c-4.2-0.9-8.9-1.4-13.9-1.4c-5,0-9.6,0.5-14,1.4l-2.2,0.5v-2.4 c-0.7-13.5-4.9-23.9-12.4-30.9l-1.4-1.3L42.4,14.2z M33.3,89.7c0,2.6-2.1,4.6-4.6,4.6h-6.9c-2.6,0-4.6-2.1-4.6-4.6V65.1h11.6 c2.6,0,4.6,2.1,4.6,4.6V89.7z M30.4,60.8c-0.7-0.1-1.2-0.2-1.7-0.2H17.2v-1.5c0-3.5,0.4-7,1.2-10.5l0.7-3.2l1.9,2.7 c2.7,3.8,6.3,7.2,10.6,10.1l5.3,3.6L30.4,60.8z M18.3,30.2L18.3,30.2c-0.9-4.8-1.1-10-0.4-15.8l0-1.6h1.8c3.3,0,11.8,0.7,18.9,6.8 c7.2,6.2,11,16.4,11.4,30.3v1.3l-0.8,0.5c-2.9,1.3-5.6,3-7.9,5.2l-0.9,0.9l-1.2-0.6C27.6,51.6,20.6,42.5,18.3,30.2z M70.7,120.6 c-1.6,0-4.4-1.6-6.6-3.8c-2.3-2.3-3.8-5-3.8-6.9c0-1.9,0.8-2.5,1.8-3c2.3-1,5.9-1.1,8.8-1.1c2.7,0,6.4,0.1,8.6,1 c1.3,0.6,1.9,1.3,1.9,3.1c0,1.9-1.5,4.6-3.8,6.9C75.1,119.1,72.3,120.6,70.7,120.6z M102.9,83c-1,7.8-3.2,12.5-5.7,17.9 c-1.4,2.9-2.4,5.3-3.5,7.8c-1.3,3.1-1.1,8.9-1,11.1c0,6.2-2.6,10.5-7.9,13.1c-2.7,1.4-6.3,2.4-9.8,2.7l-1.6,0H73v-10.8l1.3-0.4 c3-1.2,5.5-3.5,6.5-4.4c1.9-1.9,5.2-5.8,5.2-10.1c0-3.5-1.6-5.9-4.8-7.3c-2.3-1-5.6-1.4-10.3-1.4c-5.1,0-8.2,0.4-10.3,1.4 c-3.2,1.4-4.9,3.9-4.9,7.3c0,3.1,1.8,6.5,5.2,10.1c2.1,2.1,4.2,3.5,6.5,4.4l1.2,0.4v10.8h-1.9c-4.1-0.4-7.3-1.3-10-2.7 c-5.2-2.7-7.8-7.1-7.8-13c0.2-3.8,0-8.7-1-11.2c-1-2.6-2-4.7-3-6.8l-0.4-0.9c-2.5-5.5-4.7-10.2-5.7-18c-1.2-9.5,0.4-16.9,4.9-21.8 c5.2-6,14.4-9,27.2-9c12.9,0,22,3,27.3,9C102.5,66.2,104.1,73.5,102.9,83z M104.2,62.3l6.2-4.2c4.1-2.7,7.6-6,10.4-9.8l2-2.7 l0.6,3.3c0.7,3.6,1,7,1,10.2v1.5h-11.5c-0.4,0-0.9,0.1-1.4,0.2L104.2,62.3z M112.9,94.3c-2.6,0-4.6-2.1-4.6-4.6v-20 c0-2.6,2.1-4.6,4.6-4.6h11.6v24.7c0,2.6-2.1,4.6-4.6,4.6H112.9z M116.9,126.9c-2.8,0-5.1-2.3-5.1-5.1c0-2.8,2.3-5.1,5.1-5.1 c2.8,0,5.1,2.4,5.1,5.1C122.1,124.6,119.8,126.9,116.9,126.9z"></path> <g> <path class="st2" d="M57.1,74.1c-1.7,0-3.1,1.4-3.1,3.1c0,1.7,1.4,3.1,3.1,3.1c1.7,0,3.1-1.4,3.1-3.1S58.8,74.1,57.1,74.1z"></path> <path class="st2" d="M84.7,74c-1.7,0-3.2,1.4-3.2,3.1c0,1.8,1.4,3.1,3.2,3.1c1.6,0,3-1.4,3-3.1c0-0.8-0.2-1.6-0.8-2.1 C86.3,74.3,85.5,74,84.7,74z"></path> </g> </svg>