<svg xmlns="http://www.w3.org/2000/svg" xmlns:xlink="http://www.w3.org/1999/xlink" id="Layer_1" x="0px" y="0px" viewBox="0 0 283.5 283.5" style="enable-background:new 0 0 283.5 283.5;" xml:space="preserve"> <style type="text/css"> .st0{fill:#2EB4E8;} .st1{fill:#31383F;} .st2{fill:#FFFFFF;} .st3{fill:#CDECF8;} </style> <g> <path class="st0" d="M143.7,39.6c0,0,38.4-32.1,83.6-17.3s50.2,65.5,50.2,68.5c0,3,1.9,38.1-27.1,66.6S142,264.7,142,264.7 L26.9,149.8c0,0-23-31.3-23-61.1S35.4,19,81.1,19S143.7,39.6,143.7,39.6z"></path> <g> <path class="st1" d="M193.6,50.5h6.1v6.1c0,2.3,1.9,4.2,4.2,4.2c2.3,0,4.2-1.9,4.2-4.2v-6.1h6.1c2.3,0,4.2-1.9,4.2-4.2 c0-2.3-1.9-4.2-4.2-4.2H208v-6.1c0-2.3-1.9-4.2-4.2-4.2c-2.3,0-4.2,1.9-4.2,4.2v6.1h-6.1c-2.3,0-4.2,1.9-4.2,4.2 C189.4,48.6,191.3,50.5,193.6,50.5z"></path> <path class="st1" d="M214.1,152.5H208v-6.1c0-2.3-1.9-4.2-4.2-4.2c-2.3,0-4.2,1.9-4.2,4.2v6.1h-6.1c-2.3,0-4.2,1.9-4.2,4.2 s1.9,4.2,4.2,4.2h6.1v6.1c0,2.3,1.9,4.2,4.2,4.2c2.3,0,4.2-1.9,4.2-4.2v-6.1h6.1c2.3,0,4.2-1.9,4.2-4.2S216.4,152.5,214.1,152.5z"></path> <path class="st1" d="M178.6,99h-6.1V93c0-2.3-1.9-4.2-4.2-4.2c-2.3,0-4.2,1.9-4.2,4.2V99h-6.1c-2.3,0-4.2,1.9-4.2,4.2 c0,2.3,1.9,4.2,4.2,4.2h6.1v6.1c0,2.3,1.9,4.2,4.2,4.2c2.3,0,4.2-1.9,4.2-4.2v-6.1h6.1c2.3,0,4.2-1.9,4.2-4.2 C182.8,100.9,180.9,99,178.6,99z"></path> <path class="st1" d="M250.9,72.1h-6.1V66c0-2.3-1.9-4.2-4.2-4.2c-2.3,0-4.2,1.9-4.2,4.2v6.1h-6.1c-2.3,0-4.2,1.9-4.2,4.2 s1.9,4.2,4.2,4.2h6.1v6.1c0,2.3,1.9,4.2,4.2,4.2c2.3,0,4.2-1.9,4.2-4.2v-6.1h6.1c2.3,0,4.2-1.9,4.2-4.2S253.2,72.1,250.9,72.1z"></path> <path class="st1" d="M232.5,113.7H231v-1.5c0-2.3-1.9-4.2-4.2-4.2s-4.2,1.9-4.2,4.2v1.5h-1.5c-2.3,0-4.2,1.9-4.2,4.2 s1.9,4.2,4.2,4.2h1.5v1.5c0,2.3,1.9,4.2,4.2,4.2s4.2-1.9,4.2-4.2v-1.5h1.5c2.3,0,4.2-1.9,4.2-4.2S234.8,113.7,232.5,113.7z"></path> </g> <path class="st2" d="M4.6,114.2h138.2V39.6c0,0-25.2-24.1-59.8-24.1S-6.9,50.5,4.6,114.2z"></path> <path class="st3" d="M4.6,114.2h138.2V39.6c0,0-25.2-24.1-59.8-24.1S-6.9,50.5,4.6,114.2z"></path> <path class="st2" d="M58.9,45.4L38.8,32c0,0-16.7,13.9-19.3,20.3h38.1L58.9,45.4z"></path> <path class="st2" d="M77.9,44.4l33.5-22.1c0,0,15.7,7.3,21,11.9l-30.2,19H77.9V44.4z"></path> <path class="st2" d="M28.4,73.6h28.4v9.9L9.1,113.9c0,0-3.6-21.5,0.7-40.8L28.4,73.6z"></path> <polygon class="st2" points="77.8,83.8 119,111.7 143.6,111.7 143.6,99 103.8,73 78.4,73 "></polygon> <path class="st1" d="M257.6,37.9L257.6,37.9c-2.7-2.7-5.7-5.3-8.7-7.6l-0.3-0.2c-0.1-0.1-0.2-0.2-0.4-0.3c-0.2-0.1-0.3-0.3-0.5-0.4 c-4.8-3.5-10.1-6.5-15.6-8.9l-0.3-0.1c-0.5-0.2-1.1-0.5-1.6-0.7c-10-4.1-20.6-6.2-31.5-6.2c-21.3,0-41.5,8-56.9,22.5l0,0l0,0 c-1.9-1.8-4-3.5-6.1-5.2c-6.5-5-13.6-9-21.3-11.9c-11.5-4.4-24.5-6.2-36.8-5.1c-7.4,0.6-14.6,2.2-21.4,4.7 c-7.3,2.6-14.1,6.3-20.4,10.9c-3.5,2.5-6.8,5.4-9.9,8.5c-2.2,2.2-4.2,4.4-6.1,6.8c-1.6,2-3.2,4.1-4.5,6.2 c-4.4,6.6-7.8,13.8-10.1,21.4C3.2,78.4,2,84.8,1.6,91.2c-0.1,1.9-0.2,3.8-0.2,5.7c0,5.4,0.5,10.8,1.6,16 C6.1,129.2,14,144,25.8,155.8l112.9,112.9c0.8,0.8,1.9,1.2,3,1.2c1.1,0,2.2-0.4,3-1.2l112.9-112.9C273.4,140,282,119.1,282,96.8 C282,74.6,273.4,53.7,257.6,37.9z M45.9,32.8L45.9,32.8L45.9,32.8c2.4-1.5,4.9-2.8,7.4-3.9l0.1,0v8.8L45.9,32.8z M29.3,46.4 L29.3,46.4c0.9-1,1.7-1.8,2.4-2.5c2.1-2.1,4.3-4.1,6.6-5.9l0,0l14.9,9.6l0,0V49h-20L29.3,46.4z M12.4,116.4L12.4,116.4l131.7-0.1 c2.3,0,4.2-1.9,4.2-4.2V41.5l0-0.1c13.8-12.6,31.7-19.5,50.4-19.5c10.4,0,20.5,2.1,30,6.2l0.1,0c0.1,0,0.2,0.1,0.3,0.1l1.1,0.5 c2.1,1,4.2,2.1,6.3,3.3c0.2,0.1,0.4,0.3,0.6,0.4l0.5,0.3c0.3,0.2,0.6,0.4,1,0.6c0.9,0.6,1.9,1.2,2.9,2c0.1,0.1,0.2,0.2,0.3,0.3 c1,0.7,2,1.5,3.1,2.3c0.8,0.6,1.6,1.3,2.5,2c1.5,1.3,3,2.6,4.3,4c14.2,14.2,21.9,33,21.9,53c0,20-7.8,38.8-21.9,53l-110,110 l-62.4-62.4l0,0l-47.6-47.6C22.5,140.5,15.8,129,12.4,116.4z M53.4,77.8v2.5l-42.7,27.4l-0.1,0.1l0-0.1c-0.5-3.5-0.8-7.1-0.8-10.7 c0-0.9,0-1.9,0.1-3l0,0L35,77.8L53.4,77.8z M82.1,49v-1.5l31.1-20l0,0l0,0c4.2,1.7,8.3,3.9,12.1,6.4l0.1,0.1l-23.4,15L82.1,49z M117.7,49l15-9.6l0,0l0,0c1.7,1.5,3.4,3,4.9,4.5l1.1,1.1c0.3,0.3,0.7,0.6,1.1,0.8l0,0V49H117.7z M109.7,107.9H82.1V90.2l27.4,17.5 L109.7,107.9z M139.9,103v4.9h-14.6L82.2,80.3l0,0v-2.5h18.4L139.9,103L139.9,103z M139.9,77.8V93l-0.1-0.1l-23.7-15.2H139.9z M77.9,57.4h61.9v12H77.9c-2.3,0-4.2,1.9-4.2,4.2v34.3h-12V73.6c0-2.3-1.9-4.2-4.2-4.2H15l0-0.1c1.6-4.1,3.6-8.1,5.9-11.8l0,0h36.5 c2.3,0,4.2-1.9,4.2-4.2V25.5l0,0c3.8-1.2,7.8-2.2,11.8-2.8l0.1,0v30.5C73.7,55.5,75.6,57.4,77.9,57.4z M25.8,107.9l27.6-17.7v17.7 H25.8z M82.1,37.6V22l0.1,0c0.8,0,1.7,0,2.5,0c6.1,0,12.2,0.7,18.2,2.2l0.2,0L82.1,37.6z M11.1,83.1l0-0.2c0.3-1.7,0.7-3.4,1.2-5.1 l0-0.1h7.1L11.1,83.1z M78.8,197.9L78.8,197.9L78.8,197.9L78.8,197.9z"></path> </g> </svg>