<?xml version="1.0" encoding="utf-8"?>
<!-- Generator: Adobe Illustrator 26.0.3, SVG Export Plug-In . SVG Version: 6.00 Build 0)  -->
<svg version="1.1" xmlns="http://www.w3.org/2000/svg" xmlns:xlink="http://www.w3.org/1999/xlink" x="0px" y="0px"
	 viewBox="0 0 433.9 256" style="enable-background:new 0 0 433.9 256;" xml:space="preserve">
<style type="text/css">
	.st0{display:none;}
	.st1{display:inline;}
	.st2{fill:#FFD9F4;}
	.st3{fill:url(#SVGID_1_);}
	.st4{fill:#00844E;}
	.st5{fill:url(#SVGID_00000088109510931378448370000015047858290333507220_);}
	.st6{fill:url(#SVGID_00000178926238550859199100000011378858117449247896_);}
	.st7{fill:url(#SVGID_00000003788789535355826320000010544674016329770135_);}
	.st8{fill:url(#SVGID_00000080205240528644640000000007039871859235247279_);}
	.st9{fill:url(#SVGID_00000181808127949960164440000016703133073028561335_);}
	.st10{fill:url(#SVGID_00000180325760151201708640000005544869011193950399_);}
	.st11{fill:url(#SVGID_00000165201701270169066010000010620691076807522469_);}
	.st12{fill:url(#SVGID_00000089557734218828338040000001046094612440726955_);}
	.st13{fill:url(#SVGID_00000100374856264518721170000009030693191979485107_);}
	.st14{fill:url(#SVGID_00000047044022633231704720000008654521559514114206_);}
	.st15{fill:#FFF3F8;}
	
		.st16{fill:#FFFFFF;stroke:url(#SVGID_00000132060651443409889170000006451136726756098438_);stroke-width:2;stroke-linecap:round;stroke-linejoin:round;stroke-miterlimit:10;}
	.st17{fill:#FFFFFF;}
	.st18{fill:url(#SVGID_00000025411268384636869970000001135521030817102248_);}
	.st19{fill:url(#SVGID_00000108996451954703776570000011737782126180247947_);}
	.st20{fill:url(#SVGID_00000183213643561849141400000004073323994250439838_);}
	.st21{fill:url(#SVGID_00000112610094890842151010000003015750571562133146_);}
	.st22{fill:url(#SVGID_00000034071957354595594690000012017990192105891461_);}
	.st23{fill:url(#SVGID_00000143600769182742137420000007790948188066201472_);}
	.st24{fill:#FFC0E3;}
	.st25{fill:url(#SVGID_00000134962465921849404940000011027547026177911468_);}
	.st26{fill:url(#SVGID_00000074421146377220262750000001022846823876282037_);}
	.st27{fill:#D89E50;}
	.st28{opacity:0.5;fill:#FFE3BD;}
	.st29{fill:#F2BF75;}
	.st30{fill:url(#SVGID_00000111183612501061695750000009974247866093990799_);}
	.st31{fill:url(#SVGID_00000005987809074767092270000018198737009990570933_);}
	.st32{fill:#B1D4DD;}
	.st33{fill:url(#SVGID_00000063598738734015096300000001863732920953322148_);}
	.st34{fill:url(#SVGID_00000004524798630007944450000018093364275275114882_);}
	.st35{fill:url(#SVGID_00000025432002952590918190000011634848766815075463_);}
	.st36{fill:url(#SVGID_00000007409903717736853380000003872609016225559169_);}
	.st37{fill:url(#SVGID_00000142175334771532642640000008985255318045242281_);}
	.st38{fill:url(#SVGID_00000084522670661783978470000014472325594794074778_);}
	.st39{fill:url(#SVGID_00000108270340610627112820000012370514150931388076_);}
	.st40{fill:url(#SVGID_00000035513867964172766930000006699131947416088199_);}
	.st41{fill:url(#SVGID_00000045610516772569100280000012788601525790086789_);}
	.st42{fill:#FFD4EA;}
	.st43{fill:url(#SVGID_00000168076522429403761250000001562202899887335311_);}
	.st44{fill:url(#SVGID_00000055675998320390226140000002114009044516249501_);}
	.st45{fill:url(#SVGID_00000170960829020222381860000014424026519255347860_);}
	.st46{fill:url(#SVGID_00000057843150683151437690000009130043634539561126_);}
	.st47{fill:url(#SVGID_00000129194169329851180920000007119218338231682751_);}
	.st48{fill:url(#SVGID_00000066502220222478398790000013469662705189976724_);}
	.st49{fill:url(#SVGID_00000182519093321891429760000016944308918717962398_);}
	.st50{fill:url(#SVGID_00000141451217962205735260000005774436222866038404_);}
	.st51{fill:url(#SVGID_00000025407991797397803040000017231506358421562001_);}
	.st52{fill:url(#SVGID_00000022537811058573295050000012758014071113656203_);}
	.st53{fill:url(#SVGID_00000057123871731321578560000006561146299329798563_);}
	.st54{fill:url(#SVGID_00000133501537028468829530000003172529629633356704_);}
	.st55{fill:url(#SVGID_00000003095847835974566710000004117220366723014538_);}
	.st56{fill:url(#SVGID_00000080924468912429430410000017770588903010144167_);}
	.st57{fill:url(#SVGID_00000181081718724989001840000013348230811014111676_);}
	.st58{fill:url(#SVGID_00000000189746377718948600000015655820859755155631_);}
	.st59{fill:#CEE8EF;}
	.st60{opacity:0.4;fill:#FFFFFF;}
	.st61{fill:url(#SVGID_00000162317646839028040730000017840752896118448042_);}
	.st62{fill:url(#SVGID_00000069383143171030511440000018041075451705121173_);}
	.st63{fill:url(#SVGID_00000168090602123940007240000006475892624081967282_);}
	.st64{fill:url(#SVGID_00000120532549399052189130000001015350841791874702_);}
	.st65{fill:url(#SVGID_00000175286012321895331060000009803881875649679500_);}
	.st66{fill:url(#SVGID_00000018229701944406771660000016849832506841101471_);}
</style>
<g id="Check" class="st0">
	<g class="st1">
		<path class="st2" d="M205.3,245.7c-86.6,0-209.9-18.5-209.9-87c-0.7-55,90.9-28.4,116.2-77.4s24.1-71,112.1-71
			s214.7,41.2,214.7,115S291.9,245.7,205.3,245.7z"/>
		<linearGradient id="SVGID_1_" gradientUnits="userSpaceOnUse" x1="410.8814" y1="107.7546" x2="353.3913" y2="177.0889">
			<stop  offset="0" style="stop-color:#49E2A8"/>
			<stop  offset="1" style="stop-color:#00844E"/>
		</linearGradient>
		<path class="st3" d="M400.2,157.3c-15.8,19.2-40,20.5-45.9,20.5c-0.8,0-1.5-0.6-1.6-1.3c-1.1-5.8-4.4-29.8,11.4-49
			c15.8-19.2,40-20.5,45.9-20.5c0.8,0,1.5,0.6,1.6,1.3C412.7,114.2,416,138.1,400.2,157.3z"/>
		<g>
			<path class="st4" d="M360.1,170.1c-0.2,0-0.4-0.1-0.6-0.2c-0.4-0.4-0.5-1-0.1-1.4l40.8-49.4c0.4-0.4,1-0.5,1.4-0.1
				c0.4,0.4,0.5,1,0.1,1.4l-40.8,49.4C360.7,170,360.4,170.1,360.1,170.1z"/>
		</g>
		
			<linearGradient id="SVGID_00000155132252566016120720000000077838170153994645_" gradientUnits="userSpaceOnUse" x1="365.3044" y1="134.1456" x2="321.3883" y2="153.4421">
			<stop  offset="0" style="stop-color:#49E2A8"/>
			<stop  offset="1" style="stop-color:#00844E"/>
		</linearGradient>
		<path style="fill:url(#SVGID_00000155132252566016120720000000077838170153994645_);" d="M366,138.4c5.3,23.1-7.7,42.2-11.1,46.7
			c-0.5,0.6-1.3,0.8-2,0.5c-5-2.5-25.1-14-30.5-37.1c-5.3-23.1,7.7-42.2,11.1-46.7c0.5-0.6,1.3-0.8,2-0.5
			C340.6,103.8,360.6,115.3,366,138.4z"/>
		<g>
			<path class="st4" d="M351.6,176.6c-0.5,0-0.9-0.3-1-0.8l-13.8-59.9c-0.1-0.5,0.2-1.1,0.8-1.2c0.5-0.1,1.1,0.2,1.2,0.7l13.8,59.9
				c0.1,0.5-0.2,1.1-0.8,1.2C351.8,176.6,351.7,176.6,351.6,176.6z"/>
		</g>
		
			<linearGradient id="SVGID_00000085230516605913111850000001803840791797742233_" gradientUnits="userSpaceOnUse" x1="333.9292" y1="161.948" x2="387.8706" y2="239.4888">
			<stop  offset="0" style="stop-color:#E91C60"/>
			<stop  offset="1" style="stop-color:#6A1A6E"/>
		</linearGradient>
		<path style="fill:url(#SVGID_00000085230516605913111850000001803840791797742233_);" d="M392.8,172.7c0-2.1-1.6-3.9-3.7-4
			c-5.7-0.4-17.4-1-30.3-1c-13,0-24.6,0.6-30.3,1c-2.1,0.1-3.7,1.9-3.7,4c0.1,29.6,4.9,52.9,13.9,70.7c0.7,1.4,2.1,2.2,3.6,2.2h33.3
			c1.5,0,2.9-0.9,3.6-2.2C387.9,225.6,392.7,202.3,392.8,172.7z"/>
		
			<linearGradient id="SVGID_00000157268487090215553050000008407481518835596180_" gradientUnits="userSpaceOnUse" x1="124.5613" y1="5.6429" x2="314.6114" y2="195.6931">
			<stop  offset="0" style="stop-color:#0A3757"/>
			<stop  offset="1" style="stop-color:#0E0E1E"/>
		</linearGradient>
		<path style="fill:url(#SVGID_00000157268487090215553050000008407481518835596180_);" d="M336,36.3v127.4H97.9V36.3
			c0-5.3,4.3-9.7,9.7-9.7h218.8C331.7,26.7,336,31,336,36.3z"/>
		
			<linearGradient id="SVGID_00000098200785444693324720000006453304332639181723_" gradientUnits="userSpaceOnUse" x1="156.2474" y1="118.1165" x2="292.6522" y2="254.5213">
			<stop  offset="0" style="stop-color:#D5D5D5"/>
			<stop  offset="1" style="stop-color:#8D8D8D"/>
		</linearGradient>
		<path style="fill:url(#SVGID_00000098200785444693324720000006453304332639181723_);" d="M336,163.7v26.2c0,5.3-4.3,9.7-9.7,9.7
			H107.5c-5.3,0-9.7-4.3-9.7-9.7v-26.2H336z"/>
		
			<linearGradient id="SVGID_00000121279870423739317130000014354544362124317571_" gradientUnits="userSpaceOnUse" x1="216.9274" y1="36.323" x2="216.9274" y2="155.2633">
			<stop  offset="0" style="stop-color:#F2F9FD"/>
			<stop  offset="1" style="stop-color:#D2EDF3"/>
		</linearGradient>
		<path style="fill:url(#SVGID_00000121279870423739317130000014354544362124317571_);" d="M325.3,154H108.5c-0.6,0-1-0.4-1-1V37.3
			c0-0.6,0.4-1,1-1h216.8c0.6,0,1,0.4,1,1V153C326.3,153.6,325.9,154,325.3,154z"/>
		
			<linearGradient id="SVGID_00000026140543923423113180000005718377041423678094_" gradientUnits="userSpaceOnUse" x1="216.9274" y1="176.7535" x2="216.9274" y2="186.5191">
			<stop  offset="0" style="stop-color:#0A3757"/>
			<stop  offset="1" style="stop-color:#0E0E1E"/>
		</linearGradient>
		<circle style="fill:url(#SVGID_00000026140543923423113180000005718377041423678094_);" cx="216.9" cy="181.6" r="5.3"/>
		
			<linearGradient id="SVGID_00000021826485062438800320000000928982263567497914_" gradientUnits="userSpaceOnUse" x1="216.9274" y1="236.2784" x2="216.9274" y2="198.7017">
			<stop  offset="0" style="stop-color:#737373"/>
			<stop  offset="1" style="stop-color:#4D4C4D"/>
		</linearGradient>
		<polygon style="fill:url(#SVGID_00000021826485062438800320000000928982263567497914_);" points="246.6,237.1 187.3,237.1 
			191.1,199.6 242.7,199.6 		"/>
		
			<linearGradient id="SVGID_00000138562964397922924910000011283920087990657442_" gradientUnits="userSpaceOnUse" x1="117.95" y1="241.3801" x2="315.9048" y2="241.3801">
			<stop  offset="0" style="stop-color:#D5D5D5"/>
			<stop  offset="1" style="stop-color:#8D8D8D"/>
		</linearGradient>
		<path style="fill:url(#SVGID_00000138562964397922924910000011283920087990657442_);" d="M313.9,245.7H120c-1.1,0-2-0.9-2-2v-4.6
			c0-1.1,0.9-2,2-2h193.9c1.1,0,2,0.9,2,2v4.6C315.9,244.8,315,245.7,313.9,245.7z"/>
		
			<linearGradient id="SVGID_00000109736973569013042980000017855676811330547618_" gradientUnits="userSpaceOnUse" x1="125.231" y1="236.0751" x2="308.6237" y2="236.0751">
			<stop  offset="0" style="stop-color:#0A3757"/>
			<stop  offset="1" style="stop-color:#0E0E1E"/>
		</linearGradient>
		
			<rect x="125.2" y="235.1" style="fill:url(#SVGID_00000109736973569013042980000017855676811330547618_);" width="183.4" height="2"/>
		
			<linearGradient id="SVGID_00000152265546283434172810000000053677498314856112_" gradientUnits="userSpaceOnUse" x1="238.0253" y1="65.6171" x2="297.9399" y2="125.5317">
			<stop  offset="0" style="stop-color:#E91C60"/>
			<stop  offset="1" style="stop-color:#6A1A6E"/>
		</linearGradient>
		<path style="fill:url(#SVGID_00000152265546283434172810000000053677498314856112_);" d="M300.1,70.6v49.1c0,2.8-2.2,5-5,5H238
			V65.6h57.1C297.9,65.6,300.1,67.9,300.1,70.6z"/>
		<path class="st15" d="M238,65.6v59.1H17.8c-2.8,0-5-2.2-5-5V70.6c0-2.8,2.2-5,5-5H238z"/>
		
			<linearGradient id="SVGID_00000132064143159498088700000005887016403061662651_" gradientUnits="userSpaceOnUse" x1="238.986" y1="108.2756" x2="238.986" y2="146.2757">
			<stop  offset="0" style="stop-color:#0A3757"/>
			<stop  offset="1" style="stop-color:#0E0E1E"/>
		</linearGradient>
		
			<polygon style="fill:#FFFFFF;stroke:url(#SVGID_00000132064143159498088700000005887016403061662651_);stroke-width:2;stroke-linecap:round;stroke-linejoin:round;stroke-miterlimit:10;" points="
			225.3,109.3 231.4,139.8 236.7,132.6 245.8,145.3 252.7,140.3 243.6,127.6 252.2,125 		"/>
		<path class="st17" d="M286,108.6l-7.1-7.1c1.8-2.6,2.8-5.6,2.8-8.8c0-4.1-1.6-7.9-4.4-10.7c-5.9-5.9-15.6-5.9-21.5,0
			c-5.9,5.9-5.9,15.6,0,21.5c2.9,2.9,6.7,4.4,10.7,4.4c3.2,0,6.3-1,8.8-2.8l7.1,7.1c0.5,0.5,1.1,0.7,1.8,0.7s1.3-0.2,1.8-0.7
			C287,111.2,287,109.6,286,108.6z M259.3,99.9c-4-4-4-10.4,0-14.4c2-2,4.6-3,7.2-3s5.2,1,7.2,3v0c1.9,1.9,3,4.5,3,7.2
			s-1.1,5.3-3,7.2c-1.9,1.9-4.5,3-7.2,3S261.3,101.8,259.3,99.9z"/>
		
			<linearGradient id="SVGID_00000054967513677235063700000011260415044132544941_" gradientUnits="userSpaceOnUse" x1="370.9647" y1="243.0819" x2="406.9561" y2="243.0819">
			<stop  offset="0" style="stop-color:#0A3757"/>
			<stop  offset="1" style="stop-color:#0E0E1E"/>
		</linearGradient>
		<path style="fill:url(#SVGID_00000054967513677235063700000011260415044132544941_);" d="M402.4,245.6h-26.8
			c-2.5,0-4.6-2.1-4.6-4.6v-0.6h36v0.6C407,243.6,404.9,245.6,402.4,245.6z"/>
		
			<linearGradient id="SVGID_00000097464002275324625440000008514031284643326141_" gradientUnits="userSpaceOnUse" x1="379.7437" y1="229.9061" x2="399.1766" y2="249.339">
			<stop  offset="0" style="stop-color:#D5D5D5"/>
			<stop  offset="1" style="stop-color:#8D8D8D"/>
		</linearGradient>
		<path style="fill:url(#SVGID_00000097464002275324625440000008514031284643326141_);" d="M389,230.1c-10.9,0-18,4.6-18,10.4
			c0,0,0.5,3.7,18,3.7c17.5,0,18-3.7,18-3.7C407,234.8,399.9,230.1,389,230.1z"/>
		<g>
			
				<linearGradient id="SVGID_00000026133848695928985530000000503847765673219221_" gradientUnits="userSpaceOnUse" x1="31.4192" y1="91.9153" x2="121.2919" y2="108.1509">
				<stop  offset="0" style="stop-color:#E91C60"/>
				<stop  offset="1" style="stop-color:#6A1A6E"/>
			</linearGradient>
			<path style="fill:url(#SVGID_00000026133848695928985530000000503847765673219221_);" d="M45.9,91.9l-3.6,11.5h-4.7l-5.1-16.8
				h4.6l3.1,11.3l3.7-11.3h3.9l3.7,11.3l3.1-11.3h4.6l-5.1,16.8h-4.7L45.9,91.9z"/>
			
				<linearGradient id="SVGID_00000065757700108880432130000010853828718209935505_" gradientUnits="userSpaceOnUse" x1="32.3216" y1="86.9195" x2="122.1944" y2="103.1552">
				<stop  offset="0" style="stop-color:#E91C60"/>
				<stop  offset="1" style="stop-color:#6A1A6E"/>
			</linearGradient>
			<path style="fill:url(#SVGID_00000065757700108880432130000010853828718209935505_);" d="M74.5,91.9l-3.6,11.5h-4.7L61,86.6h4.6
				l3.1,11.3l3.7-11.3h3.9l3.7,11.3l3.1-11.3h4.6l-5.1,16.8H78L74.5,91.9z"/>
			
				<linearGradient id="SVGID_00000101785701784275862650000017670986815365796268_" gradientUnits="userSpaceOnUse" x1="33.2242" y1="81.9233" x2="123.097" y2="98.159">
				<stop  offset="0" style="stop-color:#E91C60"/>
				<stop  offset="1" style="stop-color:#6A1A6E"/>
			</linearGradient>
			<path style="fill:url(#SVGID_00000101785701784275862650000017670986815365796268_);" d="M103,91.9l-3.6,11.5h-4.7l-5.1-16.8h4.6
				l3.1,11.3l3.7-11.3h3.9l3.7,11.3l3.1-11.3h4.6l-5.1,16.8h-4.7L103,91.9z"/>
			
				<linearGradient id="SVGID_00000145023579490880902860000015934182042160112549_" gradientUnits="userSpaceOnUse" x1="32.6104" y1="84.9382" x2="122.4831" y2="101.1739">
				<stop  offset="0" style="stop-color:#E91C60"/>
				<stop  offset="1" style="stop-color:#6A1A6E"/>
			</linearGradient>
			<path style="fill:url(#SVGID_00000145023579490880902860000015934182042160112549_);" d="M119.2,97.8c1.5,0,2.8,1.3,2.8,2.8
				c0,1.5-1.3,2.8-2.8,2.8c-1.5,0-2.8-1.3-2.8-2.8C116.4,99.1,117.7,97.8,119.2,97.8z"/>
		</g>
	</g>
</g>
<g id="Buy">
	<g>
		<path class="st2" d="M2.4,131.7c-6.6,54.3,32.4,87.2,85.5,87.2s80.6,7.2,125.9,23.4s93.3,11.6,156-31.5s81.4-107.6,41.2-158
			S295.8,8,254.5,30.5S167.6,90.7,117,77.6S9,77.4,2.4,131.7z"/>
		<path class="st24" d="M426.9,141.4c-8.8,25.4-28.3,49.6-57.1,69.4c-62.7,43-110.6,47.7-156,31.5c-45.4-16.2-72.8-23.4-125.9-23.4
			c-44.6,0-79.3-23.2-85.3-62.7c13.3-8.6,29.1-13.6,46-13.6c31.6,0,59.2,17.3,74.1,43.2c10.7-4.8,22.5-7.5,35-7.5
			c19.5,0,37.4,6.6,51.8,17.7c7.4-7.8,17.7-12.7,29.2-12.7c9.7,0,18.6,3.5,25.6,9.2c11.9-13.4,29.1-21.8,48.3-21.8
			c10.4,0,20.2,2.5,28.9,6.9c13.4-23,38.2-38.5,66.5-38.5C414.4,139,420.8,139.8,426.9,141.4z"/>
		
			<linearGradient id="SVGID_00000035517369639053137480000012604067692499925662_" gradientUnits="userSpaceOnUse" x1="116.0101" y1="83.9604" x2="136.4595" y2="83.9604">
			<stop  offset="0" style="stop-color:#E91C60"/>
			<stop  offset="1" style="stop-color:#6A1A6E"/>
		</linearGradient>
		<circle style="fill:url(#SVGID_00000035517369639053137480000012604067692499925662_);" cx="126.2" cy="84" r="10.2"/>
		
			<linearGradient id="SVGID_00000114767477250123422510000002285381741204887465_" gradientUnits="userSpaceOnUse" x1="126.2348" y1="78.735" x2="126.2348" y2="89.5602">
			<stop  offset="0" style="stop-color:#737373"/>
			<stop  offset="1" style="stop-color:#4D4C4D"/>
		</linearGradient>
		<circle style="fill:url(#SVGID_00000114767477250123422510000002285381741204887465_);" cx="126.2" cy="84" r="5.4"/>
		<path class="st27" d="M240.6,172.4h-27.3v-34.6h25.3c1.1,0,2,0.9,2,2V172.4z"/>
		<polygon class="st28" points="231.1,137.8 231.1,153.4 230.1,152.4 229,153.4 228,152.4 227,153.4 225.9,152.4 224.9,153.4 
			223.9,152.4 222.8,153.4 222.8,137.8 		"/>
		<rect x="167.2" y="129.9" class="st29" width="46.1" height="42.5"/>
		<path class="st29" d="M295.9,172.4h-59.8v-16.7c0-1.1,0.9-2,2-2h55.8c1.1,0,2,0.9,2,2V172.4z"/>
		
			<linearGradient id="SVGID_00000121264767265676655640000007855206201546650768_" gradientUnits="userSpaceOnUse" x1="303.5879" y1="148.4345" x2="177.6063" y2="31.3249">
			<stop  offset="0" style="stop-color:#F2F9FD"/>
			<stop  offset="1" style="stop-color:#D2EDF3"/>
		</linearGradient>
		<path style="fill:url(#SVGID_00000121264767265676655640000007855206201546650768_);" d="M293.5,153.5l-135.5-39.2
			c-2.7-0.8-4.3-3.6-3.5-6.3l23.5-81.3c0.8-2.7,3.6-4.3,6.3-3.5l135.5,39.2c2.7,0.8,4.3,3.6,3.5,6.3L299.9,150
			C299.1,152.8,296.3,154.3,293.5,153.5z"/>
		
			<linearGradient id="SVGID_00000003100343674427959720000010499761389882553525_" gradientUnits="userSpaceOnUse" x1="176.452" y1="48.7291" x2="323.5847" y2="48.7291">
			<stop  offset="0" style="stop-color:#0A3757"/>
			<stop  offset="1" style="stop-color:#0E0E1E"/>
		</linearGradient>
		<path style="fill:url(#SVGID_00000003100343674427959720000010499761389882553525_);" d="M323.4,68.7l-1.6,5.7l-145.3-42l1.7-5.7
			c0.8-2.7,3.6-4.3,6.3-3.5l135.5,39.2C322.6,63.2,324.2,66,323.4,68.7z"/>
		<path class="st17" d="M285.7,94.3L179.5,63.6c-1.1-0.3-1.7-1.4-1.4-2.5l4.3-14.9c0.3-1.1,1.4-1.7,2.5-1.4l106.2,30.7L285.7,94.3z"
			/>
		<path class="st32" d="M288.6,114.1L183.3,83.6c-0.5-0.2-0.9-0.7-0.7-1.3l2-6.8c0.2-0.5,0.7-0.9,1.3-0.7l105.3,30.4
			c0.5,0.2,0.9,0.7,0.7,1.3l-2,6.8C289.7,113.9,289.1,114.2,288.6,114.1z"/>
		<path class="st32" d="M284.8,127.3L179.5,96.8c-0.5-0.2-0.9-0.7-0.7-1.3l2-6.8c0.2-0.5,0.7-0.9,1.3-0.7l105.3,30.4
			c0.5,0.2,0.9,0.7,0.7,1.3l-2,6.8C285.9,127.1,285.3,127.4,284.8,127.3z"/>
		<path class="st32" d="M281,140.5L175.7,110c-0.5-0.2-0.9-0.7-0.7-1.3l2-6.8c0.2-0.5,0.7-0.9,1.3-0.7l105.3,30.4
			c0.5,0.2,0.9,0.7,0.7,1.3l-2,6.8C282.1,140.3,281.5,140.6,281,140.5z"/>
		
			<linearGradient id="SVGID_00000130614950856148843670000002077557302521427889_" gradientUnits="userSpaceOnUse" x1="285.659" y1="87.3895" x2="309.4366" y2="87.3895">
			<stop  offset="0" style="stop-color:#E91C60"/>
			<stop  offset="1" style="stop-color:#6A1A6E"/>
		</linearGradient>
		<path style="fill:url(#SVGID_00000130614950856148843670000002077557302521427889_);" d="M309.4,82.9l-4.3,14.9
			c-0.3,1.1-1.4,1.7-2.5,1.4l-16.9-4.9l5.4-18.8l16.9,4.9C309,80.7,309.7,81.8,309.4,82.9z"/>
		<g>
			
				<linearGradient id="SVGID_00000078729345074777368530000012447640827545917086_" gradientUnits="userSpaceOnUse" x1="189.9619" y1="56.0461" x2="241.7736" y2="78.9356">
				<stop  offset="0" style="stop-color:#E91C60"/>
				<stop  offset="1" style="stop-color:#6A1A6E"/>
			</linearGradient>
			<path style="fill:url(#SVGID_00000078729345074777368530000012447640827545917086_);" d="M192,52.8l3.1,0.9
				c2.5,0.7,3.7,2.8,3,5.1c-0.7,2.4-2.8,3.4-5.3,2.7l-3.1-0.9L192,52.8z M193.3,60.1c1.6,0.4,2.8-0.4,3.2-1.7
				c0.4-1.4-0.1-2.7-1.8-3.2l-1.4-0.4l-1.4,4.9L193.3,60.1z"/>
			
				<linearGradient id="SVGID_00000015340460754029149270000008248518048817384835_" gradientUnits="userSpaceOnUse" x1="190.5494" y1="54.7164" x2="242.3615" y2="77.606">
				<stop  offset="0" style="stop-color:#E91C60"/>
				<stop  offset="1" style="stop-color:#6A1A6E"/>
			</linearGradient>
			<path style="fill:url(#SVGID_00000015340460754029149270000008248518048817384835_);" d="M204.2,56.2c2.4,0.7,3.6,2.9,2.9,5.3
				c-0.7,2.4-2.9,3.6-5.3,2.9c-2.4-0.7-3.6-2.9-2.9-5.2C199.7,56.7,201.9,55.5,204.2,56.2z M203.8,57.7c-1.4-0.4-2.7,0.4-3.1,1.9
				c-0.4,1.5,0.2,2.8,1.6,3.3c1.4,0.4,2.7-0.4,3.1-1.9C205.9,59.5,205.3,58.1,203.8,57.7z"/>
			
				<linearGradient id="SVGID_00000129919923860773597490000014285415435118760577_" gradientUnits="userSpaceOnUse" x1="191.0911" y1="53.4902" x2="242.9032" y2="76.3798">
				<stop  offset="0" style="stop-color:#E91C60"/>
				<stop  offset="1" style="stop-color:#6A1A6E"/>
			</linearGradient>
			<path style="fill:url(#SVGID_00000129919923860773597490000014285415435118760577_);" d="M215.7,62l-3.8,5l-0.7-0.2l-0.6-6.3
				l-1.6,5.7l-1.7-0.5l2.3-7.9l2.3,0.7l0.5,5.5l3.3-4.3l2.4,0.7l-2.3,7.9l-1.7-0.5L215.7,62z"/>
			
				<linearGradient id="SVGID_00000124857048140205965000000005415961986662092943_" gradientUnits="userSpaceOnUse" x1="191.5173" y1="52.5253" x2="243.3294" y2="75.4149">
				<stop  offset="0" style="stop-color:#E91C60"/>
				<stop  offset="1" style="stop-color:#6A1A6E"/>
			</linearGradient>
			<path style="fill:url(#SVGID_00000124857048140205965000000005415961986662092943_);" d="M222.7,68.7l-3.5-1l-0.9,1.2l-1.8-0.5
				l5.3-7l2.1,0.6l0.8,8.7l-1.8-0.5L222.7,68.7z M220.1,66.4l2.6,0.8l-0.3-4L220.1,66.4z"/>
			
				<linearGradient id="SVGID_00000178185873793084867320000006849101864521621429_" gradientUnits="userSpaceOnUse" x1="191.9219" y1="51.6095" x2="243.734" y2="74.4991">
				<stop  offset="0" style="stop-color:#E91C60"/>
				<stop  offset="1" style="stop-color:#6A1A6E"/>
			</linearGradient>
			<path style="fill:url(#SVGID_00000178185873793084867320000006849101864521621429_);" d="M227.6,63.1l1.7,0.5l-2.3,7.9l-1.7-0.5
				L227.6,63.1z"/>
			
				<linearGradient id="SVGID_00000167374385987031588760000013181629582723551650_" gradientUnits="userSpaceOnUse" x1="192.2555" y1="50.8544" x2="244.0677" y2="73.744">
				<stop  offset="0" style="stop-color:#E91C60"/>
				<stop  offset="1" style="stop-color:#6A1A6E"/>
			</linearGradient>
			<path style="fill:url(#SVGID_00000167374385987031588760000013181629582723551650_);" d="M231.8,67.1l-1.5,5.3l-1.7-0.5l2.3-7.9
				l1.7,0.5l2.2,6.1l1.5-5.1l1.7,0.5l-2.3,7.9l-1.6-0.5L231.8,67.1z"/>
			
				<linearGradient id="SVGID_00000020398047061363598020000013327043401634473878_" gradientUnits="userSpaceOnUse" x1="192.6913" y1="49.868" x2="244.5034" y2="72.7576">
				<stop  offset="0" style="stop-color:#E91C60"/>
				<stop  offset="1" style="stop-color:#6A1A6E"/>
			</linearGradient>
			<path style="fill:url(#SVGID_00000020398047061363598020000013327043401634473878_);" d="M238.3,72.1c0.4,0.7,1.1,1.5,2.2,1.8
				c0.9,0.3,1.5,0,1.6-0.5c0.2-0.6-0.5-1-1.3-1.5c-1.2-0.7-2.7-1.5-2.2-3.3c0.4-1.3,1.8-2,3.7-1.5c1.2,0.4,2.2,1,2.7,2l-1.3,1
				c-0.5-0.8-1.2-1.3-2-1.5c-0.8-0.2-1.2,0-1.4,0.5c-0.2,0.5,0.5,0.9,1.3,1.4c1.2,0.7,2.7,1.5,2.2,3.3c-0.4,1.4-1.8,2.2-3.9,1.6
				c-1.5-0.4-2.4-1.3-3-2.2L238.3,72.1z"/>
		</g>
		
			<linearGradient id="SVGID_00000075152710652545166390000012967592007645117374_" gradientUnits="userSpaceOnUse" x1="98.4259" y1="2.3424" x2="127.5298" y2="26.8751">
			<stop  offset="0" style="stop-color:#E91C60"/>
			<stop  offset="1" style="stop-color:#6A1A6E"/>
		</linearGradient>
		<path style="fill:url(#SVGID_00000075152710652545166390000012967592007645117374_);" d="M125.2,26.1l-25.7-1.7
			c-1.5-0.1-2.7-1.4-2.6-2.9l1-15.7c0.1-1.5,1.4-2.7,2.9-2.6l25.7,1.7c0.8,0.1,1.5,0.4,2,1l6.6,8.3c0.9,1.1,0.8,2.7-0.2,3.7
			l-7.6,7.4C126.7,25.9,126,26.1,125.2,26.1z"/>
		<g>
			<path class="st42" d="M184.3,31.2c-0.1,0-0.3,0-0.4-0.1c-4.5-1.4-7.2-4.9-10.1-8.7c-3.5-4.6-7.1-9.3-14.3-10.5
				c-6.2-1-9.6,0.6-13.6,2.6c-4.2,2.1-9,4.4-17.5,3c-0.8-0.1-1.4-0.9-1.2-1.7c0.1-0.8,0.9-1.4,1.7-1.2c7.5,1.3,11.5-0.7,15.6-2.7
				c4.1-2,8.2-4,15.4-2.8c8.4,1.4,12.5,6.8,16.2,11.6c2.7,3.5,5,6.6,8.5,7.7c0.8,0.2,1.2,1.1,1,1.9C185.6,30.8,185,31.2,184.3,31.2z
				"/>
		</g>
		<g>
			
				<linearGradient id="SVGID_00000092428486227474391050000016483907888784595845_" gradientUnits="userSpaceOnUse" x1="179.9107" y1="211.799" x2="179.9107" y2="228.1061">
				<stop  offset="0" style="stop-color:#737373"/>
				<stop  offset="1" style="stop-color:#4D4C4D"/>
			</linearGradient>
			<path style="fill:url(#SVGID_00000092428486227474391050000016483907888784595845_);" d="M179.9,228.2c-1.4,0-2.5-1.1-2.5-2.5
				v-11.5c0-1.4,1.1-2.5,2.5-2.5s2.5,1.1,2.5,2.5v11.5C182.4,227.1,181.3,228.2,179.9,228.2z"/>
		</g>
		<g>
			
				<linearGradient id="SVGID_00000151520452207261673220000007462428360585186722_" gradientUnits="userSpaceOnUse" x1="289.0386" y1="211.9972" x2="289.0386" y2="228.1071">
				<stop  offset="0" style="stop-color:#737373"/>
				<stop  offset="1" style="stop-color:#4D4C4D"/>
			</linearGradient>
			<path style="fill:url(#SVGID_00000151520452207261673220000007462428360585186722_);" d="M289,228.2c-1.4,0-2.5-1.1-2.5-2.5
				v-11.3c0-1.4,1.1-2.5,2.5-2.5s2.5,1.1,2.5,2.5v11.3C291.5,227.1,290.4,228.2,289,228.2z"/>
		</g>
		
			<linearGradient id="SVGID_00000003810463789800731860000009959960287108481443_" gradientUnits="userSpaceOnUse" x1="165.5946" y1="238.4571" x2="194.2261" y2="238.4571">
			<stop  offset="0" style="stop-color:#E91C60"/>
			<stop  offset="1" style="stop-color:#6A1A6E"/>
		</linearGradient>
		<circle style="fill:url(#SVGID_00000003810463789800731860000009959960287108481443_);" cx="179.9" cy="238.5" r="14.3"/>
		
			<linearGradient id="SVGID_00000127031510221665724070000013622814586574991786_" gradientUnits="userSpaceOnUse" x1="274.7229" y1="238.4571" x2="303.3544" y2="238.4571">
			<stop  offset="0" style="stop-color:#E91C60"/>
			<stop  offset="1" style="stop-color:#6A1A6E"/>
		</linearGradient>
		<circle style="fill:url(#SVGID_00000127031510221665724070000013622814586574991786_);" cx="289" cy="238.5" r="14.3"/>
		
			<linearGradient id="SVGID_00000114048031217442777680000010934348314180600736_" gradientUnits="userSpaceOnUse" x1="179.9104" y1="233.2317" x2="179.9104" y2="244.0569">
			<stop  offset="0" style="stop-color:#D5D5D5"/>
			<stop  offset="1" style="stop-color:#8D8D8D"/>
		</linearGradient>
		<circle style="fill:url(#SVGID_00000114048031217442777680000010934348314180600736_);" cx="179.9" cy="238.5" r="5.4"/>
		
			<linearGradient id="SVGID_00000054224653270789798910000010173465798603434678_" gradientUnits="userSpaceOnUse" x1="289.0386" y1="233.2317" x2="289.0386" y2="244.0569">
			<stop  offset="0" style="stop-color:#D5D5D5"/>
			<stop  offset="1" style="stop-color:#8D8D8D"/>
		</linearGradient>
		<circle style="fill:url(#SVGID_00000054224653270789798910000010173465798603434678_);" cx="289" cy="238.5" r="5.4"/>
		<polygon class="st28" points="194.4,129.9 194.4,139.8 193.3,138.9 192.3,139.8 191.3,138.9 190.3,139.8 189.2,138.9 188.2,139.8 
			187.2,138.9 186.1,139.8 186.1,129.9 		"/>
		<polygon class="st28" points="270.1,153.7 270.1,163.7 269.1,162.8 268.1,163.7 267,162.8 266,163.7 265,162.8 263.9,163.7 
			262.9,162.8 261.9,163.7 261.9,153.7 		"/>
		
			<linearGradient id="SVGID_00000072265805430833938490000016936418400585874583_" gradientUnits="userSpaceOnUse" x1="151.0554" y1="96.3664" x2="296.3778" y2="168.0517">
			<stop  offset="0" style="stop-color:#737373"/>
			<stop  offset="1" style="stop-color:#4D4C4D"/>
		</linearGradient>
		<path style="fill:url(#SVGID_00000072265805430833938490000016936418400585874583_);" d="M310.8,125.5v-4H291V98.1h-4v23.4h-24.6
			V98.1h-4v23.4h-24.6V98.1h-4v23.4h-24.6V98.1h-4v23.4h-24.6V98.1h-4v23.4H153v4h19.8v21.4h-12.9v4h12.9v23.4h4v-23.4h24.6v23.4h4
			v-23.4h24.6v23.4h4v-23.4h24.6v23.4h4v-23.4H287v23.4h4v-23.4H304v-4H291v-21.4H310.8z M176.7,146.9v-21.4h24.6v21.4H176.7z
			 M205.3,146.9v-21.4h24.6v21.4H205.3z M233.9,146.9v-21.4h24.6v21.4H233.9z M287,146.9h-24.6v-21.4H287V146.9z"/>
		
			<linearGradient id="SVGID_00000174590623934908311280000018036152331967572609_" gradientUnits="userSpaceOnUse" x1="123.7349" y1="148.5173" x2="320.1131" y2="148.5173">
			<stop  offset="0" style="stop-color:#D5D5D5"/>
			<stop  offset="1" style="stop-color:#8D8D8D"/>
		</linearGradient>
		<path style="fill:url(#SVGID_00000174590623934908311280000018036152331967572609_);" d="M163.2,176.8h3.4h130.5
			c1.1,0,2.1-0.8,2.4-1.9L320,98.8c0.2-0.8,0-1.6-0.4-2.2c-0.5-0.6-1.2-1-2-1H148c-2.9-8.4-10.8-14.2-19.8-14.2h-2
			c-1.4,0-2.5,1.1-2.5,2.5s1.1,2.5,2.5,2.5h2c7.2,0,13.5,4.8,15.4,11.8l0.1,0.5c0,0,0,0,0,0l19.6,73.1h-0.1c-7,0-12.7,5.7-12.7,12.7
			v18.3c0,7,5.7,12.7,12.7,12.7h147.6c1.4,0,2.5-1.1,2.5-2.5s-1.1-2.5-2.5-2.5H163.2c-4.3,0-7.7-3.5-7.7-7.7v-18.3
			C155.5,180.3,159,176.8,163.2,176.8z M314.4,100.6l-19.1,71.2H168.5l-19.1-71.2H314.4z"/>
		<path class="st15" d="M109.8,8c1.9,0.1,3.1,1.6,3,3.3c-0.1,1.7-1.4,3-3.4,2.9c-1.9-0.1-3.1-1.5-3-3.3C106.6,9.2,107.9,7.9,109.8,8
			z M109.8,9.5c-0.8-0.1-1.5,0.5-1.6,1.6c-0.1,1,0.5,1.6,1.4,1.7c0.9,0.1,1.5-0.5,1.6-1.5C111.2,10.2,110.6,9.5,109.8,9.5z
			 M116.6,8.6l1.4,0.1l-8.8,11.9l-1.4-0.1L116.6,8.6z M116.3,15.1c1.9,0.1,3.1,1.6,3,3.3c-0.1,1.7-1.5,3-3.4,2.9
			c-1.9-0.1-3.1-1.5-2.9-3.3C113,16.3,114.4,15,116.3,15.1z M116.2,16.6c-0.9-0.1-1.5,0.5-1.6,1.6c-0.1,1,0.5,1.7,1.4,1.7
			c0.9,0.1,1.5-0.5,1.6-1.5C117.6,17.3,117,16.6,116.2,16.6z"/>
	</g>
</g>
<g id="Secure" class="st0">
	<g class="st1">
		<path class="st2" d="M14.4,91.3c9,36.4,36.2,40.8,75.6,86.6s64,67.7,121.8,67.7s78-22.6,128.5-50.1s79.5-30.9,80.2-73.7
			S336.7,80,272.6,72.4s-87.4-62.1-154-62.1S5.5,55,14.4,91.3z"/>
		<g>
			
				<linearGradient id="SVGID_00000083789649874904666550000011730397755654397598_" gradientUnits="userSpaceOnUse" x1="52.4935" y1="153.4489" x2="124.8885" y2="187.251">
				<stop  offset="0" style="stop-color:#FFC600"/>
				<stop  offset="1" style="stop-color:#F6921E"/>
			</linearGradient>
			<path style="fill:url(#SVGID_00000083789649874904666550000011730397755654397598_);" d="M93.8,108.2l-28.2,60.5
				c-12.4-1-24.6,5.6-30.1,17.5c-7.1,15.2-0.5,33.3,14.8,40.4s33.3,0.5,40.4-14.8c5.5-11.9,2.7-25.5-6-34.3l1.9-4l-4.8-7.1l8.6-0.9
				l1.9-4l-1.2-5.5l4.9-2.6l-4.8-7.1l8.6-0.9l-1.2-5.5l4.9-2.6l3.8-8.1l0-8.1l5.6-4l-5.7-12.5L93.8,108.2z M64.1,213.7
				c-1.6,3.5-5.9,5.1-9.4,3.4c-3.5-1.6-5.1-5.9-3.4-9.4c1.7-3.6,5.9-5.1,9.4-3.4C64.2,205.9,65.8,210.1,64.1,213.7z"/>
			
				<linearGradient id="SVGID_00000150782485874235185880000012360874196678513308_" gradientUnits="userSpaceOnUse" x1="81.1103" y1="135.3916" x2="87.9861" y2="138.6299">
				<stop  offset="0" style="stop-color:#FFC600"/>
				<stop  offset="1" style="stop-color:#FF7900"/>
			</linearGradient>
			<path style="fill:url(#SVGID_00000150782485874235185880000012360874196678513308_);" d="M102.3,105.9l-29.9,64.3
				c-1-0.3-2-0.6-2.9-0.8l29.1-62.4L102.3,105.9z"/>
			
				<linearGradient id="SVGID_00000065790303855973810230000001952141372586589579_" gradientUnits="userSpaceOnUse" x1="32.0563" y1="196.7091" x2="67.7215" y2="216.1387">
				<stop  offset="0" style="stop-color:#FFC600"/>
				<stop  offset="1" style="stop-color:#FF7900"/>
			</linearGradient>
			<path style="fill:url(#SVGID_00000065790303855973810230000001952141372586589579_);" d="M48.2,206.3c-2.4,5.2-0.2,11.5,5.1,13.9
				c5.2,2.4,11.5,0.2,13.9-5.1c2.4-5.2,0.2-11.5-5.1-13.9C56.9,198.7,50.6,201,48.2,206.3z M64.1,213.7c-1.6,3.5-5.9,5.1-9.4,3.4
				c-3.5-1.6-5.1-5.9-3.4-9.4c1.7-3.6,5.9-5.1,9.4-3.4C64.2,205.9,65.8,210.1,64.1,213.7z"/>
		</g>
		
			<linearGradient id="SVGID_00000041283635112172615220000013150094228570904475_" gradientUnits="userSpaceOnUse" x1="216.9291" y1="63.3917" x2="216.9291" y2="218.7664">
			<stop  offset="0" style="stop-color:#D5D5D5"/>
			<stop  offset="1" style="stop-color:#8D8D8D"/>
		</linearGradient>
		<path style="fill:url(#SVGID_00000041283635112172615220000013150094228570904475_);" d="M331.5,218.8H102.4V71.2
			c0-4.3,3.5-7.8,7.8-7.8h213.4c4.3,0,7.8,3.5,7.8,7.8V218.8z"/>
		
			<linearGradient id="SVGID_00000056389614125500146840000008470242872435350459_" gradientUnits="userSpaceOnUse" x1="216.9291" y1="89.0987" x2="216.9291" y2="257.3167">
			<stop  offset="0" style="stop-color:#F2F9FD"/>
			<stop  offset="1" style="stop-color:#D2EDF3"/>
		</linearGradient>
		<path style="fill:url(#SVGID_00000056389614125500146840000008470242872435350459_);" d="M320.1,212.1H113.8
			c-2.6,0-4.7-2.1-4.7-4.7V74.8c0-2.6,2.1-4.7,4.7-4.7h206.3c2.6,0,4.7,2.1,4.7,4.7v132.6C324.8,210,322.7,212.1,320.1,212.1z"/>
		
			<linearGradient id="SVGID_00000033364339903617076630000000620442752519821489_" gradientUnits="userSpaceOnUse" x1="216.9267" y1="69.7579" x2="216.9267" y2="97.1962">
			<stop  offset="0" style="stop-color:#0A3757"/>
			<stop  offset="1" style="stop-color:#0E0E1E"/>
		</linearGradient>
		<path style="fill:url(#SVGID_00000033364339903617076630000000620442752519821489_);" d="M324.8,74.8v15.9H109.1V74.8
			c0-2.6,2.1-4.7,4.7-4.7h206.3C322.7,70.1,324.8,72.2,324.8,74.8z"/>
		
			<linearGradient id="SVGID_00000032623509451642884340000012141415811099757204_" gradientUnits="userSpaceOnUse" x1="355.8138" y1="224.642" x2="76.6314" y2="224.642">
			<stop  offset="0" style="stop-color:#D5D5D5"/>
			<stop  offset="1" style="stop-color:#8D8D8D"/>
		</linearGradient>
		<path style="fill:url(#SVGID_00000032623509451642884340000012141415811099757204_);" d="M353.9,230.5H80c-1.8,0-3.3-1.5-3.3-3.3
			V222c0-1.8,1.5-3.3,3.3-3.3h273.9c1.8,0,3.3,1.5,3.3,3.3v5.2C357.1,229.1,355.7,230.5,353.9,230.5z"/>
		
			<linearGradient id="SVGID_00000094598815629899150600000010163230691781332405_" gradientUnits="userSpaceOnUse" x1="216.9291" y1="218.4383" x2="216.9291" y2="223.7883">
			<stop  offset="0" style="stop-color:#737373"/>
			<stop  offset="1" style="stop-color:#4D4C4D"/>
		</linearGradient>
		<path style="fill:url(#SVGID_00000094598815629899150600000010163230691781332405_);" d="M226.6,223.5h-19.3
			c-2.6,0-4.7-2.1-4.7-4.7v0h28.7v0C231.3,221.4,229.2,223.5,226.6,223.5z"/>
		<path class="st59" d="M225.6,121.5h-99.1c-1.1,0-2-0.9-2-2v-17.6c0-1.1,0.9-2,2-2h99.1c1.1,0,2,0.9,2,2v17.6
			C227.6,120.6,226.7,121.5,225.6,121.5z"/>
		<path class="st32" d="M225.6,137.9h-99.1c-1.1,0-2-0.9-2-2v-7.1c0-1.1,0.9-2,2-2h99.1c1.1,0,2,0.9,2,2v7.1
			C227.6,137,226.7,137.9,225.6,137.9z"/>
		<path class="st60" d="M287.6,83.5h-160c-1.7,0-3.1-1.4-3.1-3.1v0c0-1.7,1.4-3.1,3.1-3.1h160c1.7,0,3.1,1.4,3.1,3.1v0
			C290.8,82.1,289.4,83.5,287.6,83.5z"/>
		<path class="st60" d="M303.3,83.5h-3.4c-1.7,0-3-1.3-3-3v-0.3c0-1.7,1.3-3,3-3h3.4c1.7,0,3,1.3,3,3v0.3
			C306.3,82.2,304.9,83.5,303.3,83.5z"/>
		<path class="st59" d="M304.3,201.9H126.5c-1.1,0-2-0.9-2-2v-50.5c0-1.1,0.9-2,2-2h177.8c1.1,0,2,0.9,2,2v50.5
			C306.3,201,305.4,201.9,304.3,201.9z"/>
		
			<linearGradient id="SVGID_00000099648653353213249380000002471150747250656645_" gradientUnits="userSpaceOnUse" x1="277.0348" y1="101.6099" x2="304.1165" y2="128.6916">
			<stop  offset="0" style="stop-color:#49E2A8"/>
			<stop  offset="1" style="stop-color:#00844E"/>
		</linearGradient>
		<circle style="fill:url(#SVGID_00000099648653353213249380000002471150747250656645_);" cx="290.8" cy="115.3" r="15.5"/>
		<g>
			
				<linearGradient id="SVGID_00000158029220180976805980000005373910109732702864_" gradientUnits="userSpaceOnUse" x1="216.9292" y1="213.0921" x2="216.9292" y2="68.8338">
				<stop  offset="0" style="stop-color:#0A3757"/>
				<stop  offset="1" style="stop-color:#0E0E1E"/>
			</linearGradient>
			<path style="fill:url(#SVGID_00000158029220180976805980000005373910109732702864_);" d="M320.1,213.1H113.8
				c-3.1,0-5.7-2.6-5.7-5.7V74.8c0-3.1,2.6-5.7,5.7-5.7h206.3c3.1,0,5.7,2.6,5.7,5.7v132.6C325.8,210.5,323.2,213.1,320.1,213.1z
				 M113.8,71.1c-2,0-3.7,1.7-3.7,3.7v132.6c0,2,1.7,3.7,3.7,3.7h206.3c2,0,3.7-1.7,3.7-3.7V74.8c0-2-1.7-3.7-3.7-3.7H113.8z"/>
		</g>
		<path class="st15" d="M293.6,67.5l-14.2-30.7c-31.4,14-62.5-11.2-62.5-11.2s-31.1,25.2-62.5,11.2l-14.2,30.7
			c0,0,12.2,6.9,14.2,22.9c2,16-7.1,45.6,7.3,61c14.4,15.4,44.4,21.1,55.2,33.4c10.8-12.2,40.8-17.9,55.2-33.4
			c14.4-15.4,5.3-45.1,7.3-61C281.3,74.4,293.6,67.5,293.6,67.5z"/>
		
			<linearGradient id="SVGID_00000116914592987147639920000008611282347961782656_" gradientUnits="userSpaceOnUse" x1="191.6903" y1="92.7151" x2="241.4135" y2="142.4383">
			<stop  offset="0" style="stop-color:#E91C60"/>
			<stop  offset="1" style="stop-color:#6A1A6E"/>
		</linearGradient>
		<path style="fill:url(#SVGID_00000116914592987147639920000008611282347961782656_);" d="M240.8,140.5h-47.7
			c-1.9,0-3.5-1.6-3.5-3.5V99c0-1.9,1.6-3.5,3.5-3.5h47.7c1.9,0,3.5,1.6,3.5,3.5v38C244.3,138.9,242.7,140.5,240.8,140.5z"/>
		<g>
			
				<linearGradient id="SVGID_00000082351753449738269490000001669644884216531620_" gradientUnits="userSpaceOnUse" x1="204.6117" y1="74.2044" x2="228.9701" y2="98.5628">
				<stop  offset="0" style="stop-color:#D5D5D5"/>
				<stop  offset="1" style="stop-color:#8D8D8D"/>
			</linearGradient>
			<path style="fill:url(#SVGID_00000082351753449738269490000001669644884216531620_);" d="M232,95.5h-7V83.8
				c0-4.5-3.6-8.1-8.1-8.1s-8.1,3.6-8.1,8.1v11.6h-7V83.8c0-8.3,6.8-15.1,15.1-15.1S232,75.5,232,83.8V95.5z"/>
		</g>
		
			<linearGradient id="SVGID_00000068658879085143696660000007217869038910527629_" gradientUnits="userSpaceOnUse" x1="216.9292" y1="128.2791" x2="216.9292" y2="108.1149">
			<stop  offset="0" style="stop-color:#0A3757"/>
			<stop  offset="1" style="stop-color:#0E0E1E"/>
		</linearGradient>
		<path style="fill:url(#SVGID_00000068658879085143696660000007217869038910527629_);" d="M222.5,113.3c0-3.3-2.9-5.9-6.2-5.6
			c-2.5,0.3-4.5,2.2-4.9,4.7c-0.4,2.5,0.9,4.7,2.9,5.8v7.3c0,1.5,1.2,2.7,2.7,2.7l0,0c1.5,0,2.7-1.2,2.7-2.7v-7.3
			C221.3,117.3,222.5,115.4,222.5,113.3z"/>
		
			<linearGradient id="SVGID_00000107583719883949236660000004352260716786050719_" gradientUnits="userSpaceOnUse" x1="158.6525" y1="32.547" x2="276.117" y2="149.3017">
			<stop  offset="0" style="stop-color:#E91C60"/>
			<stop  offset="1" style="stop-color:#6A1A6E"/>
		</linearGradient>
		<path style="fill:url(#SVGID_00000107583719883949236660000004352260716786050719_);" d="M216.9,43.6C226.3,49,241.6,56,259.2,56
			c4.1,0,8.1-0.4,12-1.1l4.1,8.8c-4.7,5.5-9.5,13.7-10.8,24.8c-0.8,6.4-0.3,13.4,0.3,20.8c0.8,11.6,1.9,26-3.6,31.8
			c-5.5,5.9-15.8,10.6-25.7,15.2c-6.5,3-12.9,5.9-18.5,9.3c-5.6-3.4-11.9-6.3-18.5-9.3c-9.9-4.5-20.2-9.3-25.7-15.2
			c-5.5-5.9-4.4-20.3-3.6-31.8c0.5-7.4,1-14.4,0.3-20.8c-1.4-11.1-6.1-19.3-10.8-24.8l4.1-8.8c3.9,0.7,7.9,1.1,12,1.1
			C192.2,56,207.6,49,216.9,43.6 M216.9,25.6c0,0-19,15.4-42.3,15.4c-6.5,0-13.3-1.2-20.1-4.2l-14.2,30.7c0,0,12.2,6.9,14.2,22.9
			c2,16-7.1,45.6,7.3,61c14.4,15.4,44.4,21.1,55.2,33.4c10.8-12.2,40.8-17.9,55.2-33.4c14.4-15.4,5.3-45.1,7.3-61
			c2-16,14.2-22.9,14.2-22.9l-14.2-30.7c-6.8,3.1-13.7,4.2-20.1,4.2C235.9,41,216.9,25.6,216.9,25.6L216.9,25.6z"/>
	</g>
</g>
</svg>
