<?xml version="1.0" encoding="utf-8"?>
<!-- Generator: Adobe Illustrator 26.0.3, SVG Export Plug-In . SVG Version: 6.00 Build 0)  -->
<svg version="1.1" xmlns="http://www.w3.org/2000/svg" xmlns:xlink="http://www.w3.org/1999/xlink" x="0px" y="0px"
	 viewBox="0 0 448.7 240.1" style="enable-background:new 0 0 448.7 240.1;" xml:space="preserve">
<style type="text/css">
	.st0{fill:#FFD9F4;}
	.st1{fill:url(#SVGID_1_);}
	.st2{fill:#00844E;}
	.st3{fill:url(#SVGID_00000010310803502422572370000003548481962793503138_);}
	.st4{fill:url(#SVGID_00000142144551757938290570000010689223583820924046_);}
	.st5{fill:url(#SVGID_00000042707451216894817800000016459633996083674282_);}
	.st6{fill:url(#SVGID_00000054243412787106832080000006401320894239807380_);}
	.st7{fill:url(#SVGID_00000042729669635554333600000010705439146179911064_);}
	.st8{fill:url(#SVGID_00000139993187676885481750000002254880769199301504_);}
	.st9{fill:url(#SVGID_00000060028403189280073770000010063804757027727289_);}
	.st10{fill:url(#SVGID_00000082356933683984255770000011964440203837947266_);}
	.st11{fill:url(#SVGID_00000043442672963217027780000005250869168686047652_);}
	.st12{fill:url(#SVGID_00000176018272939609074100000010187400625448483761_);}
	.st13{fill:#FFF3F8;}
	.st14{fill:#FFFFFF;}
	.st15{fill:url(#SVGID_00000075161598746920348690000012016563508001488032_);}
	.st16{fill:url(#SVGID_00000106838873637497715890000013572467055768079251_);}
	.st17{fill:url(#SVGID_00000023261906563786679760000012291140563677631658_);}
	.st18{fill:url(#SVGID_00000096059186005004115180000012274962456013939347_);}
	.st19{fill:url(#SVGID_00000057139804716364800120000001337562265040010628_);}
	.st20{fill:url(#SVGID_00000039105422925626926750000005962516428888903347_);}
	.st21{fill:url(#SVGID_00000151524195464164087040000013961215322710714023_);}
	.st22{display:none;}
	.st23{display:inline;}
	.st24{fill:#FFC0E3;}
	.st25{fill:url(#SVGID_00000161600572085207253680000009016984792473228684_);}
	.st26{fill:url(#SVGID_00000088818338285300657660000005037662865418664084_);}
	.st27{fill:#D89E50;}
	.st28{opacity:0.5;fill:#FFE3BD;}
	.st29{fill:#F2BF75;}
	.st30{fill:url(#SVGID_00000089534459799456684640000012359944970958409884_);}
	.st31{fill:url(#SVGID_00000093878669945955741080000004438270405165535666_);}
	.st32{fill:#B1D4DD;}
	.st33{fill:url(#SVGID_00000065047065693820860620000015694535063157586574_);}
	.st34{fill:url(#SVGID_00000031167279013150580560000016545526009816880825_);}
	.st35{fill:url(#SVGID_00000028322472792811691810000016358362589704761996_);}
	.st36{fill:url(#SVGID_00000026134834145784140450000000059818733990485666_);}
	.st37{fill:url(#SVGID_00000158732880215808564160000001188955856973538979_);}
	.st38{fill:url(#SVGID_00000066501146453461106510000001895372626321550521_);}
	.st39{fill:url(#SVGID_00000181088840426529982000000001698348037726956960_);}
	.st40{fill:url(#SVGID_00000142874108449797194830000004509534996915042494_);}
	.st41{fill:url(#SVGID_00000042713103420265326520000002029416431265633953_);}
	.st42{fill:#FFD4EA;}
	.st43{fill:url(#SVGID_00000183227941695469068380000006488022085638012605_);}
	.st44{fill:url(#SVGID_00000150795017640246429230000017419844853641222079_);}
	.st45{fill:url(#SVGID_00000106142980964602700180000000599010882219847822_);}
	.st46{fill:url(#SVGID_00000013878005447740813840000013293436380139595667_);}
	.st47{fill:url(#SVGID_00000101083780809224245730000010570870045063005375_);}
	.st48{fill:url(#SVGID_00000114038252097202824750000000188757365356716973_);}
	.st49{fill:url(#SVGID_00000097492594870098754220000003681265531468713619_);}
	.st50{fill:url(#SVGID_00000091716969229537470570000010085742359429239170_);}
	.st51{fill:url(#SVGID_00000097479027462832167840000016208909247289996198_);}
	.st52{fill:url(#SVGID_00000073708579531288289530000014056707251576774048_);}
	.st53{fill:url(#SVGID_00000138574776346065108630000010189686402586670260_);}
	.st54{fill:url(#SVGID_00000031909258591778262680000012305009921718275994_);}
	.st55{fill:url(#SVGID_00000118363891094824979880000015496187022357904259_);}
	.st56{fill:url(#SVGID_00000106844570692989714360000001311282707731681715_);}
	.st57{fill:url(#SVGID_00000004506160611111493400000010120822918057972608_);}
	.st58{fill:url(#SVGID_00000136410545507004995580000011031192803174247568_);}
	.st59{fill:#CEE8EF;}
	.st60{opacity:0.4;fill:#FFFFFF;}
	.st61{fill:url(#SVGID_00000094594325125646488840000008345922936585004169_);}
	.st62{fill:url(#SVGID_00000107547568073891700790000013278466431267570846_);}
	.st63{fill:url(#SVGID_00000099630044906247742480000001133714044199865523_);}
	.st64{fill:url(#SVGID_00000018202217307311353870000015486584188497921172_);}
	.st65{fill:url(#SVGID_00000099636543921556889480000017335014005752629427_);}
	.st66{fill:url(#SVGID_00000010298563660259183540000009048751495884641668_);}
</style>
<g id="Check">
	<path class="st0" d="M212.7,237.7c-86.6,0-209.9-18.5-209.9-87c-0.7-55,90.9-28.4,116.2-77.4s24.1-71,112.1-71
		s214.7,41.2,214.7,115S299.3,237.7,212.7,237.7z"/>
	<linearGradient id="SVGID_1_" gradientUnits="userSpaceOnUse" x1="418.3038" y1="99.8097" x2="360.8136" y2="169.144">
		<stop  offset="0" style="stop-color:#49E2A8"/>
		<stop  offset="1" style="stop-color:#00844E"/>
	</linearGradient>
	<path class="st1" d="M407.6,149.4c-15.8,19.2-40,20.5-45.9,20.5c-0.8,0-1.5-0.6-1.6-1.3c-1.1-5.8-4.4-29.8,11.4-49
		c15.8-19.2,40-20.5,45.9-20.5c0.8,0,1.5,0.6,1.6,1.3C420.1,106.2,423.4,130.2,407.6,149.4z"/>
	<g>
		<path class="st2" d="M367.5,162.2c-0.2,0-0.4-0.1-0.6-0.2c-0.4-0.4-0.5-1-0.1-1.4l40.8-49.4c0.4-0.4,1-0.5,1.4-0.1
			c0.4,0.4,0.5,1,0.1,1.4l-40.8,49.4C368.1,162,367.8,162.2,367.5,162.2z"/>
	</g>
	
		<linearGradient id="SVGID_00000029738291731998794420000010607586931958788019_" gradientUnits="userSpaceOnUse" x1="372.7268" y1="126.2007" x2="328.8107" y2="145.4972">
		<stop  offset="0" style="stop-color:#49E2A8"/>
		<stop  offset="1" style="stop-color:#00844E"/>
	</linearGradient>
	<path style="fill:url(#SVGID_00000029738291731998794420000010607586931958788019_);" d="M373.4,130.4c5.3,23.1-7.7,42.2-11.1,46.7
		c-0.5,0.6-1.3,0.8-2,0.5c-5-2.5-25.1-14-30.5-37.1s7.7-42.2,11.1-46.7c0.5-0.6,1.3-0.8,2-0.5C348,95.9,368.1,107.3,373.4,130.4z"/>
	<g>
		<path class="st2" d="M359.1,168.7c-0.5,0-0.9-0.3-1-0.8L344.3,108c-0.1-0.5,0.2-1.1,0.8-1.2c0.5-0.1,1.1,0.2,1.2,0.7l13.8,59.9
			c0.1,0.5-0.2,1.1-0.8,1.2C359.2,168.7,359.1,168.7,359.1,168.7z"/>
	</g>
	
		<linearGradient id="SVGID_00000106149142971835495750000016138157468736577430_" gradientUnits="userSpaceOnUse" x1="341.3515" y1="154.0031" x2="395.2929" y2="231.5439">
		<stop  offset="0" style="stop-color:#E91C60"/>
		<stop  offset="1" style="stop-color:#6A1A6E"/>
	</linearGradient>
	<path style="fill:url(#SVGID_00000106149142971835495750000016138157468736577430_);" d="M400.2,164.8c0-2.1-1.6-3.9-3.7-4
		c-5.7-0.4-17.4-1-30.3-1c-13,0-24.6,0.6-30.3,1c-2.1,0.1-3.7,1.9-3.7,4c0.1,29.6,4.9,52.9,13.9,70.7c0.7,1.4,2.1,2.2,3.6,2.2h33.3
		c1.5,0,2.9-0.9,3.6-2.2C395.3,217.7,400.1,194.4,400.2,164.8z"/>
	
		<linearGradient id="SVGID_00000129893954729446406340000009408004596813200788_" gradientUnits="userSpaceOnUse" x1="131.9836" y1="-2.302" x2="322.0338" y2="187.7482">
		<stop  offset="0" style="stop-color:#0A3757"/>
		<stop  offset="1" style="stop-color:#0E0E1E"/>
	</linearGradient>
	<path style="fill:url(#SVGID_00000129893954729446406340000009408004596813200788_);" d="M343.4,28.4v127.4H105.3V28.4
		c0-5.3,4.3-9.7,9.7-9.7h218.8C339.1,18.7,343.4,23.1,343.4,28.4z"/>
	
		<linearGradient id="SVGID_00000126293120278948624250000012390403132742493082_" gradientUnits="userSpaceOnUse" x1="163.6697" y1="110.1716" x2="300.0746" y2="246.5764">
		<stop  offset="0" style="stop-color:#D5D5D5"/>
		<stop  offset="1" style="stop-color:#8D8D8D"/>
	</linearGradient>
	<path style="fill:url(#SVGID_00000126293120278948624250000012390403132742493082_);" d="M343.4,155.7V182c0,5.3-4.3,9.7-9.7,9.7
		H114.9c-5.3,0-9.7-4.3-9.7-9.7v-26.2H343.4z"/>
	
		<linearGradient id="SVGID_00000012453771026828229330000002972127663630461629_" gradientUnits="userSpaceOnUse" x1="224.3497" y1="28.3781" x2="224.3497" y2="147.3184">
		<stop  offset="0" style="stop-color:#F2F9FD"/>
		<stop  offset="1" style="stop-color:#D2EDF3"/>
	</linearGradient>
	<path style="fill:url(#SVGID_00000012453771026828229330000002972127663630461629_);" d="M332.8,146.1H115.9c-0.6,0-1-0.4-1-1V29.4
		c0-0.6,0.4-1,1-1h216.8c0.6,0,1,0.4,1,1v115.7C333.8,145.6,333.3,146.1,332.8,146.1z"/>
	
		<linearGradient id="SVGID_00000013160693702765018010000018261041759230969496_" gradientUnits="userSpaceOnUse" x1="224.3497" y1="168.8086" x2="224.3497" y2="178.5742">
		<stop  offset="0" style="stop-color:#0A3757"/>
		<stop  offset="1" style="stop-color:#0E0E1E"/>
	</linearGradient>
	<circle style="fill:url(#SVGID_00000013160693702765018010000018261041759230969496_);" cx="224.3" cy="173.7" r="5.3"/>
	
		<linearGradient id="SVGID_00000057125815535249955510000011681866407642817451_" gradientUnits="userSpaceOnUse" x1="224.3497" y1="228.3335" x2="224.3497" y2="190.7568">
		<stop  offset="0" style="stop-color:#737373"/>
		<stop  offset="1" style="stop-color:#4D4C4D"/>
	</linearGradient>
	<polygon style="fill:url(#SVGID_00000057125815535249955510000011681866407642817451_);" points="254,229.1 194.7,229.1 
		198.5,191.6 250.2,191.6 	"/>
	
		<linearGradient id="SVGID_00000175299869776221348200000010613388919255874206_" gradientUnits="userSpaceOnUse" x1="125.3723" y1="233.4352" x2="323.3271" y2="233.4352">
		<stop  offset="0" style="stop-color:#D5D5D5"/>
		<stop  offset="1" style="stop-color:#8D8D8D"/>
	</linearGradient>
	<path style="fill:url(#SVGID_00000175299869776221348200000010613388919255874206_);" d="M321.3,237.7H127.4c-1.1,0-2-0.9-2-2v-4.6
		c0-1.1,0.9-2,2-2h193.9c1.1,0,2,0.9,2,2v4.6C323.3,236.8,322.4,237.7,321.3,237.7z"/>
	
		<linearGradient id="SVGID_00000076579711596983172700000016367962864929494194_" gradientUnits="userSpaceOnUse" x1="132.6534" y1="228.1302" x2="316.0461" y2="228.1302">
		<stop  offset="0" style="stop-color:#0A3757"/>
		<stop  offset="1" style="stop-color:#0E0E1E"/>
	</linearGradient>
	
		<rect x="132.7" y="227.1" style="fill:url(#SVGID_00000076579711596983172700000016367962864929494194_);" width="183.4" height="2"/>
	
		<linearGradient id="SVGID_00000136377901412028216460000010847886390320746417_" gradientUnits="userSpaceOnUse" x1="245.4477" y1="57.6722" x2="305.3623" y2="117.5868">
		<stop  offset="0" style="stop-color:#E91C60"/>
		<stop  offset="1" style="stop-color:#6A1A6E"/>
	</linearGradient>
	<path style="fill:url(#SVGID_00000136377901412028216460000010847886390320746417_);" d="M307.5,62.7v49.1c0,2.8-2.2,5-5,5h-57.1
		V57.7h57.1C305.3,57.7,307.5,59.9,307.5,62.7z"/>
	<path class="st13" d="M245.4,57.7v59.1H25.3c-2.8,0-5-2.2-5-5V62.7c0-2.8,2.2-5,5-5H245.4z"/>
	<polygon class="st14" points="232.7,101.3 238.8,131.9 244.1,124.6 253.2,137.3 260.1,132.4 251,119.7 259.6,117 	"/>
	<path class="st14" d="M293.5,100.7l-7.1-7.1c1.8-2.6,2.8-5.6,2.8-8.8c0-4.1-1.6-7.9-4.4-10.7c-5.9-5.9-15.6-5.9-21.5,0
		c-5.9,5.9-5.9,15.6,0,21.5c2.9,2.9,6.7,4.4,10.7,4.4c3.2,0,6.3-1,8.8-2.8l7.1,7.1c0.5,0.5,1.1,0.7,1.8,0.7s1.3-0.2,1.8-0.7
		C294.4,103.2,294.4,101.7,293.5,100.7z M266.8,91.9c-4-4-4-10.4,0-14.4c2-2,4.6-3,7.2-3s5.2,1,7.2,3v0c1.9,1.9,3,4.5,3,7.2
		s-1.1,5.3-3,7.2c-1.9,1.9-4.5,3-7.2,3S268.7,93.8,266.8,91.9z"/>
	
		<linearGradient id="SVGID_00000137129771543074245160000010476776222271036853_" gradientUnits="userSpaceOnUse" x1="378.387" y1="235.137" x2="414.3784" y2="235.137">
		<stop  offset="0" style="stop-color:#0A3757"/>
		<stop  offset="1" style="stop-color:#0E0E1E"/>
	</linearGradient>
	<path style="fill:url(#SVGID_00000137129771543074245160000010476776222271036853_);" d="M409.8,237.7H383c-2.5,0-4.6-2.1-4.6-4.6
		v-0.6h36v0.6C414.4,235.7,412.3,237.7,409.8,237.7z"/>
	
		<linearGradient id="SVGID_00000005973101431789265710000008982886734500460422_" gradientUnits="userSpaceOnUse" x1="387.1661" y1="221.9612" x2="406.599" y2="241.3941">
		<stop  offset="0" style="stop-color:#D5D5D5"/>
		<stop  offset="1" style="stop-color:#8D8D8D"/>
	</linearGradient>
	<path style="fill:url(#SVGID_00000005973101431789265710000008982886734500460422_);" d="M396.4,222.2c-10.9,0-18,4.6-18,10.4
		c0,0,0.5,3.7,18,3.7c17.5,0,18-3.7,18-3.7C414.4,226.8,407.3,222.2,396.4,222.2z"/>
	<g>
		
			<linearGradient id="SVGID_00000022546238965040255090000000020238702614252221_" gradientUnits="userSpaceOnUse" x1="38.8415" y1="83.9704" x2="128.7143" y2="100.206">
			<stop  offset="0" style="stop-color:#E91C60"/>
			<stop  offset="1" style="stop-color:#6A1A6E"/>
		</linearGradient>
		<path style="fill:url(#SVGID_00000022546238965040255090000000020238702614252221_);" d="M53.3,84l-3.6,11.5H45l-5.1-16.8h4.6
			L47.6,90l3.7-11.3h3.9L59,90l3.1-11.3h4.6l-5.1,16.8h-4.7L53.3,84z"/>
		
			<linearGradient id="SVGID_00000088108092481441072500000002315667525622828693_" gradientUnits="userSpaceOnUse" x1="39.744" y1="78.9746" x2="129.6167" y2="95.2103">
			<stop  offset="0" style="stop-color:#E91C60"/>
			<stop  offset="1" style="stop-color:#6A1A6E"/>
		</linearGradient>
		<path style="fill:url(#SVGID_00000088108092481441072500000002315667525622828693_);" d="M81.9,84l-3.6,11.5h-4.7l-5.1-16.8h4.6
			L76.2,90l3.7-11.3h3.9L87.5,90l3.1-11.3h4.6l-5.1,16.8h-4.7L81.9,84z"/>
		
			<linearGradient id="SVGID_00000043434046262326286730000008666799766203731124_" gradientUnits="userSpaceOnUse" x1="40.6465" y1="73.9784" x2="130.5193" y2="90.2141">
			<stop  offset="0" style="stop-color:#E91C60"/>
			<stop  offset="1" style="stop-color:#6A1A6E"/>
		</linearGradient>
		<path style="fill:url(#SVGID_00000043434046262326286730000008666799766203731124_);" d="M110.4,84l-3.6,11.5h-4.7L97,78.6h4.6
			l3.1,11.3l3.7-11.3h3.9l3.7,11.3l3.1-11.3h4.6l-5.1,16.8H114L110.4,84z"/>
		
			<linearGradient id="SVGID_00000137090763347236102820000002737625844307446953_" gradientUnits="userSpaceOnUse" x1="40.0327" y1="76.9933" x2="129.9055" y2="93.229">
			<stop  offset="0" style="stop-color:#E91C60"/>
			<stop  offset="1" style="stop-color:#6A1A6E"/>
		</linearGradient>
		<path style="fill:url(#SVGID_00000137090763347236102820000002737625844307446953_);" d="M126.6,89.8c1.5,0,2.8,1.3,2.8,2.8
			c0,1.5-1.3,2.8-2.8,2.8c-1.5,0-2.8-1.3-2.8-2.8C123.8,91.1,125.1,89.8,126.6,89.8z"/>
	</g>
	<g>
		
			<linearGradient id="SVGID_00000070088192761127256520000014759023391399919791_" gradientUnits="userSpaceOnUse" x1="246.4081" y1="100.0806" x2="246.4081" y2="138.5807">
			<stop  offset="0" style="stop-color:#0A3757"/>
			<stop  offset="1" style="stop-color:#0E0E1E"/>
		</linearGradient>
		<path style="fill:url(#SVGID_00000070088192761127256520000014759023391399919791_);" d="M253.2,138.6c-0.1,0-0.1,0-0.2,0
			c-0.3-0.1-0.6-0.2-0.8-0.5l-8.1-11.3l-4.3,5.9c-0.3,0.4-0.8,0.6-1.3,0.5c-0.5-0.1-0.9-0.5-1-1l-6.1-30.5c-0.1-0.5,0.1-1,0.5-1.3
			c0.4-0.3,0.9-0.3,1.4-0.1l26.9,15.7c0.4,0.2,0.7,0.7,0.6,1.2c-0.1,0.5-0.4,0.9-0.9,1.1l-6.9,2.1l8.1,11.3c0.4,0.6,0.3,1.3-0.3,1.7
			l-6.9,5C253.7,138.5,253.4,138.6,253.2,138.6z M244.1,123.4C244.1,123.4,244.1,123.4,244.1,123.4c0.4,0,0.8,0.2,1,0.5l8.4,11.7
			l4.9-3.5l-8.4-11.7c-0.2-0.3-0.3-0.7-0.2-1.1c0.1-0.4,0.4-0.7,0.8-0.8l5.9-1.8l-22-12.9l5,25l3.6-5
			C243.3,123.6,243.7,123.4,244.1,123.4z"/>
	</g>
</g>
<g id="Buy" class="st22">
	<g class="st23">
		<path class="st0" d="M9.8,123.7c-6.6,54.3,32.4,87.2,85.5,87.2s80.6,7.2,125.9,23.4s93.3,11.6,156-31.5s81.4-107.6,41.2-158
			S303.2,0.1,262,22.6s-86.9,60.1-137.5,47.1S16.4,69.5,9.8,123.7z"/>
		<path class="st24" d="M434.3,133.4c-8.8,25.4-28.3,49.6-57.1,69.4c-62.7,43-110.6,47.7-156,31.5c-45.4-16.2-72.8-23.4-125.9-23.4
			c-44.6,0-79.3-23.2-85.3-62.7c13.3-8.6,29.1-13.6,46-13.6c31.6,0,59.2,17.3,74.1,43.2c10.7-4.8,22.5-7.5,35-7.5
			c19.5,0,37.4,6.6,51.8,17.7c7.4-7.8,17.7-12.7,29.2-12.7c9.7,0,18.6,3.5,25.6,9.2c11.9-13.4,29.1-21.8,48.3-21.8
			c10.4,0,20.2,2.5,28.9,6.9c13.4-23,38.2-38.5,66.5-38.5C421.8,131,428.2,131.9,434.3,133.4z"/>
		
			<linearGradient id="SVGID_00000127027280599563614780000011649882166778997663_" gradientUnits="userSpaceOnUse" x1="123.4324" y1="76.0155" x2="143.8819" y2="76.0155">
			<stop  offset="0" style="stop-color:#E91C60"/>
			<stop  offset="1" style="stop-color:#6A1A6E"/>
		</linearGradient>
		<circle style="fill:url(#SVGID_00000127027280599563614780000011649882166778997663_);" cx="133.7" cy="76" r="10.2"/>
		
			<linearGradient id="SVGID_00000105406441863008039500000004039551546084307086_" gradientUnits="userSpaceOnUse" x1="133.6572" y1="70.7901" x2="133.6572" y2="81.6153">
			<stop  offset="0" style="stop-color:#737373"/>
			<stop  offset="1" style="stop-color:#4D4C4D"/>
		</linearGradient>
		<circle style="fill:url(#SVGID_00000105406441863008039500000004039551546084307086_);" cx="133.7" cy="76" r="5.4"/>
		<path class="st27" d="M248.1,164.5h-27.3v-34.6h25.3c1.1,0,2,0.9,2,2V164.5z"/>
		<polygon class="st28" points="238.5,129.8 238.5,145.4 237.5,144.5 236.5,145.4 235.4,144.5 234.4,145.4 233.4,144.5 232.3,145.4 
			231.3,144.5 230.3,145.4 230.3,129.8 		"/>
		<rect x="174.6" y="121.9" class="st29" width="46.1" height="42.5"/>
		<path class="st29" d="M303.3,164.5h-59.8v-16.7c0-1.1,0.9-2,2-2h55.8c1.1,0,2,0.9,2,2V164.5z"/>
		
			<linearGradient id="SVGID_00000162312882395397683210000015048613209370138788_" gradientUnits="userSpaceOnUse" x1="311.0102" y1="140.4896" x2="185.0286" y2="23.38">
			<stop  offset="0" style="stop-color:#F2F9FD"/>
			<stop  offset="1" style="stop-color:#D2EDF3"/>
		</linearGradient>
		<path style="fill:url(#SVGID_00000162312882395397683210000015048613209370138788_);" d="M301,145.6l-135.5-39.2
			c-2.7-0.8-4.3-3.6-3.5-6.3l23.5-81.3c0.8-2.7,3.6-4.3,6.3-3.5l135.5,39.2c2.7,0.8,4.3,3.6,3.5,6.3l-23.5,81.3
			C306.5,144.8,303.7,146.4,301,145.6z"/>
		
			<linearGradient id="SVGID_00000064320227660329470930000011035384832583911810_" gradientUnits="userSpaceOnUse" x1="183.8743" y1="40.7842" x2="331.007" y2="40.7842">
			<stop  offset="0" style="stop-color:#0A3757"/>
			<stop  offset="1" style="stop-color:#0E0E1E"/>
		</linearGradient>
		<path style="fill:url(#SVGID_00000064320227660329470930000011035384832583911810_);" d="M330.8,60.8l-1.6,5.7l-145.3-42l1.7-5.7
			c0.8-2.7,3.6-4.3,6.3-3.5l135.5,39.2C330,55.2,331.6,58.1,330.8,60.8z"/>
		<path class="st14" d="M293.1,86.4L186.9,55.7c-1.1-0.3-1.7-1.4-1.4-2.5l4.3-14.9c0.3-1.1,1.4-1.7,2.5-1.4l106.2,30.7L293.1,86.4z"
			/>
		<path class="st32" d="M296,106.1L190.8,75.7c-0.5-0.2-0.9-0.7-0.7-1.3l2-6.8c0.2-0.5,0.7-0.9,1.3-0.7l105.3,30.4
			c0.5,0.2,0.9,0.7,0.7,1.3l-2,6.8C297.1,106,296.6,106.3,296,106.1z"/>
		<path class="st32" d="M292.2,119.3L186.9,88.9c-0.5-0.2-0.9-0.7-0.7-1.3l2-6.8c0.2-0.5,0.7-0.9,1.3-0.7l105.3,30.4
			c0.5,0.2,0.9,0.7,0.7,1.3l-2,6.8C293.3,119.2,292.7,119.5,292.2,119.3z"/>
		<path class="st32" d="M288.4,132.5l-105.3-30.4c-0.5-0.2-0.9-0.7-0.7-1.3l2-6.8c0.2-0.5,0.7-0.9,1.3-0.7l105.3,30.4
			c0.5,0.2,0.9,0.7,0.7,1.3l-2,6.8C289.5,132.4,288.9,132.7,288.4,132.5z"/>
		
			<linearGradient id="SVGID_00000011751582032577941140000017457725543222623906_" gradientUnits="userSpaceOnUse" x1="293.0814" y1="79.4446" x2="316.8589" y2="79.4446">
			<stop  offset="0" style="stop-color:#E91C60"/>
			<stop  offset="1" style="stop-color:#6A1A6E"/>
		</linearGradient>
		<path style="fill:url(#SVGID_00000011751582032577941140000017457725543222623906_);" d="M316.8,75l-4.3,14.9
			c-0.3,1.1-1.4,1.7-2.5,1.4l-16.9-4.9l5.4-18.8l16.9,4.9C316.5,72.7,317.1,73.9,316.8,75z"/>
		<g>
			
				<linearGradient id="SVGID_00000102540928953848507610000016376109973935788954_" gradientUnits="userSpaceOnUse" x1="197.3842" y1="48.1012" x2="249.1959" y2="70.9907">
				<stop  offset="0" style="stop-color:#E91C60"/>
				<stop  offset="1" style="stop-color:#6A1A6E"/>
			</linearGradient>
			<path style="fill:url(#SVGID_00000102540928953848507610000016376109973935788954_);" d="M199.4,44.8l3.1,0.9
				c2.5,0.7,3.7,2.8,3,5.1c-0.7,2.4-2.8,3.4-5.3,2.7l-3.1-0.9L199.4,44.8z M200.7,52.1c1.6,0.4,2.8-0.4,3.2-1.7
				c0.4-1.4-0.1-2.7-1.8-3.2l-1.4-0.4l-1.4,4.9L200.7,52.1z"/>
			
				<linearGradient id="SVGID_00000053538760083599958030000016093765898472092071_" gradientUnits="userSpaceOnUse" x1="197.9717" y1="46.7715" x2="249.7838" y2="69.6611">
				<stop  offset="0" style="stop-color:#E91C60"/>
				<stop  offset="1" style="stop-color:#6A1A6E"/>
			</linearGradient>
			<path style="fill:url(#SVGID_00000053538760083599958030000016093765898472092071_);" d="M211.7,48.2c2.4,0.7,3.6,2.9,2.9,5.3
				c-0.7,2.4-2.9,3.6-5.3,2.9c-2.4-0.7-3.6-2.9-2.9-5.2C207.1,48.8,209.3,47.6,211.7,48.2z M211.2,49.7c-1.4-0.4-2.7,0.4-3.1,1.9
				c-0.4,1.5,0.2,2.8,1.6,3.3c1.4,0.4,2.7-0.4,3.1-1.9C213.3,51.5,212.7,50.1,211.2,49.7z"/>
			
				<linearGradient id="SVGID_00000125602681861874287170000016792622087835505800_" gradientUnits="userSpaceOnUse" x1="198.5134" y1="45.5453" x2="250.3255" y2="68.4349">
				<stop  offset="0" style="stop-color:#E91C60"/>
				<stop  offset="1" style="stop-color:#6A1A6E"/>
			</linearGradient>
			<path style="fill:url(#SVGID_00000125602681861874287170000016792622087835505800_);" d="M223.1,54.1l-3.8,5l-0.7-0.2l-0.6-6.3
				l-1.6,5.7l-1.7-0.5l2.3-7.9l2.3,0.7l0.5,5.5l3.3-4.3l2.4,0.7l-2.3,7.9l-1.7-0.5L223.1,54.1z"/>
			
				<linearGradient id="SVGID_00000081611773820727734380000000239348833946191532_" gradientUnits="userSpaceOnUse" x1="198.9397" y1="44.5804" x2="250.7518" y2="67.47">
				<stop  offset="0" style="stop-color:#E91C60"/>
				<stop  offset="1" style="stop-color:#6A1A6E"/>
			</linearGradient>
			<path style="fill:url(#SVGID_00000081611773820727734380000000239348833946191532_);" d="M230.1,60.8l-3.5-1l-0.9,1.2l-1.8-0.5
				l5.3-7l2.1,0.6l0.8,8.7l-1.8-0.5L230.1,60.8z M227.5,58.4l2.6,0.8l-0.3-4L227.5,58.4z"/>
			
				<linearGradient id="SVGID_00000153707708091078914630000000935496977378675118_" gradientUnits="userSpaceOnUse" x1="199.3442" y1="43.6646" x2="251.1564" y2="66.5542">
				<stop  offset="0" style="stop-color:#E91C60"/>
				<stop  offset="1" style="stop-color:#6A1A6E"/>
			</linearGradient>
			<path style="fill:url(#SVGID_00000153707708091078914630000000935496977378675118_);" d="M235.1,55.1l1.7,0.5l-2.3,7.9l-1.7-0.5
				L235.1,55.1z"/>
			
				<linearGradient id="SVGID_00000072967831916037344610000013103397334365189778_" gradientUnits="userSpaceOnUse" x1="199.6779" y1="42.9095" x2="251.49" y2="65.7991">
				<stop  offset="0" style="stop-color:#E91C60"/>
				<stop  offset="1" style="stop-color:#6A1A6E"/>
			</linearGradient>
			<path style="fill:url(#SVGID_00000072967831916037344610000013103397334365189778_);" d="M239.2,59.1l-1.5,5.3l-1.7-0.5l2.3-7.9
				l1.7,0.5l2.2,6.1l1.5-5.1l1.7,0.5l-2.3,7.9l-1.6-0.5L239.2,59.1z"/>
			
				<linearGradient id="SVGID_00000063631968876459445880000009203331633201587647_" gradientUnits="userSpaceOnUse" x1="200.1136" y1="41.9231" x2="251.9258" y2="64.8127">
				<stop  offset="0" style="stop-color:#E91C60"/>
				<stop  offset="1" style="stop-color:#6A1A6E"/>
			</linearGradient>
			<path style="fill:url(#SVGID_00000063631968876459445880000009203331633201587647_);" d="M245.7,64.1c0.4,0.7,1.1,1.5,2.2,1.8
				c0.9,0.3,1.5,0,1.6-0.5c0.2-0.6-0.5-1-1.3-1.5c-1.2-0.7-2.7-1.5-2.2-3.3c0.4-1.3,1.8-2,3.7-1.5c1.2,0.4,2.2,1,2.7,2l-1.3,1
				c-0.5-0.8-1.2-1.3-2-1.5c-0.8-0.2-1.2,0-1.4,0.5c-0.2,0.5,0.5,0.9,1.3,1.4c1.2,0.7,2.7,1.5,2.2,3.3c-0.4,1.4-1.8,2.2-3.9,1.6
				c-1.5-0.4-2.4-1.3-3-2.2L245.7,64.1z"/>
		</g>
		
			<linearGradient id="SVGID_00000173148823267236488770000008297135629230802321_" gradientUnits="userSpaceOnUse" x1="105.8482" y1="-5.6025" x2="134.9521" y2="18.9302">
			<stop  offset="0" style="stop-color:#E91C60"/>
			<stop  offset="1" style="stop-color:#6A1A6E"/>
		</linearGradient>
		<path style="fill:url(#SVGID_00000173148823267236488770000008297135629230802321_);" d="M132.6,18.1l-25.7-1.7
			c-1.5-0.1-2.7-1.4-2.6-2.9l1-15.7c0.1-1.5,1.4-2.7,2.9-2.6L134-3c0.8,0.1,1.5,0.4,2,1l6.6,8.3c0.9,1.1,0.8,2.7-0.2,3.7l-7.6,7.4
			C134.2,17.9,133.4,18.2,132.6,18.1z"/>
		<g>
			<path class="st42" d="M191.8,23.3c-0.1,0-0.3,0-0.4-0.1c-4.5-1.4-7.2-4.9-10.1-8.7C177.8,9.9,174.2,5.2,167,4
				c-6.2-1-9.6,0.6-13.6,2.6c-4.2,2.1-9,4.4-17.5,3c-0.8-0.1-1.4-0.9-1.2-1.7s0.9-1.4,1.7-1.2c7.5,1.3,11.5-0.7,15.6-2.7
				c4.1-2,8.2-4,15.4-2.8c8.4,1.4,12.5,6.8,16.2,11.6c2.7,3.5,5,6.6,8.5,7.7c0.8,0.2,1.2,1.1,1,1.9C193,22.9,192.4,23.3,191.8,23.3z
				"/>
		</g>
		<g>
			
				<linearGradient id="SVGID_00000176739798322614235060000011797216635165355657_" gradientUnits="userSpaceOnUse" x1="187.333" y1="203.8541" x2="187.333" y2="220.1612">
				<stop  offset="0" style="stop-color:#737373"/>
				<stop  offset="1" style="stop-color:#4D4C4D"/>
			</linearGradient>
			<path style="fill:url(#SVGID_00000176739798322614235060000011797216635165355657_);" d="M187.3,220.2c-1.4,0-2.5-1.1-2.5-2.5
				v-11.5c0-1.4,1.1-2.5,2.5-2.5s2.5,1.1,2.5,2.5v11.5C189.8,219.1,188.7,220.2,187.3,220.2z"/>
		</g>
		<g>
			
				<linearGradient id="SVGID_00000171722045333082407550000000668251846517047222_" gradientUnits="userSpaceOnUse" x1="296.461" y1="204.0523" x2="296.461" y2="220.1622">
				<stop  offset="0" style="stop-color:#737373"/>
				<stop  offset="1" style="stop-color:#4D4C4D"/>
			</linearGradient>
			<path style="fill:url(#SVGID_00000171722045333082407550000000668251846517047222_);" d="M296.5,220.2c-1.4,0-2.5-1.1-2.5-2.5
				v-11.3c0-1.4,1.1-2.5,2.5-2.5s2.5,1.1,2.5,2.5v11.3C299,219.1,297.8,220.2,296.5,220.2z"/>
		</g>
		
			<linearGradient id="SVGID_00000137838002160927470320000005320780778282580106_" gradientUnits="userSpaceOnUse" x1="173.0169" y1="230.5122" x2="201.6485" y2="230.5122">
			<stop  offset="0" style="stop-color:#E91C60"/>
			<stop  offset="1" style="stop-color:#6A1A6E"/>
		</linearGradient>
		<circle style="fill:url(#SVGID_00000137838002160927470320000005320780778282580106_);" cx="187.3" cy="230.5" r="14.3"/>
		
			<linearGradient id="SVGID_00000033339410236889434650000003854970852271267255_" gradientUnits="userSpaceOnUse" x1="282.1452" y1="230.5122" x2="310.7768" y2="230.5122">
			<stop  offset="0" style="stop-color:#E91C60"/>
			<stop  offset="1" style="stop-color:#6A1A6E"/>
		</linearGradient>
		<circle style="fill:url(#SVGID_00000033339410236889434650000003854970852271267255_);" cx="296.5" cy="230.5" r="14.3"/>
		
			<linearGradient id="SVGID_00000036245712018949204400000007906930518756416434_" gradientUnits="userSpaceOnUse" x1="187.3327" y1="225.2868" x2="187.3327" y2="236.112">
			<stop  offset="0" style="stop-color:#D5D5D5"/>
			<stop  offset="1" style="stop-color:#8D8D8D"/>
		</linearGradient>
		<circle style="fill:url(#SVGID_00000036245712018949204400000007906930518756416434_);" cx="187.3" cy="230.5" r="5.4"/>
		
			<linearGradient id="SVGID_00000014605859660374920330000005255683626156038079_" gradientUnits="userSpaceOnUse" x1="296.461" y1="225.2868" x2="296.461" y2="236.112">
			<stop  offset="0" style="stop-color:#D5D5D5"/>
			<stop  offset="1" style="stop-color:#8D8D8D"/>
		</linearGradient>
		<circle style="fill:url(#SVGID_00000014605859660374920330000005255683626156038079_);" cx="296.5" cy="230.5" r="5.4"/>
		<polygon class="st28" points="201.8,121.9 201.8,131.9 200.8,130.9 199.7,131.9 198.7,130.9 197.7,131.9 196.6,130.9 195.6,131.9 
			194.6,130.9 193.5,131.9 193.5,121.9 		"/>
		<polygon class="st28" points="277.6,145.8 277.6,155.7 276.5,154.8 275.5,155.7 274.5,154.8 273.4,155.7 272.4,154.8 271.4,155.7 
			270.3,154.8 269.3,155.7 269.3,145.8 		"/>
		
			<linearGradient id="SVGID_00000141430134004057287810000013595036335510460300_" gradientUnits="userSpaceOnUse" x1="158.4777" y1="88.4215" x2="303.8001" y2="160.1068">
			<stop  offset="0" style="stop-color:#737373"/>
			<stop  offset="1" style="stop-color:#4D4C4D"/>
		</linearGradient>
		<path style="fill:url(#SVGID_00000141430134004057287810000013595036335510460300_);" d="M318.2,117.6v-4h-19.8V90.2h-4v23.4
			h-24.6V90.2h-4v23.4h-24.6V90.2h-4v23.4h-24.6V90.2h-4v23.4h-24.6V90.2h-4v23.4h-19.8v4h19.8V139h-12.9v4h12.9v23.4h4V143h24.6
			v23.4h4V143h24.6v23.4h4V143h24.6v23.4h4V143h24.6v23.4h4V143h12.9v-4h-12.9v-21.4H318.2z M184.2,139v-21.4h24.6V139H184.2z
			 M212.7,139v-21.4h24.6V139H212.7z M241.3,139v-21.4h24.6V139H241.3z M294.5,139h-24.6v-21.4h24.6V139z"/>
		
			<linearGradient id="SVGID_00000157991280079978870620000009442055768860228246_" gradientUnits="userSpaceOnUse" x1="131.1573" y1="140.5724" x2="327.5355" y2="140.5724">
			<stop  offset="0" style="stop-color:#D5D5D5"/>
			<stop  offset="1" style="stop-color:#8D8D8D"/>
		</linearGradient>
		<path style="fill:url(#SVGID_00000157991280079978870620000009442055768860228246_);" d="M170.6,168.9h3.4h130.5
			c1.1,0,2.1-0.8,2.4-1.9l20.4-76.2c0.2-0.8,0-1.6-0.4-2.2c-0.5-0.6-1.2-1-2-1H155.4c-2.9-8.4-10.8-14.2-19.8-14.2h-2
			c-1.4,0-2.5,1.1-2.5,2.5s1.1,2.5,2.5,2.5h2c7.2,0,13.5,4.8,15.4,11.8l0.1,0.5c0,0,0,0,0,0l19.6,73.1h-0.1c-7,0-12.7,5.7-12.7,12.7
			v18.3c0,7,5.7,12.7,12.7,12.7h147.6c1.4,0,2.5-1.1,2.5-2.5s-1.1-2.5-2.5-2.5H170.6c-4.3,0-7.7-3.5-7.7-7.7v-18.3
			C162.9,172.4,166.4,168.9,170.6,168.9z M321.8,92.7l-19.1,71.2H176l-19.1-71.2H321.8z"/>
		<path class="st13" d="M117.3,0.1c1.9,0.1,3.1,1.6,3,3.3c-0.1,1.7-1.4,3-3.4,2.9c-1.9-0.1-3.1-1.5-3-3.3
			C114,1.2,115.4-0.1,117.3,0.1z M117.2,1.5c-0.8-0.1-1.5,0.5-1.6,1.6c-0.1,1,0.5,1.6,1.4,1.7c0.9,0.1,1.5-0.5,1.6-1.5
			C118.6,2.2,118,1.6,117.2,1.5z M124,0.7l1.4,0.1l-8.8,11.9l-1.4-0.1L124,0.7z M123.7,7.1c1.9,0.1,3.1,1.6,3,3.3
			c-0.1,1.7-1.5,3-3.4,2.9c-1.9-0.1-3.1-1.5-2.9-3.3C120.4,8.3,121.8,7,123.7,7.1z M123.6,8.6c-0.9-0.1-1.5,0.5-1.6,1.6
			c-0.1,1,0.5,1.7,1.4,1.7c0.9,0.1,1.5-0.5,1.6-1.5C125,9.3,124.4,8.7,123.6,8.6z"/>
	</g>
</g>
<g id="Secure" class="st22">
	<g class="st23">
		<path class="st0" d="M21.8,83.4c9,36.4,36.2,40.8,75.6,86.6s64,67.7,121.8,67.7s78-22.6,128.5-50.1s79.5-30.9,80.2-73.7
			s-83.8-41.8-147.9-49.5s-87.4-62.1-154-62.1S12.9,47,21.8,83.4z"/>
		<g>
			
				<linearGradient id="SVGID_00000142142006560679085460000010175446240003457409_" gradientUnits="userSpaceOnUse" x1="59.9158" y1="145.504" x2="132.3109" y2="179.3061">
				<stop  offset="0" style="stop-color:#FFC600"/>
				<stop  offset="1" style="stop-color:#F6921E"/>
			</linearGradient>
			<path style="fill:url(#SVGID_00000142142006560679085460000010175446240003457409_);" d="M101.2,100.3L73,160.8
				c-12.4-1-24.6,5.6-30.1,17.5c-7.1,15.2-0.5,33.3,14.8,40.4c15.2,7.1,33.3,0.5,40.4-14.8c5.5-11.9,2.7-25.5-6-34.3l1.9-4l-4.8-7.1
				l8.6-0.9l1.9-4l-1.2-5.5l4.9-2.6l-4.8-7.1l8.6-0.9l-1.2-5.5l4.9-2.6l3.8-8.1l0-8.1l5.6-4l-5.7-12.5L101.2,100.3z M71.5,205.7
				c-1.6,3.5-5.9,5.1-9.4,3.4c-3.5-1.6-5.1-5.9-3.4-9.4c1.7-3.6,5.9-5.1,9.4-3.4C71.6,198,73.2,202.2,71.5,205.7z"/>
			
				<linearGradient id="SVGID_00000070839529639418371580000012972292922838144917_" gradientUnits="userSpaceOnUse" x1="88.5326" y1="127.4467" x2="95.4084" y2="130.685">
				<stop  offset="0" style="stop-color:#FFC600"/>
				<stop  offset="1" style="stop-color:#FF7900"/>
			</linearGradient>
			<path style="fill:url(#SVGID_00000070839529639418371580000012972292922838144917_);" d="M109.7,98l-29.9,64.3
				c-1-0.3-2-0.6-2.9-0.8L105.9,99L109.7,98z"/>
			
				<linearGradient id="SVGID_00000167393532075270118570000001735686374981328268_" gradientUnits="userSpaceOnUse" x1="39.4786" y1="188.7642" x2="75.1438" y2="208.1938">
				<stop  offset="0" style="stop-color:#FFC600"/>
				<stop  offset="1" style="stop-color:#FF7900"/>
			</linearGradient>
			<path style="fill:url(#SVGID_00000167393532075270118570000001735686374981328268_);" d="M55.6,198.3c-2.4,5.2-0.2,11.5,5.1,13.9
				c5.2,2.4,11.5,0.2,13.9-5.1c2.4-5.2,0.2-11.5-5.1-13.9C64.3,190.8,58,193.1,55.6,198.3z M71.5,205.7c-1.6,3.5-5.9,5.1-9.4,3.4
				c-3.5-1.6-5.1-5.9-3.4-9.4c1.7-3.6,5.9-5.1,9.4-3.4C71.6,198,73.2,202.2,71.5,205.7z"/>
		</g>
		
			<linearGradient id="SVGID_00000011737467381881653990000007731041913579353009_" gradientUnits="userSpaceOnUse" x1="224.3515" y1="55.4468" x2="224.3515" y2="210.8215">
			<stop  offset="0" style="stop-color:#D5D5D5"/>
			<stop  offset="1" style="stop-color:#8D8D8D"/>
		</linearGradient>
		<path style="fill:url(#SVGID_00000011737467381881653990000007731041913579353009_);" d="M338.9,210.8H109.8V63.3
			c0-4.3,3.5-7.8,7.8-7.8H331c4.3,0,7.8,3.5,7.8,7.8V210.8z"/>
		
			<linearGradient id="SVGID_00000141453108929803617340000007057588769359396518_" gradientUnits="userSpaceOnUse" x1="224.3515" y1="81.1538" x2="224.3515" y2="249.3718">
			<stop  offset="0" style="stop-color:#F2F9FD"/>
			<stop  offset="1" style="stop-color:#D2EDF3"/>
		</linearGradient>
		<path style="fill:url(#SVGID_00000141453108929803617340000007057588769359396518_);" d="M327.5,204.1H121.2
			c-2.6,0-4.7-2.1-4.7-4.7V66.8c0-2.6,2.1-4.7,4.7-4.7h206.3c2.6,0,4.7,2.1,4.7,4.7v132.6C332.2,202,330.1,204.1,327.5,204.1z"/>
		
			<linearGradient id="SVGID_00000139988900239426611350000011082612156272287166_" gradientUnits="userSpaceOnUse" x1="224.349" y1="61.813" x2="224.349" y2="89.2513">
			<stop  offset="0" style="stop-color:#0A3757"/>
			<stop  offset="1" style="stop-color:#0E0E1E"/>
		</linearGradient>
		<path style="fill:url(#SVGID_00000139988900239426611350000011082612156272287166_);" d="M332.2,66.8v15.9H116.5V66.8
			c0-2.6,2.1-4.7,4.7-4.7h206.3C330.1,62.1,332.2,64.2,332.2,66.8z"/>
		
			<linearGradient id="SVGID_00000009591715388487668280000008730363139325049997_" gradientUnits="userSpaceOnUse" x1="363.2362" y1="216.6971" x2="84.0538" y2="216.6971">
			<stop  offset="0" style="stop-color:#D5D5D5"/>
			<stop  offset="1" style="stop-color:#8D8D8D"/>
		</linearGradient>
		<path style="fill:url(#SVGID_00000009591715388487668280000008730363139325049997_);" d="M361.3,222.6H87.4
			c-1.8,0-3.3-1.5-3.3-3.3v-5.2c0-1.8,1.5-3.3,3.3-3.3h273.9c1.8,0,3.3,1.5,3.3,3.3v5.2C364.5,221.1,363.1,222.6,361.3,222.6z"/>
		
			<linearGradient id="SVGID_00000116933084242895660660000000047714925032534968_" gradientUnits="userSpaceOnUse" x1="224.3515" y1="210.4934" x2="224.3515" y2="215.8434">
			<stop  offset="0" style="stop-color:#737373"/>
			<stop  offset="1" style="stop-color:#4D4C4D"/>
		</linearGradient>
		<path style="fill:url(#SVGID_00000116933084242895660660000000047714925032534968_);" d="M234,215.5h-19.3c-2.6,0-4.7-2.1-4.7-4.7
			v0h28.7v0C238.7,213.4,236.6,215.5,234,215.5z"/>
		<path class="st59" d="M233,113.5h-99.1c-1.1,0-2-0.9-2-2V93.9c0-1.1,0.9-2,2-2H233c1.1,0,2,0.9,2,2v17.6
			C235,112.6,234.1,113.5,233,113.5z"/>
		<path class="st32" d="M233,130h-99.1c-1.1,0-2-0.9-2-2v-7.1c0-1.1,0.9-2,2-2H233c1.1,0,2,0.9,2,2v7.1C235,129.1,234.1,130,233,130
			z"/>
		<path class="st60" d="M295,75.6H135c-1.7,0-3.1-1.4-3.1-3.1v0c0-1.7,1.4-3.1,3.1-3.1h160c1.7,0,3.1,1.4,3.1,3.1v0
			C298.2,74.1,296.8,75.6,295,75.6z"/>
		<path class="st60" d="M310.7,75.6h-3.4c-1.7,0-3-1.3-3-3v-0.3c0-1.7,1.3-3,3-3h3.4c1.7,0,3,1.3,3,3v0.3
			C313.7,74.2,312.3,75.6,310.7,75.6z"/>
		<path class="st59" d="M311.7,194H133.9c-1.1,0-2-0.9-2-2v-50.5c0-1.1,0.9-2,2-2h177.8c1.1,0,2,0.9,2,2V192
			C313.7,193.1,312.8,194,311.7,194z"/>
		
			<linearGradient id="SVGID_00000144316309429127726260000010728931820493128378_" gradientUnits="userSpaceOnUse" x1="284.4572" y1="93.665" x2="311.5388" y2="120.7467">
			<stop  offset="0" style="stop-color:#49E2A8"/>
			<stop  offset="1" style="stop-color:#00844E"/>
		</linearGradient>
		<circle style="fill:url(#SVGID_00000144316309429127726260000010728931820493128378_);" cx="298.2" cy="107.4" r="15.5"/>
		<g>
			
				<linearGradient id="SVGID_00000109008575715426774000000003888329953908808067_" gradientUnits="userSpaceOnUse" x1="224.3515" y1="205.1472" x2="224.3515" y2="60.8889">
				<stop  offset="0" style="stop-color:#0A3757"/>
				<stop  offset="1" style="stop-color:#0E0E1E"/>
			</linearGradient>
			<path style="fill:url(#SVGID_00000109008575715426774000000003888329953908808067_);" d="M327.5,205.1H121.2
				c-3.1,0-5.7-2.6-5.7-5.7V66.8c0-3.1,2.6-5.7,5.7-5.7h206.3c3.1,0,5.7,2.6,5.7,5.7v132.6C333.2,202.6,330.7,205.1,327.5,205.1z
				 M121.2,63.1c-2,0-3.7,1.7-3.7,3.7v132.6c0,2,1.7,3.7,3.7,3.7h206.3c2,0,3.7-1.7,3.7-3.7V66.8c0-2-1.7-3.7-3.7-3.7H121.2z"/>
		</g>
		<path class="st13" d="M301,59.5l-14.2-30.7c-31.4,14-62.5-11.2-62.5-11.2s-31.1,25.2-62.5,11.2l-14.2,30.7c0,0,12.2,6.9,14.2,22.9
			c2,16-7.1,45.6,7.3,61c14.4,15.4,44.4,21.1,55.2,33.4c10.8-12.2,40.8-17.9,55.2-33.4c14.4-15.4,5.3-45.1,7.3-61
			C288.8,66.4,301,59.5,301,59.5z"/>
		
			<linearGradient id="SVGID_00000145771314825769668440000002229051543896001456_" gradientUnits="userSpaceOnUse" x1="199.1127" y1="84.7702" x2="248.8358" y2="134.4934">
			<stop  offset="0" style="stop-color:#E91C60"/>
			<stop  offset="1" style="stop-color:#6A1A6E"/>
		</linearGradient>
		<path style="fill:url(#SVGID_00000145771314825769668440000002229051543896001456_);" d="M248.2,132.5h-47.7
			c-1.9,0-3.5-1.6-3.5-3.5V91c0-1.9,1.6-3.5,3.5-3.5h47.7c1.9,0,3.5,1.6,3.5,3.5v38C251.7,130.9,250.1,132.5,248.2,132.5z"/>
		<g>
			
				<linearGradient id="SVGID_00000099621177900253626830000016228900913480492165_" gradientUnits="userSpaceOnUse" x1="212.0341" y1="66.2595" x2="236.3924" y2="90.6179">
				<stop  offset="0" style="stop-color:#D5D5D5"/>
				<stop  offset="1" style="stop-color:#8D8D8D"/>
			</linearGradient>
			<path style="fill:url(#SVGID_00000099621177900253626830000016228900913480492165_);" d="M239.5,87.5h-7V75.9
				c0-4.5-3.6-8.1-8.1-8.1s-8.1,3.6-8.1,8.1v11.6h-7V75.9c0-8.3,6.8-15.1,15.1-15.1s15.1,6.8,15.1,15.1V87.5z"/>
		</g>
		
			<linearGradient id="SVGID_00000183249518411512334950000000948909162005179525_" gradientUnits="userSpaceOnUse" x1="224.3515" y1="120.3342" x2="224.3515" y2="100.17">
			<stop  offset="0" style="stop-color:#0A3757"/>
			<stop  offset="1" style="stop-color:#0E0E1E"/>
		</linearGradient>
		<path style="fill:url(#SVGID_00000183249518411512334950000000948909162005179525_);" d="M230,105.3c0-3.3-2.9-5.9-6.2-5.6
			c-2.5,0.3-4.5,2.2-4.9,4.7c-0.4,2.5,0.9,4.7,2.9,5.8v7.3c0,1.5,1.2,2.7,2.7,2.7l0,0c1.5,0,2.7-1.2,2.7-2.7v-7.3
			C228.8,109.3,230,107.5,230,105.3z"/>
		
			<linearGradient id="SVGID_00000160180691904211035260000012482917427773427616_" gradientUnits="userSpaceOnUse" x1="166.0749" y1="24.6021" x2="283.5394" y2="141.3568">
			<stop  offset="0" style="stop-color:#E91C60"/>
			<stop  offset="1" style="stop-color:#6A1A6E"/>
		</linearGradient>
		<path style="fill:url(#SVGID_00000160180691904211035260000012482917427773427616_);" d="M224.4,35.6c9.3,5.5,24.7,12.4,42.3,12.4
			c4.1,0,8.1-0.4,12-1.1l4.1,8.8c-4.7,5.5-9.5,13.7-10.8,24.8c-0.8,6.4-0.3,13.4,0.3,20.8c0.8,11.6,1.9,26-3.6,31.8
			c-5.5,5.9-15.8,10.6-25.7,15.2c-6.5,3-12.9,5.9-18.5,9.3c-5.6-3.4-11.9-6.3-18.5-9.3c-9.9-4.5-20.2-9.3-25.7-15.2
			c-5.5-5.9-4.4-20.3-3.6-31.8c0.5-7.4,1-14.4,0.3-20.8c-1.4-11.1-6.1-19.3-10.8-24.8L170,47c3.9,0.7,7.9,1.1,12,1.1
			C199.6,48.1,215,41.1,224.4,35.6 M224.4,17.6c0,0-19,15.4-42.3,15.4c-6.5,0-13.3-1.2-20.1-4.2l-14.2,30.7c0,0,12.2,6.9,14.2,22.9
			c2,16-7.1,45.6,7.3,61c14.4,15.4,44.4,21.1,55.2,33.4c10.8-12.2,40.8-17.9,55.2-33.4c14.4-15.4,5.3-45.1,7.3-61
			c2-16,14.2-22.9,14.2-22.9l-14.2-30.7c-6.8,3.1-13.7,4.2-20.1,4.2C243.4,33.1,224.4,17.6,224.4,17.6L224.4,17.6z"/>
	</g>
</g>
</svg>
