<?xml version="1.0" encoding="utf-8"?>
<!-- Generator: Adobe Illustrator 25.0.1, SVG Export Plug-In . SVG Version: 6.00 Build 0)  -->
<svg version="1.1" id="Layer_1" xmlns="http://www.w3.org/2000/svg" xmlns:xlink="http://www.w3.org/1999/xlink" x="0px" y="0px"
	 viewBox="0 0 141.7 45.3" style="enable-background:new 0 0 141.7 45.3;" xml:space="preserve">
<style type="text/css">
	.st0{fill:#00B36A;}
	.st1{fill:#231F20;}
</style>
<g>
	<path class="st0" d="M107.1,21.8c0.6,0.6,0.6,1.7,0,2.3c-0.6,0.6-1.7,0.6-2.3,0c-0.6-0.6-0.6-1.7,0-2.3
		C105.4,21.2,106.4,21.2,107.1,21.8"/>
	<path class="st0" d="M111.3,17.5c0.6,0.6,0.6,1.7,0,2.3c-0.6,0.6-1.7,0.6-2.3,0c-0.6-0.6-0.6-1.7,0-2.3
		C109.7,16.9,110.7,16.9,111.3,17.5"/>
	<path class="st0" d="M107.1,17.5c0.6,0.6,0.6,1.7,0,2.3c-0.6,0.6-1.7,0.6-2.3,0c-0.6-0.6-0.6-1.7,0-2.3
		C105.4,16.9,106.4,16.9,107.1,17.5"/>
	<path class="st0" d="M115.6,13.3c0.6,0.6,0.6,1.7,0,2.3c-0.6,0.6-1.7,0.6-2.3,0c-0.6-0.6-0.6-1.7,0-2.3
		C113.9,12.6,115,12.6,115.6,13.3"/>
	<path class="st0" d="M111.3,21.8c0.6,0.6,0.6,1.7,0,2.3c-0.6,0.6-1.7,0.6-2.3,0c-0.6-0.6-0.6-1.7,0-2.3
		C109.7,21.2,110.7,21.2,111.3,21.8"/>
	<path class="st0" d="M115.6,17.5c0.6,0.6,0.6,1.7,0,2.3c-0.6,0.6-1.7,0.6-2.3,0c-0.6-0.6-0.6-1.7,0-2.3
		C113.9,16.9,115,16.9,115.6,17.5"/>
	<path class="st0" d="M115.6,21.8c0.6,0.6,0.6,1.7,0,2.3c-0.6,0.6-1.7,0.6-2.3,0c-0.6-0.6-0.6-1.7,0-2.3
		C113.9,21.2,115,21.2,115.6,21.8"/>
	<path class="st0" d="M124.2,30.4c0.6,0.6,0.6,1.7,0,2.3c-0.6,0.6-1.7,0.6-2.3,0c-0.6-0.6-0.6-1.7,0-2.3
		C122.5,29.7,123.5,29.7,124.2,30.4"/>
	<path class="st0" d="M119.9,30.4c0.6,0.6,0.6,1.7,0,2.3c-0.6,0.6-1.7,0.6-2.3,0c-0.6-0.6-0.6-1.7,0-2.3
		C118.2,29.7,119.3,29.7,119.9,30.4"/>
	<path class="st0" d="M119.9,26.1c0.6,0.6,0.6,1.7,0,2.3c-0.6,0.6-1.7,0.6-2.3,0c-0.6-0.6-0.6-1.7,0-2.3
		C118.2,25.4,119.3,25.4,119.9,26.1"/>
	<path class="st0" d="M124.2,21.8c0.6,0.6,0.6,1.7,0,2.3c-0.6,0.6-1.7,0.6-2.3,0c-0.6-0.6-0.6-1.7,0-2.3
		C122.5,21.2,123.5,21.2,124.2,21.8"/>
	<path class="st0" d="M124.2,26.1c0.6,0.6,0.6,1.7,0,2.3c-0.6,0.6-1.7,0.6-2.3,0c-0.6-0.6-0.6-1.7,0-2.3
		C122.5,25.4,123.5,25.4,124.2,26.1"/>
	<path class="st0" d="M128.4,21.8c0.6,0.6,0.6,1.7,0,2.3c-0.6,0.6-1.7,0.6-2.3,0c-0.6-0.6-0.6-1.7,0-2.3
		C126.8,21.2,127.8,21.2,128.4,21.8"/>
	<path class="st0" d="M119.9,21.8c0.6,0.6,0.6,1.7,0,2.3c-0.6,0.6-1.7,0.6-2.3,0c-0.6-0.6-0.6-1.7,0-2.3
		C118.2,21.2,119.3,21.2,119.9,21.8"/>
	<path class="st0" d="M124.2,17.5c0.6,0.6,0.6,1.7,0,2.3c-0.6,0.6-1.7,0.6-2.3,0c-0.6-0.6-0.6-1.7,0-2.3
		C122.5,16.9,123.5,16.9,124.2,17.5"/>
	<path class="st0" d="M119.9,17.5c0.6,0.6,0.6,1.7,0,2.3c-0.6,0.6-1.7,0.6-2.3,0c-0.6-0.6-0.6-1.7,0-2.3
		C118.2,16.9,119.3,16.9,119.9,17.5"/>
	<path class="st0" d="M119.9,13.3c0.6,0.6,0.6,1.7,0,2.3c-0.6,0.6-1.7,0.6-2.3,0c-0.6-0.6-0.6-1.7,0-2.3
		C118.2,12.6,119.3,12.6,119.9,13.3"/>
	<path class="st0" d="M128.4,26.1c0.6,0.6,0.6,1.7,0,2.3c-0.6,0.6-1.7,0.6-2.3,0c-0.6-0.6-0.6-1.7,0-2.3
		C126.8,25.4,127.8,25.4,128.4,26.1"/>
	<path class="st0" d="M107.1,13.3c0.6,0.6,0.6,1.7,0,2.3c-0.6,0.6-1.7,0.6-2.3,0c-0.6-0.6-0.6-1.7,0-2.3
		C105.4,12.6,106.4,12.6,107.1,13.3"/>
	<path class="st0" d="M111.3,9c0.6,0.6,0.6,1.7,0,2.3c-0.6,0.6-1.7,0.6-2.3,0c-0.6-0.6-0.6-1.7,0-2.3C109.7,8.4,110.7,8.4,111.3,9"
		/>
	<path class="st0" d="M107.1,9c0.6,0.6,0.6,1.7,0,2.3c-0.6,0.6-1.7,0.6-2.3,0c-0.6-0.6-0.6-1.7,0-2.3C105.4,8.4,106.4,8.4,107.1,9"
		/>
	<path class="st0" d="M111.3,4.7c0.6,0.6,0.6,1.7,0,2.3c-0.6,0.6-1.7,0.6-2.3,0c-0.6-0.6-0.6-1.7,0-2.3
		C109.7,4.1,110.7,4.1,111.3,4.7"/>
	<path class="st0" d="M115.6,4.7c0.6,0.6,0.6,1.7,0,2.3c-0.6,0.6-1.7,0.6-2.3,0c-0.6-0.6-0.6-1.7,0-2.3C113.9,4.1,115,4.1,115.6,4.7
		"/>
	<path class="st0" d="M111.3,13.3c0.6,0.6,0.6,1.7,0,2.3c-0.6,0.6-1.7,0.6-2.3,0c-0.6-0.6-0.6-1.7,0-2.3
		C109.7,12.6,110.7,12.6,111.3,13.3"/>
	<path class="st0" d="M102.8,21.8c0.6,0.6,0.6,1.7,0,2.3c-0.6,0.6-1.7,0.6-2.3,0c-0.6-0.6-0.6-1.7,0-2.3
		C101.1,21.2,102.2,21.2,102.8,21.8"/>
	<path class="st0" d="M102.8,17.5c0.6,0.6,0.6,1.7,0,2.3c-0.6,0.6-1.7,0.6-2.3,0c-0.6-0.6-0.6-1.7,0-2.3
		C101.1,16.9,102.2,16.9,102.8,17.5"/>
	<path class="st0" d="M102.8,13.3c0.6,0.6,0.6,1.7,0,2.3c-0.6,0.6-1.7,0.6-2.3,0c-0.6-0.6-0.6-1.7,0-2.3
		C101.1,12.6,102.2,12.6,102.8,13.3"/>
	<path class="st0" d="M115.6,9c0.6,0.6,0.6,1.7,0,2.3c-0.6,0.6-1.7,0.6-2.3,0c-0.6-0.6-0.6-1.7,0-2.3C113.9,8.4,115,8.4,115.6,9"/>
	<path class="st0" d="M124.2,13.3c0.6,0.6,0.6,1.7,0,2.3c-0.6,0.6-1.7,0.6-2.3,0c-0.6-0.6-0.6-1.7,0-2.3
		C122.5,12.6,123.5,12.6,124.2,13.3"/>
	<path class="st0" d="M128.4,13.3c0.6,0.6,0.6,1.7,0,2.3c-0.6,0.6-1.7,0.6-2.3,0c-0.6-0.6-0.6-1.7,0-2.3
		C126.8,12.6,127.8,12.6,128.4,13.3"/>
	<path class="st0" d="M124.2,9c0.6,0.6,0.6,1.7,0,2.3c-0.6,0.6-1.7,0.6-2.3,0c-0.6-0.6-0.6-1.7,0-2.3C122.5,8.4,123.5,8.4,124.2,9"
		/>
	<path class="st0" d="M124.2,4.7c0.6,0.6,0.6,1.7,0,2.3c-0.6,0.6-1.7,0.6-2.3,0c-0.6-0.6-0.6-1.7,0-2.3
		C122.5,4.1,123.5,4.1,124.2,4.7"/>
	<path class="st0" d="M119.9,9c0.6,0.6,0.6,1.7,0,2.3c-0.6,0.6-1.7,0.6-2.3,0c-0.6-0.6-0.6-1.7,0-2.3C118.2,8.4,119.3,8.4,119.9,9"
		/>
	<path class="st0" d="M119.9,4.7c0.6,0.6,0.6,1.7,0,2.3c-0.6,0.6-1.7,0.6-2.3,0c-0.6-0.6-0.6-1.7,0-2.3
		C118.2,4.1,119.3,4.1,119.9,4.7"/>
	<path class="st0" d="M128.4,19.9c-0.6,0.6-1.7,0.6-2.3,0c-0.6-0.6-0.6-1.7,0-2.3c0.6-0.6,1.7-0.6,2.3,0
		C129.1,18.2,129.1,19.2,128.4,19.9"/>
	<path class="st0" d="M128.4,11.3c-0.6,0.6-1.7,0.6-2.3,0c-0.6-0.6-0.6-1.7,0-2.3c0.6-0.6,1.7-0.6,2.3,0
		C129.1,9.6,129.1,10.7,128.4,11.3"/>
	<path class="st0" d="M132.7,15.6c-0.6,0.6-1.7,0.6-2.3,0c-0.6-0.6-0.6-1.7,0-2.3c0.6-0.6,1.7-0.6,2.3,0
		C133.3,13.9,133.3,14.9,132.7,15.6"/>
	<path class="st0" d="M128.4,7.1c-0.6,0.6-1.7,0.6-2.3,0c-0.6-0.6-0.6-1.7,0-2.3c0.6-0.6,1.7-0.6,2.3,0
		C129.1,5.4,129.1,6.4,128.4,7.1"/>
	<path class="st0" d="M115.6,0.5c0.6,0.6,0.6,1.7,0,2.3c-0.6,0.6-1.7,0.6-2.3,0c-0.6-0.6-0.6-1.7,0-2.3C113.9-0.2,115-0.2,115.6,0.5
		"/>
	<path class="st0" d="M124.2,0.5c0.6,0.6,0.6,1.7,0,2.3c-0.6,0.6-1.7,0.6-2.3,0c-0.6-0.6-0.6-1.7,0-2.3
		C122.5-0.2,123.5-0.2,124.2,0.5"/>
	<path class="st0" d="M119.9,0.5c0.6,0.6,0.6,1.7,0,2.3c-0.6,0.6-1.7,0.6-2.3,0c-0.6-0.6-0.6-1.7,0-2.3
		C118.2-0.2,119.3-0.2,119.9,0.5"/>
	<path class="st0" d="M128.4,2.8c-0.6,0.6-1.7,0.6-2.3,0c-0.6-0.6-0.6-1.7,0-2.3c0.6-0.6,1.7-0.6,2.3,0
		C129.1,1.1,129.1,2.2,128.4,2.8"/>
	<path class="st0" d="M132.7,7.1c-0.6,0.6-1.7,0.6-2.3,0c-0.6-0.6-0.6-1.7,0-2.3c0.6-0.6,1.7-0.6,2.3,0
		C133.3,5.4,133.3,6.4,132.7,7.1"/>
	<path class="st0" d="M132.7,11.3c-0.6,0.6-1.7,0.6-2.3,0c-0.6-0.6-0.6-1.7,0-2.3c0.6-0.6,1.7-0.6,2.3,0
		C133.3,9.6,133.3,10.7,132.7,11.3"/>
	<path class="st0" d="M132.7,19.8c-0.6,0.6-1.7,0.6-2.3,0c-0.6-0.6-0.6-1.7,0-2.3c0.6-0.6,1.7-0.6,2.3,0
		C133.3,18.2,133.3,19.2,132.7,19.8"/>
	<path class="st0" d="M132.7,24.1c-0.6,0.6-1.7,0.6-2.3,0c-0.6-0.6-0.6-1.7,0-2.3c0.6-0.6,1.7-0.6,2.3,0
		C133.3,22.5,133.3,23.5,132.7,24.1"/>
	<path class="st0" d="M124.2,34.6c0.6,0.6,0.6,1.7,0,2.3c-0.6,0.6-1.7,0.6-2.3,0c-0.6-0.6-0.6-1.7,0-2.3
		C122.5,34,123.5,34,124.2,34.6"/>
	<path class="st0" d="M119.9,34.6c0.6,0.6,0.6,1.7,0,2.3c-0.6,0.6-1.7,0.6-2.3,0c-0.6-0.6-0.6-1.7,0-2.3
		C118.2,34,119.2,34,119.9,34.6"/>
	<path class="st0" d="M128.4,34.6c0.6,0.6,0.6,1.7,0,2.3c-0.6,0.6-1.7,0.6-2.3,0c-0.6-0.6-0.6-1.7,0-2.3
		C126.8,34,127.8,34,128.4,34.6"/>
	<path class="st0" d="M124.2,38.9c0.6,0.6,0.6,1.7,0,2.3c-0.6,0.6-1.7,0.6-2.3,0c-0.6-0.6-0.6-1.7,0-2.3
		C122.5,38.2,123.5,38.2,124.2,38.9"/>
	<path class="st0" d="M119.9,38.9c0.6,0.6,0.6,1.7,0,2.3c-0.6,0.6-1.7,0.6-2.3,0c-0.6-0.6-0.6-1.7,0-2.3
		C118.2,38.2,119.2,38.2,119.9,38.9"/>
	<path class="st0" d="M128.4,38.9c0.6,0.6,0.6,1.7,0,2.3c-0.6,0.6-1.7,0.6-2.3,0c-0.6-0.6-0.6-1.7,0-2.3
		C126.8,38.2,127.8,38.2,128.4,38.9"/>
	<path class="st0" d="M132.7,34.6c0.6,0.6,0.6,1.7,0,2.3c-0.6,0.6-1.7,0.6-2.3,0c-0.6-0.6-0.6-1.7,0-2.3C131,34,132.1,34,132.7,34.6
		"/>
	<path class="st0" d="M132.7,30.3c0.6,0.6,0.6,1.7,0,2.3c-0.6,0.6-1.7,0.6-2.3,0c-0.6-0.6-0.6-1.7,0-2.3
		C131,29.7,132.1,29.7,132.7,30.3"/>
	<path class="st0" d="M128.4,30.3c0.6,0.6,0.6,1.7,0,2.3c-0.6,0.6-1.7,0.6-2.3,0c-0.6-0.6-0.6-1.7,0-2.3
		C126.8,29.7,127.8,29.7,128.4,30.3"/>
	<path class="st0" d="M132.7,26.1c0.6,0.6,0.6,1.7,0,2.3c-0.6,0.6-1.7,0.6-2.3,0c-0.6-0.6-0.6-1.7,0-2.3
		C131,25.4,132.1,25.4,132.7,26.1"/>
	<path class="st0" d="M137,21.8c0.6,0.6,0.6,1.7,0,2.3c-0.6,0.6-1.7,0.6-2.3,0c-0.6-0.6-0.6-1.7,0-2.3
		C135.3,21.2,136.3,21.2,137,21.8"/>
	<path class="st0" d="M137,28.4c-0.6,0.6-1.7,0.6-2.3,0c-0.6-0.6-0.6-1.7,0-2.3c0.6-0.6,1.7-0.6,2.3,0
		C137.6,26.7,137.6,27.7,137,28.4"/>
	<path class="st0" d="M137,32.7c-0.6,0.6-1.7,0.6-2.3,0c-0.6-0.6-0.6-1.7,0-2.3c0.6-0.6,1.7-0.6,2.3,0C137.6,31,137.6,32,137,32.7"
		/>
	<path class="st0" d="M137,19.8c-0.6,0.6-1.7,0.6-2.3,0c-0.6-0.6-0.6-1.7,0-2.3c0.6-0.6,1.7-0.6,2.3,0
		C137.6,18.2,137.6,19.2,137,19.8"/>
	<path class="st0" d="M137,15.6c-0.6,0.6-1.7,0.6-2.3,0c-0.6-0.6-0.6-1.7,0-2.3c0.6-0.6,1.7-0.6,2.3,0C137.6,13.9,137.6,15,137,15.6
		"/>
	<path class="st0" d="M141.2,21.8c0.6,0.6,0.6,1.7,0,2.3c-0.6,0.6-1.7,0.6-2.3,0c-0.6-0.6-0.6-1.7,0-2.3
		C139.6,21.2,140.6,21.2,141.2,21.8"/>
	<path class="st0" d="M141.3,28.4c-0.6,0.6-1.7,0.6-2.3,0c-0.6-0.6-0.6-1.7,0-2.3c0.6-0.6,1.7-0.6,2.3,0
		C141.9,26.7,141.9,27.7,141.3,28.4"/>
	<path class="st0" d="M141.3,19.8c-0.6,0.6-1.7,0.6-2.3,0c-0.6-0.6-0.6-1.7,0-2.3c0.6-0.6,1.7-0.6,2.3,0
		C141.9,18.2,141.9,19.2,141.3,19.8"/>
	<path class="st0" d="M141.3,15.6c-0.6,0.6-1.7,0.6-2.3,0c-0.6-0.6-0.6-1.7,0-2.3c0.6-0.6,1.7-0.6,2.3,0
		C141.9,13.9,141.9,15,141.3,15.6"/>
	<path class="st0" d="M137,11.3c-0.6,0.6-1.7,0.6-2.3,0c-0.6-0.6-0.6-1.7,0-2.3c0.6-0.6,1.7-0.6,2.3,0
		C137.6,9.6,137.6,10.7,137,11.3"/>
	<path class="st1" d="M0,35.6C0,30.2,4.1,26,9.7,26c3.5,0,6.7,1.9,8.2,4.7l-4.8,2.8c-0.6-1.3-1.9-2-3.5-2c-2.4,0-4.1,1.7-4.1,4.2
		c0,2.5,1.7,4.2,4.1,4.2c1.6,0,3-0.8,3.5-2l4.8,2.7c-1.6,2.8-4.7,4.7-8.2,4.7C4.1,45.3,0,41.1,0,35.6"/>
	<path class="st1" d="M31.8,35.6c0-2.6-1.8-4.3-4.2-4.3s-4.2,1.7-4.2,4.3s1.8,4.3,4.2,4.3S31.8,38.2,31.8,35.6 M17.9,35.6
		c0-5.4,4.3-9.6,9.7-9.6c5.4,0,9.7,4.2,9.7,9.6c0,5.4-4.3,9.6-9.7,9.6C22.2,45.3,17.9,41.1,17.9,35.6"/>
	<path class="st1" d="M66.5,33.6v11.2H61V34c0-1.8-0.9-3-2.6-3c-1.8,0-2.8,1.3-2.8,3.4v10.3h-5.5V34c0-1.8-0.9-3-2.6-3
		c-1.8,0-2.8,1.3-2.8,3.4v10.3h-5.5V26.5h5.5v1.7C45.4,27,47,26,49.5,26c2.2,0,3.8,0.9,4.8,2.4c1-1.5,2.7-2.4,5.3-2.4
		C63.7,26,66.5,29,66.5,33.6"/>
	<path class="st0" d="M86.2,40c-2.4,0-4.3-1.9-4.3-4.3c0-2.4,1.9-4.3,4.3-4.3c2.4,0,4.3,1.9,4.3,4.3C90.5,38.1,88.6,40,86.2,40
		 M90.1,26.6v1.2c-1.1-1-2.5-1.7-4.3-1.7c-5.2,0-9,4.3-9,9.6c0,5.3,3.9,9.6,9,9.6c1.8,0,3.2-0.7,4.3-1.7v1.2h5.5V26.6H90.1z"/>
	<path class="st0" d="M72.2,45.3c-2.4,0-4.3-1.9-4.3-4.3c0-2.4,1.9-4.3,4.3-4.3c2.4,0,4.3,1.9,4.3,4.3
		C76.5,43.3,74.6,45.3,72.2,45.3"/>
	<path class="st0" d="M114.7,26.5v18.2h-5.5v-1.2c-1,1.2-2.5,1.7-5.2,1.7c-3.7,0-6.8-2.6-6.8-7.5V26.5h5.5v10.1
		c0,2.3,1.4,3.3,3.2,3.3c2,0,3.4-1.2,3.4-3.7v-9.7H114.7z"/>
</g>
</svg>
