<?xml version="1.0" encoding="utf-8"?>
<!-- Generator: Adobe Illustrator 26.0.3, SVG Export Plug-In . SVG Version: 6.00 Build 0)  -->
<svg version="1.1" id="Layer_1" xmlns="http://www.w3.org/2000/svg" xmlns:xlink="http://www.w3.org/1999/xlink" x="0px" y="0px"
	 viewBox="0 0 141.7 56" style="enable-background:new 0 0 141.7 56;" xml:space="preserve">
<style type="text/css">
	.st0{fill:#CFDC2B;}
	.st1{fill:#282634;}
</style>
<g>
	<path class="st0" d="M26,42.1c0,7.3-5.8,13.1-13,13.1c-7.2,0-13-5.9-13-13.1C0,34.8,5.8,29,13,29C20.2,29,26,34.8,26,42.1z"/>
	<path class="st1" d="M85,1v53H69.2v-5c-3.5,4-8.6,6.5-15.6,6.5c-13.7,0-25.1-12.2-25.1-28c0-15.8,11.3-28,25.1-28
		c7,0,12.2,2.4,15.6,6.5V1L85,1L85,1z M69.2,27.5c0-8-5.2-12.9-12.5-12.9s-12.5,5-12.5,12.9c0,8,5.2,12.9,12.5,12.9
		S69.2,35.5,69.2,27.5z"/>
	<path class="st1" d="M141.7,1v53H126v-5c-2.8,3.9-8.1,6.5-15,6.5c-10.6,0-19.6-7.6-19.6-21.9V1h15.7v30.2c0,6.6,4.1,9.6,9.1,9.6
		c5.8,0,9.8-3.4,9.8-10.9V1H141.7z"/>
</g>
</svg>
