<?xml version="1.0" encoding="utf-8"?>
<!-- Generator: Adobe Illustrator 25.1.0, SVG Export Plug-In . SVG Version: 6.00 Build 0)  -->
<svg version="1.1" id="Layer_1" xmlns="http://www.w3.org/2000/svg" xmlns:xlink="http://www.w3.org/1999/xlink" x="0px" y="0px"
	 viewBox="0 0 141.7 46" style="enable-background:new 0 0 141.7 46;" xml:space="preserve">
<style type="text/css">
	.st0{fill:#262626;}
	.st1{fill:#25AF4B;}
</style>
<g id="Layer_2_1_">
	<g id="Layer_1-2">
		<polygon class="st0" points="23.9,0 22.3,9.6 17.7,9.6 16.3,18.5 21.1,18.5 17.8,39.4 22.5,46 36.4,46 41.8,39.5 42.7,34 33.6,34 
			33.3,35.7 32.1,36.9 28.2,36.9 27.2,35.8 30.1,18.3 39.1,18.3 40.5,9.6 32.2,9.7 33.9,0 		"/>
		<path class="st0" d="M72.9,9.7l5.1,6.2l-1.6,9.8l-6.6,5.4l-14.7,0.1l-0.7,4.3l1,1.2l8.3-0.1l1.6-1.3v-1.7l9.7,0.1l-0.9,5.8
			L68.4,46H49.6l-5.1-6.5l3.8-23.3l7.8-6.5L72.9,9.7z M67.4,22.3l0.9-3.7l-0.9-1h-8.5l-1.4,1.1l-0.9,5h9.8L67.4,22.3z"/>
		<polygon class="st0" points="100.8,46 81.8,46 76.7,39.4 80.6,16 88.1,9.7 106.1,9.7 110.5,16 109.6,21.8 99.5,21.6 99.7,19.6 
			99,18.5 90.5,18.3 88.8,19.7 86.2,36.1 87.2,37.4 95.6,37.4 97.1,36.1 97.5,33.9 107.4,33.8 106.6,39.5 		"/>
		<polygon class="st0" points="115.8,0.1 108.1,46 117.3,46 121.4,21.8 124.3,19.8 130.4,19.8 131.8,22.3 127.9,46 136.9,46 
			141.7,16 136.9,9.7 126.4,9.7 122.9,12.5 124.9,0.1 		"/>
		<circle class="st1" cx="7.7" cy="38.3" r="7.7"/>
	</g>
</g>
</svg>
