<?xml version="1.0" encoding="utf-8"?>
<!-- Generator: Adobe Illustrator 25.4.1, SVG Export Plug-In . SVG Version: 6.00 Build 0)  -->
<svg version="1.1" id="Layer_1" xmlns="http://www.w3.org/2000/svg" xmlns:xlink="http://www.w3.org/1999/xlink" x="0px" y="0px"
	 viewBox="0 0 599.5 297.1" style="enable-background:new 0 0 599.5 297.1;" xml:space="preserve">
<style type="text/css">
	.st0{fill:#111111;}
	.st1{fill:#FFFFFF;}
	.st2{fill:url(#SVGID_1_);}
</style>
<polygon class="st0" points="547,297.1 0,297.1 52.5,0 599.5,0 "/>
<path class="st1" d="M171,248.7h-14.4h-19l37.5-212.6h43.3L201.6,130c8.3-20.7,22.9-31.8,46.1-31.8c29,0,49.3,19.4,49.3,61.4
	c0,52.2-27.4,92.9-74.5,92.9c-19.4,0-36.3-8.9-39.1-26.1L171,248.7z M191.4,187.6c-3.2,18.1,4.1,34.7,21.6,34.7
	c24.2,0,37.5-29,37.5-58.9c0-21-9.5-32.1-24.5-32.1c-14.3,0-26.7,12.4-31.2,36.9L191.4,187.6z"/>
<path class="st1" d="M353.7,202.6c-1.3,7-1,13,8.6,13c2.9,0,5.7-0.3,9.5-1.3l-6.7,32.1c-7.3,2.2-15.9,3.8-23.2,3.8
	c-27.4,0-37.5-14.3-33.1-40.7l19.1-107.8h43.3L353.7,202.6z"/>
<path class="st1" d="M458,192.7c-11.5,15.6-20,23.2-20,23.2v1.3c0,0,9.2-1.6,25.4-1.6h45.2l-5.5,33.1H384.1l5.1-24.7l46.5-65.6
	c11.5-15.6,20-23.2,20-23.2v-1.3c0,0-8.9,1.6-25.4,1.6h-37.5l5.6-33.7h107v26.7L458,192.7z"/>
<path class="st1" d="M354.3,40.2c15.3,0,26.7,8.6,26.7,24.8c0,15.6-11.5,24.2-26.7,24.2c-14,0-25.8-8.6-25.8-24.2
	C328.5,48.8,340.3,40.2,354.3,40.2z"/>
<linearGradient id="SVGID_1_" gradientUnits="userSpaceOnUse" x1="88.9083" y1="251.2374" x2="88.9083" y2="185.0734">
	<stop  offset="7.000000e-02" style="stop-color:#CEF833"/>
	<stop  offset="0.332" style="stop-color:#42FEBA"/>
	<stop  offset="0.4862" style="stop-color:#3EFEBF"/>
	<stop  offset="0.6577" style="stop-color:#31FECC"/>
	<stop  offset="0.8368" style="stop-color:#1BFFE2"/>
	<stop  offset="1" style="stop-color:#01FFFD"/>
</linearGradient>
<circle class="st2" cx="88.9" cy="218.2" r="33.1"/>
</svg>
