<?xml version="1.0" encoding="utf-8"?>
<!-- Generator: Adobe Illustrator 25.1.0, SVG Export Plug-In . SVG Version: 6.00 Build 0)  -->
<svg version="1.1" id="Layer_1" xmlns="http://www.w3.org/2000/svg" xmlns:xlink="http://www.w3.org/1999/xlink" x="0px" y="0px"
	 viewBox="0 0 141.7 39.1" style="enable-background:new 0 0 141.7 39.1;" xml:space="preserve">
<style type="text/css">
	.st0{fill:#0EADB3;}
	.st1{fill:#3D3D3D;}
</style>
<g>
	<g>
		<path class="st0" d="M10.9,33.5c0,3-2.4,5.4-5.4,5.4c-3,0-5.4-2.4-5.4-5.4c0-3,2.4-5.4,5.4-5.4C8.5,28.1,10.9,30.5,10.9,33.5z"/>
	</g>
	<g>
		<g>
			<path class="st1" d="M33.3,28.7c0,7.3,3.8,10.1,10.3,10.1h14.2c-3.2-2.3-5.7-5.4-7.1-9.1l-3.8,0c-2,0-2.9-0.9-2.9-3V15.8h6.4V7.2
				h-6.4V0H33.3V28.7z"/>
		</g>
	</g>
	<g>
		<g>
			<path class="st1" d="M53.1,23.1V23c0-8.7,7.1-16,16.9-16c9.8,0,16.8,7.2,16.8,15.8V23c0,8.7-7.1,16-16.9,16
				C60.1,38.9,53.1,31.8,53.1,23.1z M76.3,23.1V23c0-3.7-2.7-6.9-6.5-6.9c-3.9,0-6.4,3.1-6.4,6.8V23c0,3.7,2.7,6.9,6.5,6.9
				C73.9,29.9,76.3,26.8,76.3,23.1z"/>
		</g>
	</g>
	<g>
		<g>
			<path class="st1" d="M19.9,18.9c-3.2-1-5-1.5-5-2.7v-0.1c0-0.8,0.8-1.5,2.5-1.5c2.4,0,5.9,1.1,9,2.8l3.7-6.8
				C26.6,8.4,22,7.1,17.5,7.1c-7,0-12.2,3.6-12.2,10.1v0.1c0,6.1,4.8,8.2,10.8,9.7c3.2,0.9,4.9,1.4,4.9,2.6v0.1
				c0,1.1-0.8,1.6-2.7,1.6c-1.5,0-3.2-0.3-5-0.8c0.4,0.9,0.6,1.9,0.6,2.9c0,1.8-0.7,3.4-1.7,4.7c2,0.5,4,0.7,6,0.7
				c7.4,0,12.5-3.5,12.5-10.2v-0.1C30.7,22.7,25.9,20.6,19.9,18.9z"/>
		</g>
	</g>
	<g>
		<path class="st1" d="M108.8,18.4c-5.6,0-8.7,3.2-8.7,10.3v10.2H89.4V7.6h10.7v6.1c1.7-4.2,4.6-6.9,9.6-6.7h7.3
			c0,0-6.3,2.8-7.8,11.3H108.8z"/>
	</g>
	<g>
		<path class="st1" d="M129,31c-3.4,0-5.8-1.7-6.6-5.1l11.1,0c8.1,0,8.2-8,8.2-8c0-0.1,0-0.2,0-0.3c-1.8-0.8-3.4-0.9-4.6-0.7
			c0,0.2,0,0.2,0,0.4c0,2.2-1.8,4-4,4h-2h-8c-1.1,0-2-0.9-2-2v-4.1c0-1.1,0.9-2,2-2h8h2v0c1.8,0,3.4,1.1,3.9,2.8
			c1.3-0.2,2.9-0.1,4.7,0.6c-0.5-6.9-5.9-9.7-14.1-9.7c-9.1,0-15.5,7.1-15.5,16.1v0.1c0,9.5,6.8,16,16.5,16c6.1,0,10.4-2.5,13.3-6.2
			l-6-4.9C133.6,30,131.5,31,129,31z"/>
	</g>
	<g>
		<path class="st0" d="M134.9,17.3c-0.1,0.2-0.3,0.4-0.6,0.4c-0.3,0-0.6-0.3-0.6-0.6c0-0.3,0.3-0.6,0.6-0.6c0.1,0,0.3,0.1,0.4,0.1
			c0.2-0.1,0.4-0.2,0.7-0.2c-0.2-0.3-0.6-0.6-1-0.6c-0.7,0-1.3,0.6-1.3,1.3c0,0.7,0.6,1.3,1.3,1.3s1.3-0.6,1.3-1.3c0,0,0,0,0-0.1
			C135.3,17.2,135.1,17.3,134.9,17.3z"/>
	</g>
</g>
</svg>
