<?xml version="1.0" encoding="utf-8"?>
<!-- Generator: Adobe Illustrator 25.1.0, SVG Export Plug-In . SVG Version: 6.00 Build 0)  -->
<svg version="1.1" id="Layer_1" xmlns="http://www.w3.org/2000/svg" xmlns:xlink="http://www.w3.org/1999/xlink" x="0px" y="0px"
	 viewBox="0 0 141.7 38.7" style="enable-background:new 0 0 141.7 38.7;" xml:space="preserve">
<style type="text/css">
	.st0{fill-rule:evenodd;clip-rule:evenodd;fill:#3E3E3D;}
	.st1{fill-rule:evenodd;clip-rule:evenodd;fill:#10A44A;}
</style>
<g id="g6">
	<path id="path2" class="st0" d="M39,19.7c0-3.2-0.1-6-0.2-8.3h6.8L46,15h0.2c1-1.6,3.6-4.1,7.8-4.1c5.2,0,9.1,3.5,9.1,11.2v15.4
		h-7.9V23c0-3.3-1.1-5.6-4-5.6c-2.2,0-3.5,1.5-4,3c-0.2,0.5-0.3,1.3-0.3,2v15H39C39,37.4,39,19.7,39,19.7z M66.6,37.4h7.3V0h-7.3
		V37.4z M77.7,37.4h8V11.4h-8L77.7,37.4L77.7,37.4z M86,4.1c0,2.2-1.7,4.1-4.3,4.1c-2.5,0-4.2-1.8-4.2-4.1C77.5,1.8,79.2,0,81.7,0
		C84.3,0,86,1.8,86,4.1L86,4.1z M89.8,19.7c0-3.2-0.1-6-0.2-8.3h6.8l0.4,3.6H97c1-1.6,3.6-4.1,7.8-4.1c5.2,0,9.1,3.5,9.1,11.2v15.4
		H106V23c0-3.3-1.1-5.6-4-5.6c-2.2,0-3.5,1.5-4,3c-0.2,0.5-0.3,1.3-0.3,2v15h-7.9L89.8,19.7L89.8,19.7z M134.4,21.8
		c0-2-0.8-5.4-4.5-5.4c-3.3,0-4.7,3.2-4.9,5.4H134.4z M125.1,27.4c0.3,3.4,3.5,5.1,7.2,5.1c2.7,0,4.9-0.4,7-1.1l1,5.6
		c-2.6,1.1-5.8,1.6-9.2,1.6c-8.6,0-13.6-5.2-13.6-13.6c0-6.8,4-14.2,12.9-14.2c8.2,0,11.4,6.7,11.4,13.3c0,1.4-0.2,2.7-0.3,3.3
		H125.1L125.1,27.4z M23.1,32.7c-3.4,0-5.2-3.4-5.2-8c0-3.9,1.4-8,5.2-8c3.6,0,5.1,4,5.1,8C28.2,29.5,26.2,32.7,23.1,32.7
		 M23.3,10.9c-8.2,0-13.6,5.5-13.6,14.1c0,0.2,0,0.4,0,0.7c2.4,1.5,4,4.2,4,7.3c0,0.7-0.1,1.4-0.2,2c2.4,2.4,5.7,3.7,9.5,3.7
		c6.8,0,13.5-4.5,13.5-14.2C36.3,16.5,31.1,10.9,23.3,10.9"/>
	<path id="path4" class="st1" d="M10.9,32c0,3-2.4,5.4-5.5,5.4C2.4,37.4,0,35,0,32c0-3,2.4-5.4,5.5-5.4C8.5,26.6,10.9,29,10.9,32"/>
</g>
</svg>
