<svg id="Layer_1" data-name="Layer 1" xmlns="http://www.w3.org/2000/svg" viewBox="0 0 577.67 292.75">
  <title>Site_New_Logo</title>
  <line x1="-32" y1="54.94" x2="477.7" y2="54.94" fill="none" stroke="#c6c6c6" stroke-miterlimit="10" stroke-width="0.25" stroke-dasharray="8"/>
  <g>
    <rect x="213.45" y="91.41" width="47.73" height="168.38" fill="#3e3e3e"/>
    <path d="M351.29,47.11H304.58V92.9H281.74v34.8h22.89v99q0,16.16,7.86,24.21c7.17,7.54,20,11.31,38.13,11.31h5l22.38-.82V224.91l-2.25.16c-1.39,0-2.78.17-4.23.22h-4.06c-11.31,0-13.75-1.45-14.23-1.89s-1.91-2.7-1.91-11V127.7H378V92.9H351.29Z" fill="#3e3e3e"/>
    <path d="M553.94,154.75a83.37,83.37,0,0,0-13.44-34.82,69.07,69.07,0,0,0-29.24-25,95.8,95.8,0,0,0-39.48-7.85c-24.55,0-44.8,7.85-60.24,23.39s-23.21,38-23.21,66.91c0,30.88,8.68,53.54,25.83,67.37a92,92,0,0,0,59.16,20.67c26.94,0,48.25-8.31,63.28-24.63,9.74-10.32,15.27-20.69,16.48-30.86l.29-2.32H505.86l-.58,1.1a31.3,31.3,0,0,1-30.86,17.69,41.67,41.67,0,0,1-22.47-5.9c-9.62-5.89-15-16.24-16-30.75H555.33v-2.08A212.7,212.7,0,0,0,553.94,154.75Zm-47.55,2.61H437.25a41.5,41.5,0,0,1,10.41-21.87c5.63-5.8,13.75-8.8,24.12-8.8a35.85,35.85,0,0,1,24.1,8.36,32.87,32.87,0,0,1,10.48,22.13Z" fill="#3e3e3e"/>
    <path d="M237.31,14.66a28.81,28.81,0,1,0,28.82,28.82,28.82,28.82,0,0,0-28.82-28.82Z" fill="#3e3e3e"/>
    <path d="M51.2,203.33h0a29.44,29.44,0,1,0,25.59,44l3.75-11.93c.08-.88.12-1.76.12-2.66A29.44,29.44,0,0,0,51.2,203.33Z" fill="none"/>
    <path d="M172.07,175.54c-8.8-8.36-22-14.65-39.45-18.76-25.36-5.55-40.23-9.48-44.3-11.71a9.07,9.07,0,0,1-5.24-8.8c.15-3.53.65-7.32,5.72-10.58s9-4.29,17.87-4.29c10.69,0,18.34,2.61,22.53,7.85,2.51,3.56,4.31,10.06,4.6,14.49l.21,1.86h47v-2.3c-2-20.67-9.79-35.45-23.27-44S127.26,86,106.45,86c-22.09,0-39.55,6.28-51.8,17.6a53.39,53.39,0,0,0-18.52,40.65c0,13.41,4.13,22.81,12.17,30,7.54,6.76,19.31,11.23,36.85,16.72,2.27.7,4.55,1.33,6.86,1.88,29.21,7.07,38.37,11.32,40.9,13a10.05,10.05,0,0,1,5,9.23,11.66,11.66,0,0,1-6.28,9.93,39.61,39.61,0,0,1-19.91,4.26,101.36,101.36,0,0,1-21.49-2.37A39.34,39.34,0,0,1,77.7,262a130.68,130.68,0,0,0,31.2,3.39c25.73,0,45.11-5.24,57.63-16a52.07,52.07,0,0,0,18.85-41.48A43.54,43.54,0,0,0,172.07,175.54Z" fill="#3e3e3e"/>
    <path d="M80.52,235.43l-3.75,11.93A29.41,29.41,0,0,0,80.52,235.43Z" fill="#3e3e3e"/>
    <path d="M51.2,263.35a30.65,30.65,0,1,1,.08,0Z" fill="#74569a"/>
  </g>
</svg>
