<?xml version="1.0" encoding="utf-8"?>
<!-- Generator: Adobe Illustrator 24.1.0, SVG Export Plug-In . SVG Version: 6.00 Build 0)  -->
<svg version="1.1" id="Layer_1" xmlns="http://www.w3.org/2000/svg" xmlns:xlink="http://www.w3.org/1999/xlink" x="0px" y="0px"
	 viewBox="0 0 56.7 11.6" style="enable-background:new 0 0 56.7 11.6;" xml:space="preserve">
<style type="text/css">
	.st0{fill:#00549E;}
</style>
<g>
	<path id="Facebook" class="st0" d="M45.4,5.6c-0.8,0-1.1,0.4-1.1,1v2c0,0.5,0.3,1,1.1,1c0.8,0,1.1-0.4,1.1-1v-2
		C46.5,6.1,46.2,5.6,45.4,5.6L45.4,5.6z M56.7,11.5h-2.6l-2.2-3.6v3.6h-2.4V0.6l2.4-0.4v7l2.2-3.4h2.6l-2.4,3.8L56.7,11.5z
		 M48.9,8.4c0,1.6-0.7,3.2-3.5,3.2c-2.8,0-3.5-1.6-3.5-3.2V6.8c0-1.6,0.7-3.2,3.5-3.2c2.8,0,3.5,1.6,3.5,3.2V8.4z M41.3,8.4
		c0,1.6-0.7,3.2-3.5,3.2c-2.8,0-3.5-1.6-3.5-3.2V6.8c0-1.6,0.7-3.2,3.5-3.2c2.8,0,3.5,1.6,3.5,3.2V8.4z M33.6,8.4
		c0,1.9-0.5,3.2-3.8,3.2c-1.2,0-1.9-0.1-3.2-0.3V0.6l2.4-0.4v3.7c0.5-0.2,1.2-0.3,1.8-0.3c2.4,0,2.8,1.1,2.8,2.8V8.4z M25.9,8.3
		h-4.4v0.2c0,0.9,0.3,1.1,1.4,1.1c1,0,1.5,0,2.8-0.3v1.9c-1.2,0.2-1.8,0.3-3,0.3c-2.6,0-3.6-1.3-3.6-3.3V6.7c0-1.7,0.8-3.1,3.4-3.1
		c2.6,0,3.4,1.4,3.4,3.1V8.3z M18.4,5.9c-1.2-0.2-1.6-0.3-2.2-0.3c-1.1,0-1.4,0.2-1.4,1.1v1.7c0,0.9,0.3,1.1,1.4,1.1
		c0.6,0,0.9,0,2.2-0.3v1.9c-1.1,0.2-1.8,0.3-2.4,0.3c-2.6,0-3.6-1.3-3.6-3.3V6.9c0-1.9,1-3.3,3.6-3.3c0.6,0,1.3,0.1,2.4,0.3V5.9z
		 M11.7,11.5h-2L9.6,11c-0.9,0.5-1.7,0.6-2.2,0.6c-1.5,0-2.2-1-2.2-2.3c0-1.6,0.9-2.1,2.5-2.1h1.6V6.8c0-0.8-0.1-1-1.3-1h-2l0.2-2
		h2.2c2.7,0,3.3,0.9,3.3,3V11.5z M3.6,11.5H1.2V5.7H0v-2h1.2V2.6C1.2,1,1.9,0,3.8,0h1.6v2h-1C3.6,2,3.6,2.3,3.6,2.8l0,1h1.8l-0.2,2
		H3.6V11.5z M37.8,5.6c-0.8,0-1.1,0.4-1.1,1v2c0,0.5,0.3,1,1.1,1c0.8,0,1.1-0.4,1.1-1v-2C38.9,6.1,38.6,5.6,37.8,5.6L37.8,5.6z
		 M7.5,9.2c0,0.4,0.2,0.7,0.7,0.7c0.5,0,0.8-0.2,1.1-0.3V8.7H8.3C7.8,8.7,7.5,8.8,7.5,9.2L7.5,9.2z M22.5,5.4c-0.8,0-1,0.4-1,1v0.3
		h2V6.4C23.5,5.9,23.3,5.4,22.5,5.4L22.5,5.4z M30.3,5.6c-0.5,0-0.8,0.2-1.2,0.3v3.7c0.3,0,0.5,0,0.9,0c1.2,0,1.3-0.5,1.3-1.3V6.6
		C31.2,6.1,31.1,5.6,30.3,5.6L30.3,5.6z"/>
</g>
</svg>
