<svg xmlns="http://www.w3.org/2000/svg" xmlns:xlink="http://www.w3.org/1999/xlink" id="Layer_1" x="0px" y="0px" viewBox="0 0 141.7 141.7" style="enable-background:new 0 0 141.7 141.7;" xml:space="preserve"> <style type="text/css"> .st0{fill:#31383F;} .st1{fill:#FFFFFF;} </style> <g> <path class="st0" d="M43.6,17.5c0,1.3-1.1,2.4-2.4,2.4H7.7c-1.3,0-2.4-1.1-2.4-2.4c0-1.3,1.1-2.4,2.4-2.4h33.5 C42.5,15.1,43.6,16.2,43.6,17.5z"></path> <path class="st0" d="M96,124.5c0,1.3-1.1,2.4-2.4,2.4H60.1c-1.3,0-2.4-1.1-2.4-2.4c0-1.3,1.1-2.4,2.4-2.4h33.5 C94.9,122.1,96,123.1,96,124.5z"></path> <path class="st0" d="M69.5,10.1h-49c-1.3,0-2.4-1.1-2.4-2.4s1.1-2.4,2.4-2.4h49c1.3,0,2.4,1.1,2.4,2.4S70.9,10.1,69.5,10.1z"></path> <path class="st0" d="M30.9,131.7h49c1.3,0,2.4,1.1,2.4,2.4s-1.1,2.4-2.4,2.4h-49c-1.3,0-2.4-1.1-2.4-2.4 C28.5,132.8,29.5,131.7,30.9,131.7z"></path> <polygon class="st1" points="5,54.2 136.5,26 105.5,112.8 77.7,94.9 50.6,111.7 43,74 "></polygon> <path class="st0" d="M140.3,25.9c0-0.1,0-0.1,0-0.2c0-0.2,0-0.3,0-0.5c0,0,0-0.1,0-0.1c0-0.2-0.1-0.5-0.2-0.7c0,0,0-0.1-0.1-0.1 c0,0,0,0,0,0c0,0,0,0,0,0c0,0,0-0.1,0-0.1c-0.1-0.2-0.3-0.4-0.5-0.5c0,0-0.1,0-0.1-0.1c-0.2-0.1-0.4-0.2-0.5-0.3 c-0.1,0-0.2,0-0.3-0.1c-0.2,0-0.3,0-0.5,0c-0.1,0-0.2,0-0.3,0c-0.1,0-0.1,0-0.2,0L3.3,51c-0.9,0.2-1.7,1-1.8,1.9 c-0.1,1,0.3,1.9,1.2,2.4l38.5,20.3l6.8,37.4c0,0,0,0.1,0,0.1c0,0.2,0,0.4,0,0.6c0,0.1,0,0.2,0,0.3c0,0.2,0.1,0.4,0.2,0.6 c0,0,0,0.1,0,0.1c0,0,0,0,0,0c0,0,0.1,0.1,0.1,0.1c0.1,0.1,0.2,0.3,0.4,0.4c0,0,0,0,0.1,0.1c0,0,0.1,0,0.1,0.1 c0.1,0.1,0.3,0.2,0.4,0.2c0.1,0,0.1,0,0.2,0.1c0.2,0.1,0.4,0.1,0.6,0.1h0c0,0,0,0,0,0c0,0,0.1,0,0.1,0c0.6,0,1.2-0.3,1.7-0.7 l25.6-17.1l26.8,17.4c0.4,0.2,0.8,0.4,1.3,0.4c0.2,0,0.5,0,0.7-0.1c0.7-0.2,1.2-0.7,1.4-1.4l32.4-87.9c0-0.1,0-0.2,0.1-0.2 C140.3,26.1,140.3,26.1,140.3,25.9C140.3,26,140.3,26,140.3,25.9L140.3,25.9z M113.5,40.7L58,81.5c-0.1,0.1-0.2,0.1-0.2,0.2 c0,0-0.1,0.1-0.1,0.1c-0.1,0.1-0.1,0.1-0.1,0.2c0,0.1-0.1,0.1-0.1,0.2c-0.1,0.1-0.2,0.3-0.2,0.4c0,0,0,0,0,0.1c0,0,0,0,0,0 l-6.4,20.7l-5-28L113.5,40.7z M54.4,107.8L60.7,87l9.8,6.4l2.8,1.8l-9.5,6.4L54.4,107.8z M121.8,31.3L43.2,71.5L10.5,54.3 L121.8,31.3z M104.5,109.9L68.8,86.8l-5.4-3.5L133.2,32L104.5,109.9z M104.5,109.9"></path> </g> </svg>