<?xml version="1.0" encoding="utf-8"?>
<!-- Generator: Adobe Illustrator 23.0.0, SVG Export Plug-In . SVG Version: 6.00 Build 0)  -->
<svg version="1.1" id="Layer_1" xmlns="http://www.w3.org/2000/svg" xmlns:xlink="http://www.w3.org/1999/xlink" x="0px" y="0px"
	 viewBox="0 0 283.46 272.05" style="enable-background:new 0 0 283.46 272.05;" xml:space="preserve">
<style type="text/css">
	.st0{opacity:0.13;}
	.st1{fill:url(#SVGID_1_);}
	.st2{fill:url(#SVGID_2_);}
	.st3{fill:url(#SVGID_3_);}
	.st4{fill:url(#SVGID_4_);}
	.st5{fill:url(#SVGID_5_);}
	.st6{fill:url(#SVGID_6_);}
	.st7{fill:url(#SVGID_7_);}
	.st8{fill:url(#SVGID_8_);}
	.st9{fill:url(#SVGID_9_);}
	.st10{fill:url(#SVGID_10_);}
	.st11{fill:url(#SVGID_11_);}
	.st12{fill:url(#SVGID_12_);}
	.st13{fill:url(#SVGID_13_);}
	.st14{fill:url(#SVGID_14_);}
	.st15{fill:url(#SVGID_15_);}
	.st16{fill:url(#SVGID_16_);}
	.st17{fill:url(#SVGID_17_);}
	.st18{fill:url(#SVGID_18_);}
	.st19{fill:url(#SVGID_19_);}
	.st20{fill:url(#SVGID_20_);}
	.st21{fill:url(#SVGID_21_);}
	.st22{fill:url(#SVGID_22_);}
	.st23{fill:url(#SVGID_23_);}
	.st24{fill:url(#SVGID_24_);}
	.st25{fill:url(#SVGID_25_);}
	.st26{fill:url(#SVGID_26_);}
	.st27{fill:url(#SVGID_27_);}
	.st28{fill:url(#SVGID_28_);}
	.st29{fill:url(#SVGID_29_);}
	.st30{fill:url(#SVGID_30_);}
	.st31{fill:url(#SVGID_31_);}
	.st32{fill:url(#SVGID_32_);}
	.st33{fill:url(#SVGID_33_);}
	.st34{fill:url(#SVGID_34_);}
	.st35{fill:#DB4536;}
	.st36{fill:#F3B41B;}
	.st37{fill:#547DBF;}
	.st38{fill:#0F9D58;}
</style>
<g>
	<g class="st0">
		
			<linearGradient id="SVGID_1_" gradientUnits="userSpaceOnUse" x1="1064.1101" y1="-1404.7179" x2="1087.3884" y2="-1404.7179" gradientTransform="matrix(0 -1 -1 0 -1308.2676 1137.3975)">
			<stop  offset="0.1" style="stop-color:#2F3A4A"/>
			<stop  offset="0.2058" style="stop-color:#3D434C"/>
			<stop  offset="0.4192" style="stop-color:#645D4F"/>
			<stop  offset="0.7178" style="stop-color:#AD9144"/>
			<stop  offset="0.95" style="stop-color:#FECF0C"/>
		</linearGradient>
		<polygon class="st1" points="88.55,60.25 96.45,50.01 104.35,60.25 99.55,60.25 99.55,73.29 93.5,73.29 93.5,60.25 		"/>
		
			<linearGradient id="SVGID_2_" gradientUnits="userSpaceOnUse" x1="992.1765" y1="-1495.3198" x2="1007.1513" y2="-1495.3198" gradientTransform="matrix(0 -1 -1 0 -1308.2676 1137.3975)">
			<stop  offset="0.1" style="stop-color:#2F3A4A"/>
			<stop  offset="0.2058" style="stop-color:#3D434C"/>
			<stop  offset="0.4192" style="stop-color:#645D4F"/>
			<stop  offset="0.7178" style="stop-color:#AD9144"/>
			<stop  offset="0.95" style="stop-color:#FECF0C"/>
		</linearGradient>
		<polygon class="st2" points="181.97,136.84 187.05,130.25 192.14,136.84 189.05,136.84 189.05,145.22 185.15,145.22 
			185.15,136.84 		"/>
		
			<linearGradient id="SVGID_3_" gradientUnits="userSpaceOnUse" x1="1048.448" y1="-1313.5522" x2="1060.9706" y2="-1313.5522" gradientTransform="matrix(0 -1 -1 0 -1308.2676 1137.3975)">
			<stop  offset="0.1" style="stop-color:#2F3A4A"/>
			<stop  offset="0.2058" style="stop-color:#3D434C"/>
			<stop  offset="0.4192" style="stop-color:#645D4F"/>
			<stop  offset="0.7178" style="stop-color:#AD9144"/>
			<stop  offset="0.95" style="stop-color:#FECF0C"/>
		</linearGradient>
		<polygon class="st3" points="1.03,81.94 5.28,76.43 9.54,81.94 6.95,81.94 6.95,88.95 3.7,88.95 3.7,81.94 		"/>
		
			<linearGradient id="SVGID_4_" gradientUnits="userSpaceOnUse" x1="1056.9113" y1="-1529.5428" x2="1077.8318" y2="-1529.5428" gradientTransform="matrix(0 -1 -1 0 -1308.2676 1137.3975)">
			<stop  offset="0.1" style="stop-color:#2F3A4A"/>
			<stop  offset="0.2058" style="stop-color:#3D434C"/>
			<stop  offset="0.4192" style="stop-color:#645D4F"/>
			<stop  offset="0.7178" style="stop-color:#AD9144"/>
			<stop  offset="0.95" style="stop-color:#FECF0C"/>
		</linearGradient>
		<polygon class="st4" points="214.17,68.77 221.28,59.57 228.38,68.77 224.06,68.77 224.06,80.49 218.62,80.49 218.62,68.77 		"/>
		
			<linearGradient id="SVGID_5_" gradientUnits="userSpaceOnUse" x1="1080.8219" y1="-1354.3453" x2="1106.7479" y2="-1354.3453" gradientTransform="matrix(0 -1 -1 0 -1308.2676 1137.3975)">
			<stop  offset="0.1" style="stop-color:#2F3A4A"/>
			<stop  offset="0.2058" style="stop-color:#3D434C"/>
			<stop  offset="0.4192" style="stop-color:#645D4F"/>
			<stop  offset="0.7178" style="stop-color:#AD9144"/>
			<stop  offset="0.95" style="stop-color:#FECF0C"/>
		</linearGradient>
		<polygon class="st5" points="37.27,42.06 46.08,30.65 54.88,42.06 49.53,42.06 49.53,56.58 42.79,56.58 42.79,42.06 		"/>
		
			<linearGradient id="SVGID_6_" gradientUnits="userSpaceOnUse" x1="1092.4464" y1="-1488.8243" x2="1130.6212" y2="-1488.8243" gradientTransform="matrix(0 -1 -1 0 -1308.2676 1137.3975)">
			<stop  offset="0.1" style="stop-color:#2F3A4A"/>
			<stop  offset="0.2058" style="stop-color:#3D434C"/>
			<stop  offset="0.4192" style="stop-color:#645D4F"/>
			<stop  offset="0.7178" style="stop-color:#AD9144"/>
			<stop  offset="0.95" style="stop-color:#FECF0C"/>
		</linearGradient>
		<polygon class="st6" points="167.59,23.58 180.56,6.78 193.52,23.58 185.65,23.58 185.65,44.95 175.72,44.95 175.72,23.58 		"/>
		
			<linearGradient id="SVGID_7_" gradientUnits="userSpaceOnUse" x1="954.7046" y1="-1384.1262" x2="1005.5381" y2="-1384.1262" gradientTransform="matrix(0 -1 -1 0 -1308.2676 1137.3975)">
			<stop  offset="0.1" style="stop-color:#2F3A4A"/>
			<stop  offset="0.2058" style="stop-color:#3D434C"/>
			<stop  offset="0.4192" style="stop-color:#645D4F"/>
			<stop  offset="0.7178" style="stop-color:#AD9144"/>
			<stop  offset="0.95" style="stop-color:#FECF0C"/>
		</linearGradient>
		<polygon class="st7" points="58.6,154.23 75.86,131.86 93.12,154.23 82.64,154.23 82.64,182.69 69.41,182.69 69.41,154.23 		"/>
		
			<linearGradient id="SVGID_8_" gradientUnits="userSpaceOnUse" x1="1001.6688" y1="-1351.7003" x2="1061.1642" y2="-1351.7003" gradientTransform="matrix(0 -1 -1 0 -1308.2676 1137.3975)">
			<stop  offset="0.1" style="stop-color:#2F3A4A"/>
			<stop  offset="0.2058" style="stop-color:#3D434C"/>
			<stop  offset="0.4192" style="stop-color:#645D4F"/>
			<stop  offset="0.7178" style="stop-color:#AD9144"/>
			<stop  offset="0.95" style="stop-color:#FECF0C"/>
		</linearGradient>
		<polygon class="st8" points="23.23,102.42 43.43,76.23 63.64,102.42 51.37,102.42 51.37,135.73 35.89,135.73 35.89,102.42 		"/>
		
			<linearGradient id="SVGID_9_" gradientUnits="userSpaceOnUse" x1="997.1995" y1="-1409.2661" x2="1056.4727" y2="-1409.2661" gradientTransform="matrix(0 -1 -1 0 -1308.2676 1137.3975)">
			<stop  offset="0.1" style="stop-color:#2F3A4A"/>
			<stop  offset="0.2058" style="stop-color:#3D434C"/>
			<stop  offset="0.4192" style="stop-color:#645D4F"/>
			<stop  offset="0.7178" style="stop-color:#AD9144"/>
			<stop  offset="0.95" style="stop-color:#FECF0C"/>
		</linearGradient>
		<polygon class="st9" points="80.87,107.01 101,80.92 121.13,107.01 108.9,107.01 108.9,140.2 93.48,140.2 93.48,107.01 		"/>
		
			<linearGradient id="SVGID_10_" gradientUnits="userSpaceOnUse" x1="958.444" y1="-1466.4597" x2="995.9219" y2="-1466.4597" gradientTransform="matrix(0 -1 -1 0 -1308.2676 1137.3975)">
			<stop  offset="0.1" style="stop-color:#2F3A4A"/>
			<stop  offset="0.2058" style="stop-color:#3D434C"/>
			<stop  offset="0.4192" style="stop-color:#645D4F"/>
			<stop  offset="0.7178" style="stop-color:#AD9144"/>
			<stop  offset="0.95" style="stop-color:#FECF0C"/>
		</linearGradient>
		<polygon class="st10" points="145.47,157.97 158.19,141.48 170.92,157.97 163.19,157.97 163.19,178.95 153.44,178.95 
			153.44,157.97 		"/>
		
			<linearGradient id="SVGID_11_" gradientUnits="userSpaceOnUse" x1="1095.6328" y1="-1539.1306" x2="1133.1239" y2="-1539.1306" gradientTransform="matrix(0 -1 -1 0 -1308.2676 1137.3975)">
			<stop  offset="0.1" style="stop-color:#2F3A4A"/>
			<stop  offset="0.2058" style="stop-color:#3D434C"/>
			<stop  offset="0.4192" style="stop-color:#645D4F"/>
			<stop  offset="0.7178" style="stop-color:#AD9144"/>
			<stop  offset="0.95" style="stop-color:#FECF0C"/>
		</linearGradient>
		<polygon class="st11" points="218.13,20.77 230.86,4.27 243.59,20.77 235.86,20.77 235.86,41.76 226.11,41.76 226.11,20.77 		"/>
		
			<linearGradient id="SVGID_12_" gradientUnits="userSpaceOnUse" x1="1121.7262" y1="-1397.6416" x2="1137.397" y2="-1397.6416" gradientTransform="matrix(0 -1 -1 0 -1308.2676 1137.3975)">
			<stop  offset="0.1" style="stop-color:#2F3A4A"/>
			<stop  offset="0.2058" style="stop-color:#3D434C"/>
			<stop  offset="0.4192" style="stop-color:#645D4F"/>
			<stop  offset="0.7178" style="stop-color:#AD9144"/>
			<stop  offset="0.95" style="stop-color:#FECF0C"/>
		</linearGradient>
		<polygon class="st12" points="84.05,6.9 89.37,0 94.7,6.9 91.46,6.9 91.46,15.67 87.39,15.67 87.39,6.9 		"/>
		
			<linearGradient id="SVGID_13_" gradientUnits="userSpaceOnUse" x1="880.7244" y1="-1340.0752" x2="893.7152" y2="-1340.0752" gradientTransform="matrix(0 -1 -1 0 -1308.2676 1137.3975)">
			<stop  offset="0.1" style="stop-color:#2F3A4A"/>
			<stop  offset="0.2058" style="stop-color:#3D434C"/>
			<stop  offset="0.4192" style="stop-color:#645D4F"/>
			<stop  offset="0.7178" style="stop-color:#AD9144"/>
			<stop  offset="0.95" style="stop-color:#FECF0C"/>
		</linearGradient>
		<polygon class="st13" points="27.4,249.4 31.81,243.68 36.22,249.4 33.54,249.4 33.54,256.67 30.16,256.67 30.16,249.4 		"/>
		
			<linearGradient id="SVGID_14_" gradientUnits="userSpaceOnUse" x1="911.4249" y1="-1401.8811" x2="945.2411" y2="-1401.8811" gradientTransform="matrix(0 -1 -1 0 -1308.2676 1137.3975)">
			<stop  offset="0.1" style="stop-color:#2F3A4A"/>
			<stop  offset="0.2058" style="stop-color:#3D434C"/>
			<stop  offset="0.4192" style="stop-color:#645D4F"/>
			<stop  offset="0.7178" style="stop-color:#AD9144"/>
			<stop  offset="0.95" style="stop-color:#FECF0C"/>
		</linearGradient>
		<polygon class="st14" points="82.13,207.04 93.61,192.16 105.1,207.04 98.12,207.04 98.12,225.97 89.33,225.97 89.33,207.04 		"/>
		
			<linearGradient id="SVGID_15_" gradientUnits="userSpaceOnUse" x1="1009.7797" y1="-1451.8412" x2="1025.8672" y2="-1451.8412" gradientTransform="matrix(0 -1 -1 0 -1308.2676 1137.3975)">
			<stop  offset="0.1" style="stop-color:#2F3A4A"/>
			<stop  offset="0.2058" style="stop-color:#3D434C"/>
			<stop  offset="0.4192" style="stop-color:#645D4F"/>
			<stop  offset="0.7178" style="stop-color:#AD9144"/>
			<stop  offset="0.95" style="stop-color:#FECF0C"/>
		</linearGradient>
		<polygon class="st15" points="138.11,118.61 143.57,111.53 149.04,118.61 145.72,118.61 145.72,127.62 141.53,127.62 
			141.53,118.61 		"/>
		
			<linearGradient id="SVGID_16_" gradientUnits="userSpaceOnUse" x1="923.8829" y1="-1470.2109" x2="943.9365" y2="-1470.2109" gradientTransform="matrix(0 -1 -1 0 -1308.2676 1137.3975)">
			<stop  offset="0.1" style="stop-color:#2F3A4A"/>
			<stop  offset="0.2058" style="stop-color:#3D434C"/>
			<stop  offset="0.4192" style="stop-color:#645D4F"/>
			<stop  offset="0.7178" style="stop-color:#AD9144"/>
			<stop  offset="0.95" style="stop-color:#FECF0C"/>
		</linearGradient>
		<polygon class="st16" points="155.13,202.29 161.94,193.46 168.75,202.29 164.62,202.29 164.62,213.51 159.4,213.51 159.4,202.29 
					"/>
		
			<linearGradient id="SVGID_17_" gradientUnits="userSpaceOnUse" x1="1008.3914" y1="-1584.1401" x2="1030.7489" y2="-1584.1401" gradientTransform="matrix(0 -1 -1 0 -1308.2676 1137.3975)">
			<stop  offset="0.1" style="stop-color:#2F3A4A"/>
			<stop  offset="0.2058" style="stop-color:#3D434C"/>
			<stop  offset="0.4192" style="stop-color:#645D4F"/>
			<stop  offset="0.7178" style="stop-color:#AD9144"/>
			<stop  offset="0.95" style="stop-color:#FECF0C"/>
		</linearGradient>
		<polygon class="st17" points="268.28,116.49 275.87,106.65 283.46,116.49 278.85,116.49 278.85,129.01 273.04,129.01 
			273.04,116.49 		"/>
		
			<linearGradient id="SVGID_18_" gradientUnits="userSpaceOnUse" x1="872.8611" y1="-1491.396" x2="887.8726" y2="-1491.396" gradientTransform="matrix(0 -1 -1 0 -1308.2676 1137.3975)">
			<stop  offset="0.1" style="stop-color:#2F3A4A"/>
			<stop  offset="0.2058" style="stop-color:#3D434C"/>
			<stop  offset="0.4192" style="stop-color:#645D4F"/>
			<stop  offset="0.7178" style="stop-color:#AD9144"/>
			<stop  offset="0.95" style="stop-color:#FECF0C"/>
		</linearGradient>
		<polygon class="st18" points="178.03,256.13 183.13,249.52 188.23,256.13 185.13,256.13 185.13,264.54 181.22,264.54 
			181.22,256.13 		"/>
		
			<linearGradient id="SVGID_19_" gradientUnits="userSpaceOnUse" x1="1001.1272" y1="-1314.7234" x2="1016.2729" y2="-1314.7234" gradientTransform="matrix(0 -1 -1 0 -1308.2676 1137.3975)">
			<stop  offset="0.1" style="stop-color:#2F3A4A"/>
			<stop  offset="0.2058" style="stop-color:#3D434C"/>
			<stop  offset="0.4192" style="stop-color:#645D4F"/>
			<stop  offset="0.7178" style="stop-color:#AD9144"/>
			<stop  offset="0.95" style="stop-color:#FECF0C"/>
		</linearGradient>
		<polygon class="st19" points="1.31,127.79 6.46,121.12 11.6,127.79 8.47,127.79 8.47,136.27 4.53,136.27 4.53,127.79 		"/>
		
			<linearGradient id="SVGID_20_" gradientUnits="userSpaceOnUse" x1="952.698" y1="-1321.4835" x2="991.6184" y2="-1321.4835" gradientTransform="matrix(0 -1 -1 0 -1308.2676 1137.3975)">
			<stop  offset="0.1" style="stop-color:#2F3A4A"/>
			<stop  offset="0.2058" style="stop-color:#3D434C"/>
			<stop  offset="0.4192" style="stop-color:#645D4F"/>
			<stop  offset="0.7178" style="stop-color:#AD9144"/>
			<stop  offset="0.95" style="stop-color:#FECF0C"/>
		</linearGradient>
		<polygon class="st20" points="0,162.91 13.22,145.78 26.43,162.91 18.41,162.91 18.41,184.7 8.28,184.7 8.28,162.91 		"/>
		
			<linearGradient id="SVGID_21_" gradientUnits="userSpaceOnUse" x1="924.877" y1="-1437.3317" x2="936.4648" y2="-1437.3317" gradientTransform="matrix(0 -1 -1 0 -1308.2676 1137.3975)">
			<stop  offset="0.1" style="stop-color:#2F3A4A"/>
			<stop  offset="0.2058" style="stop-color:#3D434C"/>
			<stop  offset="0.4192" style="stop-color:#645D4F"/>
			<stop  offset="0.7178" style="stop-color:#AD9144"/>
			<stop  offset="0.95" style="stop-color:#FECF0C"/>
		</linearGradient>
		<polygon class="st21" points="125.13,206.03 129.06,200.93 133,206.03 130.61,206.03 130.61,212.52 127.59,212.52 127.59,206.03 
					"/>
		
			<linearGradient id="SVGID_22_" gradientUnits="userSpaceOnUse" x1="1023.2973" y1="-1499.6185" x2="1064.3246" y2="-1499.6185" gradientTransform="matrix(0 -1 -1 0 -1308.2676 1137.3975)">
			<stop  offset="0.1" style="stop-color:#2F3A4A"/>
			<stop  offset="0.2058" style="stop-color:#3D434C"/>
			<stop  offset="0.4192" style="stop-color:#645D4F"/>
			<stop  offset="0.7178" style="stop-color:#AD9144"/>
			<stop  offset="0.95" style="stop-color:#FECF0C"/>
		</linearGradient>
		<polygon class="st22" points="177.42,91.13 191.35,73.07 205.28,91.13 196.82,91.13 196.82,114.1 186.15,114.1 186.15,91.13 		"/>
		
			<linearGradient id="SVGID_23_" gradientUnits="userSpaceOnUse" x1="877.3347" y1="-1384.9163" x2="892.5415" y2="-1384.9163" gradientTransform="matrix(0 -1 -1 0 -1308.2676 1137.3975)">
			<stop  offset="0.1" style="stop-color:#2F3A4A"/>
			<stop  offset="0.2058" style="stop-color:#3D434C"/>
			<stop  offset="0.4192" style="stop-color:#645D4F"/>
			<stop  offset="0.7178" style="stop-color:#AD9144"/>
			<stop  offset="0.95" style="stop-color:#FECF0C"/>
		</linearGradient>
		<polygon class="st23" points="71.49,251.55 76.65,244.86 81.81,251.55 78.68,251.55 78.68,260.06 74.72,260.06 74.72,251.55 		"/>
		
			<linearGradient id="SVGID_24_" gradientUnits="userSpaceOnUse" x1="1074.1385" y1="-1435.6952" x2="1123.7668" y2="-1435.6952" gradientTransform="matrix(0 -1 -1 0 -1308.2676 1137.3975)">
			<stop  offset="0.1" style="stop-color:#2F3A4A"/>
			<stop  offset="0.2058" style="stop-color:#3D434C"/>
			<stop  offset="0.4192" style="stop-color:#645D4F"/>
			<stop  offset="0.7178" style="stop-color:#AD9144"/>
			<stop  offset="0.95" style="stop-color:#FECF0C"/>
		</linearGradient>
		<polygon class="st24" points="110.58,35.47 127.43,13.63 144.28,35.47 134.04,35.47 134.04,63.26 121.13,63.26 121.13,35.47 		"/>
		
			<linearGradient id="SVGID_25_" gradientUnits="userSpaceOnUse" x1="865.3483" y1="-1443.6278" x2="916.1505" y2="-1443.6278" gradientTransform="matrix(0 -1 -1 0 -1308.2676 1137.3975)">
			<stop  offset="0.1" style="stop-color:#2F3A4A"/>
			<stop  offset="0.2058" style="stop-color:#3D434C"/>
			<stop  offset="0.4192" style="stop-color:#645D4F"/>
			<stop  offset="0.7178" style="stop-color:#AD9144"/>
			<stop  offset="0.95" style="stop-color:#FECF0C"/>
		</linearGradient>
		<polygon class="st25" points="118.11,243.61 135.36,221.25 152.61,243.61 142.13,243.61 142.13,272.05 128.92,272.05 
			128.92,243.61 		"/>
		
			<linearGradient id="SVGID_26_" gradientUnits="userSpaceOnUse" x1="1044.3782" y1="-1560.6184" x2="1084.2125" y2="-1560.6184" gradientTransform="matrix(0 -1 -1 0 -1308.2676 1137.3975)">
			<stop  offset="0.1" style="stop-color:#2F3A4A"/>
			<stop  offset="0.2058" style="stop-color:#3D434C"/>
			<stop  offset="0.4192" style="stop-color:#645D4F"/>
			<stop  offset="0.7178" style="stop-color:#AD9144"/>
			<stop  offset="0.95" style="stop-color:#FECF0C"/>
		</linearGradient>
		<polygon class="st26" points="238.82,70.72 252.35,53.18 265.88,70.72 257.66,70.72 257.66,93.02 247.3,93.02 247.3,70.72 		"/>
		
			<linearGradient id="SVGID_27_" gradientUnits="userSpaceOnUse" x1="954.5703" y1="-1586.3586" x2="966.4354" y2="-1586.3586" gradientTransform="matrix(0 -1 -1 0 -1308.2676 1137.3975)">
			<stop  offset="0.1" style="stop-color:#2F3A4A"/>
			<stop  offset="0.2058" style="stop-color:#3D434C"/>
			<stop  offset="0.4192" style="stop-color:#645D4F"/>
			<stop  offset="0.7178" style="stop-color:#AD9144"/>
			<stop  offset="0.95" style="stop-color:#FECF0C"/>
		</linearGradient>
		<polygon class="st27" points="274.06,176.18 278.09,170.96 282.12,176.18 279.67,176.18 279.67,182.83 276.59,182.83 
			276.59,176.18 		"/>
		
			<linearGradient id="SVGID_28_" gradientUnits="userSpaceOnUse" x1="984.7414" y1="-1534.9513" x2="1025.7417" y2="-1534.9513" gradientTransform="matrix(0 -1 -1 0 -1308.2676 1137.3975)">
			<stop  offset="0.1" style="stop-color:#2F3A4A"/>
			<stop  offset="0.2058" style="stop-color:#3D434C"/>
			<stop  offset="0.4192" style="stop-color:#645D4F"/>
			<stop  offset="0.7178" style="stop-color:#AD9144"/>
			<stop  offset="0.95" style="stop-color:#FECF0C"/>
		</linearGradient>
		<polygon class="st28" points="212.76,129.7 226.68,111.66 240.61,129.7 232.15,129.7 232.15,152.66 221.48,152.66 221.48,129.7 		
			"/>
		
			<linearGradient id="SVGID_29_" gradientUnits="userSpaceOnUse" x1="1077.093" y1="-1505.4159" x2="1094.2498" y2="-1505.4159" gradientTransform="matrix(0 -1 -1 0 -1308.2676 1137.3975)">
			<stop  offset="0.1" style="stop-color:#2F3A4A"/>
			<stop  offset="0.2058" style="stop-color:#3D434C"/>
			<stop  offset="0.4192" style="stop-color:#645D4F"/>
			<stop  offset="0.7178" style="stop-color:#AD9144"/>
			<stop  offset="0.95" style="stop-color:#FECF0C"/>
		</linearGradient>
		<polygon class="st29" points="191.32,50.7 197.15,43.15 202.97,50.7 199.44,50.7 199.44,60.3 194.97,60.3 194.97,50.7 		"/>
		
			<linearGradient id="SVGID_30_" gradientUnits="userSpaceOnUse" x1="929.4343" y1="-1545.5393" x2="980.4806" y2="-1545.5393" gradientTransform="matrix(0 -1 -1 0 -1308.2676 1137.3975)">
			<stop  offset="0.1" style="stop-color:#2F3A4A"/>
			<stop  offset="0.2058" style="stop-color:#3D434C"/>
			<stop  offset="0.4192" style="stop-color:#645D4F"/>
			<stop  offset="0.7178" style="stop-color:#AD9144"/>
			<stop  offset="0.95" style="stop-color:#FECF0C"/>
		</linearGradient>
		<polygon class="st30" points="219.94,179.38 237.27,156.92 254.6,179.38 244.08,179.38 244.08,207.96 230.8,207.96 230.8,179.38 
					"/>
		
			<linearGradient id="SVGID_31_" gradientUnits="userSpaceOnUse" x1="926.5513" y1="-1360.9515" x2="970.2043" y2="-1360.9515" gradientTransform="matrix(0 -1 -1 0 -1308.2676 1137.3975)">
			<stop  offset="0.1" style="stop-color:#2F3A4A"/>
			<stop  offset="0.2058" style="stop-color:#3D434C"/>
			<stop  offset="0.4192" style="stop-color:#645D4F"/>
			<stop  offset="0.7178" style="stop-color:#AD9144"/>
			<stop  offset="0.95" style="stop-color:#FECF0C"/>
		</linearGradient>
		<polygon class="st31" points="37.86,186.41 52.68,167.19 67.51,186.41 58.5,186.41 58.5,210.85 47.15,210.85 47.15,186.41 		"/>
		
			<linearGradient id="SVGID_32_" gradientUnits="userSpaceOnUse" x1="950.8397" y1="-1423.8575" x2="985.7426" y2="-1423.8575" gradientTransform="matrix(0 -1 -1 0 -1308.2676 1137.3975)">
			<stop  offset="0.1" style="stop-color:#2F3A4A"/>
			<stop  offset="0.2058" style="stop-color:#3D434C"/>
			<stop  offset="0.4192" style="stop-color:#645D4F"/>
			<stop  offset="0.7178" style="stop-color:#AD9144"/>
			<stop  offset="0.95" style="stop-color:#FECF0C"/>
		</linearGradient>
		<polygon class="st32" points="103.74,167.02 115.59,151.65 127.44,167.02 120.24,167.02 120.24,186.56 111.16,186.56 
			111.16,167.02 		"/>
		
			<linearGradient id="SVGID_33_" gradientUnits="userSpaceOnUse" x1="906.9843" y1="-1501.2501" x2="956.2516" y2="-1501.2501" gradientTransform="matrix(0 -1 -1 0 -1308.2676 1137.3975)">
			<stop  offset="0.1" style="stop-color:#2F3A4A"/>
			<stop  offset="0.2058" style="stop-color:#3D434C"/>
			<stop  offset="0.4192" style="stop-color:#645D4F"/>
			<stop  offset="0.7178" style="stop-color:#AD9144"/>
			<stop  offset="0.95" style="stop-color:#FECF0C"/>
		</linearGradient>
		<polygon class="st33" points="176.25,202.83 192.98,181.15 209.71,202.83 199.55,202.83 199.55,230.41 186.74,230.41 
			186.74,202.83 		"/>
		
			<linearGradient id="SVGID_34_" gradientUnits="userSpaceOnUse" x1="920.7714" y1="-1336.4779" x2="945.8279" y2="-1336.4779" gradientTransform="matrix(0 -1 -1 0 -1308.2676 1137.3975)">
			<stop  offset="0.1" style="stop-color:#2F3A4A"/>
			<stop  offset="0.2058" style="stop-color:#3D434C"/>
			<stop  offset="0.4192" style="stop-color:#645D4F"/>
			<stop  offset="0.7178" style="stop-color:#AD9144"/>
			<stop  offset="0.95" style="stop-color:#FECF0C"/>
		</linearGradient>
		<polygon class="st34" points="19.7,202.6 28.21,191.57 36.72,202.6 31.55,202.6 31.55,216.63 25.03,216.63 25.03,202.6 		"/>
	</g>
	<g>
		<path class="st35" d="M103.84,149.8c-5.88,0-10.94-4.85-10.94-11.75c0-6.98,5.07-11.75,10.94-11.75c5.87,0,10.94,4.77,10.94,11.75
			C114.78,144.95,109.71,149.8,103.84,149.8L103.84,149.8z M103.84,118.65c-10.72,0-19.46,8.16-19.46,19.39
			c0,11.16,8.74,19.39,19.46,19.39c10.72,0,19.46-8.22,19.46-19.39C123.3,126.81,114.56,118.65,103.84,118.65L103.84,118.65z"/>
		<path class="st36" d="M146.29,149.8c-5.87,0-10.94-4.85-10.94-11.75c0-6.98,5.07-11.75,10.94-11.75c5.87,0,10.94,4.77,10.94,11.75
			C157.23,144.95,152.16,149.8,146.29,149.8L146.29,149.8z M146.29,118.65c-10.72,0-19.46,8.16-19.46,19.39
			c0,11.16,8.74,19.39,19.46,19.39c10.72,0,19.46-8.22,19.46-19.39C165.75,126.81,157.01,118.65,146.29,118.65L146.29,118.65z"/>
		<path class="st37" d="M188.59,149.8c-5.88,0-10.8-4.92-10.8-11.68c0-6.83,4.92-11.83,10.8-11.83c5.8,0,10.35,4.99,10.35,11.83
			C198.94,144.87,194.39,149.8,188.59,149.8L188.59,149.8z M198.35,119.83v3.16h-0.29c-1.91-2.28-5.58-4.34-10.21-4.34
			c-9.69,0-18.58,8.52-18.58,19.46c0,10.87,8.89,19.31,18.58,19.31c4.63,0,8.3-2.05,10.21-4.41l0.29,0v2.79
			c0,7.42-3.97,11.38-10.35,11.38c-5.22,0-8.45-3.74-9.77-6.9l-7.42,3.09c2.13,5.14,7.78,11.45,17.19,11.45
			c9.99,0,18.43-5.87,18.43-20.2v-34.81H198.35L198.35,119.83z"/>
		<path class="st35" d="M243.52,126.15c3.38,0,6.24,1.69,7.2,4.11l-17.33,7.2C233.16,129.97,239.18,126.15,243.52,126.15
			L243.52,126.15z M244.18,149.8c-4.33,0-7.42-1.98-9.4-5.88l25.92-10.72l-0.88-2.2c-1.62-4.33-6.54-12.34-16.6-12.34
			c-9.99,0-18.29,7.86-18.29,19.39c0,10.87,8.23,19.39,19.24,19.39c8.89,0,14.03-5.43,16.16-8.59l-6.61-4.41
			C251.52,147.66,248.51,149.8,244.18,149.8L244.18,149.8z"/>
		<polygon class="st38" points="212.3,156.26 220.82,156.26 220.82,99.27 212.3,99.27 212.3,156.26 		"/>
		<path class="st37" d="M81,124.61H53.31v8.23H73c-0.59,4.63-2.13,8-4.48,10.35c-2.86,2.86-7.34,6.02-15.2,6.02
			c-12.12,0-21.59-9.77-21.59-21.89c0-12.12,9.47-21.89,21.59-21.89c6.53,0,11.31,2.57,14.83,5.88l5.8-5.8
			c-4.92-4.7-11.46-8.3-20.64-8.3c-16.6,0-30.55,13.51-30.55,30.11c0,16.6,13.95,30.11,30.55,30.11c8.96,0,15.71-2.94,21-8.44
			c5.43-5.43,7.13-13.07,7.13-19.24C81.44,127.84,81.29,126.07,81,124.61L81,124.61z"/>
	</g>
</g>
</svg>
