<?xml version="1.0" encoding="utf-8"?>
<!-- Generator: Adobe Illustrator 24.1.0, SVG Export Plug-In . SVG Version: 6.00 Build 0)  -->
<svg version="1.1" id="Layer_1" xmlns="http://www.w3.org/2000/svg" xmlns:xlink="http://www.w3.org/1999/xlink" x="0px" y="0px"
	 viewBox="0 0 70.9 22.3" style="enable-background:new 0 0 70.9 22.3;" xml:space="preserve">
<style type="text/css">
	.st0{fill:#4285F4;}
	.st1{fill:#EA4335;}
	.st2{fill:#FBBC05;}
	.st3{fill:#34A853;}
</style>
<desc>Created with Lunacy</desc>
<g id="Google">
	<path id="Path" class="st0" d="M8.9,7.9v2.4h5.7c-0.2,1.3-0.6,2.3-1.3,3c-0.8,0.8-2.1,1.7-4.4,1.7c-3.5,0-6.3-2.8-6.3-6.3
		s2.7-6.3,6.3-6.3c1.9,0,3.3,0.7,4.3,1.7l1.7-1.7C13.4,1,11.5,0,8.9,0C4,0,0,3.9,0,8.7s4,8.7,8.9,8.7c2.6,0,4.6-0.9,6.1-2.4
		c1.6-1.6,2.1-3.8,2.1-5.6c0-0.6,0-1.1-0.1-1.5H8.9z"/>
	<path id="Shape" class="st1" d="M24.1,6c-3.1,0-5.7,2.4-5.7,5.6c0,3.2,2.5,5.6,5.7,5.6s5.7-2.4,5.7-5.6C29.8,8.4,27.2,6,24.1,6z
		 M24.1,15c-1.7,0-3.2-1.4-3.2-3.4c0-2,1.5-3.4,3.2-3.4c1.7,0,3.2,1.4,3.2,3.4C27.3,13.6,25.8,15,24.1,15z"/>
	<path id="Shape_1_" class="st0" d="M51.8,7.3L51.8,7.3C51.2,6.6,50.1,6,48.8,6c-2.8,0-5.3,2.5-5.3,5.6c0,3.2,2.5,5.6,5.3,5.6
		c1.3,0,2.4-0.6,3-1.3h0.1v0.8c0,2.2-1.2,3.3-3,3.3c-1.5,0-2.5-1.1-2.8-2L43.8,19c0.6,1.5,2.3,3.3,5,3.3c2.9,0,5.4-1.7,5.4-5.9V6.3
		h-2.3V7.3z M49,15c-1.7,0-3-1.5-3-3.4c0-2,1.3-3.4,3-3.4c1.7,0,3,1.5,3,3.4C52,13.6,50.7,15,49,15z"/>
	<path id="Shape_2_" class="st2" d="M36.7,6c-3.1,0-5.7,2.4-5.7,5.6c0,3.2,2.5,5.6,5.7,5.6c3.1,0,5.7-2.4,5.7-5.6
		C42.4,8.4,39.8,6,36.7,6z M36.7,15c-1.7,0-3.2-1.4-3.2-3.4c0-2,1.5-3.4,3.2-3.4s3.2,1.4,3.2,3.4C39.9,13.6,38.4,15,36.7,15z"/>
	<path id="Path_1_" class="st3" d="M56.1,0.2h2.4v17h-2.4V0.2z"/>
	<path id="Shape_3_" class="st1" d="M66.1,15c-1.3,0-2.2-0.6-2.7-1.7l7.5-3.1l-0.3-0.6C70.1,8.3,68.7,6,65.8,6
		c-2.9,0-5.3,2.3-5.3,5.6c0,3.2,2.4,5.6,5.6,5.6c2.6,0,4.1-1.6,4.7-2.5l-1.9-1.3C68.2,14.4,67.3,15,66.1,15z M65.9,8.1
		c1,0,1.9,0.5,2.1,1.2l-5.1,2.1C62.9,9.1,64.6,8.1,65.9,8.1L65.9,8.1z"/>
</g>
</svg>
