<svg version="1.2" xmlns="http://www.w3.org/2000/svg" xmlns:xlink="http://www.w3.org/1999/xlink" overflow="visible" preserveAspectRatio="none" viewBox="0 0 72.9000015258789 46.400001525878906" xml:space="preserve" y="0px" x="0px" id="Layer_1_1580424959670" width="90" height="56"><g transform="translate(1, 1)"><style type="text/css">
	.st0_1580424959670{fill:#FFCC11;}
	.st1_1580424959670{fill:#FFDB8A;}
	.st2_1580424959670{fill:#FFF0D2;}
	.st3_1580424959670{fill:#FFE6A6;}
</style><g>
	<path d="M35.4,36.8c-0.1,0-0.2,0-0.2-0.1l-10-5.1c-0.2-0.1-0.3-0.3-0.3-0.5c0-0.2,0.1-0.4,0.3-0.5l10-5.1   c0.2-0.1,0.3-0.1,0.5,0l10,5.1c0.2,0.1,0.3,0.3,0.3,0.5c0,0.2-0.1,0.4-0.3,0.5l-10,5.1C35.6,36.8,35.5,36.8,35.4,36.8z M26.5,31.1   l8.9,4.5l8.9-4.5l-8.9-4.5L26.5,31.1z" class="st0_1580424959670" vector-effect="non-scaling-stroke"/>
	<g>
		<path d="M18,35.4c-0.1,0-0.2,0-0.2-0.1L0.3,26.4C0.1,26.4,0,26.2,0,26c0-0.2,0.1-0.4,0.3-0.5l17.5-8.9    c0.2-0.1,0.3-0.1,0.5,0l17.5,8.9c0.2,0.1,0.3,0.3,0.3,0.5c0,0.2-0.1,0.4-0.3,0.5l-10,5.1c-0.2,0.1-0.3,0.1-0.5,0l-6.6-3.4v6.7    c0,0.2-0.1,0.4-0.3,0.5C18.2,35.4,18.1,35.4,18,35.4z M1.7,26L17.5,34v-6.7c0-0.2,0.1-0.4,0.3-0.5c0.2-0.1,0.4-0.1,0.5,0l7.2,3.7    l8.9-4.5L18,17.6L1.7,26z" class="st0_1580424959670" vector-effect="non-scaling-stroke"/>
		<path d="M52.9,35.4c-0.1,0-0.2,0-0.3-0.1c-0.2-0.1-0.3-0.3-0.3-0.5v-6.7l-6.6,3.4c-0.2,0.1-0.3,0.1-0.5,0l-10-5.1    c-0.2-0.1-0.3-0.3-0.3-0.5c0-0.2,0.1-0.4,0.3-0.5l17.5-8.9c0.2-0.1,0.3-0.1,0.5,0l17.5,8.9c0.2,0.1,0.3,0.3,0.3,0.5    c0,0.2-0.1,0.4-0.3,0.5l-17.5,8.9C53,35.4,53,35.4,52.9,35.4z M52.9,26.8c0.1,0,0.2,0,0.3,0.1c0.2,0.1,0.3,0.3,0.3,0.5V34L69.2,26    l-16.3-8.3L36.6,26l8.9,4.5l7.2-3.7C52.7,26.8,52.8,26.8,52.9,26.8z" class="st0_1580424959670" vector-effect="non-scaling-stroke"/>
	</g>
	<g>
		<g>
			<polygon points="35.4,36.3 35.4,43.8 18,34.9 18,27.3 25.4,31.1" class="st1_1580424959670" vector-effect="non-scaling-stroke"/>
			<path d="M35.4,44.4c-0.1,0-0.2,0-0.2-0.1l-17.5-8.9c-0.2-0.1-0.3-0.3-0.3-0.5v-7.6c0-0.2,0.1-0.4,0.3-0.5     c0.2-0.1,0.4-0.1,0.5,0l17.5,8.9c0.2,0.1,0.3,0.3,0.3,0.5v7.6c0,0.2-0.1,0.4-0.3,0.5C35.6,44.3,35.5,44.4,35.4,44.4z M18.5,34.6     L34.9,43v-6.4l-16.4-8.4V34.6z" class="st0_1580424959670" vector-effect="non-scaling-stroke"/>
		</g>
		<g>
			<polygon points="52.9,27.3 52.9,34.9 35.4,43.8 35.4,36.3 45.5,31.1" class="st2_1580424959670" vector-effect="non-scaling-stroke"/>
			<path d="M35.4,44.4c-0.1,0-0.2,0-0.3-0.1c-0.2-0.1-0.3-0.3-0.3-0.5v-7.6c0-0.2,0.1-0.4,0.3-0.5l17.5-8.9     c0.2-0.1,0.4-0.1,0.5,0c0.2,0.1,0.3,0.3,0.3,0.5v7.6c0,0.2-0.1,0.4-0.3,0.5l-17.5,8.9C35.6,44.3,35.5,44.4,35.4,44.4z M36,36.6     V43l16.4-8.4v-6.4L36,36.6z" class="st0_1580424959670" vector-effect="non-scaling-stroke"/>
		</g>
		<g>
			<polygon points="52.9,27.3 45.5,31.1 35.4,36.3 25.4,31.1 18,27.3 28,22.2 35.4,18.4 42.8,22.2" class="st3_1580424959670" vector-effect="non-scaling-stroke"/>
			<path d="M35.4,36.8c-0.1,0-0.2,0-0.2-0.1l-17.5-8.9c-0.2-0.1-0.3-0.3-0.3-0.5c0-0.2,0.1-0.4,0.3-0.5l17.5-8.9     c0.2-0.1,0.3-0.1,0.5,0l17.5,8.9c0.2,0.1,0.3,0.3,0.3,0.5c0,0.2-0.1,0.4-0.3,0.5l-17.5,8.9C35.6,36.8,35.5,36.8,35.4,36.8z      M19.1,27.3l16.3,8.3l16.3-8.3L35.4,19L19.1,27.3z" class="st0_1580424959670" vector-effect="non-scaling-stroke"/>
		</g>
	</g>
	<g>
		<g>
			<polygon points="52.9,9.5 52.9,17 42.8,22.2 35.4,18.4" class="st2_1580424959670" vector-effect="non-scaling-stroke"/>
			<path d="M42.8,22.7c-0.1,0-0.2,0-0.2-0.1l-7.4-3.8c-0.2-0.1-0.3-0.3-0.3-0.5s0.1-0.4,0.3-0.5L52.6,9     c0.2-0.1,0.4-0.1,0.5,0c0.2,0.1,0.3,0.3,0.3,0.5V17c0,0.2-0.1,0.4-0.3,0.5l-10,5.1C43,22.7,42.9,22.7,42.8,22.7z M36.6,18.4     l6.2,3.2l9.5-4.9v-6.4L36.6,18.4z" class="st0_1580424959670" vector-effect="non-scaling-stroke"/>
		</g>
		<g>
			<polygon points="35.4,18.4 28,22.2 18,17 18,9.5" class="st1_1580424959670" vector-effect="non-scaling-stroke"/>
			<path d="M28,22.7c-0.1,0-0.2,0-0.2-0.1l-10-5.1c-0.2-0.1-0.3-0.3-0.3-0.5V9.5c0-0.2,0.1-0.4,0.3-0.5     c0.2-0.1,0.4-0.1,0.5,0l17.5,8.9c0.2,0.1,0.3,0.3,0.3,0.5s-0.1,0.4-0.3,0.5l-7.4,3.8C28.2,22.7,28.1,22.7,28,22.7z M18.5,16.7     l9.5,4.9l6.2-3.2l-15.8-8.1V16.7z" class="st0_1580424959670" vector-effect="non-scaling-stroke"/>
		</g>
		<g>
			<polygon points="52.9,9.5 35.4,18.4 18,9.5 35.4,0.5" class="st3_1580424959670" vector-effect="non-scaling-stroke"/>
			<path d="M35.4,18.9c-0.1,0-0.2,0-0.2-0.1L17.7,9.9c-0.2-0.1-0.3-0.3-0.3-0.5c0-0.2,0.1-0.4,0.3-0.5l17.5-8.9     c0.2-0.1,0.3-0.1,0.5,0L53.1,9c0.2,0.1,0.3,0.3,0.3,0.5c0,0.2-0.1,0.4-0.3,0.5l-17.5,8.9C35.6,18.9,35.5,18.9,35.4,18.9z      M19.1,9.5l16.3,8.3l16.3-8.3L35.4,1.1L19.1,9.5z" class="st0_1580424959670" vector-effect="non-scaling-stroke"/>
		</g>
	</g>
</g></g></svg>