<svg version="1.2" xmlns="http://www.w3.org/2000/svg" xmlns:xlink="http://www.w3.org/1999/xlink" overflow="visible" preserveAspectRatio="none" viewBox="0 0 72.9000015258789 61.5" xml:space="preserve" y="0px" x="0px" id="Layer_1_1580424988395" width="90" height="76"><g transform="translate(1, 1)"><style type="text/css">
	.st0_1580424988395{fill:#FFCC11;}
	.st1_1580424988395{fill:#BB3B95;}
	.st2_1580424988395{fill:#E28DC8;}
	.st3_1580424988395{fill:#FFE3F8;}
	.st4_1580424988395{fill:#FFE6A6;}
	.st5_1580424988395{fill:#FFB8E6;}
</style><g>
	<path d="M35.4,51.9c-0.1,0-0.2,0-0.2-0.1l-10-5.1c-0.2-0.1-0.3-0.3-0.3-0.5c0-0.2,0.1-0.4,0.3-0.5l10-5.1   c0.2-0.1,0.3-0.1,0.5,0l10,5.1c0.2,0.1,0.3,0.3,0.3,0.5c0,0.2-0.1,0.4-0.3,0.5l-10,5.1C35.6,51.9,35.5,51.9,35.4,51.9z M26.5,46.3   l8.9,4.5l8.9-4.5l-8.9-4.5L26.5,46.3z" class="st0_1580424988395" vector-effect="non-scaling-stroke"/>
	<g>
		<path d="M18,50.6c-0.1,0-0.2,0-0.2-0.1L0.3,41.6C0.1,41.5,0,41.3,0,41.1c0-0.2,0.1-0.4,0.3-0.5l17.5-8.9    c0.2-0.1,0.3-0.1,0.5,0l17.5,8.9c0.2,0.1,0.3,0.3,0.3,0.5c0,0.2-0.1,0.4-0.3,0.5l-10,5.1c-0.2,0.1-0.3,0.1-0.5,0l-6.6-3.4v6.7    c0,0.2-0.1,0.4-0.3,0.5C18.2,50.6,18.1,50.6,18,50.6z M1.7,41.1l15.8,8.1v-6.7c0-0.2,0.1-0.4,0.3-0.5c0.2-0.1,0.4-0.1,0.5,0    l7.2,3.7l8.9-4.5L18,32.8L1.7,41.1z" class="st1_1580424988395" vector-effect="non-scaling-stroke"/>
		<path d="M52.9,50.6c-0.1,0-0.2,0-0.3-0.1c-0.2-0.1-0.3-0.3-0.3-0.5v-6.7l-6.6,3.4c-0.2,0.1-0.3,0.1-0.5,0l-10-5.1    c-0.2-0.1-0.3-0.3-0.3-0.5c0-0.2,0.1-0.4,0.3-0.5l17.5-8.9c0.2-0.1,0.3-0.1,0.5,0l17.5,8.9c0.2,0.1,0.3,0.3,0.3,0.5    c0,0.2-0.1,0.4-0.3,0.5l-17.5,8.9C53,50.6,53,50.6,52.9,50.6z M52.9,41.9c0.1,0,0.2,0,0.3,0.1c0.2,0.1,0.3,0.3,0.3,0.5v6.7    l15.8-8.1l-16.3-8.3l-16.3,8.3l8.9,4.5l7.2-3.7C52.7,42,52.8,41.9,52.9,41.9z" class="st1_1580424988395" vector-effect="non-scaling-stroke"/>
	</g>
	<g>
		<g>
			<polygon points="35.4,51.4 35.4,59 18,50.1 18,42.5 25.4,46.3" class="st2_1580424988395" vector-effect="non-scaling-stroke"/>
			<path d="M35.4,59.5c-0.1,0-0.2,0-0.2-0.1l-17.5-8.9c-0.2-0.1-0.3-0.3-0.3-0.5v-7.6c0-0.2,0.1-0.4,0.3-0.5     c0.2-0.1,0.4-0.1,0.5,0l17.5,8.9c0.2,0.1,0.3,0.3,0.3,0.5V59c0,0.2-0.1,0.4-0.3,0.5C35.6,59.5,35.5,59.5,35.4,59.5z M18.5,49.7     l16.4,8.4v-6.4l-16.4-8.4V49.7z" class="st1_1580424988395" vector-effect="non-scaling-stroke"/>
		</g>
		<g>
			<polygon points="52.9,42.5 52.9,50.1 35.4,59 35.4,51.4 45.5,46.3" class="st3_1580424988395" vector-effect="non-scaling-stroke"/>
			<path d="M35.4,59.5c-0.1,0-0.2,0-0.3-0.1c-0.2-0.1-0.3-0.3-0.3-0.5v-7.6c0-0.2,0.1-0.4,0.3-0.5L52.6,42     c0.2-0.1,0.4-0.1,0.5,0c0.2,0.1,0.3,0.3,0.3,0.5v7.6c0,0.2-0.1,0.4-0.3,0.5l-17.5,8.9C35.6,59.5,35.5,59.5,35.4,59.5z M36,51.7     v6.4l16.4-8.4v-6.4L36,51.7z" class="st1_1580424988395" vector-effect="non-scaling-stroke"/>
		</g>
		<g>
			<polygon points="52.9,42.5 45.5,46.3 35.4,51.4 25.4,46.3 18,42.5 28,37.3 35.4,33.6 42.8,37.3" class="st4_1580424988395" vector-effect="non-scaling-stroke"/>
			<path d="M35.4,51.9c-0.1,0-0.2,0-0.2-0.1L17.7,43c-0.2-0.1-0.3-0.3-0.3-0.5c0-0.2,0.1-0.4,0.3-0.5l17.5-8.9     c0.2-0.1,0.3-0.1,0.5,0L53.1,42c0.2,0.1,0.3,0.3,0.3,0.5c0,0.2-0.1,0.4-0.3,0.5l-17.5,8.9C35.6,51.9,35.5,51.9,35.4,51.9z      M19.1,42.5l16.3,8.3l16.3-8.3l-16.3-8.3L19.1,42.5z" class="st0_1580424988395" vector-effect="non-scaling-stroke"/>
		</g>
	</g>
	<g>
		<g>
			<polygon points="52.9,24.6 52.9,32.2 42.8,37.3 35.4,33.6" class="st3_1580424988395" vector-effect="non-scaling-stroke"/>
			<path d="M42.8,37.9c-0.1,0-0.2,0-0.2-0.1L35.2,34c-0.2-0.1-0.3-0.3-0.3-0.5c0-0.2,0.1-0.4,0.3-0.5l17.5-8.9     c0.2-0.1,0.4-0.1,0.5,0c0.2,0.1,0.3,0.3,0.3,0.5v7.6c0,0.2-0.1,0.4-0.3,0.5l-10,5.1C43,37.8,42.9,37.9,42.8,37.9z M36.6,33.6     l6.2,3.2l9.5-4.9v-6.4L36.6,33.6z" class="st1_1580424988395" vector-effect="non-scaling-stroke"/>
		</g>
		<g>
			<polygon points="35.4,33.6 28,37.3 18,32.2 18,24.6" class="st2_1580424988395" vector-effect="non-scaling-stroke"/>
			<path d="M28,37.9c-0.1,0-0.2,0-0.2-0.1l-10-5.1c-0.2-0.1-0.3-0.3-0.3-0.5v-7.6c0-0.2,0.1-0.4,0.3-0.5     c0.2-0.1,0.4-0.1,0.5,0l17.5,8.9c0.2,0.1,0.3,0.3,0.3,0.5c0,0.2-0.1,0.4-0.3,0.5l-7.4,3.8C28.2,37.8,28.1,37.9,28,37.9z      M18.5,31.9l9.5,4.9l6.2-3.2l-15.8-8.1V31.9z" class="st1_1580424988395" vector-effect="non-scaling-stroke"/>
		</g>
		<g>
			<polygon points="52.9,24.6 35.4,33.6 18,24.6 35.4,15.7" class="st4_1580424988395" vector-effect="non-scaling-stroke"/>
			<path d="M35.4,34.1c-0.1,0-0.2,0-0.2-0.1l-17.5-8.9c-0.2-0.1-0.3-0.3-0.3-0.5c0-0.2,0.1-0.4,0.3-0.5l17.5-8.9     c0.2-0.1,0.3-0.1,0.5,0l17.5,8.9c0.2,0.1,0.3,0.3,0.3,0.5c0,0.2-0.1,0.4-0.3,0.5L35.7,34C35.6,34.1,35.5,34.1,35.4,34.1z      M19.1,24.6L35.4,33l16.3-8.3l-16.3-8.3L19.1,24.6z" class="st0_1580424988395" vector-effect="non-scaling-stroke"/>
		</g>
	</g>
	<g>
		<g>
			<polygon points="35.4,43.8 35.4,51.4 18,42.5 18,34.9 25.4,38.7" class="st2_1580424988395" vector-effect="non-scaling-stroke"/>
			<path d="M35.4,51.9c-0.1,0-0.2,0-0.2-0.1L17.7,43c-0.2-0.1-0.3-0.3-0.3-0.5v-7.6c0-0.2,0.1-0.4,0.3-0.5     c0.2-0.1,0.4-0.1,0.5,0l17.5,8.9c0.2,0.1,0.3,0.3,0.3,0.5v7.6c0,0.2-0.1,0.4-0.3,0.5C35.6,51.9,35.5,51.9,35.4,51.9z M18.5,42.2     l16.4,8.4v-6.4l-16.4-8.4V42.2z" class="st1_1580424988395" vector-effect="non-scaling-stroke"/>
		</g>
		<g>
			<polygon points="52.9,34.9 52.9,42.5 35.4,51.4 35.4,43.8 45.5,38.7" class="st3_1580424988395" vector-effect="non-scaling-stroke"/>
			<path d="M35.4,51.9c-0.1,0-0.2,0-0.3-0.1c-0.2-0.1-0.3-0.3-0.3-0.5v-7.6c0-0.2,0.1-0.4,0.3-0.5l17.5-8.9     c0.2-0.1,0.4-0.1,0.5,0c0.2,0.1,0.3,0.3,0.3,0.5v7.6c0,0.2-0.1,0.4-0.3,0.5l-17.5,8.9C35.6,51.9,35.5,51.9,35.4,51.9z M36,44.2     v6.4l16.4-8.4v-6.4L36,44.2z" class="st1_1580424988395" vector-effect="non-scaling-stroke"/>
		</g>
		<g>
			<polygon points="52.9,34.9 45.5,38.7 35.4,43.8 25.4,38.7 18,34.9 28,29.8 35.4,26 42.8,29.8" class="st4_1580424988395" vector-effect="non-scaling-stroke"/>
			<path d="M35.4,44.4c-0.1,0-0.2,0-0.2-0.1l-17.5-8.9c-0.2-0.1-0.3-0.3-0.3-0.5c0-0.2,0.1-0.4,0.3-0.5l17.5-8.9     c0.2-0.1,0.3-0.1,0.5,0l17.5,8.9c0.2,0.1,0.3,0.3,0.3,0.5c0,0.2-0.1,0.4-0.3,0.5l-17.5,8.9C35.6,44.3,35.5,44.4,35.4,44.4z      M19.1,34.9l16.3,8.3l16.3-8.3l-16.3-8.3L19.1,34.9z" class="st0_1580424988395" vector-effect="non-scaling-stroke"/>
		</g>
	</g>
	<g>
		<g>
			<polygon points="52.9,17 52.9,24.6 42.8,29.8 35.4,26" class="st3_1580424988395" vector-effect="non-scaling-stroke"/>
			<path d="M42.8,30.3c-0.1,0-0.2,0-0.2-0.1l-7.4-3.8c-0.2-0.1-0.3-0.3-0.3-0.5c0-0.2,0.1-0.4,0.3-0.5l17.5-8.9     c0.2-0.1,0.4-0.1,0.5,0c0.2,0.1,0.3,0.3,0.3,0.5v7.6c0,0.2-0.1,0.4-0.3,0.5l-10,5.1C43,30.3,42.9,30.3,42.8,30.3z M36.6,26     l6.2,3.2l9.5-4.9v-6.4L36.6,26z" class="st1_1580424988395" vector-effect="non-scaling-stroke"/>
		</g>
		<g>
			<polygon points="35.4,26 28,29.8 18,24.6 18,17" class="st2_1580424988395" vector-effect="non-scaling-stroke"/>
			<path d="M28,30.3c-0.1,0-0.2,0-0.2-0.1l-10-5.1c-0.2-0.1-0.3-0.3-0.3-0.5V17c0-0.2,0.1-0.4,0.3-0.5     c0.2-0.1,0.4-0.1,0.5,0l17.5,8.9c0.2,0.1,0.3,0.3,0.3,0.5c0,0.2-0.1,0.4-0.3,0.5l-7.4,3.8C28.2,30.3,28.1,30.3,28,30.3z      M18.5,24.3l9.5,4.9l6.2-3.2l-15.8-8.1V24.3z" class="st1_1580424988395" vector-effect="non-scaling-stroke"/>
		</g>
		<g>
			<polygon points="52.9,17 35.4,26 18,17 35.4,8.1" class="st4_1580424988395" vector-effect="non-scaling-stroke"/>
			<path d="M35.4,26.5c-0.1,0-0.2,0-0.2-0.1l-17.5-8.9c-0.2-0.1-0.3-0.3-0.3-0.5c0-0.2,0.1-0.4,0.3-0.5l17.5-8.9     c0.2-0.1,0.3-0.1,0.5,0l17.5,8.9c0.2,0.1,0.3,0.3,0.3,0.5c0,0.2-0.1,0.4-0.3,0.5l-17.5,8.9C35.6,26.5,35.5,26.5,35.4,26.5z      M19.1,17l16.3,8.3L51.7,17L35.4,8.7L19.1,17z" class="st0_1580424988395" vector-effect="non-scaling-stroke"/>
		</g>
	</g>
	<g>
		<g>
			<polygon points="35.4,36.3 35.4,43.8 18,34.9 18,27.3 25.4,31.1" class="st2_1580424988395" vector-effect="non-scaling-stroke"/>
			<path d="M35.4,44.4c-0.1,0-0.2,0-0.2-0.1l-17.5-8.9c-0.2-0.1-0.3-0.3-0.3-0.5v-7.6c0-0.2,0.1-0.4,0.3-0.5     c0.2-0.1,0.4-0.1,0.5,0l17.5,8.9c0.2,0.1,0.3,0.3,0.3,0.5v7.6c0,0.2-0.1,0.4-0.3,0.5C35.6,44.3,35.5,44.4,35.4,44.4z M18.5,34.6     L34.9,43v-6.4l-16.4-8.4V34.6z" class="st1_1580424988395" vector-effect="non-scaling-stroke"/>
		</g>
		<g>
			<polygon points="52.9,27.3 52.9,34.9 35.4,43.8 35.4,36.3 45.5,31.1" class="st3_1580424988395" vector-effect="non-scaling-stroke"/>
			<path d="M35.4,44.4c-0.1,0-0.2,0-0.3-0.1c-0.2-0.1-0.3-0.3-0.3-0.5v-7.6c0-0.2,0.1-0.4,0.3-0.5l17.5-8.9     c0.2-0.1,0.4-0.1,0.5,0c0.2,0.1,0.3,0.3,0.3,0.5v7.6c0,0.2-0.1,0.4-0.3,0.5l-17.5,8.9C35.6,44.3,35.5,44.4,35.4,44.4z M36,36.6     V43l16.4-8.4v-6.4L36,36.6z" class="st1_1580424988395" vector-effect="non-scaling-stroke"/>
		</g>
		<g>
			<polygon points="52.9,27.3 45.5,31.1 35.4,36.3 25.4,31.1 18,27.3 28,22.2 35.4,18.4 42.8,22.2" class="st5_1580424988395" vector-effect="non-scaling-stroke"/>
			<path d="M35.4,36.8c-0.1,0-0.2,0-0.2-0.1l-17.5-8.9c-0.2-0.1-0.3-0.3-0.3-0.5c0-0.2,0.1-0.4,0.3-0.5l17.5-8.9     c0.2-0.1,0.3-0.1,0.5,0l17.5,8.9c0.2,0.1,0.3,0.3,0.3,0.5c0,0.2-0.1,0.4-0.3,0.5l-17.5,8.9C35.6,36.8,35.5,36.8,35.4,36.8z      M19.1,27.3l16.3,8.3l16.3-8.3L35.4,19L19.1,27.3z" class="st1_1580424988395" vector-effect="non-scaling-stroke"/>
		</g>
	</g>
	<g>
		<g>
			<polygon points="52.9,9.5 52.9,17 42.8,22.2 35.4,18.4" class="st3_1580424988395" vector-effect="non-scaling-stroke"/>
			<path d="M42.8,22.7c-0.1,0-0.2,0-0.2-0.1l-7.4-3.8c-0.2-0.1-0.3-0.3-0.3-0.5c0-0.2,0.1-0.4,0.3-0.5L52.6,9     c0.2-0.1,0.4-0.1,0.5,0c0.2,0.1,0.3,0.3,0.3,0.5V17c0,0.2-0.1,0.4-0.3,0.5l-10,5.1C43,22.7,42.9,22.7,42.8,22.7z M36.6,18.4     l6.2,3.2l9.5-4.9v-6.4L36.6,18.4z" class="st1_1580424988395" vector-effect="non-scaling-stroke"/>
		</g>
		<g>
			<polygon points="35.4,18.4 28,22.2 18,17 18,9.5" class="st2_1580424988395" vector-effect="non-scaling-stroke"/>
			<path d="M28,22.7c-0.1,0-0.2,0-0.2-0.1l-10-5.1c-0.2-0.1-0.3-0.3-0.3-0.5V9.5c0-0.2,0.1-0.4,0.3-0.5     c0.2-0.1,0.4-0.1,0.5,0l17.5,8.9c0.2,0.1,0.3,0.3,0.3,0.5c0,0.2-0.1,0.4-0.3,0.5l-7.4,3.8C28.2,22.7,28.1,22.7,28,22.7z      M18.5,16.7l9.5,4.9l6.2-3.2l-15.8-8.1V16.7z" class="st1_1580424988395" vector-effect="non-scaling-stroke"/>
		</g>
		<g>
			<polygon points="52.9,9.5 35.4,18.4 18,9.5 35.4,0.5" class="st5_1580424988395" vector-effect="non-scaling-stroke"/>
			<path d="M35.4,18.9c-0.1,0-0.2,0-0.2-0.1L17.7,9.9c-0.2-0.1-0.3-0.3-0.3-0.5c0-0.2,0.1-0.4,0.3-0.5l17.5-8.9     c0.2-0.1,0.3-0.1,0.5,0L53.1,9c0.2,0.1,0.3,0.3,0.3,0.5c0,0.2-0.1,0.4-0.3,0.5l-17.5,8.9C35.6,18.9,35.5,18.9,35.4,18.9z      M19.1,9.5l16.3,8.3l16.3-8.3L35.4,1.1L19.1,9.5z" class="st1_1580424988395" vector-effect="non-scaling-stroke"/>
		</g>
	</g>
</g></g></svg>