<?xml version="1.0" encoding="utf-8"?>
<!-- Generator: Adobe Illustrator 25.0.1, SVG Export Plug-In . SVG Version: 6.00 Build 0)  -->
<svg version="1.1" id="Layer_1" xmlns="http://www.w3.org/2000/svg" xmlns:xlink="http://www.w3.org/1999/xlink" x="0px" y="0px"
	 viewBox="0 0 141.7 60.5" style="enable-background:new 0 0 141.7 60.5;" xml:space="preserve">
<style type="text/css">
	.st0{fill:#231F20;}
	.st1{fill:#00AFAA;}
</style>
<g>
	<path class="st0" d="M0.8,33.5h7.9v26.2H0.8V33.5z M0,26.5c0-2.6,2.2-4.7,4.7-4.7s4.7,2.2,4.7,4.7s-2.2,4.7-4.7,4.7S0,29,0,26.5"/>
	<path class="st0" d="M31.6,46.6c0-3.9-2.6-6.4-6.2-6.4c-3.6,0-6.2,2.5-6.2,6.4s2.6,6.4,6.2,6.4C29,53,31.6,50.5,31.6,46.6 M39.5,23
		v36.7h-7.9v-2.5c-1.7,2-4.3,3.2-7.8,3.2c-6.9,0-12.5-6-12.5-13.9S17,32.8,23.8,32.8c3.5,0,6.1,1.2,7.8,3.2V23H39.5z"/>
	<path class="st1" d="M67.9,52.9c-3.4,0-6.2-2.8-6.2-6.2c0-3.4,2.8-6.2,6.2-6.2c3.4,0,6.2,2.8,6.2,6.2
		C74.1,50.1,71.3,52.9,67.9,52.9 M73.6,33.6v1.7c-1.6-1.5-3.7-2.4-6.2-2.4c-7.5,0-13,6.2-13,13.9c0,7.6,5.6,13.9,13,13.9
		c2.6,0,4.6-1,6.2-2.4v1.7h7.9V33.6H73.6z"/>
	<path class="st1" d="M109.2,33.6v26.2h-7.9v-1.7c-1.5,1.7-3.6,2.4-7.5,2.4c-5.3,0-9.8-3.8-9.8-10.8V33.6h7.9v14.6
		c0,3.2,2,4.8,4.6,4.8c2.9,0,4.9-1.7,4.9-5.4v-14H109.2z"/>
	<path class="st1" d="M47.8,60.5c-3.4,0-6.2-2.8-6.2-6.2c0-3.4,2.8-6.2,6.2-6.2c3.4,0,6.2,2.8,6.2,6.2C54,57.7,51.2,60.5,47.8,60.5"
		/>
	<path class="st1" d="M113.2,25.2c0,1.3-1.1,2.4-2.4,2.4c-1.3,0-2.4-1.1-2.4-2.4c0-1.3,1.1-2.4,2.4-2.4
		C112.2,22.9,113.2,23.9,113.2,25.2"/>
	<path class="st1" d="M131.4,25.2c0,3.4-2.8,6.2-6.2,6.2c-3.4,0-6.2-2.8-6.2-6.2c0-3.4,2.8-6.2,6.2-6.2
		C128.6,19,131.4,21.8,131.4,25.2"/>
	<path class="st1" d="M114.7,3.9c0,2.1-1.7,3.9-3.9,3.9c-2.1,0-3.9-1.7-3.9-3.9c0-2.1,1.7-3.9,3.9-3.9C113,0,114.7,1.7,114.7,3.9"/>
	<path class="st1" d="M129,3.9c0,2.1-1.7,3.9-3.9,3.9c-2.1,0-3.9-1.7-3.9-3.9c0-2.1,1.7-3.9,3.9-3.9C127.3,0,129,1.7,129,3.9"/>
	<path class="st1" d="M129,46.7c0,2.1-1.7,3.9-3.9,3.9c-2.1,0-3.9-1.7-3.9-3.9c0-2.1,1.7-3.9,3.9-3.9C127.3,42.8,129,44.5,129,46.7"
		/>
	<path class="st1" d="M141.7,25.2c0,1.3-1.1,2.4-2.4,2.4c-1.3,0-2.4-1.1-2.4-2.4c0-1.3,1.1-2.4,2.4-2.4
		C140.7,22.9,141.7,23.9,141.7,25.2"/>
	<path class="st1" d="M100.5,25.2c0,2.1-1.7,3.9-3.9,3.9c-2.1,0-3.9-1.7-3.9-3.9c0-2.1,1.7-3.9,3.9-3.9
		C98.8,21.4,100.5,23.1,100.5,25.2"/>
	<path class="st1" d="M120.4,14.5c0,1.3-1.1,2.4-2.4,2.4c-1.3,0-2.4-1.1-2.4-2.4c0-1.3,1.1-2.4,2.4-2.4
		C119.3,12.2,120.4,13.2,120.4,14.5"/>
	<path class="st1" d="M136.1,14.5c0,2.1-1.7,3.9-3.9,3.9c-2.1,0-3.9-1.7-3.9-3.9c0-2.1,1.7-3.9,3.9-3.9
		C134.4,10.7,136.1,12.4,136.1,14.5"/>
	<path class="st1" d="M110,14.5c0,3.4-2.8,6.2-6.2,6.2c-3.4,0-6.2-2.8-6.2-6.2c0-3.4,2.8-6.2,6.2-6.2C107.2,8.3,110,11.1,110,14.5"
		/>
	<path class="st1" d="M121.8,35.9c0,2.1-1.7,3.9-3.9,3.9c-2.1,0-3.9-1.7-3.9-3.9c0-2.1,1.7-3.9,3.9-3.9
		C120.1,32.1,121.8,33.8,121.8,35.9"/>
	<path class="st1" d="M134.6,35.9c0,1.3-1.1,2.4-2.4,2.4c-1.3,0-2.4-1.1-2.4-2.4c0-1.3,1.1-2.4,2.4-2.4
		C133.6,33.6,134.6,34.6,134.6,35.9"/>
</g>
</svg>
