<?xml version="1.0" encoding="utf-8"?>
<!-- Generator: Adobe Illustrator 24.2.0, SVG Export Plug-In . SVG Version: 6.00 Build 0)  -->
<svg version="1.1" id="Layer_1" xmlns="http://www.w3.org/2000/svg" xmlns:xlink="http://www.w3.org/1999/xlink" x="0px" y="0px"
	 viewBox="0 0 141.7 141.7" style="enable-background:new 0 0 141.7 141.7;" xml:space="preserve">
<style type="text/css">
	.st0{fill:#ADB6BA;}
</style>
<g>
	<g>
		<path class="st0" d="M30.4,80.6l0.2-0.8c0.3-0.9,0.2-1.8-0.3-2.4c-0.4-0.6-1.1-0.9-2-1l-16.1-0.2c-0.1,0-0.2-0.1-0.3-0.1
			C12,76,12,75.9,12,75.8c0.1-0.2,0.2-0.3,0.4-0.3l16.2-0.2c1.9-0.1,4-1.6,4.7-3.6l0.9-2.4c0-0.1,0-0.1,0-0.2c0,0,0-0.1,0-0.1
			c-1.1-4.7-5.3-8.3-10.3-8.3c-4.6,0-8.6,3-10,7.2c-0.9-0.7-2.1-1-3.3-0.9c-2.2,0.2-4,2-4.2,4.2c-0.1,0.6,0,1.1,0.1,1.7
			C2.9,73,0,76,0,79.7c0,0.3,0,0.7,0.1,1c0,0.2,0.2,0.3,0.3,0.3l29.7,0c0,0,0,0,0,0C30.2,80.9,30.4,80.8,30.4,80.6z"/>
		<path class="st0" d="M35.8,69.5c-0.1,0-0.3,0-0.4,0c0,0,0,0-0.1,0c-0.1,0-0.1,0.1-0.2,0.2l-0.6,2.2c-0.3,0.9-0.2,1.8,0.3,2.4
			c0.4,0.6,1.1,0.9,2,1l3.4,0.2c0.1,0,0.2,0.1,0.2,0.1c0.1,0.1,0.1,0.2,0,0.3c-0.1,0.2-0.2,0.3-0.4,0.3l-3.6,0.2
			c-1.9,0.1-4,1.6-4.7,3.6l-0.3,0.7c0,0.1,0,0.3,0.2,0.3c0,0,0,0,0,0h12.2c0.1,0,0.3-0.1,0.3-0.2c0.2-0.8,0.3-1.6,0.3-2.4
			C44.5,73.5,40.6,69.5,35.8,69.5z"/>
	</g>
	<g>
		<path class="st0" d="M140.9,75.1c-0.4,0-0.8-0.4-0.8-0.8c0-0.4,0.4-0.8,0.8-0.8c0.4,0,0.8,0.4,0.8,0.8
			C141.7,74.8,141.4,75.1,140.9,75.1 M140.9,73.7c-0.4,0-0.6,0.3-0.6,0.6c0,0.4,0.3,0.6,0.6,0.6c0.3,0,0.6-0.3,0.6-0.6
			C141.6,74,141.3,73.7,140.9,73.7 M141.3,74.7h-0.2l-0.2-0.3h-0.2v0.3h-0.2v-0.9h0.4c0.2,0,0.3,0.1,0.3,0.3c0,0.1-0.1,0.2-0.2,0.3
			L141.3,74.7z M141,74.3c0.1,0,0.1,0,0.1-0.1c0-0.1-0.1-0.1-0.1-0.1h-0.3v0.3H141z"/>
		<polygon class="st0" points="58,73.5 60.1,73.5 60.1,79 63.6,79 63.6,80.8 58,80.8 		"/>
		<path class="st0" d="M65.7,77.1L65.7,77.1c0-2.1,1.7-3.8,4-3.8c2.3,0,3.9,1.7,3.9,3.8v0c0,2.1-1.7,3.8-4,3.8
			C67.4,80.9,65.7,79.2,65.7,77.1 M71.5,77.1L71.5,77.1c0-1.1-0.8-2-1.9-2c-1.1,0-1.9,0.9-1.9,2v0c0,1.1,0.8,2,1.9,2
			C70.8,79.1,71.5,78.2,71.5,77.1"/>
		<path class="st0" d="M76.1,77.6v-4.1h2.1v4.1c0,1.1,0.5,1.6,1.3,1.6s1.3-0.5,1.3-1.5v-4.1h2.1v4.1c0,2.4-1.3,3.4-3.4,3.4
			C77.4,80.9,76.1,79.9,76.1,77.6"/>
		<path class="st0" d="M86,73.5h2.8c2.6,0,4.1,1.5,4.1,3.6v0c0,2.1-1.5,3.7-4.2,3.7H86V73.5z M88.8,79c1.2,0,2-0.7,2-1.9v0
			c0-1.2-0.8-1.9-2-1.9H88V79H88.8z"/>
		<polygon class="st0" points="95.9,73.5 101.7,73.5 101.7,75.2 97.9,75.2 97.9,76.5 101.4,76.5 101.4,78.2 97.9,78.2 97.9,80.8 
			95.9,80.8 		"/>
		<polygon class="st0" points="104.6,73.5 106.6,73.5 106.6,79 110.1,79 110.1,80.8 104.6,80.8 		"/>
		<path class="st0" d="M115.4,73.4h2l3.1,7.4h-2.2l-0.5-1.3H115l-0.5,1.3h-2.1L115.4,73.4z M117.2,77.9l-0.8-2.1l-0.8,2.1H117.2z"/>
		<path class="st0" d="M123.1,73.5h3.5c1.1,0,1.9,0.3,2.4,0.8c0.4,0.4,0.6,1,0.6,1.7v0c0,1.1-0.6,1.9-1.5,2.2l1.7,2.6h-2.3l-1.5-2.2
			h-0.9v2.2h-2V73.5z M126.5,77c0.7,0,1.1-0.3,1.1-0.9v0c0-0.6-0.4-0.9-1.1-0.9h-1.3V77H126.5z"/>
		<polygon class="st0" points="132.5,73.5 138.4,73.5 138.4,75.2 134.5,75.2 134.5,76.3 138,76.3 138,77.9 134.5,77.9 134.5,79.1 
			138.5,79.1 138.5,80.8 132.5,80.8 		"/>
		<path class="st0" d="M53.6,78c-0.3,0.6-0.9,1.1-1.7,1.1c-1.1,0-1.9-0.9-1.9-2v0c0-1.1,0.7-2,1.9-2c0.8,0,1.5,0.5,1.7,1.2h2.1
			c-0.3-1.7-1.9-3-3.9-3c-2.3,0-4,1.7-4,3.8v0c0,2.1,1.7,3.8,3.9,3.8c1.9,0,3.4-1.3,3.8-2.9H53.6z"/>
	</g>
</g>
</svg>
