<?xml version="1.0" encoding="utf-8"?>
<!-- Generator: Adobe Illustrator 24.2.0, SVG Export Plug-In . SVG Version: 6.00 Build 0)  -->
<svg version="1.1" id="Layer_1" xmlns="http://www.w3.org/2000/svg" xmlns:xlink="http://www.w3.org/1999/xlink" x="0px" y="0px"
	 viewBox="0 0 141.7 141.7" style="enable-background:new 0 0 141.7 141.7;" xml:space="preserve">
<style type="text/css">
	.st0{fill:#ADB6BA;}
</style>
<path class="st0" d="M41.6,67.6c2.9,0,4.8,1.5,5.7,4h4.4c-1.1-4.8-4.9-7.9-10.1-7.9c-6.1,0-10.8,4.8-10.8,11
	c0,6.2,4.6,10.8,10.8,10.8c5.2,0,8.9-3.2,10.1-7.9h-4.4c-0.9,2.4-2.8,4-5.7,4c-4,0-6.6-2.9-6.6-7S37.5,67.6,41.6,67.6z M59.6,66.1
	h-0.2L59.2,64h-3.7v21.6h4.1V72c0-2.9,2.2-4.5,5.2-4.5c0.3,0,0.5,0,0.8,0.1v-4c-0.3-0.1-0.5-0.1-0.8-0.1
	C62.7,63.6,60.9,64.5,59.6,66.1L59.6,66.1z M103.4,63.5c-3.6,0-5.9,1.5-6.8,2.6h-0.2L96.1,64h-3.7v21.6h4.1V72.1
	c0-3,2.7-4.6,6.1-4.6c2.9,0,4.9,1.4,4.9,4.4v13.8h4.1v-14C111.7,65.7,107.4,63.6,103.4,63.5L103.4,63.5z M116.9,85.7h4.1V64.1h-4.1
	V85.7z M77.6,63.8c-6.2,0-10.9,4.7-10.9,10.9s4.7,10.9,10.9,10.9s10.9-4.7,10.9-10.9C88.4,68.5,83.7,63.8,77.6,63.8z M77.6,81.7
	c-4,0-6.6-2.9-6.6-7c0-4.1,2.6-7.1,6.6-7.1c4,0,6.6,3,6.6,7.1S81.6,81.7,77.6,81.7z M134.2,72.5c-4-0.9-3.9-1.9-3.9-2.8
	c0-1.1,1.2-2.4,3.1-2.4c1.6,0,3.4,0.8,3.4,3.5h3.9c0.1-4.4-2.8-7.1-7.3-7.1c-4,0-7.2,2.8-7.2,6.1c0,4.3,3.4,5.6,7.1,6.4
	c3.9,0.9,4.2,2.1,4.2,2.9c0,1.6-1.7,3-4,3c-1.7,0-4.2-1-4.2-4.2h-3.9c-0.2,4.9,3.3,7.8,8.1,7.8c4.6,0,8.2-2.9,8.2-6.8
	C141.7,74.7,137.8,73.3,134.2,72.5L134.2,72.5z M13.5,55.8L0,85.7h4.3l2.6-6h16.8l2.6,6h4.3L17.2,55.8
	C17.2,55.8,13.5,55.8,13.5,55.8z M22.3,76.3H8.5l1.3-2.8H21L22.3,76.3z M11.2,70.2l3.9-8.7l0.2-0.5h0.2l0.2,0.5l3.8,8.7H11.2z"/>
</svg>
