<?xml version="1.0" encoding="utf-8"?>
<!-- Generator: Adobe Illustrator 26.3.1, SVG Export Plug-In . SVG Version: 6.00 Build 0)  -->
<svg version="1.1" id="Artwork" xmlns="http://www.w3.org/2000/svg" xmlns:xlink="http://www.w3.org/1999/xlink" x="0px" y="0px"
	 viewBox="0 0 448.9 144" style="enable-background:new 0 0 448.9 144;" xml:space="preserve">
<style type="text/css">
	.st0{fill:#ADB6BA;}
</style>
<path id="Logotype" class="st0" d="M365.4,16.4H376v7.4h-10.7v4.5l0,14.4c0,2.1-0.2,4.3,1.9,5.7c2.7,1.7,7.9,0.4,8.8,0.2v7.6
	c-1.3,0.6-11.4,2.8-16.4-2.2c-2-2-3-4.6-3-8.1l0-22.1H349v-7.4h7.7V5.6h8.7V16.4z M332.4,56.8h8.7V16.4h-8.7V56.8z M332.4,8.7h8.7V0
	h-8.7V8.7z M194.9,56.8V51c-3.2,4.4-8,6.7-13.8,6.7c-11.2,0-18.9-8.6-18.9-21.2c0-12.5,7.7-21.2,18.8-21.2c5.7,0,10.4,2.3,13.9,6.8
	V0h8.8v56.8H194.9z M195.3,36.6c0-7.8-4.8-12.8-12-12.8c-7.3,0-12.1,5.2-12.1,12.8c0,7.7,4.8,12.8,12.1,12.8
	C190.5,49.4,195.3,44.3,195.3,36.6z M175.7,70h8.8v56.8h-8.8v-5.7c-3.2,4.4-8,6.7-13.8,6.7c-11.2,0-18.9-8.6-18.9-21.2
	c0-12.5,7.7-21.2,18.8-21.2c5.7,0,10.4,2.3,13.9,6.8L175.7,70L175.7,70z M176.1,106.6c0-7.8-4.8-12.8-12-12.8
	c-7.3,0-12.1,5.2-12.1,12.8c0,7.7,4.8,12.8,12.1,12.8C171.2,119.4,176.1,114.3,176.1,106.6z M265.2,37.7c0-9.2,3.5-14.1,10-14.1
	c5.7,0,8.8,3.5,8.8,9.9v23.3h8.9V32c0-10.5-5.3-16.6-14.6-16.6c-5.6,0-10.3,2.3-13.3,7.1v-6.1h-8.5v40.4h8.7L265.2,37.7L265.2,37.7z
	 M252.4,86.4v37.2c0,13.1-8.2,20.5-20.8,20.5c-8.2,0-15-3.2-20-7.9l5.3-6.5c4,3.5,8.5,5.7,14.2,5.7c7.5,0,12.7-4.7,12.7-11.3v-2.9
	c-2.7,4-7.8,6.3-13.6,6.3c-11.8,0-19.4-8.2-19.4-20.9c0-12.4,7.8-21.1,19.2-21.1c5.8,0,10.9,2.5,13.5,6.5v-5.6
	C243.6,86.4,252.4,86.4,252.4,86.4z M244,106.6c0-7.8-4.7-12.8-11.9-12.8c-7.4,0-12.3,5.2-12.3,12.8c0,7.7,4.9,12.8,12.3,12.8
	C239.3,119.4,244,114.4,244,106.6z M343.7,100.3v26.4H335v-5.6c-2.7,4.1-7.3,6.5-12.8,6.5c-8.2,0-13.7-5.3-13.7-12.7
	c0-6.9,4-11.4,12.9-12.5c3.2-0.4,10.6-1.2,11.5-1.4c1.1-0.1,2.3-0.5,2.3-1.9v-0.1c0-3.4-3.4-6.1-8.7-6.1c-5.6,0-8.8,3.4-10.2,6.2
	l-6.5-4.2c3.1-5.9,9.5-9.8,17.4-9.8C336.8,85.3,343.7,90.4,343.7,100.3z M335,108.1l-11.6,1.5c-3.7,0.4-6,2.3-6.1,5.3
	c-0.2,3.8,3.2,5.4,6.9,5.3c6.1-0.3,10.8-4.3,10.8-9.6V108.1z M352.3,126.8h8.9V70h-8.9V126.8z M194.9,126.8h8.7V86.4h-8.7V126.8z
	 M194.9,78.7h8.7V70h-8.7V78.7z M314,5.6h-8.7v10.8h-7.7v7.4h7.7l0,22.1c0,3.4,1,6.1,3,8.1c5,5,15.1,2.7,16.4,2.2v-7.6
	c-0.9,0.2-6.1,1.5-8.8-0.2c-2.1-1.4-1.9-3.5-1.9-5.7l0-14.4v-4.5h10.7v-7.4H314L314,5.6L314,5.6z M250.7,39.1h-31.1
	c0,7.1,5.7,11.1,12.2,11.1c4.9,0,8.9-2.1,10.9-4.7l0.3,0.2l6.5,4.1c-4.1,5.5-10.2,8.3-17.8,8.3c-12,0-20.8-8-20.8-21.4
	c0-12.5,8.8-21.4,20.7-21.4C252.1,15.4,250.9,37.6,250.7,39.1z M241.9,32.4c-0.5-7.1-6-9.7-10.6-9.7c-5.8,0-10.6,3.2-11.5,9.7H241.9
	z M146.4,56.8h8.7V16.4h-8.7V56.8z M146.4,8.7h8.7V0h-8.7V8.7z M292.8,75.6h-8.7v10.8h-7.7v7.4h7.7l0,22.1c0,3.4,1,6.1,3,8.1
	c5,5,15.1,2.7,16.4,2.2v-7.6c-0.9,0.2-6.1,1.5-8.8-0.2c-2.1-1.4-1.9-3.5-1.9-5.7l0-14.4v-4.5h10.7v-7.4h-10.7V75.6z M260.7,126.8
	h8.7V86.4h-8.7V126.8z M260.7,78.7h8.7V70h-8.7V78.7z M412.7,16.4L401.4,41l-11.6-24.6h-10.1l17.1,34.8L388.2,70h9.3L422,16.4
	L412.7,16.4L412.7,16.4z M432.3,8.6h2.1V2.1h2.9V0h-8v2.1h2.9L432.3,8.6L432.3,8.6z M438.3,8.6h2.1V4.4l2.4,4.2h1.7l2.4-4.2v4.2h2.1
	V0h-2l-3.3,5.9L440.3,0h-2L438.3,8.6L438.3,8.6z"/>
<path id="Symbol" class="st0" d="M0,0v126.9h126.9V0H0z M55,117.1H9.8v-56c0-12.5,10.1-22.6,22.6-22.6h0C44.9,38.5,55,48.6,55,61.1
	C55,61.1,55,117.1,55,117.1z M32.4,32.4C19.9,32.4,9.7,22.3,9.7,9.8H55C55,22.3,44.9,32.4,32.4,32.4z M64.8,117.1V9.8
	c29.6,0,53.7,24,53.7,53.7S94.4,117.1,64.8,117.1z"/>
</svg>
