<?xml version="1.0" encoding="utf-8"?>
<!-- Generator: Adobe Illustrator 24.2.0, SVG Export Plug-In . SVG Version: 6.00 Build 0)  -->
<svg version="1.1" id="Layer_1" xmlns="http://www.w3.org/2000/svg" xmlns:xlink="http://www.w3.org/1999/xlink" x="0px" y="0px"
	 viewBox="0 0 141.7 141.7" style="enable-background:new 0 0 141.7 141.7;" xml:space="preserve">
<style type="text/css">
	.st0{fill:#ADB6BA;}
</style>
<g>
	<g>
		<path class="st0" d="M13.6,123.9H9.5l-6.7-11.5H2.7c0.1,2,0.2,3.5,0.2,4.3v7.1H0v-15.2h4.1l6.7,11.4h0.1c-0.1-2-0.2-3.4-0.2-4.2
			v-7.2h2.9V123.9z"/>
		<path class="st0" d="M38.1,123.9h-9.6v-15.2h9.6v2.6h-6.1v3.3h5.7v2.6h-5.7v3.9h6.1V123.9z"/>
		<path class="st0" d="M67.1,123.9h-3.7l-3.5-5.7l-3.5,5.7H53l5-7.8l-4.7-7.3h3.5l3.3,5.5l3.2-5.5h3.5l-4.8,7.5L67.1,123.9z"/>
		<path class="st0" d="M87.9,123.9h-3.2v-12.5h-4.1v-2.7H92v2.7h-4.1V123.9z"/>
		<path class="st0" d="M118.9,116.1c0,2.5-0.7,4.4-2,5.7c-1.4,1.3-3.3,2-5.9,2h-4.2v-15.2h4.7c2.4,0,4.2,0.7,5.5,2
			C118.3,112,118.9,113.8,118.9,116.1z M117.1,116.2c0-2-0.5-3.5-1.5-4.5c-1-1-2.5-1.5-4.4-1.5h-2.6v12.1h2.1c2.1,0,3.7-0.5,4.7-1.6
			C116.5,119.7,117.1,118.2,117.1,116.2z"/>
		<path class="st0" d="M137.5,110c-1.7,0-3,0.6-3.9,1.7c-1,1.1-1.4,2.6-1.4,4.6c0,2,0.5,3.5,1.4,4.6c0.9,1.1,2.3,1.6,4,1.6
			c1.1,0,2.3-0.2,3.6-0.6v1.5c-1.1,0.4-2.3,0.6-3.9,0.6c-2.2,0-4-0.7-5.2-2c-1.2-1.4-1.8-3.3-1.8-5.8c0-1.6,0.3-2.9,0.9-4.1
			c0.6-1.2,1.4-2.1,2.5-2.7c1.1-0.6,2.4-1,3.9-1c1.6,0,3,0.3,4.2,0.9l-0.7,1.5C139.8,110.3,138.7,110,137.5,110z"/>
	</g>
	<g>
		<polygon class="st0" points="73.2,86 73.2,52 82.9,48.7 82.9,81.4 		"/>
		<polygon class="st0" points="87.4,79.2 87.4,47 97.1,43.7 97.1,74.6 		"/>
		<polygon class="st0" points="68.5,17.7 68.5,36.5 58.7,39.6 58.7,20.4 		"/>
		<polygon class="st0" points="54.1,21.6 54.1,41 52,41.6 44.5,39.1 44.5,24.3 		"/>
		<polygon class="st0" points="25.6,29.5 25.6,32.7 20.5,30.9 		"/>
		<g>
			<path class="st0" d="M61.5,52.4l4.4,1.5v28l-4.4-2.1V52.4 M58.9,48.7v32.7l9.7,4.6V52L58.9,48.7L58.9,48.7z"/>
			<path class="st0" d="M47.2,47.4l4.4,1.5v26.2L47.2,73V47.4 M44.6,43.7v30.9l9.7,4.6V47L44.6,43.7L44.6,43.7z"/>
			<path class="st0" d="M33.1,42.4l4.4,1.5v24.4l-4.4-2.1V42.4 M30.4,38.8v29.1l9.7,4.6V42.1L30.4,38.8L30.4,38.8z"/>
			<path class="st0" d="M18.7,37.4l4.5,1.5v22.6l-4.5-2.2V37.4 M16.1,33.8v27.3l9.8,4.6V37.1L16.1,33.8L16.1,33.8z"/>
			<path class="st0" d="M108.7,42.4v23.8l-4.4,2.1V43.9L108.7,42.4 M111.3,38.8l-9.7,3.3v30.4l9.7-4.6V38.8L111.3,38.8z"/>
			<path class="st0" d="M123.1,37.4v22l-4.5,2.2V39L123.1,37.4 M125.7,33.8l-9.8,3.3v28.6l9.8-4.6V33.8L125.7,33.8z"/>
			<path class="st0" d="M37.3,29v4.9l-4.4-1.5v-2.2L37.3,29 M39.9,25.6l-9.6,2.6v6l9.6,3.3V25.6L39.9,25.6z"/>
			<path class="st0" d="M75.8,21.1l4.6,1.3V36l-4.6-1.4V21.1 M73.2,17.7v18.9l9.8,3V20.4L73.2,17.7L73.2,17.7z"/>
			<path class="st0" d="M90.2,25.1l4.4,1.2v10.9l-4.4,1.5V25.1 M87.6,21.6V41l2.2,0.7l7.5-2.6V24.3L87.6,21.6L87.6,21.6z"/>
			<path class="st0" d="M104.5,29l4.4,1.2v2.2l-4.4,1.5V29 M101.9,25.6v12l9.6-3.3v-6L101.9,25.6L101.9,25.6z"/>
		</g>
		<polygon class="st0" points="116.1,29.5 116.1,32.7 121.2,30.9 		"/>
	</g>
</g>
</svg>
