<?xml version="1.0" encoding="utf-8"?>
<!-- Generator: Adobe Illustrator 24.2.0, SVG Export Plug-In . SVG Version: 6.00 Build 0)  -->
<svg version="1.1" id="Layer_1" xmlns="http://www.w3.org/2000/svg" xmlns:xlink="http://www.w3.org/1999/xlink" x="0px" y="0px"
	 viewBox="0 0 141.7 141.7" style="enable-background:new 0 0 141.7 141.7;" xml:space="preserve">
<style type="text/css">
	.st0{fill:#ADB6BA;}
</style>
<g>
	<g>
		<g>
			<path class="st0" d="M56.9,54.4l-6.7,25c-0.4,1.5-1,2.9-1.9,4.1c-0.8,1.3-1.8,2.3-3,3.2c-1.2,0.9-2.5,1.6-3.9,2.1
				c-1.4,0.5-2.9,0.7-4.5,0.7H0l9.4-35.3c0.2-0.6,0.5-1.1,1-1.5c0.5-0.4,1.1-0.6,1.8-0.6h5c0.6,0,1.1,0.2,1.4,0.7
				c0.4,0.5,0.5,1,0.3,1.5l-7,26h9.5l7-26.1c0.2-0.6,0.5-1.1,1-1.5c0.5-0.4,1.1-0.6,1.7-0.6h5c0.6,0,1.1,0.2,1.4,0.7
				c0.3,0.5,0.4,1,0.3,1.5l-7,26h5.7c1.1,0,2.1-0.3,3-1c0.9-0.7,1.5-1.5,1.8-2.6l6-22.5c0.2-0.6,0.5-1.1,1-1.5
				c0.5-0.4,1.1-0.6,1.8-0.6h5c0.6,0,1.1,0.2,1.4,0.7C56.9,53.3,57,53.8,56.9,54.4z"/>
			<path class="st0" d="M63.4,75.4l-3.2,12c-0.2,0.6-0.5,1.1-1,1.5c-0.5,0.4-1.1,0.6-1.8,0.6h-5c-0.6,0-1-0.2-1.4-0.7
				c-0.4-0.5-0.5-1-0.3-1.5l8.8-33.1c0.2-0.6,0.5-1.1,1-1.5c0.5-0.4,1.1-0.6,1.8-0.6h7.2l-3.7,14.1h11.7l3.2-12
				c0.2-0.6,0.5-1.1,1-1.5c0.5-0.4,1.1-0.6,1.7-0.6h7.3l-9.5,35.3c-0.2,0.6-0.5,1.1-1,1.5c-0.5,0.4-1.1,0.6-1.7,0.6h-5
				c-0.6,0-1.1-0.2-1.4-0.7c-0.3-0.5-0.4-1-0.3-1.5L75,75.4H63.4z"/>
			<path class="st0" d="M84.1,87.3l9.4-35.1H123c2.3,0,4.4,0.5,6.2,1.5c1.9,1,3.5,2.3,4.7,3.9c1.2,1.6,2.1,3.5,2.6,5.6
				c0.5,2.1,0.4,4.2-0.2,6.4l-4.8,17.9c-0.2,0.6-0.5,1.1-1,1.5c-0.5,0.4-1.1,0.6-1.8,0.6h-5c-0.6,0-1.1-0.2-1.4-0.7
				c-0.4-0.5-0.5-1-0.3-1.5l5.1-18.9c0.2-0.9,0.2-1.7,0-2.6c-0.2-0.9-0.5-1.6-1.1-2.3c-0.5-0.7-1.2-1.2-1.9-1.6
				c-0.8-0.4-1.6-0.6-2.5-0.6h-2.1l-7,26.1c-0.2,0.6-0.5,1.1-1,1.5c-0.5,0.4-1.1,0.6-1.7,0.6h-5c-0.6,0-1.1-0.2-1.4-0.7
				c-0.3-0.5-0.4-1-0.3-1.5l7-26h-9.5l-7,26.1c-0.2,0.6-0.5,1.1-1,1.5c-0.5,0.4-1.1,0.6-1.8,0.6h-5c-0.6,0-1.1-0.2-1.4-0.7
				C84,88.4,83.9,87.9,84.1,87.3z"/>
		</g>
	</g>
	<g>
		<path class="st0" d="M135.3,55.7c0-0.6,0.1-1.1,0.4-1.6c0.3-0.5,0.7-0.9,1.2-1.2c0.5-0.3,1-0.4,1.6-0.4c0.6,0,1.1,0.1,1.6,0.4
			c0.5,0.3,0.9,0.7,1.2,1.2c0.3,0.5,0.4,1,0.4,1.6c0,0.6-0.1,1.1-0.4,1.6c-0.3,0.5-0.7,0.9-1.2,1.2c-0.5,0.3-1,0.4-1.6,0.4
			c-0.6,0-1.1-0.1-1.6-0.4c-0.5-0.3-0.9-0.7-1.2-1.2C135.4,56.8,135.3,56.3,135.3,55.7z M135.7,55.7c0,0.5,0.1,1,0.4,1.4
			c0.2,0.4,0.6,0.8,1,1c0.4,0.2,0.9,0.4,1.4,0.4c0.5,0,1-0.1,1.4-0.4c0.4-0.2,0.8-0.6,1-1c0.2-0.4,0.4-0.9,0.4-1.4
			c0-0.5-0.1-1-0.4-1.4c-0.2-0.4-0.6-0.8-1-1c-0.4-0.2-0.9-0.4-1.4-0.4c-0.5,0-1,0.1-1.4,0.4c-0.4,0.2-0.8,0.6-1,1
			C135.9,54.7,135.7,55.2,135.7,55.7z M139.8,54.9c0,0.2-0.1,0.4-0.2,0.6c-0.1,0.2-0.3,0.3-0.5,0.4l1,1.7h-0.7l-0.9-1.5h-0.6v1.5
			h-0.6v-3.8h1.1c0.5,0,0.8,0.1,1,0.3C139.7,54.2,139.8,54.5,139.8,54.9z M137.9,55.6h0.5c0.2,0,0.4-0.1,0.5-0.2
			c0.1-0.1,0.2-0.3,0.2-0.5c0-0.2-0.1-0.4-0.2-0.5c-0.1-0.1-0.3-0.1-0.6-0.1h-0.5V55.6z"/>
	</g>
</g>
</svg>
