<?xml version="1.0" encoding="utf-8"?>
<!-- Generator: Adobe Illustrator 24.2.0, SVG Export Plug-In . SVG Version: 6.00 Build 0)  -->
<svg version="1.1" id="Layer_1" xmlns="http://www.w3.org/2000/svg" xmlns:xlink="http://www.w3.org/1999/xlink" x="0px" y="0px"
	 viewBox="0 0 141.7 141.7" style="enable-background:new 0 0 141.7 141.7;" xml:space="preserve">
<style type="text/css">
	.st0{fill:#ADB6BA;}
</style>
<path id="path2987" class="st0" d="M66.9,56.8L52.8,67.6c-1.4-5.4-6.1-9.4-11.9-9.4H30.8v24.9h10.1c5.8,0,10.8-4,11.9-9.4l14.1,10.8
	L81,73.7v9.4h15.9v-5.1H86.4V58.2h-5.8v9.4L67.2,78.4l-2.9-2.5l6.5-5.1l6.9-5.4l-4-3.2L60.4,72.7l-2.9-2.5L70.9,60L66.9,56.8
	L66.9,56.8z M36.2,63.3h4.3c0.9,0,1.8,0.2,2.6,0.6c0.8,0.4,1.6,0.9,2.2,1.6c0.6,0.7,1.2,1.5,1.5,2.4c0.4,0.9,0.6,1.9,0.6,3
	c0,1-0.2,2-0.5,2.9c-0.3,0.9-0.8,1.7-1.4,2.4c-0.6,0.7-1.3,1.3-2.2,1.7c-0.8,0.4-1.8,0.6-2.7,0.6h-4.3L36.2,63.3L36.2,63.3z
	 M114.9,78.1v5.1H99V58.2h5.8v19.9L114.9,78.1L114.9,78.1z M70.8,14.2c-31.1,0-56.7,25.6-56.7,56.7s25.3,56.7,56.7,56.7
	s56.7-25.3,56.7-56.7S101.9,14.2,70.8,14.2z M70.8,19.9c3.5,0,7,0.4,10.3,1c3.3,0.7,6.5,1.7,9.6,3c3,1.3,5.9,2.9,8.6,4.7
	c2.7,1.8,5.2,3.9,7.5,6.2s4.4,4.8,6.2,7.5c1.8,2.7,3.4,5.6,4.7,8.6c1.3,3,2.3,6.2,3,9.6c0.7,3.3,1,6.8,1,10.3s-0.4,7-1,10.3
	c-0.7,3.3-1.7,6.5-3,9.6c-1.3,3-2.9,5.9-4.7,8.6c-1.8,2.7-3.9,5.2-6.2,7.5s-4.8,4.4-7.5,6.2c-2.7,1.8-5.6,3.4-8.6,4.7
	c-3,1.3-6.2,2.3-9.6,3c-3.3,0.7-6.8,1-10.3,1s-7-0.4-10.3-1c-3.3-0.7-6.5-1.7-9.6-3c-3-1.3-5.9-2.9-8.6-4.7
	c-2.7-1.8-5.2-3.9-7.5-6.2c-2.3-2.3-4.4-4.8-6.2-7.5c-1.8-2.7-3.4-5.6-4.7-8.6c-1.3-3-2.3-6.2-3-9.6c-0.7-3.3-1-6.8-1-10.3
	c0-3.5,0.4-7,1-10.3c0.7-3.3,1.7-6.5,3-9.6c1.3-3,2.9-5.9,4.7-8.6c1.8-2.7,3.9-5.2,6.2-7.5c2.3-2.3,4.8-4.4,7.5-6.2
	c2.7-1.8,5.6-3.4,8.6-4.7c3-1.3,6.2-2.3,9.6-3C63.9,20.3,67.3,19.9,70.8,19.9L70.8,19.9z"/>
</svg>
