<?xml version="1.0" encoding="utf-8"?>
<!-- Generator: Adobe Illustrator 24.2.0, SVG Export Plug-In . SVG Version: 6.00 Build 0)  -->
<svg version="1.1" id="Layer_1" xmlns="http://www.w3.org/2000/svg" xmlns:xlink="http://www.w3.org/1999/xlink" x="0px" y="0px"
	 viewBox="0 0 141.7 141.7" style="enable-background:new 0 0 141.7 141.7;" xml:space="preserve">
<style type="text/css">
	.st0{fill:#ADB6BA;}
</style>
<g>
	<path class="st0" d="M67.7,103.8c-25.2,2.3-51.5-1.3-55.2-21c-1.8-9.7,2.6-20,8.5-26.4v-3.4c-10.6,9.3-16.3,21-13,34.9
		c4.2,17.8,26.8,27.8,61.2,24.5c13.6-1.3,31.4-5.7,43.8-12.5v-9.7C101.8,96.8,83.2,102.3,67.7,103.8z M134.1,52.7
		c-6-29.2-62.7-31-99.2-8.8v2.5c36.5-18.8,88.3-18.6,93,8.2c1.6,8.9-3.4,18.2-12.4,23.5v7C126.2,81.1,137.3,68.3,134.1,52.7z"/>
	<path class="st0" d="M111,48.4h-6.6v29.4c0,3.4,1.7,6.4,6.6,6.9V48.4z"/>
	<path class="st0" d="M32.3,59.2h-6.6l0,19.2c0,3.5,1.7,6.5,6.6,6.9V59.2z"/>
	<rect x="25.7" y="49.3" class="st0" width="6.6" height="6.3"/>
	<path class="st0" d="M71.9,85c-5.3,0-7.6-3.7-7.6-7.4V52.1h6.6v7.1h4.9v5.3h-4.9v12.8c0,1.5,0.7,2.3,2.3,2.3h2.7V85H71.9"/>
	<path class="st0" d="M83.9,74.2c0,3.4,2.1,5.8,5.8,5.8c2.9,0,4.3-0.8,6-2.5l4,3.9c-2.6,2.6-5.3,4.1-10.1,4.1
		c-6.3,0-12.3-3.4-12.3-13.4c0-8.5,5.2-13.3,12.1-13.3c7,0,11,5.6,11,13.1v2.4H83.9 M89.2,64.2c-2.2,0-4,1.2-4.7,2.7
		c-0.4,0.9-0.6,1.7-0.6,2.8H94C93.9,66.9,92.6,64.2,89.2,64.2z"/>
	<path class="st0" d="M50.1,64.5c1.9,0,2.7,0.9,2.7,2.5v18.1h6.6V66.9c0-3.7-2-7.7-7.7-7.7l-13.5,0v25.9h6.6V64.5H50.1z"/>
	<g>
		<path class="st0" d="M118.1,53.7c-1.5,0-2.6-1.2-2.6-2.6c0-1.4,1.2-2.6,2.6-2.6c1.4,0,2.6,1.2,2.6,2.6
			C120.7,52.5,119.5,53.7,118.1,53.7z M118.1,48.9c-1.2,0-2.2,1-2.2,2.2c0,1.2,1,2.2,2.2,2.2c1.2,0,2.2-1,2.2-2.2
			C120.3,49.9,119.3,48.9,118.1,48.9z M119.2,52.6h-0.5c0,0-0.1,0-0.1-0.1l-0.7-1.1c0,0-0.1-0.1-0.1-0.1c0,0-0.1,0-0.2,0
			c0,0-0.1,0-0.1,0v1.1c0,0.1,0,0.1-0.1,0.1H117c-0.1,0-0.1-0.1-0.1-0.1v-2.8c0-0.2,0.1-0.2,0.2-0.3c0.2,0,0.6,0,0.8,0
			c0.8,0,1.3,0.2,1.3,1v0.1c0,0.5-0.2,0.7-0.6,0.8l0.7,1.2c0,0,0,0.1,0,0.1C119.4,52.6,119.3,52.6,119.2,52.6z M118.6,50.4
			c0-0.3-0.2-0.4-0.6-0.4c-0.1,0-0.2,0-0.3,0c0,0-0.1,0-0.1,0v0.9c0.1,0,0.4,0,0.4,0C118.4,50.9,118.6,50.7,118.6,50.4L118.6,50.4z"
			/>
	</g>
</g>
</svg>
