<?xml version="1.0" encoding="utf-8"?>
<!-- Generator: Adobe Illustrator 25.1.0, SVG Export Plug-In . SVG Version: 6.00 Build 0)  -->
<svg version="1.1" id="Layer_1" xmlns="http://www.w3.org/2000/svg" xmlns:xlink="http://www.w3.org/1999/xlink" x="0px" y="0px"
	 viewBox="0 0 141.7 97.5" style="enable-background:new 0 0 141.7 97.5;" xml:space="preserve">
<style type="text/css">
	.st0{opacity:0.5;fill:#ADB6BA;enable-background:new    ;}
	.st1{fill:#ADB6BA;}
	.st2{opacity:0.5;enable-background:new    ;}
</style>
<g>
	<g>
		<path class="st0" d="M0,49.8c0.1-0.2,0.1-0.4,0.2-0.7c0.4-2.7,2.5-4.7,5.1-5c3.1-0.3,5.9,1.8,6.4,4.9c0.6,3.5-2,6.4-5,6.8
			c-2.8,0.4-5.8-1.5-6.5-4.7c-0.1-0.3-0.1-0.7-0.2-1C0,50,0,49.9,0,49.8z"/>
		<path class="st1" d="M67.1,23.5c0.2,0,0.3,0,0.5,0c4.1,0,8.2,0,12.3,0c7.4,0,13.6,5,15.1,12.3c0.8,4,0.4,7.9-1.6,11.5
			c-2.3,4.3-6,6.9-10.8,7.8c-0.9,0.2-1.8,0.2-2.6,0.2c-4.1,0-8.2,0-12.3,0c-0.2,0-0.3,0-0.5,0C67.1,44.7,67.1,34.2,67.1,23.5z
			 M74.4,48.3c0.2,0,0.3,0,0.4,0c1.7,0,3.4,0,5.1,0c0.7,0,1.5-0.1,2.2-0.2c2.9-0.6,4.9-2.2,5.8-5.1c0.6-1.8,0.6-3.7,0.2-5.6
			c-0.4-1.8-1.2-3.4-2.7-4.7C83.9,31.5,82,31,80,30.9c-1.8,0-3.5,0-5.3,0c-0.1,0-0.3,0-0.4,0C74.4,36.8,74.4,42.5,74.4,48.3z"/>
		<path class="st1" d="M124.1,55.3c-2.7,0-5.3,0-8,0c-0.5-1.7-1.1-3.3-1.6-5c-4,0-7.9,0-11.9,0c-0.5,1.6-1.1,3.3-1.6,4.9
			c-2.6,0-5.3,0-7.9,0c0.1-0.2,0.1-0.3,0.1-0.4c3.5-10.3,7-20.6,10.5-30.8c0.2-0.6,0.1-0.5,0.7-0.5c2.7,0,5.5,0,8.2,0
			c0.2,0,0.3,0,0.5,0C116.9,34.1,120.5,44.7,124.1,55.3z M112.4,43.5c-1.2-3.9-2.5-7.7-3.7-11.5c0,0-0.1,0-0.1,0
			c-1.2,3.8-2.4,7.7-3.7,11.5C107.4,43.5,109.8,43.5,112.4,43.5z"/>
		<path class="st1" d="M38.5,55.3c-2.3,0-4.7,0-7.1,0c-0.1-0.7,0-1.4-0.1-2.1c-0.1,0-0.1,0.1-0.2,0.1c-1.8,1.9-4,2.6-6.5,2.6
			c-4.4,0-7.6-2-9.8-5.7c-1.1-1.8-1.6-3.7-1.7-5.7c-0.2-2.8,0.3-5.4,1.8-7.9c1.6-2.7,3.8-4.5,6.8-5.3c2.5-0.7,5-0.5,7.3,0.6
			c0.8,0.4,1.4,0.9,2,1.5c0.1,0.1,0.2,0.2,0.4,0.3c0.1-0.7,0-1.4,0-2.1c0.3-0.1,6.6-0.1,7.1,0C38.5,39.5,38.5,47.4,38.5,55.3z
			 M20.1,43.6c0,0.3,0.1,0.7,0.1,1.2c0.4,2.1,1.6,3.5,3.7,4.1c0.9,0.3,1.8,0.3,2.7,0.2c2.2-0.3,3.7-1.4,4.4-3.5c0.5-1.5,0.5-3,0-4.5
			c-0.6-1.7-1.8-2.8-3.6-3.3c-0.9-0.3-1.8-0.3-2.7-0.2c-2,0.3-3.4,1.4-4.2,3.3C20.2,41.8,20.1,42.6,20.1,43.6z"/>
		<path class="st1" d="M64.1,55.3c-2.3,0-4.7,0-7,0c0-0.7,0-1.4,0-2.1c-0.1,0.1-0.2,0.1-0.2,0.1c-1.1,1.3-2.6,2.1-4.3,2.4
			c-2,0.4-3.9,0.4-5.8-0.4c-2.5-1-4.1-2.9-4.9-5.4c-0.4-1.1-0.5-2.3-0.5-3.5c0-4.8,0-9.6,0-14.3c0-0.1,0-0.2,0-0.4
			c2.4,0,4.7,0,7.1,0c0,0.2,0,0.3,0,0.5c0,4.3,0,8.6,0,12.9c0,0.5,0.1,1,0.2,1.5c0.4,1.5,1.3,2.4,2.8,2.8c0.9,0.2,1.8,0.2,2.7-0.1
			c1.5-0.4,2.4-1.5,2.7-3c0.1-0.6,0.2-1.2,0.2-1.7c0-4.1,0-8.2,0-12.3c0-0.2,0-0.3,0-0.5c0.3-0.1,6.5-0.1,7.1,0
			C64.1,39.5,64.1,47.4,64.1,55.3z"/>
		<g class="st2">
			<path class="st1" d="M135,17c0,2-1.6,3.6-3.6,3.6c-2,0-3.6-1.6-3.6-3.6c0-2,1.6-3.6,3.6-3.6C133.4,13.4,135,15,135,17z"/>
			<path class="st1" d="M97.6,7c0-2,1.6-3.6,3.6-3.6c2,0,3.7,1.6,3.6,3.6c0,2-1.6,3.6-3.6,3.6C99.2,10.6,97.6,9,97.6,7z"/>
			<path class="st1" d="M135,30.5c0,2-1.6,3.6-3.6,3.6c-2,0-3.6-1.7-3.6-3.7c0-2,1.7-3.6,3.6-3.6C133.4,26.8,135,28.5,135,30.5z"/>
			<path class="st1" d="M121.6,17c0,2-1.6,3.6-3.6,3.6c-2,0-3.6-1.6-3.6-3.6c0-2,1.6-3.6,3.7-3.6C120,13.4,121.6,15,121.6,17z"/>
			<path class="st1" d="M104.5,20.7c-2,0-3.6-1.6-3.6-3.7c0-2,1.6-3.6,3.6-3.6c2,0,3.6,1.6,3.6,3.7
				C108.2,19.1,106.5,20.7,104.5,20.7z"/>
			<path class="st1" d="M121.6,3.7c0,2-1.7,3.6-3.7,3.6c-2,0-3.6-1.7-3.6-3.7c0-2,1.7-3.6,3.7-3.6C120,0,121.6,1.7,121.6,3.7z"/>
			<path class="st1" d="M124.7,13.9c-2,0-3.6-1.6-3.6-3.6c0-2,1.6-3.6,3.6-3.6c2,0,3.7,1.6,3.6,3.6
				C128.3,12.3,126.7,13.9,124.7,13.9z"/>
			<path class="st1" d="M131.1,6.9c0-2,1.6-3.6,3.6-3.6c2,0,3.6,1.6,3.6,3.7c0,2-1.6,3.6-3.6,3.6C132.7,10.6,131.1,9,131.1,6.9z"/>
			<path class="st1" d="M134.5,23.7c0-2,1.6-3.6,3.6-3.6c2,0,3.6,1.6,3.6,3.6c0,2-1.6,3.7-3.6,3.6C136.1,27.4,134.5,25.7,134.5,23.7
				z"/>
			<path class="st1" d="M138.4,40.5c0,2-1.6,3.6-3.6,3.6c-2,0-3.6-1.6-3.6-3.6c0-2,1.6-3.6,3.6-3.6
				C136.8,36.9,138.4,38.5,138.4,40.5z"/>
			<path class="st1" d="M111.3,13.9c-2,0-3.6-1.6-3.6-3.6c0-2,1.6-3.6,3.6-3.6c2,0,3.6,1.6,3.6,3.6
				C114.9,12.3,113.3,13.9,111.3,13.9z"/>
			<path class="st1" d="M124.7,33.5c2,0,3.7,1.6,3.6,3.6c0,2-1.6,3.6-3.6,3.6c-2,0-3.6-1.6-3.6-3.6C121,35.3,122.6,33.5,124.7,33.5z
				"/>
			<path class="st1" d="M121.1,23.7c0-2,1.6-3.6,3.6-3.6c2,0,3.6,1.6,3.6,3.6c0,2-1.6,3.7-3.6,3.6C122.4,27.3,121,25.4,121.1,23.7z"
				/>
		</g>
	</g>
	<g>
		<path class="st1" d="M60.6,97.5c-0.2-0.1-0.4-0.1-0.6-0.2c-0.7-0.2-1.3-0.6-1.8-1.2c-0.1-0.1-0.2-0.3-0.3-0.4
			c0.5-0.3,0.9-0.5,1.3-0.8c0.1,0.1,0.1,0.1,0.1,0.2c0.3,0.5,0.8,0.8,1.4,0.9c0.5,0.1,1,0.1,1.4,0c0.8-0.2,1.3-0.7,1.4-1.5
			c0.1-0.4,0.1-0.8,0-1.3c-0.1,0.1-0.1,0.1-0.2,0.1c-1,1.1-2.3,1.3-3.7,0.8c-1.5-0.5-2.4-1.9-2.4-3.5c0-1.7,1.1-3.2,2.7-3.6
			c1.3-0.3,2.4-0.1,3.4,0.9c0,0,0.1,0.1,0.1,0.1c0,0,0,0,0.1,0c0-0.3,0-0.6,0-0.9c0.5,0,1,0,1.5,0c0,0.1,0,0.2,0,0.4
			c0,2.2,0,4.4,0,6.6c0,1.8-1.1,3-2.8,3.4c-0.1,0-0.2,0.1-0.3,0.1C61.6,97.5,61.1,97.5,60.6,97.5z M61.2,93c1.3,0,2.4-1,2.4-2.3
			c0-1.3-1-2.3-2.4-2.3c-1.3,0-2.3,1-2.4,2.3C58.9,92,59.9,93,61.2,93z"/>
		<path class="st1" d="M40.1,84.1c0.2,0,0.4,0,0.6,0c1.2,0,2.3,0,3.5,0c1.5,0,2.8,1,3.2,2.4c0.4,1.5-0.3,2.9-1.6,3.7
			c-0.1,0-0.2,0.1-0.3,0.2c0.7,1.3,1.5,2.6,2.3,3.9c-0.6,0-1.2,0-1.8,0c-0.1-0.1-0.1-0.2-0.2-0.3c-0.6-1-1.2-2-1.8-3
			c-0.1-0.3-0.3-0.4-0.6-0.4c-0.4,0-0.8,0-1.2,0c-0.1,0-0.2,0-0.4,0c0,1.2,0,2.4,0,3.7c-0.6,0.1-1.1,0-1.7,0
			C40.1,91,40.1,87.6,40.1,84.1z M41.8,89.1c0.1,0,0.1,0.1,0.1,0.1c0.8,0,1.6,0,2.4,0c0.6,0,1-0.3,1.3-0.9c0.6-1,0-2.5-1.4-2.6
			c-0.7,0-1.5,0-2.2,0c-0.1,0-0.1,0-0.2,0.1C41.8,86.9,41.8,88,41.8,89.1z"/>
		<path class="st1" d="M94.2,88c0-0.4,0-0.6,0-0.9c0.5,0,1,0,1.5,0c0.1,0.3,0.1,6.8,0,7.3c-0.5,0-1,0-1.5,0c0-0.3,0-0.6,0-0.9
			c-0.1,0.1-0.2,0.1-0.2,0.1c-1,1.1-2.9,1.3-4.2,0.5c-1.4-0.9-2-2.2-1.8-3.8c0.2-1.6,1-2.7,2.5-3.2c1.3-0.4,2.5-0.2,3.5,0.8
			C94,87.9,94.1,87.9,94.2,88z M89.5,90.8c0,1.4,1,2.4,2.3,2.3c1.3,0,2.3-1,2.3-2.4c0-1.4-1-2.3-2.3-2.3
			C90.5,88.4,89.5,89.4,89.5,90.8z"/>
		<path class="st1" d="M56.1,91.4c-1.9,0-3.8,0-5.8,0c0.2,0.8,0.6,1.3,1.3,1.6c1.1,0.4,2.1,0.2,2.9-0.7c0.4,0.2,0.8,0.5,1.3,0.7
			c-0.2,0.4-0.5,0.6-0.8,0.9c-1.5,1.1-4,0.9-5.4-0.4c-0.5-0.5-0.8-1.2-0.9-1.9c-0.4-2.3,0.9-4,2.6-4.5c3-0.8,5.2,1.5,4.8,4.2
			C56.1,91.3,56.1,91.3,56.1,91.4z M54.5,90.1c0-1-0.9-1.7-1.9-1.8c-1.2-0.1-2.2,0.7-2.3,1.8C51.7,90.1,53.1,90.1,54.5,90.1z"/>
		<path class="st1" d="M70.2,92.9c0.4-0.3,0.9-0.5,1.3-0.8c0.1,0.1,0.1,0.1,0.1,0.2c0.4,0.9,1.5,1,2.2,0.8c0.2-0.1,0.3-0.2,0.4-0.3
			c0.2-0.3,0.2-0.7-0.2-0.9c-0.2-0.1-0.5-0.2-0.8-0.3c-0.4-0.1-0.7-0.2-1.1-0.3c-0.3-0.1-0.5-0.2-0.7-0.3c-1.4-0.7-1.2-2.4-0.5-3.2
			c1.2-1.2,3.9-1.1,4.8,0.7c-0.4,0.2-0.8,0.5-1.3,0.7c-0.1-0.1-0.1-0.2-0.2-0.2c-0.4-0.5-1.1-0.7-1.7-0.5c-0.3,0.1-0.5,0.3-0.6,0.6
			c0,0.4,0.2,0.6,0.4,0.7c0.3,0.1,0.6,0.2,0.9,0.3c0.4,0.1,0.9,0.3,1.3,0.4c0.8,0.3,1.3,0.9,1.3,1.8c0,0.9-0.4,1.6-1.3,2
			c-1.2,0.5-2.3,0.5-3.5-0.1C70.8,93.9,70.4,93.5,70.2,92.9z"/>
		<path class="st1" d="M78.4,88.6c-0.5,0-0.9,0-1.3,0c0-0.5,0-1,0-1.5c0.4,0,0.8,0,1.3,0c0-0.6,0-1.1,0-1.6c0.5-0.2,1-0.3,1.6-0.5
			c0,0.7,0,1.3,0,2c0.6,0.1,1.2,0,1.8,0.1c0,0.5,0,1,0,1.5c-0.6,0-1.2,0-1.8,0c0,0.2,0,0.3,0,0.4c0,1,0,1.9,0,2.9c0,0.1,0,0.2,0,0.3
			c0,0.6,0.2,0.8,0.8,0.8c0.3,0,0.6,0,1,0c0.1,0.5,0,0.9,0,1.4c-0.9,0.1-1.7,0.2-2.5-0.3c-0.5-0.3-0.8-0.8-0.8-1.4
			c0-0.2,0-0.4,0-0.6c0-1,0-2,0-3C78.4,89,78.4,88.8,78.4,88.6z"/>
		<path class="st1" d="M101.6,88.6c-0.3,0-0.6,0.1-0.8,0.1c-0.9,0.2-1.4,0.8-1.4,1.7c0,0.9,0,1.8,0,2.6c0,0.4,0,0.8,0,1.3
			c-0.5,0-1,0-1.6,0c0-2.4,0-4.8,0-7.3c0.5,0,1,0,1.5,0c0,0.3,0,0.6,0,1c0.2-0.2,0.4-0.5,0.6-0.6c0.2-0.2,0.5-0.3,0.7-0.4
			c0.3-0.1,0.5-0.1,0.9-0.2c0,0.3,0,0.6,0,0.9C101.6,88,101.6,88.3,101.6,88.6z"/>
		<path class="st1" d="M84.9,94.4c-0.5,0-1,0-1.5,0c-0.1-0.4-0.1-6.9,0-7.3c0.5,0,0.9,0,1.5,0c0,0.3,0,0.7,0,1.1
			c0.3-0.3,0.4-0.5,0.6-0.7c0.2-0.2,0.5-0.3,0.7-0.4c0.3-0.1,0.6-0.1,0.9-0.2c0,0.6,0,1.1,0,1.7c-0.1,0-0.3,0-0.4,0
			c-1,0.1-1.7,0.7-1.8,1.6c0,0.2,0,0.4,0,0.6c0,1,0,2,0,3C84.9,94,84.9,94.2,84.9,94.4z"/>
		<path class="st1" d="M67.2,87.1c0.5,0,1,0,1.5,0c0.1,0.3,0.1,6.5,0,7.3c-0.5,0-1,0-1.5,0C67.1,94.1,67.1,87.8,67.2,87.1z"/>
	</g>
	<path class="st1" d="M71.9,85c0,0.6-0.5,1-1,1c-0.6,0-1-0.5-1-1c0-0.6,0.5-1,1-1C71.4,84,71.9,84.4,71.9,85z"/>
	<g>
		<path class="st1" d="M108.3,78c-0.5,0-1,0-1.5,0c0-0.3,0-0.6-0.1-0.9c-0.1,0.1-0.2,0.1-0.2,0.2c-0.9,1-2.5,1.2-3.7,0.7
			c-1.3-0.5-2-1.5-2.2-2.9c-0.2-1.3,0.1-2.5,1-3.5c1-1,2.6-1.4,3.9-0.8c0.4,0.2,0.8,0.5,1.2,0.8c0-0.3,0-0.6,0-0.9c0-0.3,0-0.7,0-1
			c0-0.3,0-0.6,0-0.9c0-0.3,0-0.6,0-1c0.5,0,1.1,0,1.6,0C108.3,71.2,108.3,74.6,108.3,78z M104.4,72c-1.3,0-2.3,1-2.3,2.3
			c0,1.3,1,2.4,2.3,2.4c1.3,0,2.3-1,2.3-2.4C106.7,73,105.7,72,104.4,72z"/>
		<path class="st1" d="M37.1,67.8c0.7,0,1.4,0,2,0c1.2,3.4,2.5,6.8,3.7,10.2c-0.6,0-1.2,0-1.8,0c-0.2-0.7-0.5-1.3-0.7-2
			c-1.5,0-2.9,0-4.4,0c-0.2,0.7-0.5,1.3-0.7,2c-0.6,0-1.2,0-1.8,0C34.7,74.6,35.9,71.2,37.1,67.8z M36.5,74.3c1.1,0,2.2,0,3.3,0
			c-0.5-1.5-1-3-1.6-4.5c0,0-0.1,0-0.1,0C37.6,71.3,37.1,72.8,36.5,74.3z"/>
		<path class="st1" d="M79.7,71.6c0-1.3,0-2.6,0-3.9c0.5,0,1,0,1.5,0c0,3.4,0,6.8,0,10.2c-0.5,0-1,0-1.6,0c0-0.3,0-0.6,0-0.9
			c-0.1,0.1-0.2,0.1-0.2,0.1c-1,1.2-3,1.3-4.3,0.5c-1.3-0.9-1.9-2.2-1.7-3.7c0.2-1.5,0.9-2.7,2.4-3.2c1.3-0.5,2.6-0.3,3.6,0.8
			C79.5,71.5,79.6,71.6,79.7,71.6z M75,74.4c0,1.4,1,2.4,2.3,2.3c1.3,0,2.3-1,2.3-2.4c0-1.3-1-2.3-2.3-2.3C76,72,75,73,75,74.4z"/>
		<path class="st1" d="M66.4,75c0.2,0.8,0.6,1.3,1.3,1.5c1.1,0.4,2.2,0.3,3-0.7c0.4,0.2,0.8,0.5,1.3,0.7c-0.3,0.4-0.6,0.7-1,1
			c-1.4,0.9-3.6,0.8-4.9-0.3c-1.1-1-1.5-2.2-1.2-3.7c0.4-2.7,3.1-3.6,5.1-2.9c1.4,0.5,2.1,1.5,2.4,2.9c0.1,0.4,0.1,0.9,0,1.4
			c-0.9,0-1.9,0-2.9,0C68.4,75,67.4,75,66.4,75z M70.6,73.7c-0.1-1.1-1-1.8-2.1-1.8c-1.1,0-2,0.8-2.1,1.8
			C67.8,73.7,69.2,73.7,70.6,73.7z"/>
		<path class="st1" d="M99.2,75c-1.9,0-3.8,0-5.8,0c0.1,0.7,0.5,1.2,1.2,1.5c1.2,0.5,2.2,0.3,3.1-0.6c0.4,0.2,0.8,0.5,1.2,0.7
			c-0.1,0.1-0.1,0.2-0.2,0.3c-0.9,1-2,1.4-3.3,1.3c-0.4,0-0.8-0.1-1.2-0.2c-1.5-0.5-2.4-1.7-2.5-3.2c0-0.5,0-1.1,0.1-1.6
			c0.5-1.7,2-2.8,3.8-2.7c1.7,0,3.1,1.2,3.5,2.9C99.4,74,99.4,74.5,99.2,75z M93.4,73.7c1.4,0,2.8,0,4.2,0c0-0.9-0.8-1.7-1.8-1.8
			C94.6,71.8,93.6,72.5,93.4,73.7z"/>
		<path class="st1" d="M50.7,76.3c-0.7,1.4-2.4,2.3-4.4,1.8c-1.7-0.5-2.9-2-2.8-3.9c0.1-1.8,1.3-3.2,3-3.6c1.7-0.4,3.5,0.4,4.1,1.8
			c-0.2,0.1-0.4,0.3-0.6,0.4c-0.2,0.1-0.4,0.2-0.7,0.4c-0.5-0.8-1.1-1.1-2-1.1c-0.6,0-1.2,0.2-1.6,0.7c-0.9,0.9-0.8,2.5,0.1,3.3
			c0.5,0.5,1.2,0.6,1.9,0.6c0.7-0.1,1.2-0.5,1.6-1.1C49.8,75.8,50.2,76,50.7,76.3z"/>
		<path class="st1" d="M57.4,75.5c0.5,0.3,0.9,0.5,1.3,0.7c-0.4,1.1-2,2.3-4.1,1.8c-1.8-0.4-3-1.9-3-3.7c0-1.7,1-3.4,2.9-3.8
			c1.7-0.4,3.5,0.4,4.2,1.8c-0.4,0.2-0.8,0.5-1.3,0.8c-0.5-0.8-1.1-1.1-2-1.1c-0.6,0-1.2,0.2-1.6,0.7c-0.9,0.9-0.9,2.5,0.1,3.3
			c0.5,0.5,1.2,0.7,1.9,0.6C56.4,76.6,57,76.2,57.4,75.5z"/>
		<path class="st1" d="M87.4,72.2c-0.5,0-0.9,0-1.3,0c0-0.5,0-1,0-1.5c0.4,0,0.8,0,1.3,0c0-0.6,0-1.1,0-1.6c0.5-0.2,1-0.3,1.6-0.5
			c0,0.7,0,1.3,0,2c0.6,0.1,1.2,0,1.8,0.1c0.1,0.5,0,1,0,1.5c-0.6,0-1.2,0-1.8,0c0,0.2,0,0.3,0,0.4c0,1,0,1.9,0,2.9
			c0,0.1,0,0.2,0,0.3c0,0.6,0.2,0.8,0.8,0.9c0.2,0,0.3,0,0.5,0c0.2,0,0.3,0,0.5,0c0,0.5,0,0.9,0,1.4c-0.9,0.1-1.7,0.2-2.5-0.3
			c-0.5-0.3-0.8-0.8-0.8-1.4c0-0.2,0-0.4,0-0.6c0-1,0-2,0-3C87.4,72.6,87.4,72.4,87.4,72.2z"/>
		<path class="st1" d="M60.1,70.7c0.5,0,1,0,1.5,0c0,0.3,0,0.7,0,1c0.4-0.4,0.8-0.8,1.3-1c0.3-0.1,0.6-0.2,0.9-0.1
			c0,0.5,0,1.1,0,1.6c-0.1,0-0.2,0-0.3,0c-1.2,0.1-1.9,0.8-2,2.1c0,1.1,0,2.1,0,3.2c0,0.2,0,0.3,0,0.5c-0.5,0-1,0-1.5,0
			C60.1,77.7,60,71.4,60.1,70.7z"/>
		<path class="st1" d="M83.3,70.7c0.5,0,1,0,1.5,0c0,2.4,0,4.8,0,7.3c-0.5,0-1,0-1.5,0C83.3,77.7,83.2,71.4,83.3,70.7z"/>
		<path class="st1" d="M85.1,68.5c0,0.6-0.4,1-1,1c-0.6,0-1-0.4-1-1c0-0.6,0.4-1,1-1C84.6,67.5,85.1,68,85.1,68.5z"/>
	</g>
</g>
</svg>
