<?xml version="1.0" encoding="utf-8"?>
<!-- Generator: Adobe Illustrator 24.2.0, SVG Export Plug-In . SVG Version: 6.00 Build 0)  -->
<svg version="1.1" id="Layer_1" xmlns="http://www.w3.org/2000/svg" xmlns:xlink="http://www.w3.org/1999/xlink" x="0px" y="0px"
	 viewBox="0 0 141.7 141.7" style="enable-background:new 0 0 141.7 141.7;" xml:space="preserve">
<style type="text/css">
	.st0{fill:#ADB6BA;}
	.st1{opacity:0.3;fill:#FFFFFF;}
</style>
<g>
	<g>
		<path class="st0" d="M51.4,70.4c-0.2,0-0.4,0.1-0.4,0.2v2.2c0,0.2,0.1,0.2,0.4,0.2h2.8c0.2,0,0.4-0.1,0.4-0.2v-2.2
			c0-0.2-0.1-0.2-0.4-0.2H51.4z"/>
		<path class="st0" d="M100.5,57.7V57c0-0.4-0.3-0.6-0.9-0.6h-6.1v1.9h6.1C100.2,58.3,100.5,58.2,100.5,57.7z"/>
		<path class="st0" d="M141.7,82.7v-29c0-5.2-4.2-9.4-9.4-9.4H0v38.4h0v5.4c0,5.2,4.2,9.4,9.4,9.4h132.4V82.7L141.7,82.7z
			 M121.7,54.7l4.4,4.2l4.4-4.2h2.8l-6.1,5.8v3.8h-2.2v-3.8l-6.2-5.8H121.7z M105.4,57.1c0-1.7,1.2-2.4,3.2-2.4h6.4
			c1,0,1.7,0.8,1.7,1.7h-8.1c-0.7,0-0.9,0.3-0.9,0.7v5c0,0.4,0.4,0.5,0.9,0.5h5.1c0.5,0,0.9-0.1,0.9-0.5v-3.1h0.5
			c1,0,1.7,0.8,1.7,1.7v1.3c0,1.7-1,2.2-3.1,2.2h-5.1c-2,0-3.2-0.7-3.2-2.2V57.1z M91.3,54.7h8.4c2.2,0,3.1,0.9,3.1,2.3v0.7
			c0,1.1-0.5,2.1-2.3,2.3l2.2,4.3h-2.4L98.1,60h-4.6v4.3h-2.2V54.7z M102.3,71.2v0.8h-3.2V73h3.4v0.8h-4.4v-4.1h4.4v0.7h-3.4v0.8
			H102.3z M90.7,69.6h1V73H95v0.8h-4.2V69.6z M78.9,54.7h7.8c1,0,1.7,0.8,1.7,1.7v0H77.1C77.1,55.5,77.9,54.7,78.9,54.7z M77.1,60.7
			c0-1.4,0.9-2.3,3.1-2.3h6.1c1,0,1.7,0.8,1.7,1.7h-7.8c-0.6,0-0.9,0.2-0.9,0.6V62c0,0.5,0.2,0.6,0.9,0.6h6.5c1,0,1.7,0.8,1.7,1.7v0
			h-8.2c-2.3,0-3.1-1-3.1-2.4V60.7z M87.7,73.7h-1.1l-2-3.1l-2,3.1h-1.1l2.8-4.1H85L87.7,73.7z M78.7,69.6v0.7h-3.6
			c-0.3,0-0.4,0.1-0.4,0.3v0.3c0,0.2,0.1,0.3,0.4,0.3h2.5c1,0,1.3,0.4,1.3,1v0.6c0,0.6-0.4,1-1.3,1h-3.7V73h3.7c0.3,0,0.4,0,0.4-0.2
			v-0.6c0-0.2-0.1-0.3-0.4-0.3h-2.5c-1,0-1.3-0.4-1.3-1v-0.3c0-0.6,0.4-1,1.3-1H78.7z M61,54.7h1.9l9.2,6.6v-6.6h2v9.6H73l-10-7v7
			H61V54.7z M70.4,71.2v0.8h-3.2V73h3.4v0.8h-4.4v-4.1h4.4v0.7h-3.4v0.8H70.4z M58.8,69.6h1V73h3.3v0.8h-4.2V69.6z M47.2,54.7
			l4.4,4.2l4.4-4.2h2.8l-6.1,5.8v3.8h-2.2v-3.8l-6.2-5.8H47.2z M55.5,70.6v2.1c0,0.6-0.4,1-1.3,1h-2.8c-1,0-1.3-0.4-1.3-1v-2.1
			c0-0.6,0.4-1,1.3-1h2.8C55.1,69.6,55.5,70,55.5,70.6z M42.6,71.9v1.8h-1v-4.1h1v1.6h3.1v-1.6h1v4.1h-1v-1.8H42.6z M30.6,57
			c0-1.4,0.9-2.3,3.1-2.3h6.6c1,0,1.7,0.8,1.7,1.7v0h-8.3c-0.6,0-0.9,0.2-0.9,0.6v0.7c0,0.4,0.3,0.6,0.9,0.6h5.8
			c2.3,0,3.1,0.9,3.1,2.3V62c0,1.4-0.9,2.4-3.1,2.4h-6.8c-1,0-1.8-0.8-1.8-1.8v0h8.6c0.6,0,0.9-0.1,0.9-0.6v-1.4
			c0-0.4-0.3-0.6-0.9-0.6h-5.8c-2.3,0-3.1-0.9-3.1-2.3V57z M31.5,69.6l1.4,3l1.4-3H35l1.4,3l1.4-3h0.9l-1.9,4.1H36l-1.4-3l-1.4,3
			h-0.7l-1.9-4.1H31.5z M15.8,62.1L15.8,62.1l0.1-0.1l7.3-7.3l0,0l0,0v14.9l0,0l-7.5,7.5C11.7,73,11.7,66.3,15.8,62.1z M140,95.7
			H9.4c-4.2,0-7.6-3.4-7.6-7.6v-3.7H140V95.7z"/>
	</g>
	<path class="st1" d="M23.2,54.7c-4.1-4.1-10.8-4.1-14.9,0l7.5,7.5l0.1-0.1L23.2,54.7z"/>
	<g>
		<path class="st0" d="M21,91.8h-0.7L20,91h-1.4l-0.3,0.8h-0.6l1.3-3.6h0.7L21,91.8z M18.7,90.5h1.1l-0.5-1.6L18.7,90.5z"/>
		<path class="st0" d="M27.1,88.2v2.4c0,0.8-0.5,1.3-1.4,1.3c-0.8,0-1.4-0.4-1.4-1.3v-2.4H25v2.4c0,0.5,0.3,0.7,0.8,0.7
			c0.5,0,0.8-0.3,0.8-0.7v-2.4H27.1z"/>
		<path class="st0" d="M30.6,88.2h2.8v0.5h-1.1v3.1h-0.6v-3.1h-1.1V88.2z"/>
		<path class="st0" d="M39.1,90.3h-1.6v1.5h-0.6v-3.6h0.6v1.5h1.6v-1.5h0.6v3.6h-0.6V90.3z"/>
		<path class="st0" d="M46.2,90.6c0,0.9-0.6,1.3-1.4,1.3c-0.9,0-1.4-0.5-1.4-1.3v-1.1c0-0.8,0.6-1.3,1.4-1.3c0.9,0,1.4,0.5,1.4,1.3
			V90.6z M45.6,89.5c0-0.5-0.3-0.8-0.8-0.8c-0.5,0-0.8,0.3-0.8,0.8v1.1c0,0.5,0.3,0.8,0.8,0.8c0.5,0,0.8-0.3,0.8-0.8V89.5z"/>
		<path class="st0" d="M49.9,88.2h1.5c0.7,0,1.2,0.3,1.2,1.2c0,0.6-0.2,0.9-0.6,1.1l0.7,1.4h-0.7l-0.6-1.3h-0.8v1.3h-0.6V88.2z
			 M50.6,90h0.9c0.4,0,0.6-0.2,0.6-0.6c0-0.5-0.2-0.6-0.6-0.6h-0.9V90z"/>
		<path class="st0" d="M56.3,88.2h0.6v3.6h-0.6V88.2z"/>
		<path class="st0" d="M62.2,90.4l-0.6-0.1c-0.6-0.1-0.9-0.4-0.9-1c0-0.7,0.5-1.1,1.3-1.1c0.8,0,1.3,0.4,1.3,1.1v0.1h-0.6v-0.1
			c0-0.4-0.3-0.6-0.7-0.6c-0.5,0-0.7,0.2-0.7,0.5c0,0.3,0.2,0.4,0.5,0.5l0.6,0.1c0.6,0.1,0.9,0.4,0.9,1c0,0.7-0.5,1.1-1.3,1.1
			c-0.8,0-1.3-0.4-1.3-1.1v-0.1h0.6v0.1c0,0.4,0.3,0.6,0.7,0.6c0.5,0,0.7-0.2,0.7-0.5C62.6,90.6,62.5,90.4,62.2,90.4z"/>
		<path class="st0" d="M67,88.2h2.4v0.5h-1.8v1h1.6v0.5h-1.6v1h1.8v0.5H67V88.2z"/>
		<path class="st0" d="M75.8,90.6c0,0.8-0.6,1.3-1.4,1.3H73v-3.6h1.4c0.9,0,1.4,0.4,1.4,1.3V90.6z M75.2,89.5c0-0.5-0.3-0.8-0.8-0.8
			h-0.8v2.5h0.7c0.5,0,0.8-0.3,0.8-0.8V89.5z"/>
		<path class="st0" d="M84.2,88.2h1.4c0.7,0,1.2,0.3,1.2,1.2c0,0.8-0.5,1.2-1.2,1.2h-0.8v1.3h-0.6V88.2z M84.8,90h0.8
			c0.4,0,0.6-0.2,0.6-0.6c0-0.5-0.2-0.6-0.6-0.6h-0.8V90z"/>
		<path class="st0" d="M93,91.8h-0.7L92.1,91h-1.4l-0.3,0.8h-0.6l1.3-3.6h0.7L93,91.8z M90.8,90.5h1.1l-0.5-1.6L90.8,90.5z"/>
		<path class="st0" d="M96.4,88.2h1.5c0.7,0,1.2,0.3,1.2,1.2c0,0.6-0.2,0.9-0.6,1.1l0.7,1.4h-0.7l-0.6-1.3h-0.8v1.3h-0.6V88.2z
			 M97.1,90h0.9c0.4,0,0.6-0.2,0.6-0.6c0-0.5-0.2-0.6-0.6-0.6h-0.9V90z"/>
		<path class="st0" d="M102.4,88.2h2.8v0.5h-1.1v3.1h-0.6v-3.1h-1.1V88.2z"/>
		<path class="st0" d="M109.3,89.4v2.5h-0.6v-3.6h0.6l1.6,2.5v-2.5h0.6v3.6h-0.6L109.3,89.4z"/>
		<path class="st0" d="M115.2,88.2h2.4v0.5h-1.8v1h1.6v0.5h-1.6v1h1.8v0.5h-2.4V88.2z"/>
		<path class="st0" d="M121.3,88.2h1.5c0.7,0,1.2,0.3,1.2,1.2c0,0.6-0.2,0.9-0.6,1.1l0.7,1.4h-0.7l-0.6-1.3h-0.8v1.3h-0.6V88.2z
			 M121.9,90h0.9c0.4,0,0.6-0.2,0.6-0.6c0-0.5-0.2-0.6-0.6-0.6h-0.9V90z"/>
	</g>
</g>
</svg>
