<?xml version="1.0" encoding="utf-8"?>
<!-- Generator: Adobe Illustrator 24.2.0, SVG Export Plug-In . SVG Version: 6.00 Build 0)  -->
<svg version="1.1" id="Layer_1" xmlns="http://www.w3.org/2000/svg" xmlns:xlink="http://www.w3.org/1999/xlink" x="0px" y="0px"
	 viewBox="0 0 141.7 141.7" style="enable-background:new 0 0 141.7 141.7;" xml:space="preserve">
<style type="text/css">
	.st0{fill:#ADB6BA;}
	.st1{opacity:0.3;fill:#ADB6BA;}
</style>
<g>
	<path class="st0" d="M113.4,47.7L113.4,47.7c-3.1,0-5.7-2.6-5.7-5.7c0-3.2,2.5-5.7,5.7-5.7c3.1,0,5.7,2.6,5.7,5.7
		C119.1,45.1,116.6,47.7,113.4,47.7"/>
	<path class="st0" d="M124.7,47.7c-3.1,0-5.7,2.6-5.7,5.7c0,3.2,2.5,5.7,5.7,5.7c3.1,0,5.7-2.6,5.7-5.7
		C130.4,50.3,127.9,47.7,124.7,47.7"/>
	<path class="st0" d="M136.1,70.6c-3.1,0-5.7-2.6-5.7-5.7c0-3.2,2.5-5.7,5.7-5.7c3.1,0,5.7,2.6,5.7,5.7
		C141.7,68.1,139.2,70.6,136.1,70.6"/>
	<path class="st0" d="M124.7,70.6c-3.1,0-5.7,2.6-5.7,5.7v0c0,3.2,2.5,5.7,5.7,5.7c3.1,0,5.7-2.6,5.7-5.7v0
		C130.4,73.2,127.9,70.6,124.7,70.6"/>
	<path class="st0" d="M113.4,93.5L113.4,93.5c-3.1,0-5.7-2.6-5.7-5.7c0-3.2,2.5-5.7,5.7-5.7c3.1,0,5.7,2.6,5.7,5.7
		C119.1,91,116.6,93.5,113.4,93.5"/>
	<path class="st0" d="M102.1,105L102.1,105c-3.1,0-5.7-2.6-5.7-5.7c0-3.2,2.5-5.7,5.7-5.7c3.1,0,5.7,2.6,5.7,5.7
		C107.8,102.4,105.2,105,102.1,105"/>
	<path class="st0" d="M15.3,104.8h11.2V85.6c0-4.4,2.3-6.5,5.6-6.5c3.3,0,4.7,1.9,4.7,5.8v20h11.2V82.5c0-8.8-4.4-12.9-10.7-12.9
		c-5.5,0-9,2.9-10.8,6.4v-5.5H15.3V104.8z"/>
	<path class="st0" d="M6.4,105.5c3.8,0,6.6-3,6.6-6.6c0-3.7-2.8-6.6-6.6-6.6c-3.7,0-6.4,3-6.4,6.6C0,102.6,2.7,105.5,6.4,105.5"/>
	<polygon class="st0" points="49.8,104.8 79.5,104.8 79.5,96 65.5,96 80.2,71.7 80.2,70.5 51.3,70.5 51.3,79.4 64.2,79.4 
		49.8,103.6 	"/>
	<circle class="st1" cx="104.1" cy="32.6" r="2.9"/>
	<circle class="st1" cx="113.4" cy="53.4" r="3.1"/>
	<circle class="st1" cx="124.7" cy="64.9" r="3.6"/>
	<circle class="st1" cx="136.1" cy="53.4" r="3.4"/>
	<circle class="st1" cx="124.8" cy="87.8" r="3.4"/>
	<circle class="st1" cx="113.5" cy="99.2" r="3.2"/>
	<circle class="st1" cx="92.5" cy="108.9" r="3.2"/>
</g>
</svg>
