<?xml version="1.0" encoding="utf-8"?>
<!-- Generator: Adobe Illustrator 24.2.0, SVG Export Plug-In . SVG Version: 6.00 Build 0)  -->
<svg version="1.1" id="Layer_1" xmlns="http://www.w3.org/2000/svg" xmlns:xlink="http://www.w3.org/1999/xlink" x="0px" y="0px"
	 viewBox="0 0 141.7 141.7" style="enable-background:new 0 0 141.7 141.7;" xml:space="preserve">
<style type="text/css">
	.st0{fill:#ADB6BA;}
</style>
<g>
	<g>
		<g>
			<path class="st0" d="M51.4,27.4H66L63.7,36c-0.3,1.2-1,2.2-1.9,2.9c-0.9,0.7-2.1,1.1-3.3,1.1h-6.8c-1.5,0-2.9,0.5-4.1,1.4
				c-1.2,0.9-2.1,2.2-2.5,3.7c-0.3,1.1-0.3,2.2-0.1,3.3c0.2,1,0.6,1.9,1.2,2.7c0.6,0.8,1.4,1.5,2.3,1.9c1,0.5,2,0.7,3.1,0.7h4.1
				c0.7,0,1.5,0.3,1.9,0.9c0.5,0.6,0.6,1.4,0.4,2.1l-2.6,9.5h-4.5c-3,0-5.9-0.7-8.5-2c-2.5-1.3-4.8-3.1-6.5-5.4
				c-3.6-4.7-4.8-10.7-3.3-16.4l0.3-1c1.1-4,3.5-7.6,6.8-10.2c1.6-1.2,3.4-2.2,5.4-2.9C47.2,27.7,49.3,27.4,51.4,27.4z"/>
			<path class="st0" d="M58.8,66.2l12.6-47.6c0.3-1.2,1-2.2,1.9-2.9c0.9-0.7,2.1-1.1,3.3-1.1h13.5c3,0,5.9,0.7,8.5,2
				c5.1,2.6,8.8,7.4,10,13c0.6,2.9,0.6,5.9-0.3,8.8l-0.3,1c-0.5,2-1.4,4-2.6,5.7c-3.5,5.3-9.4,8.4-15.7,8.4H78.3l2.3-8.7
				c0.3-1.1,1-2.1,1.9-2.8c0.9-0.7,2.1-1.1,3.3-1.1h3.7c3.1,0,5.8-2.1,6.6-5.1c0.3-1,0.3-2.1,0.1-3.2c-0.2-1-0.6-1.9-1.3-2.7
				c-0.6-0.8-1.4-1.5-2.3-1.9c-1-0.5-2-0.7-3.1-0.7h-7.2l-9.4,35c-0.3,1.1-1,2.1-1.9,2.8c-0.9,0.7-2.1,1.1-3.2,1.1L58.8,66.2z"/>
		</g>
		<g>
			<path class="st0" d="M109.7,21.6h-0.8v-6.1h-2.2v-0.7h5.1v0.7h-2.2V21.6z"/>
			<path class="st0" d="M115.9,21.6l-2.3-6.1h0c0,0.5,0.1,1,0.1,1.7v4.4h-0.7v-6.9h1.2l2.2,5.6h0l2.2-5.7h1.2v6.9h-0.8v-4.4
				c0-0.5,0-1.1,0.1-1.6h0l-2.4,6.1L115.9,21.6z"/>
		</g>
	</g>
	<g>
		<path class="st0" d="M99.7,94.9c-0.6-0.5-1.3-0.7-2-0.7c-0.7,0-1.4,0.2-2,0.7c-0.6,0.5-0.9,1.1-1,1.8h6
			C100.6,96,100.3,95.4,99.7,94.9z"/>
		<path class="st0" d="M64.9,113.6c-0.5,0-0.9,0.2-1.2,0.6c-0.3,0.4-0.4,1-0.4,1.9v2.8c0,0.9,0.1,1.6,0.4,2.1
			c0.3,0.4,0.7,0.7,1.2,0.7c0.6,0,0.9-0.2,1.2-0.6c0.2-0.4,0.4-1.1,0.4-2v-2.7c0-0.9-0.1-1.6-0.4-2.1
			C65.9,113.8,65.5,113.6,64.9,113.6z"/>
		<path class="st0" d="M83.2,113.6c-0.5,0-0.9,0.2-1.2,0.6c-0.3,0.4-0.4,1-0.4,1.9v2.8c0,0.9,0.1,1.6,0.4,2.1
			c0.3,0.4,0.7,0.7,1.2,0.7c0.6,0,0.9-0.2,1.2-0.6c0.2-0.4,0.4-1.1,0.4-2v-2.7c0-0.9-0.1-1.6-0.4-2.1
			C84.2,113.8,83.8,113.6,83.2,113.6z"/>
		<path class="st0" d="M46.5,94.9c-0.6-0.5-1.3-0.7-2-0.7c-0.7,0-1.4,0.2-2,0.7c-0.6,0.5-0.9,1.1-1,1.8h6C47.4,96,47,95.4,46.5,94.9
			z"/>
		<path class="st0" d="M112.2,94.5c-0.8,0-1.7,0.3-2.2,0.9c-1.2,1.4-1.2,3.5,0,4.9c0.6,0.6,1.4,0.9,2.2,0.9c0.8,0,1.6-0.3,2.2-0.9
			c1.2-1.4,1.2-3.5,0-4.9C113.8,94.8,113,94.4,112.2,94.5z"/>
		<path class="st0" d="M124.5,0h-107c-2.1,0-3.9,1.7-3.9,3.9v76.4v0v14.5v15.9l55.8,31l58.9-31V94.9v-7.3v-7.3V3.7
			C128.2,1.7,126.5,0,124.5,0z M35.1,103.4c-1.2,0.5-2.4,0.7-3.7,0.7c-1.5,0-3-0.3-4.4-1.1c-1.3-0.7-2.3-1.7-3.1-2.9
			c-1.5-2.6-1.5-5.8,0-8.4c0.7-1.2,1.8-2.2,3.1-2.9c1.3-0.7,2.9-1.1,4.4-1c1.3,0,2.5,0.2,3.7,0.7c1.1,0.5,2,1.2,2.8,2.1l-2.3,2.2
			c-1-1.2-2.4-1.9-4-1.8c-0.9,0-1.8,0.2-2.6,0.6c-0.8,0.4-1.4,1-1.8,1.8c-0.9,1.6-0.9,3.6,0,5.2c0.4,0.8,1,1.4,1.8,1.8
			c0.8,0.4,1.7,0.7,2.6,0.6c1.5,0,3-0.7,4-1.9l2.3,2.2C37.2,102.2,36.2,103,35.1,103.4z M50.7,98.8h-9.2c0.1,0.7,0.6,1.4,1.2,1.8
			c0.7,0.5,1.5,0.7,2.3,0.7c0.6,0,1.1-0.1,1.7-0.3c0.5-0.2,1-0.5,1.4-0.9l1.9,2c-1.1,1.3-2.8,2-5,2c-1.3,0-2.5-0.2-3.6-0.8
			c-1-0.5-1.9-1.3-2.4-2.2c-0.6-1-0.9-2.1-0.9-3.2c0-1.1,0.3-2.2,0.8-3.2c0.6-0.9,1.4-1.7,2.3-2.2c2-1.1,4.5-1.1,6.5,0
			c0.9,0.5,1.7,1.3,2.3,2.2c0.6,1,0.8,2.2,0.8,3.3C50.8,97.9,50.8,98.2,50.7,98.8z M59.8,123.3H52v-1.5l3.7-3.9
			c0.5-0.6,0.9-1,1.1-1.4c0.2-0.4,0.4-0.8,0.4-1.2c0-0.5-0.1-0.9-0.4-1.2c-0.3-0.3-0.6-0.4-1.1-0.4c-0.5,0-0.9,0.2-1.2,0.5
			c-0.3,0.4-0.4,0.8-0.4,1.4h-2.3c0-0.7,0.2-1.3,0.5-1.9c0.3-0.6,0.8-1,1.4-1.3c0.6-0.3,1.3-0.5,2-0.5c1.2,0,2.1,0.3,2.7,0.8
			c0.6,0.6,1,1.4,1,2.4c0,0.6-0.1,1.1-0.4,1.7s-0.8,1.3-1.5,2l-2.6,2.7h4.9V123.3z M60.1,94.8c-0.4,0-0.7,0-0.8,0
			c-0.9-0.1-1.7,0.3-2.4,0.8c-0.6,0.6-0.9,1.4-0.9,2.5v5.7h-3.5V91.7h3.4v1.6c0.4-0.6,1-1,1.7-1.3c0.8-0.3,1.6-0.5,2.5-0.5V94.8z
			 M68.8,118.6c0,1.6-0.3,2.8-1,3.6c-0.6,0.8-1.6,1.2-2.9,1.2c-1.2,0-2.2-0.4-2.8-1.2c-0.7-0.8-1-2-1-3.5v-2.1c0-1.6,0.3-2.8,1-3.6
			c0.7-0.8,1.6-1.2,2.8-1.2c1.2,0,2.2,0.4,2.8,1.2c0.7,0.8,1,2,1,3.5V118.6z M69.2,103.9c-0.5,0.1-1.1,0.2-1.6,0.2
			c-1.4,0-2.6-0.4-3.3-1.1c-0.8-0.7-1.2-1.8-1.2-3.2v-5h-1.9V92h1.9v-3h3.5v3h3v2.7h-3v4.9c0,0.4,0.1,0.9,0.4,1.2
			c0.3,0.3,0.7,0.4,1.1,0.4c0.5,0,1-0.1,1.4-0.5l0.9,2.5C70.1,103.6,69.6,103.7,69.2,103.9z M78.1,123.3h-7.8v-1.5l3.7-3.9
			c0.5-0.6,0.9-1,1.1-1.4c0.2-0.4,0.4-0.8,0.4-1.2c0-0.5-0.1-0.9-0.4-1.2c-0.3-0.3-0.6-0.4-1.1-0.4c-0.5,0-0.9,0.2-1.2,0.5
			c-0.3,0.4-0.4,0.8-0.4,1.4h-2.3c0-0.7,0.2-1.3,0.5-1.9c0.3-0.6,0.8-1,1.4-1.3c0.6-0.3,1.3-0.5,2-0.5c1.2,0,2.1,0.3,2.7,0.8
			c0.6,0.6,1,1.4,1,2.4c0,0.6-0.1,1.1-0.4,1.7c-0.3,0.6-0.8,1.3-1.5,2l-2.6,2.7h4.9V123.3z M75.3,89.5c-0.4,0.4-1,0.6-1.6,0.6
			c-0.6,0-1.1-0.2-1.6-0.6c-0.8-0.7-0.8-1.9-0.1-2.7c0,0,0.1-0.1,0.1-0.1c0.4-0.4,1-0.6,1.6-0.6c0.6,0,1.1,0.2,1.6,0.5
			c0.4,0.3,0.6,0.8,0.6,1.4C75.9,88.6,75.7,89.1,75.3,89.5z M75.5,91.7v12.1H72l0-12.1H75.5z M84.3,92v2.7h-3v9.2h-3.5V91.5
			c0-1.4,0.4-2.5,1.2-3.3c0.8-0.8,2-1.2,3.5-1.2c0.5,0,1,0.1,1.5,0.2c0.4,0.1,0.8,0.3,1.2,0.5l-0.9,2.6c-0.4-0.3-0.9-0.4-1.4-0.4
			c-1.1,0-1.6,0.6-1.6,1.8V92H84.3z M87.1,118.6c0,1.6-0.3,2.8-1,3.6c-0.6,0.8-1.6,1.2-2.9,1.2c-1.2,0-2.2-0.4-2.8-1.2
			c-0.7-0.8-1-2-1-3.5v-2.1c0-1.6,0.3-2.8,1-3.6c0.7-0.8,1.6-1.2,2.8-1.2c1.2,0,2.2,0.4,2.8,1.2c0.7,0.8,1,2,1,3.5V118.6z
			 M89.9,103.9h-3.5V91.7h3.5V103.9z M89.7,89.5c-0.4,0.4-1,0.6-1.6,0.6c-0.6,0-1.1-0.2-1.6-0.6c-0.8-0.7-0.8-1.9-0.1-2.7
			c0,0,0.1-0.1,0.1-0.1c0.4-0.4,1-0.6,1.6-0.6c0.6,0,1.1,0.2,1.6,0.5c0.4,0.3,0.6,0.8,0.6,1.4C90.3,88.6,90.1,89.1,89.7,89.5z
			 M104,98.8h-9.2c0.1,0.7,0.6,1.4,1.2,1.8c0.7,0.5,1.5,0.7,2.3,0.7c0.6,0,1.1-0.1,1.7-0.3c0.5-0.2,1-0.5,1.4-0.9l1.9,2
			c-1.1,1.3-2.8,2-5,2c-1.3,0-2.5-0.2-3.6-0.8c-1-0.5-1.9-1.3-2.4-2.2c-0.6-1-0.9-2.1-0.9-3.2c0-1.1,0.3-2.2,0.8-3.2
			c0.6-0.9,1.4-1.7,2.3-2.2c2-1.1,4.5-1.1,6.5,0c0.9,0.5,1.7,1.3,2.3,2.2c0.6,1,0.8,2.2,0.8,3.3C104,97.9,104,98.2,104,98.8z
			 M118.7,103.9h-3.4v-1.4c-0.9,1.1-2.1,1.6-3.8,1.6c-1.1,0-2.1-0.2-3.1-0.8c-0.9-0.5-1.7-1.3-2.2-2.2c-1.1-2.1-1.1-4.5,0-6.6
			c0.5-0.9,1.3-1.7,2.2-2.2c0.9-0.5,2-0.8,3.1-0.8c1.5,0,2.8,0.5,3.6,1.5v-5.9h3.5V103.9z M124.1,80.4H17.7v0V4.1h106.4V80.4z"/>
	</g>
</g>
</svg>
