<?xml version="1.0" encoding="utf-8"?>
<!-- Generator: Adobe Illustrator 24.2.0, SVG Export Plug-In . SVG Version: 6.00 Build 0)  -->
<svg version="1.1" id="Layer_1" xmlns="http://www.w3.org/2000/svg" xmlns:xlink="http://www.w3.org/1999/xlink" x="0px" y="0px"
	 viewBox="0 0 141.7 141.7" style="enable-background:new 0 0 141.7 141.7;" xml:space="preserve">
<style type="text/css">
	.st0{fill:#ADB6BA;}
</style>
<g>
	<path class="st0" d="M117.6,78.9h-2.3v-0.5c0-2.3,0-4.7,0-7c0-0.2,0-0.3,0-0.5c-0.2-1.1-0.9-1.8-1.9-1.9c-0.8-0.1-1.5,0-2.2,0.2
		c-0.4,0.1-0.4,0.1-0.4,0.6c0,2.9,0,5.7,0,8.6c0,0.2,0,0.4,0,0.6h-2.3c0-0.1,0-0.3,0-0.4c0-3.4,0-6.8,0-10.2c0-0.4,0-0.4,0.3-0.5
		c1.9-0.7,3.8-0.9,5.8-0.5c0.3,0.1,0.6,0.2,0.9,0.3c1.4,0.6,2.1,1.6,2.2,3.1c0,2.7,0,5.4,0,8C117.6,78.8,117.6,78.8,117.6,78.9"/>
	<path class="st0" d="M126.9,67.1h2.3c0,0.1,0,0.3,0,0.4c0,3.4,0,6.8,0,10.2c0,0.4,0,0.4-0.4,0.6c-0.7,0.3-1.5,0.5-2.3,0.5
		c-1,0.1-2,0.2-3,0c-0.5-0.1-0.9-0.2-1.4-0.4c-1.2-0.5-1.8-1.4-2-2.7c-0.1-0.4-0.1-0.8-0.1-1.2c0-2.3,0-4.6,0-6.9v-0.5h2.3v0.5
		c0,2.3,0,4.7,0,7c0,0.3,0,0.6,0.1,0.9c0.1,0.7,0.6,1.1,1.2,1.3c0.6,0.2,1.2,0.2,1.8,0.1c0.4,0,0.7-0.1,1.1-0.2
		c0.2,0,0.3-0.2,0.3-0.4c0-0.1,0-0.3,0-0.4c0-2.8,0-5.5,0-8.3C126.9,67.5,126.9,67.4,126.9,67.1"/>
	<path class="st0" d="M130.9,78.9c1.4-2.1,2.7-4.1,4-6.1c-1.2-1.9-2.4-3.7-3.7-5.7h1.1c0.4,0,0.8,0,1.2,0c0.3,0,0.4,0.1,0.6,0.4
		c0.6,1.1,1.3,2.2,2,3.4c0.1,0.1,0.2,0.3,0.3,0.5c0.1-0.2,0.2-0.3,0.3-0.4c0.7-1.1,1.4-2.3,2-3.4c0.2-0.3,0.3-0.4,0.6-0.4
		c0.6,0,1.2,0,1.7,0c0.1,0,0.2,0,0.4,0c-0.1,0.2-0.2,0.3-0.3,0.4c-1.1,1.6-2.1,3.3-3.2,4.9c-0.2,0.3-0.2,0.5,0,0.7
		c1.1,1.7,2.2,3.4,3.3,5.1c0.1,0.2,0.2,0.4,0.4,0.6c-0.1,0-0.2,0-0.3,0c-0.7,0-1.3,0-2,0c-0.2,0-0.4-0.1-0.5-0.3
		c-0.8-1.3-1.5-2.5-2.3-3.8c-0.1-0.1-0.2-0.3-0.3-0.4c-0.1,0.2-0.2,0.4-0.3,0.5c-0.7,1.2-1.5,2.5-2.2,3.7c-0.1,0.2-0.3,0.3-0.6,0.3
		C132.5,78.9,131.7,78.9,130.9,78.9"/>
	<path class="st0" d="M93.4,61.7h2.3c0.2,0.2,0.1,0.4,0.1,0.6c0,4.6,0,9.2,0,13.8c0,0.2,0,0.5,0,0.8h5.3v2c-0.3,0.1-7.1,0.1-7.7,0
		c0-1.1,0-2.3,0-3.4c0-1.1,0-2.3,0-3.4v-3.5c0-1.1,0-2.3,0-3.4C93.4,64,93.4,62.8,93.4,61.7"/>
	<path class="st0" d="M89.6,67.2c0-0.2,0-0.4,0-0.6c0-1.5,0-2.9,0-4.4c0-0.2,0-0.3,0-0.5h1.1c0,0.1,0.1,0.3,0.1,0.4
		c0,0.5,0,0.9,0,1.4c0,4.7,0,9.4,0,14.1c0,0.3-0.1,0.4-0.3,0.5c-0.7,0.4-1.4,0.6-2.2,0.7c-0.9,0.1-1.8,0.2-2.7,0
		c-1.3-0.2-2.3-0.9-2.8-2.2c-0.3-0.8-0.5-1.7-0.5-2.6c-0.1-1.4-0.1-2.8,0.3-4.1c0.1-0.3,0.2-0.6,0.3-0.9c0.5-1.3,1.5-2,2.8-2.1
		c1.2-0.1,2.3,0,3.4,0.2C89.4,67.2,89.5,67.2,89.6,67.2 M89.7,72.9c0-1.4,0-2.7,0-4.1c0-0.4,0-0.4-0.4-0.6c-0.9-0.3-1.9-0.4-2.8-0.3
		c-1,0.1-1.8,0.4-2.2,1.4c-0.2,0.5-0.4,1-0.5,1.5c-0.2,1.3-0.2,2.6-0.1,3.9c0.1,0.6,0.2,1.1,0.4,1.7c0.3,0.8,0.9,1.3,1.7,1.4
		c1.1,0.2,2.3,0.1,3.4-0.2c0.4-0.1,0.4-0.1,0.4-0.6C89.7,75.6,89.7,74.3,89.7,72.9"/>
	<path class="st0" d="M60.6,72.9c0-1.1,0-2.1,0.3-3.1c0.1-0.2,0.1-0.4,0.2-0.5c0.5-1.3,1.3-2,2.6-2.3c1-0.2,1.9-0.2,2.9,0.1
		c0.9,0.3,1.6,0.8,2,1.7c0.3,0.7,0.6,1.4,0.6,2.2c0.1,1,0.1,2.1,0.1,3.1c0,0.8-0.2,1.6-0.4,2.4c-0.5,1.4-1.4,2.3-2.9,2.5
		c-0.8,0.1-1.5,0.1-2.3,0c-1.3-0.2-2.1-1-2.6-2.2c-0.3-0.9-0.5-1.8-0.5-2.7C60.6,73.6,60.6,73.3,60.6,72.9 M68.2,73
		c0-0.7-0.1-1.3-0.1-2c-0.1-0.7-0.3-1.3-0.6-1.9c-0.3-0.5-0.7-0.9-1.3-1c-0.6-0.2-1.2-0.2-1.9-0.1c-1,0.1-1.7,0.7-2,1.7
		c-0.2,0.5-0.3,1-0.4,1.5c-0.1,1-0.1,2-0.1,3c0,0.7,0.1,1.5,0.4,2.1c0.3,0.7,0.8,1.2,1.6,1.4c0.7,0.2,1.3,0.2,2,0.1
		c1-0.2,1.6-0.8,1.9-1.7c0-0.1,0.1-0.3,0.1-0.4C68.1,74.8,68.1,73.9,68.2,73"/>
	<path class="st0" d="M53.8,77.1c0.1,0.3,0.3,0.7,0.4,1c-0.1,0.1-0.1,0.1-0.2,0.1c-1.9,0.9-3.7,1-5.6,0.2c-1.2-0.6-2.1-1.5-2.7-2.7
		c-0.5-1.1-0.8-2.2-1-3.4c-0.1-1.2-0.1-2.3,0-3.5c0.2-1.7,0.7-3.2,1.7-4.5c1.2-1.4,2.7-2.1,4.5-2c1,0,1.9,0.2,2.8,0.6
		c0.1,0.1,0.3,0.1,0.4,0.2c-0.1,0.4-0.3,0.7-0.4,1.1c-0.2-0.1-0.3-0.1-0.4-0.2c-1-0.5-2.1-0.6-3.1-0.5c-1.2,0.2-2.1,0.8-2.9,1.8
		c-0.7,0.9-1,2-1.2,3.1c-0.3,1.7-0.3,3.5,0.2,5.2c0.3,1.2,0.8,2.3,1.8,3.1c0.8,0.7,1.7,1,2.7,1c1,0,1.9-0.1,2.8-0.6
		C53.7,77.1,53.8,77.1,53.8,77.1"/>
	<path class="st0" d="M79,67.1h1.1c0.1,0.3,0.1,10.4,0,11c-0.5,0.3-1.1,0.4-1.7,0.6c-1.1,0.2-2.3,0.3-3.4,0.1
		c-0.4-0.1-0.9-0.2-1.3-0.4c-1.1-0.5-1.7-1.5-1.8-2.7c-0.1-0.4-0.1-0.7-0.1-1.1c0-2.4,0-4.7,0-7.1c0-0.2,0-0.4,0-0.6h1.2
		c0,0.2,0,0.4,0,0.5c0,2.4,0,4.7,0,7.1c0,0.4,0,0.8,0.1,1.2c0.2,1,0.9,1.6,1.8,1.8c0.7,0.2,1.4,0.1,2.1,0.1c0.5-0.1,1-0.2,1.4-0.3
		c0.2-0.1,0.3-0.2,0.3-0.5c0-0.7,0-1.4,0-2.1c0-2.4,0-4.9,0-7.3C79,67.5,79,67.3,79,67.1"/>
	<path class="st0" d="M103.5,67.1c0.1,0,0.2,0,0.3,0c0.6,0,1.3,0,1.9,0c0.1,0.3,0.1,11.3,0,11.8h-2.2V67.1z"/>
	<path class="st0" d="M58,78.9c-0.1,0-0.2,0-0.2,0c-0.3,0-0.6,0-0.8,0c-0.1-0.3-0.1-16.6,0-17.2H58C58.1,62.1,58.1,78.5,58,78.9"/>
	<path class="st0" d="M106,63.6c0,0.8-0.6,1.4-1.4,1.3c-0.8,0-1.4-0.6-1.4-1.4c0-0.7,0.6-1.3,1.4-1.3C105.4,62.2,106,62.8,106,63.6"
		/>
	<path class="st0" d="M15.6,51.9c0.1,0,0.1-0.1,0.2-0.1c1.6-0.5,3.2-0.8,4.8-0.7c4.2,0.2,7.6,2.1,10.1,5.4c1.2,1.6,1.9,3.4,2.3,5.3
		c0.1,0.5,0,1.1-0.1,1.6c-0.5,2.7-1.7,5.1-3.6,7c-0.1,0.1-0.1,0.1-0.2,0.1c0,0,0,0-0.1,0c0-0.2,0.1-0.3,0.1-0.5c0.9-3,0.8-6-0.2-9
		c-0.3-0.8-0.7-1.5-1.2-2.2c-0.4-0.5-0.8-1-1.2-1.5c-2.4-3-5.4-4.8-9.2-5.4C16.7,52,16.1,52,15.6,51.9"/>
	<path class="st0" d="M26.3,64.5c-2.3-4.2-5.8-6.8-10.5-7.7C11.1,56,7,57.3,3.4,60.4c0.1-0.1,0.1-0.2,0.2-0.3
		c1.9-3.4,4.8-5.7,8.6-6.5c3.8-0.9,7.4-0.2,10.6,2c0.3,0.2,0.5,0.4,0.8,0.7c1.9,2.3,2.8,5,2.8,8C26.3,64.2,26.3,64.4,26.3,64.5"/>
	<path class="st0" d="M13.3,64.7C9.2,66.9,6.5,70.3,5.6,75c-0.8,4.7,0.5,8.7,3.6,12.3c-0.1-0.1-0.2-0.1-0.3-0.1
		c-3.7-2-6-5.1-6.8-9.3c-0.6-3.5,0.1-6.8,2.1-9.8c0.1-0.2,0.3-0.4,0.5-0.5c2-1.7,4.3-2.6,7-2.9C12.2,64.6,12.7,64.6,13.3,64.7
		L13.3,64.7z"/>
	<path class="st0" d="M36,81.5c-0.6,1.2-1.3,2.2-2.2,3.1c-2.2,2.3-4.9,3.7-8.1,4c-3.2,0.3-6.2-0.4-8.9-2.3c-0.2-0.1-0.3-0.2-0.4-0.4
		c-1.6-1.9-2.5-4-2.8-6.5c-0.1-0.5-0.1-1.1-0.1-1.6c0-0.2,0-0.3,0-0.5c2.3,4.1,5.6,6.8,10.3,7.6C28.4,85.9,32.5,84.6,36,81.5"/>
	<path class="st0" d="M19.6,62c-4.6-1.4-8.8-0.9-12.7,1.8C3,66.5,1,70.3,0.7,75.1c-0.1-0.1-0.1-0.2-0.1-0.3c-2.2-7,1.9-14.6,9-16.5
		c0.3-0.1,0.6-0.1,0.9-0.2c0.8-0.2,1.5-0.1,2.3,0.1c2.6,0.5,4.8,1.7,6.7,3.6C19.5,61.8,19.5,61.9,19.6,62"/>
	<path class="st0" d="M23.8,90c-0.5,0.1-1.1,0.3-1.6,0.4c-5.6,1.1-11.3-1.7-14-6.7c-0.7-1.2-1.1-2.6-1.3-4c-0.1-0.4,0-0.8,0-1.2
		c0.4-2.9,1.7-5.3,3.7-7.3c0.1-0.1,0.1-0.1,0.2-0.2c-1.4,4.6-0.9,8.8,1.8,12.7C15.3,87.6,19.1,89.6,23.8,90
		C23.8,89.9,23.8,90,23.8,90"/>
	<path class="st0" d="M26.4,77.3C30.5,75,33.2,71.7,34,67c0.8-4.6-0.5-8.7-3.5-12.3c0.2,0.1,0.4,0.2,0.6,0.3
		c3.5,2.1,5.7,5.2,6.4,9.2c0.6,3.5-0.2,6.7-2.2,9.7c-0.1,0.2-0.3,0.3-0.4,0.5C33,76,30.7,77,28.2,77.3C27.6,77.3,27,77.3,26.4,77.3
		C26.4,77.3,26.4,77.3,26.4,77.3"/>
	<path class="st0" d="M39,66.8c0.3,0.7,0.5,1.5,0.6,2.2c0.4,3.1-0.2,6-1.8,8.7c-2.1,3.3-5,5.3-8.8,6c-0.5,0.1-1.1,0-1.6-0.1
		c-2.8-0.5-5.2-1.7-7.2-3.8c0,0,0-0.1-0.1-0.1c4.5,1.4,8.8,0.9,12.7-1.8C36.7,75.3,38.7,71.5,39,66.8"/>
	<path class="st0" d="M25.1,65c-0.1-0.1-0.1-0.1-0.2-0.2c-0.7-0.6-1.5-1.2-2.3-1.7c-0.2-0.1-0.3-0.2-0.4-0.4
		c-1.1-1.7-2.6-3.1-4.3-4.2c-0.1,0-0.1-0.1-0.2-0.1c0,0,0,0-0.1-0.1C21,59.6,23.5,61.8,25.1,65"/>
	<path class="st0" d="M7.3,73.3c0.5-2.6,4.2-6.7,6.5-7.4c-0.1,0.1-0.1,0.1-0.1,0.2c-0.6,0.7-1.2,1.5-1.7,2.3
		c-0.1,0.1-0.2,0.3-0.3,0.3c-1.7,1.2-3.2,2.6-4.2,4.4C7.4,73.1,7.4,73.2,7.3,73.3"/>
	<path class="st0" d="M9.4,63.8c2.1-1.4,7.8-1.8,9.8-0.7c-0.6,0.1-1.3,0.2-2,0.3c-0.3,0-0.6,0.1-0.9,0.2c-0.3,0.1-0.6,0.1-0.9,0
		c-1.9-0.4-3.8-0.3-5.7,0.1C9.6,63.8,9.5,63.8,9.4,63.8"/>
	<path class="st0" d="M12.6,81.3c-1.5-3.2-1.8-6.5-0.7-9.8c0,0.4,0.1,0.9,0.1,1.3c0.1,0.6,0.2,1.2,0.3,1.7c0,0.2,0.1,0.3,0,0.5
		c-0.4,2.1-0.4,4.1,0.1,6.2C12.6,81.2,12.6,81.3,12.6,81.3"/>
	<path class="st0" d="M22,83.3c-3.3-1.2-5.8-3.4-7.4-6.5c0.1,0.1,0.1,0.1,0.2,0.2c0.7,0.6,1.5,1.2,2.3,1.6c0.1,0.1,0.3,0.2,0.4,0.3
		c1.2,1.7,2.6,3.2,4.4,4.3C21.9,83.2,22,83.2,22,83.3C22,83.3,22,83.3,22,83.3"/>
	<path class="st0" d="M25.9,75.9c0.1-0.2,0.3-0.3,0.4-0.5c0.5-0.7,0.9-1.3,1.4-2c0.1-0.1,0.2-0.3,0.3-0.3c1.7-1.1,3.1-2.6,4.2-4.3
		c0-0.1,0.1-0.1,0.1-0.2c0,0,0,0,0.1-0.1C31.2,71.9,29,74.3,25.9,75.9C25.9,75.9,25.9,75.9,25.9,75.9"/>
	<path class="st0" d="M27.8,70.3c-0.1-1.1-0.3-2.1-0.5-3.2c0-0.1,0-0.2,0-0.3c0.3-1.3,0.4-2.6,0.2-3.9c-0.1-0.7-0.2-1.4-0.3-2.1
		c0-0.1,0-0.1,0-0.2c0.8,1.5,1.2,3.1,1.3,4.8C28.5,67,28.4,68.7,27.8,70.3"/>
	<path class="st0" d="M30.3,77.9c-3.2,1.5-6.4,1.7-9.7,0.7c0,0,0-0.1,0-0.1c0.3,0,0.7,0,1-0.1c0.7-0.1,1.3-0.2,2-0.4
		c0.2,0,0.4-0.1,0.6,0c2,0.4,4,0.4,6-0.1C30.2,77.9,30.3,77.9,30.3,77.9"/>
</g>
</svg>
