<?xml version="1.0" encoding="utf-8"?>
<!-- Generator: Adobe Illustrator 24.2.0, SVG Export Plug-In . SVG Version: 6.00 Build 0)  -->
<svg version="1.1" id="Layer_1" xmlns="http://www.w3.org/2000/svg" xmlns:xlink="http://www.w3.org/1999/xlink" x="0px" y="0px"
	 viewBox="0 0 141.7 141.7" style="enable-background:new 0 0 141.7 141.7;" xml:space="preserve">
<style type="text/css">
	.st0{fill:#ADB6BA;}
</style>
<g>
	<path class="st0" d="M48.8,55.5H0.1v-14h48.7V55.5z M3.3,52.3h42.3v-7.6H3.3V52.3z"/>
	<g>
		<path class="st0" d="M11.9,64.4v13.5H9.1v-5.7H3v5.7H0.2V64.4H3v5.3h6.1v-5.3H11.9z"/>
		<path class="st0" d="M16.3,73.5c0.2,1.6,1.4,2.3,2.8,2.3c1.1,0,1.8-0.2,2.8-0.9v2.2c-0.8,0.6-1.9,0.9-3.2,0.9c-3,0-5-1.9-5-5
			c0-3.1,1.9-5.2,4.6-5.2c2.8,0,4.3,2,4.3,4.9v0.9H16.3z M16.4,71.8h3.7c-0.1-1.1-0.7-1.8-1.7-1.8C17.5,70,16.7,70.5,16.4,71.8z"/>
		<path class="st0" d="M33.2,74.3L35,68h2.6l-3,9.8h-2.5l-1.6-6l-1.6,6h-2.5l-3-9.8h2.7l1.8,6.2l1.6-6.2h2.1L33.2,74.3z"/>
		<path class="st0" d="M47.5,73.5c0.2,1.6,1.4,2.3,2.8,2.3c1.1,0,1.8-0.2,2.8-0.9v2.2c-0.8,0.6-1.9,0.9-3.2,0.9c-3,0-5-1.9-5-5
			c0-3.1,1.9-5.2,4.6-5.2c2.8,0,4.3,2,4.3,4.9v0.9H47.5z M47.6,71.8h3.7c-0.1-1.1-0.7-1.8-1.7-1.8C48.6,70,47.9,70.5,47.6,71.8z"/>
		<path class="st0" d="M75.9,73.1v4.7h-2.8V64.4h5.5c2.8,0,4.7,1.5,4.7,4.4c0,2.8-1.9,4.4-4.7,4.4H75.9z M78.4,66.7h-2.5v4h2.5
			c1.4,0,2.1-0.8,2.1-2C80.5,67.6,79.8,66.7,78.4,66.7z"/>
		<path class="st0" d="M90,71.7c0-0.9-0.8-1.5-2.2-1.5c-1,0-1.9,0.3-2.7,0.8v-2.3c0.7-0.4,2-0.8,3.3-0.8c2.7,0,4.2,1.4,4.2,3.8v6.2
			H90v-0.5c-0.3,0.3-1.3,0.7-2.4,0.7c-2,0-3.6-1.1-3.6-3.2c0-1.9,1.6-3.1,3.8-3.1c0.9,0,1.8,0.3,2.2,0.6V71.7z M90,74.4
			c-0.2-0.5-1-0.9-1.7-0.9c-0.9,0-1.7,0.4-1.7,1.2c0,0.9,0.9,1.2,1.7,1.2c0.8,0,1.5-0.3,1.7-0.9V74.4z"/>
		<path class="st0" d="M99.5,67.8c1,0,2,0.2,2.7,0.8V71c-0.7-0.6-1.4-0.9-2.3-0.9c-1.4,0-2.6,1-2.6,2.8c0,1.7,1.1,2.8,2.6,2.8
			c0.9,0,1.7-0.3,2.3-0.9v2.5c-0.7,0.5-1.7,0.8-2.7,0.8c-2.8,0-5-2-5-5.1C94.5,69.8,96.7,67.8,99.5,67.8z"/>
		<path class="st0" d="M113.8,77.8h-3.2l-3.5-4.5v4.5h-2.7V63.6h2.7v8.3l3.4-3.9h3.3l-4.1,4.5L113.8,77.8z"/>
		<path class="st0" d="M120.2,71.7c0-0.9-0.8-1.5-2.2-1.5c-1,0-1.9,0.3-2.7,0.8v-2.3c0.7-0.4,2-0.8,3.3-0.8c2.7,0,4.2,1.4,4.2,3.8
			v6.2h-2.6v-0.5c-0.3,0.3-1.3,0.7-2.4,0.7c-2,0-3.6-1.1-3.6-3.2c0-1.9,1.6-3.1,3.8-3.1c0.9,0,1.8,0.3,2.2,0.6V71.7z M120.2,74.4
			c-0.2-0.5-1-0.9-1.7-0.9c-0.9,0-1.7,0.4-1.7,1.2c0,0.9,0.9,1.2,1.7,1.2c0.8,0,1.5-0.3,1.7-0.9V74.4z"/>
		<path class="st0" d="M131.3,70.7c-0.4-0.2-0.9-0.3-1.4-0.3c-0.9,0-1.7,0.5-1.9,1.4v6.1h-2.7V68h2.7v1c0.4-0.7,1.2-1.2,2.2-1.2
			c0.5,0,0.9,0.1,1,0.2V70.7z"/>
		<path class="st0" d="M139.1,77c-0.4,0.5-1.4,1-2.5,1c-2.8,0-4.4-2.3-4.4-5.1c0-2.8,1.6-5.1,4.4-5.1c1.1,0,2,0.5,2.5,1v-5.3h2.7
			v14.2h-2.7V77z M139.1,71.3c-0.3-0.7-1.1-1.1-1.8-1.1c-1.5,0-2.3,1.2-2.3,2.8c0,1.6,0.9,2.7,2.3,2.7c0.8,0,1.5-0.5,1.8-1.1V71.3z"
			/>
		<path class="st0" d="M43.4,76.1c-0.8,0-1.3-0.4-1.3-1.3h0V64.4h-2.7v9.7v0.7V75c0,2.2,1.4,3.5,3.5,3.5c0.6,0,1.1-0.1,1.5-0.3v-2.3
			C44.1,76.1,43.7,76.1,43.4,76.1z"/>
		<path class="st0" d="M65.8,70.6h2.5v-2.2h-2.5v-4h-2.7v4h-3.9v-4h-2.7v4h-1.8v2.2h1.8v3.5v0.7V75c0,2.2,1.4,3.5,3.5,3.5
			c0.6,0,1.1-0.1,1.5-0.3v-2.3c-0.3,0.2-0.6,0.3-1,0.3c-0.8,0-1.3-0.4-1.3-1.3h0v-4.2h3.9v3.5v0.7V75c0,2.2,1.4,3.5,3.5,3.5
			c0.6,0,1.1-0.1,1.5-0.3v-2.3c-0.3,0.2-0.6,0.3-1,0.3c-0.8,0-1.3-0.4-1.3-1.3h0V70.6z"/>
	</g>
	<g>
		<path class="st0" d="M9,83.1v1.5H2.1V89h6.3v1.5H2.1v4.6H9v1.6H0.3V83.1H9z"/>
		<path class="st0" d="M11.6,86.9h1.7v1.2c0.6-0.8,1.6-1.4,2.9-1.4c2.2,0,3.4,1.4,3.4,3.6v6.4h-1.7v-6.2c0-1.4-0.7-2.3-2.2-2.3
			c-1.1,0-2.1,0.8-2.5,1.8v6.6h-1.7V86.9z"/>
		<path class="st0" d="M30.1,92.1c0.1,2.3,1.5,3.4,3.3,3.4c1.1,0,1.9-0.3,2.8-0.9V96c-0.8,0.6-1.8,0.9-3,0.9c-2.8,0-4.7-1.9-4.7-5
			c0-3,1.8-5.2,4.4-5.2c2.6,0,4,1.9,4,4.8v0.6H30.1z M30.2,90.8h5.1c-0.1-1.4-0.8-2.7-2.4-2.7C31.6,88.1,30.5,89,30.2,90.8z"/>
		<path class="st0" d="M44.2,88.6c-0.3-0.2-0.7-0.3-1.1-0.3c-1,0-1.9,0.7-2.3,1.8v6.6h-1.7v-9.8h1.7v1.3c0.4-0.8,1.3-1.5,2.4-1.5
			c0.4,0,0.8,0.1,0.9,0.2V88.6z"/>
		<path class="st0" d="M47.6,100.5h-1.7V86.9h1.7V88c0.5-0.7,1.5-1.3,2.8-1.3c2.9,0,4.4,2.4,4.4,5.1c0,2.7-1.5,5.1-4.4,5.1
			c-1.2,0-2.3-0.6-2.8-1.3V100.5z M47.6,93.8c0.5,1,1.5,1.6,2.5,1.6c1.9,0,3-1.5,3-3.6c0-2.1-1.1-3.6-3-3.6c-1,0-2,0.6-2.5,1.6V93.8
			z"/>
		<path class="st0" d="M62.4,88.6c-0.3-0.2-0.7-0.3-1.1-0.3c-1,0-1.9,0.7-2.3,1.8v6.6h-1.7v-9.8H59v1.3c0.4-0.8,1.3-1.5,2.4-1.5
			c0.4,0,0.8,0.1,0.9,0.2V88.6z"/>
		<path class="st0" d="M65.2,85c-0.6,0-1.1-0.5-1.1-1.1c0-0.6,0.5-1.1,1.1-1.1c0.6,0,1.1,0.5,1.1,1.1C66.3,84.5,65.8,85,65.2,85z
			 M66.1,96.7h-1.7v-9.8h1.7V96.7z"/>
		<path class="st0" d="M68.4,94.2c0.9,0.8,2,1.3,3.2,1.3c1.1,0,2-0.4,2-1.4c0-0.7-0.6-1.1-1.4-1.4l-1.3-0.5
			c-1.5-0.5-2.5-1.2-2.5-2.8c0-1.7,1.5-2.8,3.5-2.8c1.1,0,2.1,0.3,2.9,0.9v1.7c-0.8-0.7-1.7-1.2-2.9-1.2c-1,0-1.9,0.4-1.9,1.3
			c0,0.8,0.5,1.1,1.5,1.4l1.5,0.5c1.5,0.5,2.3,1.4,2.3,2.8c0,1.8-1.6,2.8-3.7,2.8c-1.3,0-2.5-0.4-3.2-1V94.2z"/>
		<path class="st0" d="M78.6,92.1c0.1,2.3,1.5,3.4,3.3,3.4c1.1,0,1.9-0.3,2.8-0.9V96c-0.8,0.6-1.8,0.9-3,0.9c-2.8,0-4.7-1.9-4.7-5
			c0-3,1.8-5.2,4.4-5.2c2.6,0,4,1.9,4,4.8v0.6H78.6z M78.7,90.8h5.1c-0.1-1.4-0.8-2.7-2.4-2.7C80.1,88.1,79,89,78.7,90.8z"/>
		<path class="st0" d="M26.4,95.4c-1,0-1.6-0.6-1.6-1.8v-0.8h0v-4.5h2.6v-1.4h-2.6v-2.4h-1.7v2.4h-2.3v1.4h2.3v4.5v1
			c0,2,1.3,3.1,3,3.1c0.5,0,0.9-0.1,1.3-0.2v-1.5C27.1,95.4,26.7,95.4,26.4,95.4z"/>
	</g>
</g>
</svg>
