<?xml version="1.0" encoding="utf-8"?>
<!-- Generator: Adobe Illustrator 24.2.0, SVG Export Plug-In . SVG Version: 6.00 Build 0)  -->
<svg version="1.1" id="Layer_1" xmlns="http://www.w3.org/2000/svg" xmlns:xlink="http://www.w3.org/1999/xlink" x="0px" y="0px"
	 viewBox="0 0 141.7 141.7" style="enable-background:new 0 0 141.7 141.7;" xml:space="preserve">
<style type="text/css">
	.st0{fill:#ADB6BA;}
</style>
<g>
	<path class="st0" d="M37.8,61.6v15.8c0,0.1,0.1,0.3,0.3,0.3c0.8,0.1,1.8,0.1,2.7,0c0.8-0.1,1.8-0.2,3-0.3c0,0.2-0.1,0.5-0.1,0.8
		c0,0.2,0,0.5,0.1,0.8h-9.4V61.6c0.2,0,0.4,0,0.7,0.1c0.4,0.1,0.8,0.1,1.1,0l0.8,0C37.3,61.6,37.6,61.6,37.8,61.6z M49.1,62.4
		c-0.5,0.1-0.8,0.1-1.1,0h-0.8c-0.3,0-0.5-0.1-0.7-0.1v16.6h3.3V62.3C49.5,62.4,49.3,62.4,49.1,62.4z M52.3,62.3c0,0.2,0,0.5,0,0.7
		c0,0.3,0,0.6,0,0.8h0.5c1.6-0.2,2.9-0.3,3.9-0.3c0.2,0,0.3,0.1,0.3,0.3v15.1h3.2V63.8c0-0.2,0.1-0.3,0.3-0.3c0.7,0,1.8,0.1,3.1,0.2
		c0.3,0,0.7,0.1,1.1,0.1c0-0.2,0-0.5,0-0.8c0-0.2,0-0.5,0-0.7L52.3,62.3L52.3,62.3z M67.2,62.3v16.6h9c0-0.3-0.1-0.6-0.1-0.8
		c0-0.3,0-0.5,0.1-0.7c-0.6,0.1-1.3,0.2-2,0.2c-0.8,0.1-2,0.1-3.5,0.1c-0.2,0-0.3-0.1-0.3-0.3V71c0-0.2,0.1-0.3,0.3-0.3h2.4
		c0.8,0,1.4,0.1,2.1,0.1l0.5,0c0-0.1,0-0.1,0-0.2l0-1.2c0,0,0-0.1,0-0.1c0,0,0,0,0-0.1c-0.8,0.1-1.6,0.1-2.5,0.1h-2.4
		c-0.2,0-0.3-0.1-0.3-0.3v-5.4c0-0.2,0.1-0.3,0.3-0.3c1.8,0,3.6,0.1,5.5,0.3c-0.1-0.3-0.1-0.5-0.1-0.7c0-0.3,0-0.5,0.1-0.8
		L67.2,62.3L67.2,62.3z M89.7,73.8c-0.1-2.1-1.6-3.9-4.7-5.4c-2.3-1.2-3.4-2.3-3.4-3.5c0-1.9,1.1-2.9,3.2-3c1.4,0,2.5,0.8,3.2,2.2
		c0.1-0.3,0.2-0.6,0.3-1c0.2-0.4,0.3-0.8,0.4-1.1c-1.1-0.6-2.4-1-3.9-1.1c-3.8,0.2-5.7,1.9-5.8,5.3c0,2.3,1.4,4.1,4.3,5.4
		c2.4,1.1,3.6,2.3,3.6,3.7c-0.2,1.9-1.3,2.9-3.4,3c-2.1-0.1-3.4-1-3.9-2.9h0c-0.1,1-0.3,2-0.6,3c1.3,0.5,2.6,0.7,3.9,0.8
		C87.2,79.3,89.5,77.3,89.7,73.8z M95.2,71.4c0,0-0.1,0-0.2,0.1C95,71.6,95,71.6,95,71.7v7.2h-3.3V62.3h5.9c3.4,0,5.1,1.3,5.2,4
		c0,1.5-0.4,2.6-1.2,3.4c-1.1,1.1-3.1,1.7-5.8,1.7C95.6,71.5,95.4,71.4,95.2,71.4z M95.2,70.6c0.1,0,0.3,0,0.4,0
		c0.4,0,0.9-0.1,1.4-0.2c1.5-0.4,2.3-1.6,2.5-3.6c-0.1-2.2-1-3.5-2.6-3.7h-1.6c-0.2,0-0.3,0.1-0.3,0.3v7
		C95,70.5,95.1,70.6,95.2,70.6z M115.9,62.3v16.6h9c0-0.3-0.1-0.6-0.1-0.8c0-0.3,0-0.5,0.1-0.7c-0.6,0.1-1.3,0.2-2,0.2
		c-0.9,0.1-2,0.1-3.5,0.1c-0.2,0-0.3-0.1-0.3-0.3V71c0-0.2,0.1-0.3,0.3-0.3h2.7c1,0.1,1.9,0.1,2.7,0.2c0-0.1,0-0.1-0.1-0.2l0-1.2
		c0,0,0-0.1,0-0.1c0,0,0-0.1,0-0.1c-0.8,0.1-1.7,0.2-2.7,0.2h-2.7c-0.2,0-0.3-0.1-0.3-0.3v-5.4c0-0.2,0.1-0.3,0.3-0.3
		c1.8,0,3.6,0.1,5.5,0.3c-0.1-0.3-0.1-0.5-0.1-0.8c0-0.3,0-0.6,0.1-0.8L115.9,62.3L115.9,62.3z M132.7,78.9h-5.5V62.3l7,0
		c4.7,0.3,7.2,2.9,7.4,7.8C141.4,75.7,138.4,78.6,132.7,78.9z M138,70.1c0-4.6-2.1-6.9-6.1-6.9h-1.2c-0.2,0-0.3,0.1-0.3,0.3v14.2
		c0,0.2,0.1,0.3,0.3,0.3h1.1c2.1,0,3.6-0.7,4.7-2C137.5,74.7,138,72.7,138,70.1z M104.6,62.3v16.6h9c0-0.3-0.1-0.6-0.1-0.8
		c0-0.3,0-0.5,0.1-0.7c-0.6,0.1-1.3,0.2-2,0.2c-0.9,0.1-2,0.1-3.5,0.1c-0.2,0-0.3-0.1-0.3-0.3V71c0-0.2,0.1-0.3,0.3-0.3h2.7
		c1,0.1,1.9,0.1,2.7,0.2c0-0.1,0-0.1-0.1-0.2l0-1.2c0,0,0-0.1,0-0.1c0,0,0-0.1,0-0.1c-0.8,0.1-1.7,0.2-2.7,0.2h-2.7
		c-0.2,0-0.3-0.1-0.3-0.3v-5.4c0-0.2,0.1-0.3,0.3-0.3c1.8,0,3.6,0.1,5.5,0.3c-0.1-0.3-0.1-0.5-0.1-0.8c0-0.3,0-0.6,0.1-0.8
		L104.6,62.3L104.6,62.3z"/>
	<g>
		<path class="st0" d="M25.9,70.4l-7.8-7.8l-3.3,4.2l3.6,3.6c0.3,0.3,0.3,0.9,0,1.2l-1,1c0,0,0.7,1,0.7,1.1c0.2,0.3,0.2,1.1-0.3,1.4
			l-8.1,6.2c0,2.1,0,6.4,0,6.4c0,0,16.2-16.2,16.2-16.2C26.2,71.2,26.2,70.7,25.9,70.4z"/>
		<path class="st0" d="M7.8,71.4c-0.3-0.3-0.3-0.9,0-1.2l1-1l-0.7-1c-0.3-0.5-0.2-1.2,0.2-1.5l8.1-6.2l0-6.4l0,0l0,0L0.2,70.2
			c-0.3,0.3-0.3,0.9,0,1.2L8,79.1l3.3-4.2L7.8,71.4z"/>
		<path class="st0" d="M20.5,58.3c0.1-0.1,0.1-0.2,0.1-0.2C20.5,58.1,20.5,58.2,20.5,58.3L8.9,67c-0.2,0.2-0.3,0.5-0.1,0.8l0,0
			l4,5.7c0.2,0.2,0.2,0.6,0,0.9l-7.1,9c-0.1,0.1-0.1,0.2-0.1,0.2c0,0,0.1,0,0.2-0.1l11.5-8.8c0.2-0.2,0.1-0.7,0.1-0.8l-3.9-5.6
			c-0.2-0.2-0.2-0.6,0-0.8L20.5,58.3z"/>
	</g>
</g>
</svg>
