<svg xmlns="http://www.w3.org/2000/svg" xmlns:xlink="http://www.w3.org/1999/xlink" id="Layer_1" x="0px" y="0px" viewBox="0 0 141.7 141.7" style="enable-background:new 0 0 141.7 141.7;" xml:space="preserve"> <style type="text/css"> .st0{fill:#FFFFFF;} .st1{fill:#31383F;} </style> <g> <polygon class="st0" points="52.1,3.5 104.1,3.5 81.8,44.2 102.2,44.2 81,79.6 96.3,79.6 49,137.2 56.3,93.4 41,93.4 56.3,57.4 37.1,57.4 "></polygon> <path class="st1" d="M104.5,1.4H52.9c-1,0-1.9,0.7-2.2,1.6L35.1,56.8c-0.2,0.7-0.1,1.4,0.4,2c0.4,0.6,1.1,0.9,1.8,0.9h16.2 L39.7,92.4c-0.3,0.7-0.2,1.5,0.2,2.1c0.4,0.6,1.1,1,1.9,1h12.6l-8.1,42.1c-0.2,1,0.3,2,1.3,2.5c0.9,0.4,2.1,0.2,2.7-0.6l47-58.2 c0.5-0.7,0.7-1.6,0.3-2.4c-0.4-0.8-1.2-1.3-2-1.3H84.4l19.7-32.4c0.4-0.7,0.4-1.6,0-2.3c-0.4-0.7-1.2-1.1-2-1.1H85.9l20.5-37 c0.4-0.7,0.4-1.6,0-2.2C106,1.8,105.3,1.4,104.5,1.4z M80.1,42.9c-0.4,0.7-0.4,1.6,0,2.2c0.4,0.7,1.1,1.1,1.9,1.1h16.1L78.5,78.7 c-0.4,0.7-0.4,1.6,0,2.3c0.4,0.7,1.2,1.1,2,1.1h10.4l-38.4,47.5l6.9-35.9c0.1-0.7,0-1.3-0.5-1.9c-0.4-0.5-1.1-0.8-1.7-0.8H45.2 l13.8-32.7c0.3-0.7,0.2-1.5-0.2-2.1c-0.4-0.6-1.1-1-1.9-1H40.3L54.6,5.9h46L80.1,42.9z"></path> </g> </svg>