<svg xmlns="http://www.w3.org/2000/svg" xmlns:xlink="http://www.w3.org/1999/xlink" id="Layer_1" x="0px" y="0px" viewBox="0 0 141.7 141.7" style="enable-background:new 0 0 141.7 141.7;" xml:space="preserve"> <style type="text/css"> .st0{fill:#FFFFFF;} .st1{fill:#31383F;} </style> <g> <polygon class="st0" points="32.3,84.6 3.8,113 47.9,127.7 "></polygon> <polygon class="st0" points="94.5,14.2 108.9,58.3 137.9,28.8 "></polygon> <circle class="st0" cx="71" cy="71.4" r="61.7"></circle> <path class="st1" d="M71.6,68.7c-6-2-11.1-3.8-11.1-8c0-5.7,4.7-10.4,10.4-10.4S81.3,55,81.3,60.7c0,1.3,1,2.3,2.3,2.3 c1.3,0,2.3-1,2.3-2.3c0-6.4-4.3-12.3-10.4-14.3l-2.2-0.7l0-7.9c0-1.3-1-2.3-2.3-2.3c-1.3,0-2.3,1-2.3,2.3l0,7.9l-2.3,0.7 c-6.1,2-10.4,7.8-10.4,14.2c0,6.9,6.2,9.6,14.2,12.3c6,2,11.1,3.8,11.1,8c0,5.7-4.7,10.4-10.4,10.4S60.5,86.8,60.5,81 c0-1.3-1-2.3-2.3-2.3c-1.3,0-2.3,1-2.3,2.3c0,6.4,4.3,12.3,10.4,14.2l2.2,0.7l0,7.9c0,1.3,1,2.3,2.3,2.3c1.3,0,2.3-1,2.3-2.3l0-7.9 l2.3-0.7c6.1-2,10.4-7.8,10.4-14.2C85.8,74.1,79.7,71.4,71.6,68.7z"></path> <path class="st1" d="M138.8,27l-38.9-13c-9.2-4.7-19.2-7-29-7C54.3,7,38,13.4,25.7,25.7C6.9,44.5,1.7,73.4,12.9,97.6l0.8,1.8 L2.1,111c-0.6,0.6-0.8,1.3-0.6,2.1c0.2,0.8,0.7,1.4,1.5,1.6l38.9,13c24.8,12.6,54.5,7.9,74.1-11.7c18.8-18.8,24-47.7,12.8-71.9 l-0.8-1.8l11.6-11.6c0.6-0.6,0.8-1.3,0.6-2.1C140.1,27.8,139.5,27.2,138.8,27z M7.8,111.7l23.9-23.9l12,35.9L7.8,111.7z M112.9,112.9c-11.3,11.3-26.5,17.3-42,17.3c-6.8,0-13.6-1.2-20.2-3.5l-1.3-0.5L34.9,82.9c-0.2-0.7-0.9-1.3-1.6-1.5 c-0.8-0.2-1.6,0-2.1,0.6L17,96.1L15.4,92c-8.3-21.9-3-46.6,13.5-63.1C45.1,12.7,69.5,7.3,91.1,15.1l1.3,0.5l14.4,43.3 c0.2,0.7,0.9,1.3,1.6,1.5c0.8,0.2,1.6,0,2.1-0.6l14.1-14.1l1.6,4.2C134.6,71.6,129.3,96.4,112.9,112.9z M110,54L98,18.1l35.9,12 L110,54z"></path> </g> </svg>