<?xml version="1.0" encoding="utf-8"?>
<!-- Generator: Adobe Illustrator 25.0.1, SVG Export Plug-In . SVG Version: 6.00 Build 0)  -->
<svg version="1.1" id="Layer_1" xmlns="http://www.w3.org/2000/svg" xmlns:xlink="http://www.w3.org/1999/xlink" x="0px" y="0px"
	 viewBox="0 0 141.7 51.1" style="enable-background:new 0 0 141.7 51.1;" xml:space="preserve">
<style type="text/css">
	.st0{fill:#231F20;}
	.st1{fill:#8EC63E;}
</style>
<g>
	<path class="st0" d="M19.8,37.8v12.8h-6.2V38.7c0-2.6-1.6-3.8-3.6-3.8c-2.3,0-3.8,1.3-3.8,4.3v11.3H0V29.8h6.2v2
		c1.1-1.5,3.2-2.5,5.9-2.5C16.3,29.2,19.8,32.2,19.8,37.8"/>
	<path class="st0" d="M37,38c-0.7-2.4-2.5-3.3-4.4-3.3c-2.4,0-3.9,1.2-4.5,3.3H37z M33.2,45.5c1.7,0,3.1-0.7,4-1.6l5,2.9
		c-2,2.8-5.1,4.3-9,4.3c-7.1,0-11.4-4.8-11.4-11s4.5-11,11-11c6,0,10.5,4.7,10.5,11c0,0.9-0.1,1.7-0.2,2.5H28.3
		C29.1,44.8,31,45.5,33.2,45.5"/>
	<path class="st0" d="M53.1,35.7v7.4c0,1.8,1.5,2,4.3,1.8v5.6c-8.1,0.8-10.4-1.6-10.4-7.4v-7.4h-3.3v-6h3.3v-3.9l6.2-1.9v5.8h4.3v6
		H53.1z"/>
	<path class="st1" d="M79.5,45.1c-2.7,0-4.9-2.2-4.9-4.9c0-2.7,2.2-4.9,4.9-4.9c2.7,0,4.9,2.2,4.9,4.9
		C84.4,42.9,82.2,45.1,79.5,45.1 M83.9,29.8v1.3c-1.2-1.2-2.9-1.9-4.9-1.9c-5.9,0-10.2,4.9-10.2,11c0,6.1,4.4,11,10.2,11
		c2,0,3.6-0.8,4.9-1.9v1.4h6.2V29.8H83.9z"/>
	<path class="st1" d="M111.9,29.8v20.7h-6.2v-1.3c-1.2,1.4-2.8,1.9-5.9,1.9c-4.2,0-7.7-3-7.7-8.6V29.8h6.2v11.5
		c0,2.6,1.6,3.8,3.6,3.8c2.3,0,3.8-1.3,3.8-4.3v-11H111.9z"/>
	<path class="st1" d="M63.6,51.1c-2.7,0-4.9-2.2-4.9-4.9c0-2.7,2.2-4.9,4.9-4.9c2.7,0,4.9,2.2,4.9,4.9
		C68.5,48.9,66.4,51.1,63.6,51.1"/>
	<path class="st1" d="M103.2,24.1c0.7,0.7,0.7,1.9,0,2.6c-0.7,0.7-1.9,0.7-2.6,0c-0.7-0.7-0.7-1.9,0-2.6
		C101.3,23.4,102.5,23.4,103.2,24.1"/>
	<path class="st1" d="M108,19.3c0.7,0.7,0.7,1.9,0,2.6c-0.7,0.7-1.9,0.7-2.6,0c-0.7-0.7-0.7-1.9,0-2.6
		C106.1,18.6,107.3,18.6,108,19.3"/>
	<path class="st1" d="M103.2,19.3c0.7,0.7,0.7,1.9,0,2.6c-0.7,0.7-1.9,0.7-2.6,0c-0.7-0.7-0.7-1.9,0-2.6
		C101.3,18.6,102.5,18.6,103.2,19.3"/>
	<path class="st1" d="M112.9,14.4c0.7,0.7,0.7,1.9,0,2.6c-0.7,0.7-1.9,0.7-2.6,0c-0.7-0.7-0.7-1.9,0-2.6
		C111,13.7,112.2,13.7,112.9,14.4"/>
	<path class="st1" d="M108,24.1c0.7,0.7,0.7,1.9,0,2.6c-0.7,0.7-1.9,0.7-2.6,0c-0.7-0.7-0.7-1.9,0-2.6
		C106.1,23.4,107.3,23.4,108,24.1"/>
	<path class="st1" d="M113.7,18.5c1.2,1.2,1.2,3.1,0,4.3c-1.2,1.2-3.1,1.2-4.2,0c-1.2-1.2-1.2-3.1,0-4.3
		C110.6,17.3,112.5,17.3,113.7,18.5"/>
	<path class="st1" d="M113.7,23.3c1.2,1.2,1.2,3.1,0,4.3c-1.2,1.2-3.1,1.2-4.2,0c-1.2-1.2-1.2-3.1,0-4.3
		C110.6,22.2,112.5,22.2,113.7,23.3"/>
	<path class="st1" d="M122.5,33.9c0.7,0.7,0.7,1.9,0,2.6c-0.7,0.7-1.9,0.7-2.6,0c-0.7-0.7-0.7-1.9,0-2.6
		C120.7,33.2,121.8,33.2,122.5,33.9"/>
	<path class="st1" d="M117.7,33.9c0.7,0.7,0.7,1.9,0,2.6c-0.7,0.7-1.9,0.7-2.6,0c-0.7-0.7-0.7-1.9,0-2.6
		C115.8,33.2,117,33.2,117.7,33.9"/>
	<path class="st1" d="M118.5,28.2c1.2,1.2,1.2,3.1,0,4.3c-1.2,1.2-3.1,1.2-4.2,0c-1.2-1.2-1.2-3.1,0-4.3
		C115.5,27,117.4,27,118.5,28.2"/>
	<path class="st1" d="M123.4,23.3c1.2,1.2,1.2,3.1,0,4.3c-1.2,1.2-3.1,1.2-4.2,0c-1.2-1.2-1.2-3.1,0-4.3
		C120.3,22.2,122.2,22.2,123.4,23.3"/>
	<path class="st1" d="M123.4,28.2c1.2,1.2,1.2,3.1,0,4.3c-1.2,1.2-3.1,1.2-4.2,0c-1.2-1.2-1.2-3.1,0-4.3
		C120.3,27,122.2,27,123.4,28.2"/>
	<path class="st1" d="M128.2,23.3c1.2,1.2,1.2,3.1,0,4.3c-1.2,1.2-3.1,1.2-4.2,0c-1.2-1.2-1.2-3.1,0-4.3
		C125.1,22.2,127,22.2,128.2,23.3"/>
	<path class="st1" d="M118.5,23.3c1.2,1.2,1.2,3.1,0,4.3c-1.2,1.2-3.1,1.2-4.2,0c-1.2-1.2-1.2-3.1,0-4.3
		C115.5,22.2,117.4,22.2,118.5,23.3"/>
	<path class="st1" d="M123.4,18.5c1.2,1.2,1.2,3.1,0,4.3c-1.2,1.2-3.1,1.2-4.2,0c-1.2-1.2-1.2-3.1,0-4.3
		C120.3,17.3,122.2,17.3,123.4,18.5"/>
	<path class="st1" d="M118.5,18.5c1.2,1.2,1.2,3.1,0,4.3c-1.2,1.2-3.1,1.2-4.2,0c-1.2-1.2-1.2-3.1,0-4.3
		C115.5,17.3,117.4,17.3,118.5,18.5"/>
	<path class="st1" d="M118.5,13.6c1.2,1.2,1.2,3.1,0,4.3c-1.2,1.2-3.1,1.2-4.2,0c-1.2-1.2-1.2-3.1,0-4.3
		C115.5,12.4,117.4,12.4,118.5,13.6"/>
	<path class="st1" d="M127.4,29c0.7,0.7,0.7,1.9,0,2.6c-0.7,0.7-1.9,0.7-2.6,0c-0.7-0.7-0.7-1.9,0-2.6
		C125.5,28.3,126.7,28.3,127.4,29"/>
	<path class="st1" d="M103.2,14.4c0.7,0.7,0.7,1.9,0,2.6c-0.7,0.7-1.9,0.7-2.6,0c-0.7-0.7-0.7-1.9,0-2.6
		C101.3,13.7,102.5,13.7,103.2,14.4"/>
	<path class="st1" d="M108,9.6c0.7,0.7,0.7,1.9,0,2.6c-0.7,0.7-1.9,0.7-2.6,0c-0.7-0.7-0.7-1.9,0-2.6C106.1,8.8,107.3,8.8,108,9.6"
		/>
	<path class="st1" d="M102.7,10.1c0.4,0.4,0.4,1.2,0,1.6c-0.4,0.4-1.2,0.4-1.6,0c-0.4-0.4-0.4-1.2,0-1.6
		C101.5,9.6,102.3,9.6,102.7,10.1"/>
	<path class="st1" d="M107.5,5.2c0.4,0.4,0.4,1.2,0,1.6c-0.4,0.4-1.2,0.4-1.6,0c-0.4-0.4-0.4-1.2,0-1.6
		C106.4,4.7,107.1,4.7,107.5,5.2"/>
	<path class="st1" d="M112.9,4.7c0.7,0.7,0.7,1.9,0,2.6c-0.7,0.7-1.9,0.7-2.6,0c-0.7-0.7-0.7-1.9,0-2.6C111,4,112.2,4,112.9,4.7"/>
	<path class="st1" d="M108,14.4c0.7,0.7,0.7,1.9,0,2.6c-0.7,0.7-1.9,0.7-2.6,0c-0.7-0.7-0.7-1.9,0-2.6
		C106.1,13.7,107.3,13.7,108,14.4"/>
	<path class="st1" d="M97.9,24.7c0.4,0.4,0.4,1.2,0,1.6c-0.4,0.4-1.2,0.4-1.6,0c-0.4-0.4-0.4-1.2,0-1.6
		C96.7,24.2,97.4,24.2,97.9,24.7"/>
	<path class="st1" d="M97.9,19.8c0.4,0.4,0.4,1.2,0,1.6c-0.4,0.4-1.2,0.4-1.6,0c-0.4-0.4-0.4-1.2,0-1.6
		C96.7,19.3,97.4,19.3,97.9,19.8"/>
	<path class="st1" d="M97.9,14.9c0.4,0.4,0.4,1.2,0,1.6c-0.4,0.4-1.2,0.4-1.6,0c-0.4-0.4-0.4-1.2,0-1.6
		C96.7,14.5,97.4,14.5,97.9,14.9"/>
	<path class="st1" d="M112.9,9.6c0.7,0.7,0.7,1.9,0,2.6c-0.7,0.7-1.9,0.7-2.6,0c-0.7-0.7-0.7-1.9,0-2.6C111,8.8,112.2,8.8,112.9,9.6
		"/>
	<path class="st1" d="M123.4,13.6c1.2,1.2,1.2,3.1,0,4.3c-1.2,1.2-3.1,1.2-4.2,0c-1.2-1.2-1.2-3.1,0-4.3
		C120.3,12.4,122.2,12.4,123.4,13.6"/>
	<path class="st1" d="M127.4,14.4c0.7,0.7,0.7,1.9,0,2.6c-0.7,0.7-1.9,0.7-2.6,0c-0.7-0.7-0.7-1.9,0-2.6
		C125.5,13.7,126.7,13.7,127.4,14.4"/>
	<path class="st1" d="M122.6,9.6c0.7,0.7,0.7,1.9,0,2.6c-0.7,0.7-1.9,0.7-2.6,0c-0.7-0.7-0.7-1.9,0-2.6
		C120.7,8.8,121.8,8.8,122.6,9.6"/>
	<path class="st1" d="M122.6,4.7c0.7,0.7,0.7,1.9,0,2.6c-0.7,0.7-1.9,0.7-2.6,0c-0.7-0.7-0.7-1.9,0-2.6C120.7,4,121.8,4,122.6,4.7"
		/>
	<path class="st1" d="M117.7,9.6c0.7,0.7,0.7,1.9,0,2.6c-0.7,0.7-1.9,0.7-2.6,0c-0.7-0.7-0.7-1.9,0-2.6C115.8,8.8,117,8.8,117.7,9.6
		"/>
	<path class="st1" d="M117.7,4.7c0.7,0.7,0.7,1.9,0,2.6c-0.7,0.7-1.9,0.7-2.6,0c-0.7-0.7-0.7-1.9,0-2.6C115.8,4,117,4,117.7,4.7"/>
	<path class="st1" d="M128.2,22.7c-1.2,1.2-3.1,1.2-4.2,0c-1.2-1.2-1.2-3.1,0-4.3c1.2-1.2,3.1-1.2,4.2,0
		C129.4,19.6,129.4,21.5,128.2,22.7"/>
	<path class="st1" d="M127.4,12.2c-0.7,0.7-1.9,0.7-2.6,0c-0.7-0.7-0.7-1.9,0-2.6c0.7-0.7,1.9-0.7,2.6,0
		C128.1,10.3,128.1,11.5,127.4,12.2"/>
	<path class="st1" d="M132.2,17c-0.7,0.7-1.9,0.7-2.6,0c-0.7-0.7-0.7-1.9,0-2.6c0.7-0.7,1.9-0.7,2.6,0
		C132.9,15.1,132.9,16.3,132.2,17"/>
	<path class="st1" d="M127.4,7.3c-0.7,0.7-1.9,0.7-2.6,0c-0.7-0.7-0.7-1.9,0-2.6c0.7-0.7,1.9-0.7,2.6,0
		C128.1,5.4,128.1,6.6,127.4,7.3"/>
	<path class="st1" d="M112.4,0.3c0.4,0.4,0.4,1.2,0,1.6c-0.4,0.4-1.2,0.4-1.6,0c-0.4-0.4-0.4-1.2,0-1.6
		C111.2-0.1,111.9-0.1,112.4,0.3"/>
	<path class="st1" d="M122.1,0.3c0.4,0.4,0.4,1.2,0,1.6c-0.4,0.4-1.2,0.4-1.6,0c-0.4-0.4-0.4-1.2,0-1.6
		C120.9-0.1,121.6-0.1,122.1,0.3"/>
	<path class="st1" d="M117.2,0.3c0.4,0.4,0.4,1.2,0,1.6c-0.4,0.4-1.2,0.4-1.6,0c-0.4-0.4-0.4-1.2,0-1.6
		C116.1-0.1,116.8-0.1,117.2,0.3"/>
	<path class="st1" d="M126.9,2c-0.4,0.4-1.2,0.4-1.6,0c-0.4-0.4-0.4-1.2,0-1.6c0.4-0.4,1.2-0.4,1.6,0C127.3,0.8,127.3,1.5,126.9,2"
		/>
	<path class="st1" d="M131.7,6.8c-0.4,0.4-1.2,0.4-1.6,0c-0.4-0.4-0.4-1.2,0-1.6c0.4-0.4,1.2-0.4,1.6,0
		C132.2,5.6,132.2,6.4,131.7,6.8"/>
	<path class="st1" d="M132.2,12.2c-0.7,0.7-1.9,0.7-2.6,0c-0.7-0.7-0.7-1.9,0-2.6c0.7-0.7,1.9-0.7,2.6,0
		C132.9,10.3,132.9,11.5,132.2,12.2"/>
	<path class="st1" d="M132.2,21.9c-0.7,0.7-1.9,0.7-2.6,0c-0.7-0.7-0.7-1.9,0-2.6c0.7-0.7,1.9-0.7,2.6,0
		C132.9,20,132.9,21.2,132.2,21.9"/>
	<path class="st1" d="M132.2,26.8c-0.7,0.7-1.9,0.7-2.6,0c-0.7-0.7-0.7-1.9,0-2.6c0.7-0.7,1.9-0.7,2.6,0
		C132.9,24.9,132.9,26.1,132.2,26.8"/>
	<path class="st1" d="M122.5,38.7c0.7,0.7,0.7,1.9,0,2.6c-0.7,0.7-1.9,0.7-2.6,0c-0.7-0.7-0.7-1.9,0-2.6
		C120.7,38,121.8,38,122.5,38.7"/>
	<path class="st1" d="M117.7,38.7c0.7,0.7,0.7,1.9,0,2.6c-0.7,0.7-1.9,0.7-2.6,0c-0.7-0.7-0.7-1.9,0-2.6C115.8,38,117,38,117.7,38.7
		"/>
	<path class="st1" d="M127.4,38.7c0.7,0.7,0.7,1.9,0,2.6c-0.7,0.7-1.9,0.7-2.6,0c-0.7-0.7-0.7-1.9,0-2.6
		C125.5,38,126.7,38,127.4,38.7"/>
	<path class="st1" d="M122,44.1c0.4,0.4,0.4,1.2,0,1.6c-0.4,0.4-1.2,0.4-1.6,0c-0.4-0.4-0.4-1.2,0-1.6
		C120.9,43.6,121.6,43.6,122,44.1"/>
	<path class="st1" d="M117.2,44.1c0.4,0.4,0.4,1.2,0,1.6c-0.4,0.4-1.2,0.4-1.6,0c-0.4-0.4-0.4-1.2,0-1.6
		C116,43.6,116.8,43.6,117.2,44.1"/>
	<path class="st1" d="M126.9,44.1c0.4,0.4,0.4,1.2,0,1.6c-0.4,0.4-1.2,0.4-1.6,0c-0.4-0.4-0.4-1.2,0-1.6
		C125.7,43.6,126.4,43.6,126.9,44.1"/>
	<path class="st1" d="M131.7,39.2c0.4,0.4,0.4,1.2,0,1.6c-0.4,0.4-1.2,0.4-1.6,0c-0.4-0.4-0.4-1.2,0-1.6
		C130.6,38.8,131.3,38.8,131.7,39.2"/>
	<path class="st1" d="M132.2,33.9c0.7,0.7,0.7,1.9,0,2.6c-0.7,0.7-1.9,0.7-2.6,0c-0.7-0.7-0.7-1.9,0-2.6
		C130.3,33.1,131.5,33.1,132.2,33.9"/>
	<path class="st1" d="M127.4,33.9c0.7,0.7,0.7,1.9,0,2.6c-0.7,0.7-1.9,0.7-2.6,0c-0.7-0.7-0.7-1.9,0-2.6
		C125.5,33.1,126.7,33.1,127.4,33.9"/>
	<path class="st1" d="M132.2,29c0.7,0.7,0.7,1.9,0,2.6c-0.7,0.7-1.9,0.7-2.6,0c-0.7-0.7-0.7-1.9,0-2.6
		C130.3,28.3,131.5,28.3,132.2,29"/>
	<path class="st1" d="M137.1,24.1c0.7,0.7,0.7,1.9,0,2.6c-0.7,0.7-1.9,0.7-2.6,0c-0.7-0.7-0.7-1.9,0-2.6
		C135.2,23.4,136.3,23.4,137.1,24.1"/>
	<path class="st1" d="M137.1,31.6c-0.7,0.7-1.9,0.7-2.6,0c-0.7-0.7-0.7-1.9,0-2.6c0.7-0.7,1.9-0.7,2.6,0
		C137.8,29.7,137.8,30.9,137.1,31.6"/>
	<path class="st1" d="M136.6,36c-0.4,0.4-1.2,0.4-1.6,0c-0.4-0.4-0.4-1.2,0-1.6c0.4-0.4,1.2-0.4,1.6,0C137,34.8,137,35.5,136.6,36"
		/>
	<path class="st1" d="M137.1,21.9c-0.7,0.7-1.9,0.7-2.6,0c-0.7-0.7-0.7-1.9,0-2.6c0.7-0.7,1.9-0.7,2.6,0
		C137.8,20,137.8,21.2,137.1,21.9"/>
	<path class="st1" d="M137.1,17.1c-0.7,0.7-1.9,0.7-2.6,0c-0.7-0.7-0.7-1.9,0-2.6c0.7-0.7,1.9-0.7,2.6,0
		C137.8,15.1,137.8,16.3,137.1,17.1"/>
	<path class="st1" d="M141.4,24.6c0.4,0.4,0.4,1.2,0,1.6c-0.4,0.4-1.2,0.4-1.6,0c-0.4-0.4-0.4-1.2,0-1.6
		C140.2,24.2,140.9,24.2,141.4,24.6"/>
	<path class="st1" d="M141.4,31.1c-0.4,0.4-1.2,0.4-1.6,0c-0.4-0.4-0.4-1.2,0-1.6c0.4-0.4,1.2-0.4,1.6,0
		C141.8,29.9,141.8,30.7,141.4,31.1"/>
	<path class="st1" d="M141.4,21.4c-0.4,0.4-1.2,0.4-1.6,0c-0.4-0.4-0.4-1.2,0-1.6c0.4-0.4,1.2-0.4,1.6,0
		C141.8,20.2,141.8,20.9,141.4,21.4"/>
	<path class="st1" d="M141.4,16.6c-0.4,0.4-1.2,0.4-1.6,0c-0.4-0.4-0.4-1.2,0-1.6c0.4-0.4,1.2-0.4,1.6,0
		C141.8,15.4,141.8,16.1,141.4,16.6"/>
	<path class="st1" d="M136.6,11.7c-0.4,0.4-1.2,0.4-1.6,0c-0.4-0.4-0.4-1.2,0-1.6c0.4-0.4,1.2-0.4,1.6,0
		C137,10.5,137,11.2,136.6,11.7"/>
</g>
</svg>
