<?xml version="1.0" encoding="utf-8"?>
<!-- Generator: Adobe Illustrator 25.0.1, SVG Export Plug-In . SVG Version: 6.00 Build 0)  -->
<svg version="1.1" id="Layer_1" xmlns="http://www.w3.org/2000/svg" xmlns:xlink="http://www.w3.org/1999/xlink" x="0px" y="0px"
	 viewBox="0 0 141.7 59.7" style="enable-background:new 0 0 141.7 59.7;" xml:space="preserve">
<style type="text/css">
	.st0{fill:#231F20;}
	.st1{fill:#39B54A;}
</style>
<g>
	<path class="st0" d="M15.2,41.1c0-2.8-2-4.7-4.6-4.7S6,38.2,6,41.1c0,2.8,2,4.7,4.6,4.7S15.2,43.9,15.2,41.1 M0,41.1
		c0-6,4.7-10.6,10.6-10.6s10.6,4.6,10.6,10.6s-4.7,10.6-10.6,10.6S0,47.1,0,41.1"/>
	<path class="st0" d="M35.4,30.6v6.8c-2.5-0.4-6,0.6-6,4.6v9.1h-6V31h6v3.6C30.2,31.9,32.8,30.6,35.4,30.6"/>
	<path class="st0" d="M51.6,40.7c0-2.8-2-4.7-4.9-4.7s-4.9,1.9-4.9,4.7c0,2.8,2,4.7,4.9,4.7S51.6,43.4,51.6,40.7 M57.5,31v19.1
		c0,6.7-5.3,9.6-10.6,9.6c-4.2,0-7.7-1.6-9.5-4.9l5.1-3c0.8,1.4,1.9,2.5,4.6,2.5c2.8,0,4.5-1.4,4.5-4.3v-1.8
		c-1.3,1.6-3.2,2.6-5.9,2.6c-5.7,0-9.9-4.7-9.9-10.2c0-5.5,4.2-10.2,9.9-10.2c2.6,0,4.5,1,5.9,2.6v-2H57.5z"/>
	<path class="st1" d="M78.9,45.9c-2.6,0-4.8-2.1-4.8-4.8c0-2.6,2.1-4.8,4.8-4.8c2.6,0,4.8,2.1,4.8,4.8
		C83.7,43.7,81.6,45.9,78.9,45.9 M83.3,31.1v1.3c-1.2-1.1-2.8-1.9-4.8-1.9c-5.7,0-9.9,4.7-9.9,10.6c0,5.8,4.3,10.6,9.9,10.6
		c2,0,3.5-0.7,4.8-1.9v1.3h6v-20H83.3z"/>
	<path class="st1" d="M110.5,31.1v20h-6v-1.3c-1.1,1.3-2.8,1.9-5.7,1.9c-4,0-7.5-2.9-7.5-8.3V31.1h6v11.2c0,2.5,1.6,3.6,3.5,3.6
		c2.2,0,3.7-1.3,3.7-4.1V31.1H110.5z"/>
	<path class="st1" d="M63.6,51.7c-2.6,0-4.8-2.1-4.8-4.8c0-2.6,2.1-4.8,4.8-4.8c2.6,0,4.8,2.1,4.8,4.8
		C68.3,49.5,66.2,51.7,63.6,51.7"/>
	<path class="st1" d="M118,31.3c1.1,1.1,1.1,3,0,4.1c-1.1,1.1-3,1.1-4.1,0c-1.1-1.1-1.1-3,0-4.1C115.1,30.2,116.9,30.2,118,31.3"/>
	<path class="st1" d="M118,38.9c1.1,1.1,1.1,3,0,4.1c-1.1,1.1-3,1.1-4.1,0c-1.1-1.1-1.1-3,0-4.1C115.1,37.8,116.9,37.8,118,38.9"/>
	<path class="st1" d="M102.8,16.1c1.1,1.1,1.1,3,0,4.1c-1.1,1.1-3,1.1-4.1,0c-1.1-1.1-1.1-3,0-4.1C99.9,14.9,101.7,14.9,102.8,16.1"
		/>
	<path class="st1" d="M110.4,8.5c1.1,1.1,1.1,3,0,4.1c-1.1,1.1-3,1.1-4.1,0c-1.1-1.1-1.1-3,0-4.1C107.5,7.3,109.3,7.3,110.4,8.5"/>
	<path class="st1" d="M118,0.9c1.1,1.1,1.1,3,0,4.1c-1.1,1.1-3,1.1-4.1,0c-1.1-1.1-1.1-3,0-4.1C115.1-0.3,116.9-0.3,118,0.9"/>
	<path class="st1" d="M102.8,23.7c1.1,1.1,1.1,3,0,4.1c-1.1,1.1-3,1.1-4.1,0c-1.1-1.1-1.1-3,0-4.1C99.8,22.5,101.7,22.5,102.8,23.7"
		/>
	<path class="st1" d="M110.4,16.1c1.1,1.1,1.1,3,0,4.1c-1.1,1.1-3,1.1-4.1,0c-1.1-1.1-1.1-3,0-4.1C107.5,14.9,109.3,14.9,110.4,16.1
		"/>
	<path class="st1" d="M118,8.5c1.1,1.1,1.1,3,0,4.1c-1.1,1.1-3,1.1-4.1,0c-1.1-1.1-1.1-3,0-4.1C115.1,7.3,116.9,7.3,118,8.5"/>
	<path class="st1" d="M118,23.7c1.1,1.1,1.1,3,0,4.1c-1.1,1.1-3,1.1-4.1,0c-1.1-1.1-1.1-3,0-4.1C115.1,22.5,116.9,22.5,118,23.7"/>
	<path class="st1" d="M110.4,23.7c1.1,1.1,1.1,3,0,4.1c-1.1,1.1-3,1.1-4.1,0c-1.1-1.1-1.1-3,0-4.1C107.5,22.5,109.3,22.5,110.4,23.7
		"/>
	<path class="st1" d="M118,16.1c1.1,1.1,1.1,3,0,4.1c-1.1,1.1-3,1.1-4.1,0c-1.1-1.1-1.1-3,0-4.1C115.1,14.9,116.9,14.9,118,16.1"/>
	<path class="st1" d="M125.7,38.9c1.1,1.1,1.1,3,0,4.1c-1.1,1.1-3,1.1-4.1,0c-1.1-1.1-1.1-3,0-4.1C122.7,37.8,124.5,37.8,125.7,38.9
		"/>
	<path class="st1" d="M133.3,31.3c1.1,1.1,1.1,3,0,4.1c-1.1,1.1-3,1.1-4.1,0c-1.1-1.1-1.1-3,0-4.1C130.3,30.2,132.1,30.2,133.3,31.3
		"/>
	<path class="st1" d="M125.7,31.3c1.1,1.1,1.1,3,0,4.1c-1.1,1.1-3,1.1-4.1,0c-1.1-1.1-1.1-3,0-4.1C122.7,30.2,124.5,30.2,125.7,31.3
		"/>
	<path class="st1" d="M125.7,23.7c1.1,1.1,1.1,3,0,4.1c-1.1,1.1-3,1.1-4.1,0c-1.1-1.1-1.1-3,0-4.1C122.7,22.5,124.5,22.5,125.7,23.7
		"/>
	<path class="st1" d="M133.3,16.1c1.1,1.1,1.1,3,0,4.1c-1.1,1.1-3,1.1-4.1,0c-1.1-1.1-1.1-3,0-4.1C130.3,14.9,132.1,14.9,133.3,16.1
		"/>
	<path class="st1" d="M133.3,23.7c1.1,1.1,1.1,3,0,4.1c-1.1,1.1-3,1.1-4.1,0c-1.1-1.1-1.1-3,0-4.1C130.3,22.5,132.1,22.5,133.3,23.7
		"/>
	<path class="st1" d="M140.9,16.1c1.1,1.1,1.1,3,0,4.1c-1.1,1.1-3,1.1-4.1,0c-1.1-1.1-1.1-3,0-4.1C137.9,14.9,139.7,14.9,140.9,16.1
		"/>
	<path class="st1" d="M125.7,16.1c1.1,1.1,1.1,3,0,4.1c-1.1,1.1-3,1.1-4.1,0c-1.1-1.1-1.1-3,0-4.1C122.7,14.9,124.5,14.9,125.7,16.1
		"/>
	<path class="st1" d="M133.3,8.5c1.1,1.1,1.1,3,0,4.1c-1.1,1.1-3,1.1-4.1,0c-1.1-1.1-1.1-3,0-4.1C130.3,7.3,132.1,7.3,133.3,8.5"/>
	<path class="st1" d="M125.7,8.5c1.1,1.1,1.1,3,0,4.1c-1.1,1.1-3,1.1-4.1,0c-1.1-1.1-1.1-3,0-4.1C122.7,7.3,124.5,7.3,125.7,8.5"/>
	<path class="st1" d="M125.7,0.9c1.1,1.1,1.1,3,0,4.1c-1.1,1.1-3,1.1-4.1,0c-1.1-1.1-1.1-3,0-4.1C122.7-0.3,124.5-0.3,125.7,0.9"/>
	<path class="st1" d="M140.9,23.7c1.1,1.1,1.1,3,0,4.1c-1.1,1.1-3,1.1-4.1,0c-1.1-1.1-1.1-3,0-4.1C137.9,22.5,139.7,22.5,140.9,23.7
		"/>
</g>
</svg>
