<svg id="Layer_1" data-name="Layer 1" xmlns="http://www.w3.org/2000/svg" xmlns:xlink="http://www.w3.org/1999/xlink" viewBox="0 0 461 461"><defs><style>.cls-1{fill:url(#linear-gradient);}.cls-2{fill:url(#linear-gradient-2);}.cls-3{fill:url(#linear-gradient-3);}.cls-4{fill:url(#linear-gradient-4);}.cls-5{fill:url(#linear-gradient-5);}.cls-6{fill:url(#linear-gradient-6);}.cls-7{fill:url(#linear-gradient-7);}.cls-8{fill:url(#linear-gradient-8);}.cls-9{fill:url(#linear-gradient-9);}.cls-10{fill:url(#linear-gradient-10);}.cls-11{fill:url(#linear-gradient-11);}.cls-12{fill:url(#linear-gradient-12);}.cls-13{fill:url(#linear-gradient-13);}.cls-14{fill:url(#linear-gradient-14);}.cls-15{fill:url(#linear-gradient-15);}.cls-16,.cls-17,.cls-19,.cls-20,.cls-40{opacity:0.3;}.cls-16{fill:url(#linear-gradient-16);}.cls-17{fill:url(#linear-gradient-17);}.cls-18{opacity:0.7;fill:url(#linear-gradient-18);}.cls-19{fill:url(#linear-gradient-19);}.cls-20{fill:url(#linear-gradient-20);}.cls-21{fill:url(#linear-gradient-21);}.cls-22{fill:url(#linear-gradient-22);}.cls-23{fill-rule:evenodd;fill:url(#linear-gradient-23);}.cls-24{fill:#4d4c4d;}.cls-25{fill:url(#linear-gradient-24);}.cls-26{fill:url(#linear-gradient-25);}.cls-27{fill:url(#linear-gradient-26);}.cls-28{fill:url(#linear-gradient-27);}.cls-29{fill:url(#linear-gradient-28);}.cls-30{fill:url(#linear-gradient-29);}.cls-31{fill:url(#linear-gradient-30);}.cls-32{fill:url(#linear-gradient-31);}.cls-33{fill:url(#linear-gradient-32);}.cls-34{fill:url(#linear-gradient-33);}.cls-35{fill:url(#linear-gradient-34);}.cls-36{fill:url(#linear-gradient-35);}.cls-37{fill:url(#linear-gradient-36);}.cls-38{fill:url(#linear-gradient-37);}.cls-39{fill:#f2f9fd;opacity:0.5;}.cls-40{fill:url(#linear-gradient-38);}.cls-41{fill:url(#linear-gradient-39);}.cls-42{fill:#0a9fda;}.cls-43{fill:#1a283d;opacity:0.1;}</style><linearGradient id="linear-gradient" x1="-33.54" y1="-35.3" x2="32.31" y2="-101.14" gradientTransform="translate(111.95 347.99) rotate(45)" gradientUnits="userSpaceOnUse"><stop offset="0" stop-color="#737373"/><stop offset="1" stop-color="#4d4c4d"/></linearGradient><linearGradient id="linear-gradient-2" x1="-28.15" y1="-125.33" x2="26.28" y2="-70.9" gradientTransform="translate(179.91 376.77)" gradientUnits="userSpaceOnUse"><stop offset="0" stop-color="#d5d5d5"/><stop offset="1" stop-color="#8d8d8d"/></linearGradient><linearGradient id="linear-gradient-3" x1="-59.12" y1="-204.86" x2="51.49" y2="-94.24" gradientTransform="translate(111.95 347.99) rotate(45)" gradientUnits="userSpaceOnUse"><stop offset="0" stop-color="#c91e84"/><stop offset="1" stop-color="#42093d"/></linearGradient><linearGradient id="linear-gradient-4" x1="-87.19" y1="-348.34" x2="79.93" y2="-231.03" gradientTransform="translate(111.95 347.99) rotate(45)" gradientUnits="userSpaceOnUse"><stop offset="0" stop-color="#f2f9fd"/><stop offset="1" stop-color="#d2edf3"/></linearGradient><linearGradient id="linear-gradient-5" x1="-145.35" y1="-117.54" x2="-77.44" y2="-81.31" gradientTransform="translate(111.95 347.99) rotate(45)" gradientUnits="userSpaceOnUse"><stop offset="0" stop-color="#d2edf3"/><stop offset="1" stop-color="#c4e7ee"/></linearGradient><linearGradient id="linear-gradient-6" x1="-146.23" y1="-13.61" x2="-114.41" y2="18.22" xlink:href="#linear-gradient-3"/><linearGradient id="linear-gradient-7" x1="-130.32" y1="-29.52" x2="-98.49" y2="2.31" xlink:href="#linear-gradient-3"/><linearGradient id="linear-gradient-8" x1="-37.73" y1="-226.26" x2="72.89" y2="-115.64" xlink:href="#linear-gradient-3"/><linearGradient id="linear-gradient-9" x1="-48.24" y1="-463.55" x2="39.62" y2="-375.69" xlink:href="#linear-gradient-3"/><linearGradient id="linear-gradient-10" x1="-39.61" y1="-441.92" x2="31.3" y2="-371.01" gradientTransform="translate(111.95 347.99) rotate(45)" xlink:href="#linear-gradient-2"/><linearGradient id="linear-gradient-11" x1="-100.52" y1="-334.7" x2="-87.09" y2="-321.27" xlink:href="#linear-gradient-3"/><linearGradient id="linear-gradient-12" x1="83.19" y1="-338.43" x2="103.73" y2="-317.9" xlink:href="#linear-gradient-3"/><linearGradient id="linear-gradient-13" x1="70.65" y1="-216.33" x2="124.68" y2="-27.39" xlink:href="#linear-gradient-5"/><linearGradient id="linear-gradient-14" x1="103.05" y1="-18.79" x2="140.43" y2="18.59" xlink:href="#linear-gradient-3"/><linearGradient id="linear-gradient-15" x1="114.66" y1="-30.41" x2="152.04" y2="6.97" xlink:href="#linear-gradient-3"/><linearGradient id="linear-gradient-16" x1="-96.82" y1="-344.16" x2="-96.82" y2="-319.56" gradientTransform="translate(111.95 347.99) rotate(45)" gradientUnits="userSpaceOnUse"><stop offset="0" stop-color="#fff"/><stop offset="1" stop-color="#fff" stop-opacity="0"/></linearGradient><linearGradient id="linear-gradient-17" x1="-104.62" y1="-213.67" x2="-104.62" y2="23.02" xlink:href="#linear-gradient-16"/><linearGradient id="linear-gradient-18" x1="-60.94" y1="-398.24" x2="-60.94" y2="-115.38" xlink:href="#linear-gradient-16"/><linearGradient id="linear-gradient-19" x1="-34.18" y1="-491.73" x2="-34.18" y2="-409.92" xlink:href="#linear-gradient-16"/><linearGradient id="linear-gradient-20" x1="-36.96" y1="-404.97" x2="-36.96" y2="-401.47" xlink:href="#linear-gradient-16"/><linearGradient id="linear-gradient-21" x1="-12.63" y1="-131.1" x2="-4.9" y2="-131.1" xlink:href="#linear-gradient-4"/><linearGradient id="linear-gradient-22" x1="-9.43" y1="-137.18" x2="1.05" y2="-137.18" xlink:href="#linear-gradient-4"/><linearGradient id="linear-gradient-23" x1="-14.46" y1="-137.03" x2="15.94" y2="-137.03" xlink:href="#linear-gradient-4"/><linearGradient id="linear-gradient-24" x1="-33.42" y1="-365.38" x2="29.56" y2="-302.4" gradientTransform="translate(111.95 347.99) rotate(45)" xlink:href="#linear-gradient-2"/><linearGradient id="linear-gradient-25" x1="26.17" y1="-305.8" x2="-43.19" y2="-375.16" gradientTransform="translate(111.95 347.99) rotate(45)" gradientUnits="userSpaceOnUse"><stop offset="0" stop-color="#0a3757"/><stop offset="1" stop-color="#0e0e1e"/></linearGradient><linearGradient id="linear-gradient-26" x1="18.98" y1="-364.65" x2="21.15" y2="-364.65" gradientTransform="translate(111.95 347.99) rotate(45)" gradientUnits="userSpaceOnUse"><stop offset="0" stop-color="#f2f9fd"/><stop offset="1" stop-color="#faf3f8"/></linearGradient><linearGradient id="linear-gradient-27" x1="33.11" y1="-350.52" x2="35.28" y2="-350.52" xlink:href="#linear-gradient-26"/><linearGradient id="linear-gradient-28" x1="38.28" y1="-331.22" x2="40.46" y2="-331.22" xlink:href="#linear-gradient-26"/><linearGradient id="linear-gradient-29" x1="33.11" y1="-311.91" x2="35.28" y2="-311.91" xlink:href="#linear-gradient-26"/><linearGradient id="linear-gradient-30" x1="18.98" y1="-297.78" x2="21.15" y2="-297.78" xlink:href="#linear-gradient-26"/><linearGradient id="linear-gradient-31" x1="-0.32" y1="-292.61" x2="1.85" y2="-292.61" xlink:href="#linear-gradient-26"/><linearGradient id="linear-gradient-32" x1="-19.63" y1="-297.78" x2="-17.46" y2="-297.78" xlink:href="#linear-gradient-26"/><linearGradient id="linear-gradient-33" x1="-33.76" y1="-311.91" x2="-31.59" y2="-311.91" xlink:href="#linear-gradient-26"/><linearGradient id="linear-gradient-34" x1="-38.93" y1="-331.22" x2="-36.76" y2="-331.22" xlink:href="#linear-gradient-26"/><linearGradient id="linear-gradient-35" x1="-33.76" y1="-350.52" x2="-31.59" y2="-350.52" xlink:href="#linear-gradient-26"/><linearGradient id="linear-gradient-36" x1="-19.63" y1="-364.65" x2="-17.46" y2="-364.65" xlink:href="#linear-gradient-26"/><linearGradient id="linear-gradient-37" x1="-23.24" y1="-355.21" x2="42.85" y2="-289.12" gradientTransform="translate(111.95 347.99) rotate(45)" gradientUnits="userSpaceOnUse"><stop offset="0" stop-color="#3fc6f1"/><stop offset="1" stop-color="#3f499e"/></linearGradient><linearGradient id="linear-gradient-38" x1="-29.71" y1="-361.67" x2="-4.04" y2="-336" xlink:href="#linear-gradient-16"/><linearGradient id="linear-gradient-39" x1="-0.32" y1="-369.83" x2="1.85" y2="-369.83" xlink:href="#linear-gradient-26"/></defs><path class="cls-1" d="M144.81,256.85l-28.18,46.31a2,2,0,0,0,.29,2.46l38.46,38.47a2,2,0,0,0,2.46.29l46.32-28.19a6,6,0,0,0,1.12-9.38L154.2,255.72A6,6,0,0,0,144.81,256.85Z"/><rect class="cls-2" x="124.28" y="277.04" width="112.76" height="6.61" rx="3.21" transform="translate(251.15 -45.64) rotate(45)"/><path class="cls-3" d="M284.85,274.34c-35.2,23.55-64,41.52-64,41.52l-75.7-75.7s3.51-5.64,9.48-15l0-.07c7.53-11.75,18.91-29.36,32-48.94Z"/><path class="cls-4" d="M388.35,198.1c-25.34,22.5-67.74,52.27-103.5,76.24l-98.17-98.17c4.75-7.09,9.72-14.44,14.83-21.87,3.34-4.87,6.75-9.79,10.18-14.68l.19-.27c17.66-25.12,36-49.72,51-66.69,4.57-5.16,9.07-9.84,13.44-14.09,4.08-4,8-7.55,11.92-10.8,1.86-1.57,3.71-3.06,5.51-4.47a176.75,176.75,0,0,1,17-11.81,125.09,125.09,0,0,1,25-12h0a52.52,52.52,0,0,1,8.57-2.28l99.42,99.43s-1.87,13.32-14.27,33.64a176.66,176.66,0,0,1-11.81,16.93c-1.42,1.81-2.91,3.66-4.47,5.53-3.25,3.86-6.83,7.84-10.8,11.92Q396.08,191.23,388.35,198.1Z"/><path class="cls-5" d="M154.63,225.18l-37.58-2.5a30,30,0,0,0-16.25,3.53l-49,26.41L44,256.79l-7.91,4.26L13.35,273.3a30.08,30.08,0,0,1-6.18,2.5L2.78,277a2,2,0,0,1-2-3.29l23-25,5.82-6.35,5.7-6.2,12.38-13.47v0l46-50a60.1,60.1,0,0,1,34-18.56l68.79-12h0l15.46-2.69-.18.27c-23.09,32.89-45,66.67-57,85.47Z"/><path class="cls-6" d="M23.76,248.7l12.35,12.35L13.35,273.3a29.94,29.94,0,0,1-6.19,2.5L2.78,277a2,2,0,0,1-2-3.29Z"/><polygon class="cls-7" points="51.75 252.62 44.02 256.79 29.58 242.35 35.28 236.15 51.75 252.62"/><path class="cls-8" d="M299.05,264.75l-6.95,4.71-.38-.14L191.46,169.05l1.23-1.81,3.08-4.54.5-.74Z"/><path class="cls-9" d="M447.05,110.55,350.46,14l5.11-.65h0L453.06.94s0,0,0,0l5.47-.69a2,2,0,0,1,2.22,2.21Z"/><path class="cls-10" d="M449.77,117.94a3.31,3.31,0,0,1-4.68,0l-102-102a3.31,3.31,0,1,1,4.67-4.68l102,102A3.3,3.3,0,0,1,449.77,117.94Z"/><path class="cls-11" d="M293.78,43.3q-2.7,2.12-5.51,4.47c-3.86,3.25-7.84,6.83-11.92,10.8l-5.81-3.45h0l-8.26-4.9A2,2,0,0,1,262,47a1.88,1.88,0,0,1,1.11-.48l26.78-2.79h0Z"/><path class="cls-12" d="M410.78,198.74l-8.33-14.08c4-4.08,7.54-8,10.79-11.92q2.34-2.82,4.47-5.53l-3.21,30.72A2,2,0,0,1,410.78,198.74Z"/><path class="cls-13" d="M288.38,367.35l-63.54,58.36-6.19,5.7-6.35,5.82-25,23a2,2,0,0,1-3.29-2l1.22-4.38a30.39,30.39,0,0,1,2.49-6.18L200,424.89l4.26-7.91,4.16-7.74,26.42-49.05a30,30,0,0,0,3.52-16.25l-2.5-37.58.07,0c18.81-12,52.59-33.94,85.49-57l.26-.18L307,333.39A60.08,60.08,0,0,1,288.38,367.35Z"/><path class="cls-14" d="M212.3,437.23l-25,23a2,2,0,0,1-3.29-2l1.22-4.38a30.39,30.39,0,0,1,2.49-6.18L200,424.89Z"/><polygon class="cls-15" points="224.84 425.71 218.65 431.41 204.21 416.98 208.37 409.24 224.84 425.71"/><path class="cls-16" d="M293.78,43.3,270.54,55.12h0l-8.26-4.9A2,2,0,0,1,262,47a1.88,1.88,0,0,1,1.11-.48l26.78-2.79h0Z"/><path class="cls-17" d="M197.2,160.6l-.66.08h0l-69.3,8.63A60,60,0,0,0,92.4,186.18L44,233.93v0L31,246.81l-6,5.91-6.13,6.06-18,17.77a2,2,0,0,1-.1-2.82l23-25,5.82-6.35,5.7-6.2,12.38-13.47v0l46-50a60.1,60.1,0,0,1,34-18.56l68.79-12h0l15.46-2.7-.18.27C206.78,146.63,201.93,153.67,197.2,160.6Z"/><path class="cls-18" d="M168.28,238.83l.05-.07c7.52-11.74,18.9-29.36,32-48.93,4.74-7.11,9.71-14.45,14.81-21.88,3.36-4.87,6.76-9.79,10.19-14.68l.19-.27c17.66-25.12,36-49.72,51-66.68q6.85-7.74,13.43-14.1c4.08-4,8.05-7.55,11.92-10.8,1.86-1.57,3.71-3.06,5.51-4.47a178,178,0,0,1,16.95-11.81,125.35,125.35,0,0,1,25.05-12h0A53.83,53.83,0,0,1,358,30.86L344.37,17.22a51.63,51.63,0,0,0-8.57,2.27h0a125.09,125.09,0,0,0-25,12,176.75,176.75,0,0,0-17,11.81q-2.7,2.12-5.51,4.47c-3.86,3.25-7.84,6.83-11.92,10.8-4.37,4.25-8.87,8.93-13.44,14.09-15.05,17-33.37,41.57-51,66.69l-.2.27c-3.43,4.89-6.84,9.81-10.18,14.68-5.11,7.43-10.08,14.78-14.83,21.87-13.11,19.57-24.49,37.19-32,48.94l0,.07c-6,9.34-9.48,15-9.48,15l13.65,13.65S162.32,248.17,168.28,238.83Z"/><polygon class="cls-19" points="458.55 0.24 371.46 34.95 350.46 13.96 458.55 0.24"/><path class="cls-20" d="M398.76,62.26l-55.69-51a3.3,3.3,0,0,1,4.67,0Z"/><path class="cls-21" d="M206.48,246.49a26.77,26.77,0,0,0,2.74-3.52,56.85,56.85,0,0,0-3-5.62q-3.21,13.78-20.32,18.79a38.19,38.19,0,0,0,10.23-2.6A28.75,28.75,0,0,0,206.48,246.49Z"/><path class="cls-22" d="M213.58,247.61a28.31,28.31,0,0,0,5.15-5.41,70.57,70.57,0,0,0-4.59-9.56c-3.37,16.08-15.44,21.58-23.64,23.46a55.74,55.74,0,0,0,9.5-1.76A37.44,37.44,0,0,0,213.58,247.61Z"/><path class="cls-23" d="M182.42,257.07s33.65,2.43,41.29-23.5c0,0,5.1,11.36,5.27,19.94,0,0-16.08,14.55-46.56,3.56"/><path class="cls-24" d="M161.19,275.14c-.7,1.91-1.54,3.7-2.38,5.5-1.22,1.5-2.39,3-3.59,4.56l-7.16,9.14-7.15,9.13L137.33,308c-1.55,1.25-3.09,2.5-4.76,3.65.72-1.9,1.57-3.69,2.4-5.5l3.58-4.57,7.15-9.13,7.16-9.14c1.18-1.53,2.39-3,3.56-4.58C158,277.52,159.51,276.27,161.19,275.14Z"/><path class="cls-24" d="M140.93,320.05c.92-1.8,2-3.47,3-5.15,1.38-1.33,2.73-2.71,4.09-4.06l8.15-8.15,8.14-8.14,4.07-4.08c1.68-1,3.36-2.08,5.14-3-.93,1.79-2,3.46-3,5.14l-4.08,4.07-8.14,8.15L150.14,313c-1.35,1.36-2.73,2.71-4.06,4.09C144.4,318.09,142.73,319.13,140.93,320.05Z"/><path class="cls-24" d="M124.21,303.33c.49-2,1.14-3.93,1.79-5.86,1-1.67,2.06-3.37,3.09-5.05l6.17-10.13,6.16-10.13,3.08-5.06c1.42-1.46,2.83-2.91,4.37-4.29-.52,2-1.16,3.92-1.8,5.85L144,273.72l-6.17,10.13L131.66,294c-1,1.69-2.07,3.37-3.07,5.07C127.18,300.51,125.77,302,124.21,303.33Z"/><path class="cls-24" d="M185.85,299.79c-1.14,1.69-2.39,3.23-3.63,4.78-1.54,1.16-3.05,2.37-4.58,3.56l-9.14,7.16-9.14,7.15L154.79,326c-1.8.83-3.6,1.68-5.49,2.4,1.15-1.67,2.4-3.21,3.65-4.76l4.56-3.58,9.14-7.16,9.14-7.15c1.52-1.2,3.05-2.37,4.56-3.59C182.15,301.34,183.94,300.5,185.85,299.79Z"/><path class="cls-24" d="M157.66,336.78c1.36-1.56,2.82-3,4.28-4.38,1.7-1,3.38-2,5.07-3.07l10.13-6.16L187.27,317l5.06-3.08c1.93-.64,3.85-1.29,5.85-1.8-1.38,1.54-2.84,2.95-4.29,4.36l-5.06,3.09-10.13,6.16-10.13,6.16c-1.68,1-3.38,2.05-5.06,3.1C161.59,335.63,159.67,336.28,157.66,336.78Z"/><path class="cls-25" d="M388.39,118.37A41.89,41.89,0,1,0,376.32,144,41.82,41.82,0,0,0,388.39,118.37Zm-66.25,21.31a5.33,5.33,0,0,1-.42-.4,35.3,35.3,0,0,1,49.91-49.94l0,0a35.75,35.75,0,0,1,4.87,6.09c.42.67.82,1.33,1.18,2a35.32,35.32,0,0,1-3,38.31,34.64,34.64,0,0,1-3.07,3.5A35.26,35.26,0,0,1,322.14,139.68Z"/><path class="cls-26" d="M371.64,139.3a35.3,35.3,0,1,1,0-49.94A35.29,35.29,0,0,1,371.64,139.3Z"/><circle class="cls-27" cx="383.98" cy="104.33" r="1.09"/><circle class="cls-28" cx="383.98" cy="124.32" r="1.09"/><circle class="cls-29" cx="373.99" cy="141.63" r="1.09"/><circle class="cls-30" cx="356.68" cy="151.62" r="1.09"/><circle class="cls-31" cx="336.7" cy="151.62" r="1.09"/><circle class="cls-32" cx="319.39" cy="141.63" r="1.09"/><circle class="cls-33" cx="309.4" cy="124.32" r="1.09"/><circle class="cls-34" cx="309.4" cy="104.33" r="1.09"/><circle class="cls-35" cx="319.39" cy="87.02" r="1.09"/><circle class="cls-36" cx="336.7" cy="77.03" r="1.09"/><circle class="cls-37" cx="356.68" cy="77.03" r="1.09"/><path class="cls-38" d="M369.8,137a32.35,32.35,0,0,1-46.23,0c-.68-.7-1.35-1.43-2-2.21s-1.23-1.57-1.78-2.39a31.26,31.26,0,0,1-2.67-4.83,32.81,32.81,0,0,1-.2-25.95l0,0a31.22,31.22,0,0,1,4.62-7.65,32.38,32.38,0,0,1,50.19,0,31.84,31.84,0,0,1,6,11.4,32.76,32.76,0,0,1,.91,13.85,32,32,0,0,1-2.43,8.39,31.58,31.58,0,0,1-2.66,4.83c-.56.83-1.16,1.62-1.79,2.39S370.49,136.26,369.8,137Z"/><path class="cls-39" d="M377.74,105.29A42.89,42.89,0,0,0,372,97.38a29.43,29.43,0,0,0-3.4-3.21,22.36,22.36,0,0,0-1.77-1.45c-.63-.43-1.25-.85-1.86-1.3a33.75,33.75,0,0,0-8-3.86,34.85,34.85,0,0,0-4.23-1.16,35.55,35.55,0,0,0-4.35-.5,34.07,34.07,0,0,0-17.12,3.44A41,41,0,0,0,317,101.55a30.91,30.91,0,0,1,4.62-7.65,32.36,32.36,0,0,1,50.18,0A31.47,31.47,0,0,1,377.74,105.29Z"/><path class="cls-39" d="M376.22,127.53H317.14a32.33,32.33,0,0,1-2.42-8.39h63.93A32,32,0,0,1,376.22,127.53Z"/><path class="cls-39" d="M369.8,137H323.57c-.68-.7-1.35-1.43-2-2.21s-1.23-1.57-1.78-2.39h53.75c-.56.83-1.16,1.62-1.79,2.39S370.49,136.26,369.8,137Z"/><path class="cls-40" d="M388.4,118.37a42,42,0,0,0-12.08-33.7A41.92,41.92,0,0,0,306,124.51q.19.78.42,1.56a41.07,41.07,0,1,1,80.46.09A41.54,41.54,0,0,0,388.4,118.37Z"/><circle class="cls-41" cx="373.99" cy="87.02" r="1.09"/><path class="cls-42" d="M302.69,199.05a28.8,28.8,0,0,1-41.56-.89,28.82,28.82,0,1,1,50-18.34A28.12,28.12,0,0,1,302.69,199.05Zm-1.16-1.37a27.07,27.07,0,1,0-19.1,8A26.33,26.33,0,0,0,301.53,197.68Z"/><path class="cls-42" d="M306.3,177.58a3.7,3.7,0,0,0-2.3-1.25,4.22,4.22,0,0,0-3.42.95,6.59,6.59,0,0,0-2,3.54c-.41,1.5-.79,3-1.3,4.48a10.2,10.2,0,0,1-1.95,3.25,17.21,17.21,0,0,1-5.36,4c-2.29,1.25-4.62,2.42-6.93,3.63-.83.42-1.64.86-2.53,1.23L292.61,173c.68.57,1.35,1.11,2,1.68a1.12,1.12,0,0,0,1.47.06,1,1,0,0,0-.13-1.43c-.87-.79-1.78-1.55-2.67-2.33a2.83,2.83,0,0,1-.25-.24c-1.06-1.06-2.14-2.09-3.17-3.18-.87-.92-1.69-1.89-2.5-2.86-.53-.63-.94-.8-1.49-.53a.91.91,0,0,0-.29,1.48c.54.63,1.06,1.27,1.61,1.92l-3,6.45c-.48,1-.95,2.08-1.45,3.11a1.09,1.09,0,0,1-.43.47l-14.43,7.23a1.71,1.71,0,0,1-.24.05l12.24-24.63c.49.43.93.84,1.4,1.22a6.13,6.13,0,0,0,1.08.75,1,1,0,0,0,1.11-.4,1,1,0,0,0-.15-1.14l-2.74-2.39c-.33-.29-.64-.62-.95-.94l-2.22-2.21a24,24,0,0,1,12.62.75,23.94,23.94,0,0,1,16.26,21.71Z"/><path class="cls-42" d="M281.21,180.41c-3.09,6.65-6.16,13.24-9.26,19.92-.62-.34-1.26-.66-1.87-1a25.2,25.2,0,0,1-4.29-3.27,26.33,26.33,0,0,1-4.34-5.47c-.18-.31-.2-.5.19-.68,3-1.47,6.05-3,9.09-4.44l7.57-3.68,2.43-1.2C280.86,180.51,281,180.48,281.21,180.41Z"/><path class="cls-42" d="M259.65,186.66a23.86,23.86,0,0,1,1.61-19.53,23.15,23.15,0,0,1,12.52-10.85Z"/><path class="cls-42" d="M305.32,185.41a22.42,22.42,0,0,1-6.93,11.12c-6.44,5.61-13.88,7.28-22.14,5.41l0-.14,3-1.47,7.34-3.58,6.33-3.05c1.84-.88,3.7-1.75,5.53-2.66a17.46,17.46,0,0,0,3.66-2.36c.7-.6,1.41-1.2,2.07-1.84A18.51,18.51,0,0,0,305.32,185.41Z"/><path class="cls-43" d="M288.41,367.28,187.3,460.16a2,2,0,0,1-3.29-2l1.23-4.39a30.17,30.17,0,0,1,2.5-6.19l47.08-87.43a30,30,0,0,0,3.53-16.26l-2.5-37.54c-9.34,6-15,9.47-15,9.47l-.32-.32a3.3,3.3,0,0,1,0,4.67,3.24,3.24,0,0,1-2.34,1,3.29,3.29,0,0,1-2.33-1l-8.83-8.84a6,6,0,0,1-2.87,4.83l-46.31,28.17a2,2,0,0,1-2.45-.29L136.2,324.79l324-324a2,2,0,0,1,.59,1.66L447.05,110.53l2.71,2.72a3.28,3.28,0,0,1,0,4.67,3.24,3.24,0,0,1-2.32,1,3.32,3.32,0,0,1-2.35-1l-1.29-1.3s-1.87,13.31-14.27,33.63a178.48,178.48,0,0,1-11.81,16.93l-3.21,30.72a2,2,0,0,1-3.72.8l-8.34-14.07q-6.36,6.56-14.09,13.43c-16.95,15.06-41.57,33.39-66.71,51L307,333.34A60,60,0,0,1,288.41,367.28Z"/></svg>