<?xml version="1.0" encoding="utf-8"?>
<!-- Generator: Adobe Illustrator 26.0.3, SVG Export Plug-In . SVG Version: 6.00 Build 0)  -->
<svg version="1.1" xmlns="http://www.w3.org/2000/svg" xmlns:xlink="http://www.w3.org/1999/xlink" x="0px" y="0px"
	 viewBox="0 0 412 239" style="enable-background:new 0 0 412 239;" xml:space="preserve">
<style type="text/css">
	.st0{display:none;}
	.st1{display:inline;}
	.st2{fill:#FFD9F4;}
	.st3{fill:url(#SVGID_1_);}
	.st4{fill:#00844E;}
	.st5{fill:url(#SVGID_00000096754345664910597890000001043814186608047293_);}
	.st6{fill:url(#SVGID_00000110435041554080126260000007380468136983828611_);}
	.st7{fill:url(#SVGID_00000036956727970014812080000015507526032493132200_);}
	.st8{fill:url(#SVGID_00000020376024743808225980000000567101152834481588_);}
	.st9{fill:url(#SVGID_00000105418616800921125300000008641072906134885782_);}
	.st10{fill:url(#SVGID_00000158724022451064606160000011939975100513469313_);}
	.st11{fill:url(#SVGID_00000004515127958954196190000012846037397568388503_);}
	.st12{fill:url(#SVGID_00000146490990201126154690000003097988172665102726_);}
	.st13{fill:url(#SVGID_00000107567296357233682360000015351529876765753765_);}
	.st14{fill:url(#SVGID_00000051345392009660854660000011126659591134507177_);}
	.st15{fill:#FFF3F8;}
	
		.st16{fill:#FFFFFF;stroke:url(#SVGID_00000125580759176828468510000001547706477702410147_);stroke-width:2;stroke-linecap:round;stroke-linejoin:round;stroke-miterlimit:10;}
	.st17{fill:#FFFFFF;}
	.st18{fill:url(#SVGID_00000092427019330565808450000001348869677775271307_);}
	.st19{fill:url(#SVGID_00000003822690080151269340000008039151644468998283_);}
	.st20{fill:url(#SVGID_00000137122034667584700730000013228205482272685991_);}
	.st21{fill:url(#SVGID_00000081640840304222664430000006468940500093853603_);}
	.st22{fill:url(#SVGID_00000170978856441384486600000009624361539848893858_);}
	.st23{fill:url(#SVGID_00000116948225417371927760000014502187983410182791_);}
	.st24{fill:#FFC0E3;}
	.st25{fill:url(#SVGID_00000175297242995129460020000017936640237599476105_);}
	.st26{fill:url(#SVGID_00000168089814709670475360000016962137416071482026_);}
	.st27{fill:#D89E50;}
	.st28{opacity:0.5;fill:#FFE3BD;}
	.st29{fill:#F2BF75;}
	.st30{fill:url(#SVGID_00000001624127831168346700000016991529230148255413_);}
	.st31{fill:url(#SVGID_00000121281105239868642060000012105155182570683304_);}
	.st32{fill:#B1D4DD;}
	.st33{fill:url(#SVGID_00000163058757197419774460000000839266050371294593_);}
	.st34{fill:url(#SVGID_00000058569105663885933940000005487132845083526283_);}
	.st35{fill:url(#SVGID_00000016783384569206374650000009050517786888240807_);}
	.st36{fill:url(#SVGID_00000157288543792960322860000011965423148077472159_);}
	.st37{fill:url(#SVGID_00000130620384801047192250000012286346431706085049_);}
	.st38{fill:url(#SVGID_00000123427206138512973610000000916655288561566126_);}
	.st39{fill:url(#SVGID_00000121264528943538429320000014857555447372288901_);}
	.st40{fill:url(#SVGID_00000038383692347091464390000013687725080355893912_);}
	.st41{fill:url(#SVGID_00000052798164174423327640000000035321407861797819_);}
	.st42{fill:none;stroke:#FFD4EA;stroke-width:3;stroke-linecap:round;stroke-linejoin:round;stroke-miterlimit:10;}
	.st43{fill:url(#SVGID_00000057861394800384202990000008606973622878593944_);}
	.st44{fill:url(#SVGID_00000056405507896963520870000005739181057959943862_);}
	.st45{fill:url(#SVGID_00000000214420901170496150000012669773301100534195_);}
	.st46{fill:url(#SVGID_00000165196526575862561500000003580948466665568153_);}
	.st47{fill:url(#SVGID_00000083070435150311868260000014057250720307474108_);}
	.st48{fill:url(#SVGID_00000090980086731234429910000015113491605558013355_);}
	.st49{fill:url(#SVGID_00000106846599190348144670000005948783001280560524_);}
	.st50{fill:url(#SVGID_00000135685411947755729220000005050809782508653752_);}
	.st51{fill:url(#SVGID_00000052070011141177422750000011984982431564858029_);}
	.st52{fill:url(#SVGID_00000070808838912822202230000004945353360569313938_);}
	.st53{fill:url(#SVGID_00000031893640207630341520000003057299031265661351_);}
	.st54{fill:url(#SVGID_00000136371175343403737730000003519888864896059582_);}
	.st55{fill:url(#SVGID_00000076564905851758651580000001941233907915176104_);}
	.st56{fill:url(#SVGID_00000005264382678263878040000005565712983645707395_);}
	.st57{fill:url(#SVGID_00000018923670304797411190000009734676562376270468_);}
	.st58{fill:url(#SVGID_00000102530568118113993360000001261027717458901653_);}
	.st59{fill:#CEE8EF;}
	.st60{opacity:0.4;fill:#FFFFFF;}
	.st61{fill:url(#SVGID_00000021094737797688428720000007453091969649377189_);}
	.st62{fill:url(#SVGID_00000014631212095963687550000001992699789054130621_);}
	.st63{fill:url(#SVGID_00000124153498366995439110000006637067621452871067_);}
	.st64{fill:url(#SVGID_00000143617187711106994930000014788015052356033197_);}
	.st65{fill:url(#SVGID_00000106851948556919481050000002724364199155929019_);}
	.st66{fill:url(#SVGID_00000136393346113933220240000008573481725307887791_);}
</style>
<g id="Check" class="st0">
	<g class="st1">
		<path class="st2" d="M194.4,237.2c-86.6,0-209.9-18.5-209.9-87c-0.7-55,90.9-28.4,116.2-77.4s24.1-71,112.1-71
			s214.7,41.2,214.7,115S281,237.2,194.4,237.2z"/>
		<linearGradient id="SVGID_1_" gradientUnits="userSpaceOnUse" x1="399.9389" y1="99.2376" x2="342.4487" y2="168.5718">
			<stop  offset="0" style="stop-color:#49E2A8"/>
			<stop  offset="1" style="stop-color:#00844E"/>
		</linearGradient>
		<path class="st3" d="M389.2,148.8c-15.8,19.2-40,20.5-45.9,20.5c-0.8,0-1.5-0.6-1.6-1.3c-1.1-5.8-4.4-29.8,11.4-49
			c15.8-19.2,40-20.5,45.9-20.5c0.8,0,1.5,0.6,1.6,1.3C401.8,105.6,405.1,129.6,389.2,148.8z"/>
		<g>
			<path class="st4" d="M349.2,161.6c-0.2,0-0.4-0.1-0.6-0.2c-0.4-0.4-0.5-1-0.1-1.4l40.8-49.4c0.4-0.4,1-0.5,1.4-0.1
				c0.4,0.4,0.5,1,0.1,1.4l-40.8,49.4C349.7,161.5,349.5,161.6,349.2,161.6z"/>
		</g>
		
			<linearGradient id="SVGID_00000152954691515796017560000014488882128442726550_" gradientUnits="userSpaceOnUse" x1="354.3619" y1="125.6286" x2="310.4458" y2="144.925">
			<stop  offset="0" style="stop-color:#49E2A8"/>
			<stop  offset="1" style="stop-color:#00844E"/>
		</linearGradient>
		<path style="fill:url(#SVGID_00000152954691515796017560000014488882128442726550_);" d="M355,129.9c5.3,23.1-7.7,42.2-11.1,46.7
			c-0.5,0.6-1.3,0.8-2,0.5c-5-2.5-25.1-14-30.5-37.1c-5.3-23.1,7.7-42.2,11.1-46.7c0.5-0.6,1.3-0.8,2-0.5
			C329.6,95.3,349.7,106.7,355,129.9z"/>
		<g>
			<path class="st4" d="M340.7,168.1c-0.5,0-0.9-0.3-1-0.8l-13.8-59.9c-0.1-0.5,0.2-1.1,0.8-1.2c0.5-0.1,1.1,0.2,1.2,0.7l13.8,59.9
				c0.1,0.5-0.2,1.1-0.8,1.2C340.9,168.1,340.8,168.1,340.7,168.1z"/>
		</g>
		
			<linearGradient id="SVGID_00000110453425503521408710000002303221960643866805_" gradientUnits="userSpaceOnUse" x1="322.9866" y1="153.431" x2="376.928" y2="230.9717">
			<stop  offset="0" style="stop-color:#E91C60"/>
			<stop  offset="1" style="stop-color:#6A1A6E"/>
		</linearGradient>
		<path style="fill:url(#SVGID_00000110453425503521408710000002303221960643866805_);" d="M381.8,164.2c0-2.1-1.6-3.9-3.7-4
			c-5.7-0.4-17.4-1-30.3-1c-13,0-24.6,0.6-30.3,1c-2.1,0.1-3.7,1.9-3.7,4c0.1,29.6,4.9,52.9,13.9,70.7c0.7,1.4,2.1,2.2,3.6,2.2h33.3
			c1.5,0,2.9-0.9,3.6-2.2C376.9,217.1,381.8,193.8,381.8,164.2z"/>
		
			<linearGradient id="SVGID_00000170959067928379247970000018047859469388528058_" gradientUnits="userSpaceOnUse" x1="113.6187" y1="-2.8741" x2="303.6689" y2="187.176">
			<stop  offset="0" style="stop-color:#0A3757"/>
			<stop  offset="1" style="stop-color:#0E0E1E"/>
		</linearGradient>
		<path style="fill:url(#SVGID_00000170959067928379247970000018047859469388528058_);" d="M325,27.8v127.4H86.9V27.8
			c0-5.3,4.3-9.7,9.7-9.7h218.8C320.7,18.2,325,22.5,325,27.8z"/>
		
			<linearGradient id="SVGID_00000043440210596164029940000002507989776693322374_" gradientUnits="userSpaceOnUse" x1="145.3048" y1="109.5994" x2="281.7096" y2="246.0042">
			<stop  offset="0" style="stop-color:#D5D5D5"/>
			<stop  offset="1" style="stop-color:#8D8D8D"/>
		</linearGradient>
		<path style="fill:url(#SVGID_00000043440210596164029940000002507989776693322374_);" d="M325,155.2v26.2c0,5.3-4.3,9.7-9.7,9.7
			H96.6c-5.3,0-9.7-4.3-9.7-9.7v-26.2H325z"/>
		
			<linearGradient id="SVGID_00000172403958895520038400000013713943066264462519_" gradientUnits="userSpaceOnUse" x1="205.9848" y1="27.8059" x2="205.9848" y2="146.7462">
			<stop  offset="0" style="stop-color:#F2F9FD"/>
			<stop  offset="1" style="stop-color:#D2EDF3"/>
		</linearGradient>
		<path style="fill:url(#SVGID_00000172403958895520038400000013713943066264462519_);" d="M314.4,145.5H97.6c-0.6,0-1-0.4-1-1V28.8
			c0-0.6,0.4-1,1-1h216.8c0.6,0,1,0.4,1,1v115.7C315.4,145.1,314.9,145.5,314.4,145.5z"/>
		
			<linearGradient id="SVGID_00000152976923392436644320000013784920547938661048_" gradientUnits="userSpaceOnUse" x1="205.9848" y1="168.2365" x2="205.9848" y2="178.002">
			<stop  offset="0" style="stop-color:#0A3757"/>
			<stop  offset="1" style="stop-color:#0E0E1E"/>
		</linearGradient>
		<circle style="fill:url(#SVGID_00000152976923392436644320000013784920547938661048_);" cx="206" cy="173.1" r="5.3"/>
		
			<linearGradient id="SVGID_00000139289234713426375810000015048868092815216259_" gradientUnits="userSpaceOnUse" x1="205.9848" y1="227.7613" x2="205.9848" y2="190.1846">
			<stop  offset="0" style="stop-color:#737373"/>
			<stop  offset="1" style="stop-color:#4D4C4D"/>
		</linearGradient>
		<polygon style="fill:url(#SVGID_00000139289234713426375810000015048868092815216259_);" points="235.6,228.6 176.3,228.6 
			180.2,191 231.8,191 		"/>
		
			<linearGradient id="SVGID_00000004518984336890923630000012665339073845216956_" gradientUnits="userSpaceOnUse" x1="107.0074" y1="232.8631" x2="304.9622" y2="232.8631">
			<stop  offset="0" style="stop-color:#D5D5D5"/>
			<stop  offset="1" style="stop-color:#8D8D8D"/>
		</linearGradient>
		<path style="fill:url(#SVGID_00000004518984336890923630000012665339073845216956_);" d="M302.9,237.2H109c-1.1,0-2-0.9-2-2v-4.6
			c0-1.1,0.9-2,2-2h193.9c1.1,0,2,0.9,2,2v4.6C305,236.3,304.1,237.2,302.9,237.2z"/>
		
			<linearGradient id="SVGID_00000115500237168074656750000012871379308180049816_" gradientUnits="userSpaceOnUse" x1="114.2885" y1="227.558" x2="297.6812" y2="227.558">
			<stop  offset="0" style="stop-color:#0A3757"/>
			<stop  offset="1" style="stop-color:#0E0E1E"/>
		</linearGradient>
		
			<rect x="114.3" y="226.6" style="fill:url(#SVGID_00000115500237168074656750000012871379308180049816_);" width="183.4" height="2"/>
		
			<linearGradient id="SVGID_00000082326241433472875250000017724266677681250996_" gradientUnits="userSpaceOnUse" x1="227.0828" y1="57.1" x2="286.9973" y2="117.0146">
			<stop  offset="0" style="stop-color:#E91C60"/>
			<stop  offset="1" style="stop-color:#6A1A6E"/>
		</linearGradient>
		<path style="fill:url(#SVGID_00000082326241433472875250000017724266677681250996_);" d="M289.2,62.1v49.1c0,2.8-2.2,5-5,5h-57.1
			V57.1h57.1C286.9,57.1,289.2,59.4,289.2,62.1z"/>
		<path class="st15" d="M227.1,57.1v59.1H6.9c-2.8,0-5-2.2-5-5V62.1c0-2.8,2.2-5,5-5H227.1z"/>
		
			<linearGradient id="SVGID_00000174576891038246283660000003949822383304402052_" gradientUnits="userSpaceOnUse" x1="228.0434" y1="99.7586" x2="228.0434" y2="137.7586">
			<stop  offset="0" style="stop-color:#0A3757"/>
			<stop  offset="1" style="stop-color:#0E0E1E"/>
		</linearGradient>
		
			<polygon style="fill:#FFFFFF;stroke:url(#SVGID_00000174576891038246283660000003949822383304402052_);stroke-width:2;stroke-linecap:round;stroke-linejoin:round;stroke-miterlimit:10;" points="
			214.3,100.8 220.4,131.3 225.7,124 234.8,136.8 241.7,131.8 232.7,119.1 241.3,116.4 		"/>
		<path class="st17" d="M275.1,100.1l-7.1-7.1c1.8-2.6,2.8-5.6,2.8-8.8c0-4.1-1.6-7.9-4.4-10.7c-5.9-5.9-15.6-5.9-21.5,0
			c-5.9,5.9-5.9,15.6,0,21.5c2.9,2.9,6.7,4.4,10.7,4.4c3.2,0,6.3-1,8.8-2.8l7.1,7.1c0.5,0.5,1.1,0.7,1.8,0.7s1.3-0.2,1.8-0.7
			C276.1,102.7,276.1,101.1,275.1,100.1z M248.4,91.3c-4-4-4-10.4,0-14.4c2-2,4.6-3,7.2-3c2.6,0,5.2,1,7.2,3v0c1.9,1.9,3,4.5,3,7.2
			s-1.1,5.3-3,7.2c-1.9,1.9-4.5,3-7.2,3C252.9,94.3,250.3,93.3,248.4,91.3z"/>
		
			<linearGradient id="SVGID_00000017489365039513641290000013792020712135955374_" gradientUnits="userSpaceOnUse" x1="360.0221" y1="234.5648" x2="396.0135" y2="234.5648">
			<stop  offset="0" style="stop-color:#0A3757"/>
			<stop  offset="1" style="stop-color:#0E0E1E"/>
		</linearGradient>
		<path style="fill:url(#SVGID_00000017489365039513641290000013792020712135955374_);" d="M391.4,237.1h-26.8
			c-2.5,0-4.6-2.1-4.6-4.6V232h36v0.6C396,235.1,394,237.1,391.4,237.1z"/>
		
			<linearGradient id="SVGID_00000108277683427428534750000008601770681084700346_" gradientUnits="userSpaceOnUse" x1="368.8011" y1="221.389" x2="388.2341" y2="240.8219">
			<stop  offset="0" style="stop-color:#D5D5D5"/>
			<stop  offset="1" style="stop-color:#8D8D8D"/>
		</linearGradient>
		<path style="fill:url(#SVGID_00000108277683427428534750000008601770681084700346_);" d="M378,221.6c-10.9,0-18,4.6-18,10.4
			c0,0,0.5,3.7,18,3.7c17.5,0,18-3.7,18-3.7C396,226.3,388.9,221.6,378,221.6z"/>
		<g>
			
				<linearGradient id="SVGID_00000104682668559304551310000003913774753337630080_" gradientUnits="userSpaceOnUse" x1="20.4766" y1="83.3982" x2="110.3493" y2="99.6338">
				<stop  offset="0" style="stop-color:#E91C60"/>
				<stop  offset="1" style="stop-color:#6A1A6E"/>
			</linearGradient>
			<path style="fill:url(#SVGID_00000104682668559304551310000003913774753337630080_);" d="M35,83.4l-3.6,11.5h-4.7l-5.1-16.8h4.6
				l3.1,11.3L33,78.1h3.9l3.7,11.3l3.1-11.3h4.6l-5.1,16.8h-4.7L35,83.4z"/>
			
				<linearGradient id="SVGID_00000100368574318247229580000011955470688945767868_" gradientUnits="userSpaceOnUse" x1="21.3791" y1="78.4025" x2="111.2518" y2="94.6381">
				<stop  offset="0" style="stop-color:#E91C60"/>
				<stop  offset="1" style="stop-color:#6A1A6E"/>
			</linearGradient>
			<path style="fill:url(#SVGID_00000100368574318247229580000011955470688945767868_);" d="M63.5,83.4L60,94.9h-4.7l-5.1-16.8h4.6
				l3.1,11.3l3.7-11.3h3.9l3.7,11.3l3.1-11.3h4.6l-5.1,16.8h-4.7L63.5,83.4z"/>
			
				<linearGradient id="SVGID_00000073716436647363312580000006448267842977596292_" gradientUnits="userSpaceOnUse" x1="22.2816" y1="73.4063" x2="112.1544" y2="89.6419">
				<stop  offset="0" style="stop-color:#E91C60"/>
				<stop  offset="1" style="stop-color:#6A1A6E"/>
			</linearGradient>
			<path style="fill:url(#SVGID_00000073716436647363312580000006448267842977596292_);" d="M92.1,83.4l-3.6,11.5h-4.7l-5.1-16.8
				h4.6l3.1,11.3l3.7-11.3H94l3.7,11.3l3.1-11.3h4.6l-5.1,16.8h-4.7L92.1,83.4z"/>
			
				<linearGradient id="SVGID_00000089566032315270863760000010597877267508684986_" gradientUnits="userSpaceOnUse" x1="21.6678" y1="76.4212" x2="111.5405" y2="92.6568">
				<stop  offset="0" style="stop-color:#E91C60"/>
				<stop  offset="1" style="stop-color:#6A1A6E"/>
			</linearGradient>
			<path style="fill:url(#SVGID_00000089566032315270863760000010597877267508684986_);" d="M108.3,89.2c1.5,0,2.8,1.3,2.8,2.8
				c0,1.5-1.3,2.8-2.8,2.8s-2.8-1.3-2.8-2.8C105.5,90.5,106.7,89.2,108.3,89.2z"/>
		</g>
	</g>
</g>
<g id="Buy" class="st0">
	<g class="st1">
		<path class="st2" d="M-8.6,124.1c-6.6,54.3,32.4,87.2,85.5,87.2s80.6,7.2,125.9,23.4s93.3,11.6,156-31.5s81.4-107.6,41.2-158
			S284.9,0.5,243.6,23S156.7,83.1,106.1,70S-1.9,69.9-8.6,124.1z"/>
		<path class="st24" d="M416.5,132c-8.5,26-28.2,51-57.7,71.2c-62.7,43-110.6,47.7-156,31.5c-45.4-16.2-72.8-23.4-125.9-23.4
			c-45.3,0-80.3-23.9-85.5-64.5C4.7,138.1,20.6,133,37.7,133c31.6,0,59.2,17.3,74.1,43.2c10.7-4.8,22.5-7.5,35-7.5
			c19.5,0,37.4,6.6,51.8,17.7c7.4-7.8,17.7-12.7,29.2-12.7c9.7,0,18.6,3.5,25.6,9.2c11.9-13.4,29.1-21.8,48.3-21.8
			c10.4,0,20.2,2.5,28.9,6.9c13.4-23,38.2-38.5,66.5-38.5C403.7,129.5,410.3,130.4,416.5,132z"/>
		
			<linearGradient id="SVGID_00000061462001732545090230000005892229452976396171_" gradientUnits="userSpaceOnUse" x1="105.0675" y1="74.4763" x2="125.5169" y2="74.4763">
			<stop  offset="0" style="stop-color:#E91C60"/>
			<stop  offset="1" style="stop-color:#6A1A6E"/>
		</linearGradient>
		<circle style="fill:url(#SVGID_00000061462001732545090230000005892229452976396171_);" cx="115.3" cy="74.5" r="10.2"/>
		
			<linearGradient id="SVGID_00000164487650466449117560000017933688809134147205_" gradientUnits="userSpaceOnUse" x1="115.2922" y1="69.2509" x2="115.2922" y2="80.0761">
			<stop  offset="0" style="stop-color:#737373"/>
			<stop  offset="1" style="stop-color:#4D4C4D"/>
		</linearGradient>
		<circle style="fill:url(#SVGID_00000164487650466449117560000017933688809134147205_);" cx="115.3" cy="74.5" r="5.4"/>
		<path class="st27" d="M229.7,164.9h-27.3v-34.6h25.3c1.1,0,2,0.9,2,2V164.9z"/>
		<polygon class="st28" points="220.2,130.2 220.2,145.8 219.1,144.9 218.1,145.8 217.1,144.9 216,145.8 215,144.9 214,145.8 
			212.9,144.9 211.9,145.8 211.9,130.2 		"/>
		<path class="st29" d="M200.4,164.9h-42.1c-1.1,0-2-0.9-2-2v-38.5c0-1.1,0.9-2,2-2h42.1c1.1,0,2,0.9,2,2v38.5
			C202.4,164,201.5,164.9,200.4,164.9z"/>
		<path class="st29" d="M283,164.9h-55.8c-1.1,0-2-0.9-2-2v-14.7c0-1.1,0.9-2,2-2H283c1.1,0,2,0.9,2,2v14.7
			C285,164,284.1,164.9,283,164.9z"/>
		
			<linearGradient id="SVGID_00000129924181224476140910000010846638586661917609_" gradientUnits="userSpaceOnUse" x1="292.6453" y1="140.8845" x2="166.6637" y2="23.7748">
			<stop  offset="0" style="stop-color:#F2F9FD"/>
			<stop  offset="1" style="stop-color:#D2EDF3"/>
		</linearGradient>
		<path style="fill:url(#SVGID_00000129924181224476140910000010846638586661917609_);" d="M282.6,146l-135.5-39.2
			c-2.7-0.8-4.3-3.6-3.5-6.3l23.5-81.3c0.8-2.7,3.6-4.3,6.3-3.5L309,54.8c2.7,0.8,4.3,3.6,3.5,6.3l-23.5,81.3
			C288.1,145.2,285.3,146.8,282.6,146z"/>
		
			<linearGradient id="SVGID_00000019677089604126249140000003772898242406891675_" gradientUnits="userSpaceOnUse" x1="165.5094" y1="41.1791" x2="312.6421" y2="41.1791">
			<stop  offset="0" style="stop-color:#0A3757"/>
			<stop  offset="1" style="stop-color:#0E0E1E"/>
		</linearGradient>
		<path style="fill:url(#SVGID_00000019677089604126249140000003772898242406891675_);" d="M312.4,61.2l-1.6,5.7l-145.3-42l1.7-5.7
			c0.8-2.7,3.6-4.3,6.3-3.5L309,54.8C311.7,55.6,313.2,58.5,312.4,61.2z"/>
		<path class="st17" d="M274.7,86.8L168.5,56.1c-1.1-0.3-1.7-1.4-1.4-2.5l4.3-14.9c0.3-1.1,1.4-1.7,2.5-1.4L280.2,68L274.7,86.8z"/>
		<path class="st32" d="M277.7,106.5L172.4,76.1c-0.5-0.2-0.9-0.7-0.7-1.3l2-6.8c0.2-0.5,0.7-0.9,1.3-0.7l105.3,30.4
			c0.5,0.2,0.9,0.7,0.7,1.3l-2,6.8C278.8,106.4,278.2,106.7,277.7,106.5z"/>
		<path class="st32" d="M273.8,119.7L168.6,89.3c-0.5-0.2-0.9-0.7-0.7-1.3l2-6.8c0.2-0.5,0.7-0.9,1.3-0.7L276.4,111
			c0.5,0.2,0.9,0.7,0.7,1.3l-2,6.8C275,119.6,274.4,119.9,273.8,119.7z"/>
		<path class="st32" d="M270,132.9l-105.3-30.4c-0.5-0.2-0.9-0.7-0.7-1.3l2-6.8c0.2-0.5,0.7-0.9,1.3-0.7l105.3,30.4
			c0.5,0.2,0.9,0.7,0.7,1.3l-2,6.8C271.1,132.8,270.6,133.1,270,132.9z"/>
		
			<linearGradient id="SVGID_00000016782516449431623030000002687296380680360844_" gradientUnits="userSpaceOnUse" x1="274.7165" y1="79.8394" x2="298.494" y2="79.8394">
			<stop  offset="0" style="stop-color:#E91C60"/>
			<stop  offset="1" style="stop-color:#6A1A6E"/>
		</linearGradient>
		<path style="fill:url(#SVGID_00000016782516449431623030000002687296380680360844_);" d="M298.4,75.4l-4.3,14.9
			c-0.3,1.1-1.4,1.7-2.5,1.4l-16.9-4.9l5.4-18.8l16.9,4.9C298.1,73.1,298.7,74.3,298.4,75.4z"/>
		<g>
			
				<linearGradient id="SVGID_00000016072317940740911930000001920160543099061909_" gradientUnits="userSpaceOnUse" x1="179.0193" y1="48.4961" x2="230.831" y2="71.3855">
				<stop  offset="0" style="stop-color:#E91C60"/>
				<stop  offset="1" style="stop-color:#6A1A6E"/>
			</linearGradient>
			<path style="fill:url(#SVGID_00000016072317940740911930000001920160543099061909_);" d="M181.1,45.2l3.1,0.9
				c2.5,0.7,3.7,2.8,3,5.1c-0.7,2.4-2.8,3.4-5.3,2.7l-3.1-0.9L181.1,45.2z M182.3,52.5c1.6,0.4,2.8-0.4,3.2-1.7
				c0.4-1.4-0.1-2.7-1.8-3.2l-1.4-0.4l-1.4,4.9L182.3,52.5z"/>
			
				<linearGradient id="SVGID_00000093179476144425492820000005725727812373459852_" gradientUnits="userSpaceOnUse" x1="179.6068" y1="47.1663" x2="231.4189" y2="70.0559">
				<stop  offset="0" style="stop-color:#E91C60"/>
				<stop  offset="1" style="stop-color:#6A1A6E"/>
			</linearGradient>
			<path style="fill:url(#SVGID_00000093179476144425492820000005725727812373459852_);" d="M193.3,48.6c2.4,0.7,3.6,2.9,2.9,5.3
				c-0.7,2.4-2.9,3.6-5.3,2.9c-2.4-0.7-3.6-2.9-2.9-5.2C188.7,49.1,190.9,48,193.3,48.6z M192.9,50.1c-1.4-0.4-2.7,0.4-3.1,1.9
				c-0.4,1.5,0.2,2.8,1.6,3.3c1.4,0.4,2.7-0.4,3.1-1.9C194.9,51.9,194.3,50.5,192.9,50.1z"/>
			
				<linearGradient id="SVGID_00000075862104149384824190000008201782605769604000_" gradientUnits="userSpaceOnUse" x1="180.1485" y1="45.9401" x2="231.9606" y2="68.8298">
				<stop  offset="0" style="stop-color:#E91C60"/>
				<stop  offset="1" style="stop-color:#6A1A6E"/>
			</linearGradient>
			<path style="fill:url(#SVGID_00000075862104149384824190000008201782605769604000_);" d="M204.8,54.5l-3.8,5l-0.7-0.2l-0.6-6.3
				l-1.6,5.7l-1.7-0.5l2.3-7.9l2.3,0.7l0.5,5.5l3.3-4.3l2.4,0.7l-2.3,7.9l-1.7-0.5L204.8,54.5z"/>
			
				<linearGradient id="SVGID_00000008834009626367869440000009180738922528283785_" gradientUnits="userSpaceOnUse" x1="180.5747" y1="44.9753" x2="232.3869" y2="67.8649">
				<stop  offset="0" style="stop-color:#E91C60"/>
				<stop  offset="1" style="stop-color:#6A1A6E"/>
			</linearGradient>
			<path style="fill:url(#SVGID_00000008834009626367869440000009180738922528283785_);" d="M211.8,61.2l-3.5-1l-0.9,1.2l-1.8-0.5
				l5.3-7l2.1,0.6l0.8,8.7l-1.8-0.5L211.8,61.2z M209.1,58.8l2.6,0.8l-0.3-4L209.1,58.8z"/>
			
				<linearGradient id="SVGID_00000170993977819804037940000006138666185727107504_" gradientUnits="userSpaceOnUse" x1="180.9793" y1="44.0595" x2="232.7915" y2="66.9491">
				<stop  offset="0" style="stop-color:#E91C60"/>
				<stop  offset="1" style="stop-color:#6A1A6E"/>
			</linearGradient>
			<path style="fill:url(#SVGID_00000170993977819804037940000006138666185727107504_);" d="M216.7,55.5l1.7,0.5l-2.3,7.9l-1.7-0.5
				L216.7,55.5z"/>
			
				<linearGradient id="SVGID_00000083068409311223149170000007524411179242386352_" gradientUnits="userSpaceOnUse" x1="181.3129" y1="43.3043" x2="233.1251" y2="66.1939">
				<stop  offset="0" style="stop-color:#E91C60"/>
				<stop  offset="1" style="stop-color:#6A1A6E"/>
			</linearGradient>
			<path style="fill:url(#SVGID_00000083068409311223149170000007524411179242386352_);" d="M220.9,59.5l-1.5,5.3l-1.7-0.5l2.3-7.9
				l1.7,0.5l2.2,6.1l1.5-5.1l1.7,0.5l-2.3,7.9l-1.6-0.5L220.9,59.5z"/>
			
				<linearGradient id="SVGID_00000049189150903426438410000009606171204064418695_" gradientUnits="userSpaceOnUse" x1="181.7487" y1="42.318" x2="233.5608" y2="65.2076">
				<stop  offset="0" style="stop-color:#E91C60"/>
				<stop  offset="1" style="stop-color:#6A1A6E"/>
			</linearGradient>
			<path style="fill:url(#SVGID_00000049189150903426438410000009606171204064418695_);" d="M227.3,64.5c0.4,0.7,1.1,1.5,2.2,1.8
				c0.9,0.3,1.5,0,1.6-0.5c0.2-0.6-0.5-1-1.3-1.5c-1.2-0.7-2.7-1.5-2.2-3.3c0.4-1.3,1.8-2,3.7-1.5c1.2,0.4,2.2,1,2.7,2l-1.3,1
				c-0.5-0.8-1.2-1.3-2-1.5c-0.8-0.2-1.2,0-1.4,0.5c-0.2,0.5,0.5,0.9,1.3,1.4c1.2,0.7,2.7,1.5,2.2,3.3c-0.4,1.4-1.8,2.2-3.9,1.6
				c-1.5-0.4-2.4-1.3-3-2.2L227.3,64.5z"/>
		</g>
		
			<linearGradient id="SVGID_00000175286450934498153650000006958736861150125738_" gradientUnits="userSpaceOnUse" x1="87.4833" y1="-5.2076" x2="116.5872" y2="19.325">
			<stop  offset="0" style="stop-color:#E91C60"/>
			<stop  offset="1" style="stop-color:#6A1A6E"/>
		</linearGradient>
		<path style="fill:url(#SVGID_00000175286450934498153650000006958736861150125738_);" d="M114.3,18.5l-25.7-1.7
			c-1.5-0.1-2.7-1.4-2.6-2.9l1-15.7c0.1-1.5,1.4-2.7,2.9-2.6l25.7,1.7c0.8,0.1,1.5,0.4,2,1l6.6,8.3c0.9,1.1,0.8,2.7-0.2,3.7
			l-7.6,7.4C115.8,18.3,115,18.6,114.3,18.5z"/>
		<path class="st42" d="M117.8,8.5c15.5,2.6,17.3-7.9,31.1-5.6s15.3,16.4,24.5,19.3"/>
		<g>
			
				<linearGradient id="SVGID_00000028302871738170876130000002257031936857360516_" gradientUnits="userSpaceOnUse" x1="168.9681" y1="202.3149" x2="168.9681" y2="218.622">
				<stop  offset="0" style="stop-color:#737373"/>
				<stop  offset="1" style="stop-color:#4D4C4D"/>
			</linearGradient>
			<path style="fill:url(#SVGID_00000028302871738170876130000002257031936857360516_);" d="M169,218.7c-1.4,0-2.5-1.1-2.5-2.5
				v-11.5c0-1.4,1.1-2.5,2.5-2.5s2.5,1.1,2.5,2.5v11.5C171.5,217.6,170.3,218.7,169,218.7z"/>
		</g>
		<g>
			
				<linearGradient id="SVGID_00000006699243961325370500000008201908484746924938_" gradientUnits="userSpaceOnUse" x1="278.096" y1="202.5131" x2="278.096" y2="218.623">
				<stop  offset="0" style="stop-color:#737373"/>
				<stop  offset="1" style="stop-color:#4D4C4D"/>
			</linearGradient>
			<path style="fill:url(#SVGID_00000006699243961325370500000008201908484746924938_);" d="M278.1,218.7c-1.4,0-2.5-1.1-2.5-2.5
				v-11.3c0-1.4,1.1-2.5,2.5-2.5s2.5,1.1,2.5,2.5v11.3C280.6,217.6,279.5,218.7,278.1,218.7z"/>
		</g>
		
			<linearGradient id="SVGID_00000170256584573149144920000011261965996264061613_" gradientUnits="userSpaceOnUse" x1="154.652" y1="228.973" x2="183.2836" y2="228.973">
			<stop  offset="0" style="stop-color:#E91C60"/>
			<stop  offset="1" style="stop-color:#6A1A6E"/>
		</linearGradient>
		<circle style="fill:url(#SVGID_00000170256584573149144920000011261965996264061613_);" cx="169" cy="229" r="14.3"/>
		
			<linearGradient id="SVGID_00000088813000226496808810000017849038209913588874_" gradientUnits="userSpaceOnUse" x1="263.7803" y1="228.973" x2="292.4118" y2="228.973">
			<stop  offset="0" style="stop-color:#E91C60"/>
			<stop  offset="1" style="stop-color:#6A1A6E"/>
		</linearGradient>
		<circle style="fill:url(#SVGID_00000088813000226496808810000017849038209913588874_);" cx="278.1" cy="229" r="14.3"/>
		
			<linearGradient id="SVGID_00000117659011462400126420000012803837311996000914_" gradientUnits="userSpaceOnUse" x1="168.9678" y1="223.7476" x2="168.9678" y2="234.5728">
			<stop  offset="0" style="stop-color:#D5D5D5"/>
			<stop  offset="1" style="stop-color:#8D8D8D"/>
		</linearGradient>
		<circle style="fill:url(#SVGID_00000117659011462400126420000012803837311996000914_);" cx="169" cy="229" r="5.4"/>
		
			<linearGradient id="SVGID_00000145740094368765507800000016986941719028124289_" gradientUnits="userSpaceOnUse" x1="278.0961" y1="223.7476" x2="278.0961" y2="234.5728">
			<stop  offset="0" style="stop-color:#D5D5D5"/>
			<stop  offset="1" style="stop-color:#8D8D8D"/>
		</linearGradient>
		<circle style="fill:url(#SVGID_00000145740094368765507800000016986941719028124289_);" cx="278.1" cy="229" r="5.4"/>
		<polygon class="st28" points="183.4,122.3 183.4,132.3 182.4,131.3 181.4,132.3 180.3,131.3 179.3,132.3 178.3,131.3 177.2,132.3 
			176.2,131.3 175.2,132.3 175.2,122.3 		"/>
		<polygon class="st28" points="259.2,146.2 259.2,156.1 258.2,155.2 257.1,156.1 256.1,155.2 255.1,156.1 254,155.2 253,156.1 
			252,155.2 250.9,156.1 250.9,146.2 		"/>
		
			<linearGradient id="SVGID_00000147182783756418911690000002814487476468166785_" gradientUnits="userSpaceOnUse" x1="140.1128" y1="86.8823" x2="285.4352" y2="158.5676">
			<stop  offset="0" style="stop-color:#737373"/>
			<stop  offset="1" style="stop-color:#4D4C4D"/>
		</linearGradient>
		<path style="fill:url(#SVGID_00000147182783756418911690000002814487476468166785_);" d="M299.9,116.1v-4h-19.8V88.7h-4v23.4
			h-24.6V88.7h-4v23.4h-24.6V88.7h-4v23.4h-24.6V88.7h-4v23.4h-24.6V88.7h-4v23.4H142v4h19.8v21.4h-12.9v4h12.9v23.4h4v-23.4h24.6
			v23.4h4v-23.4h24.6v23.4h4v-23.4h24.6v23.4h4v-23.4h24.6v23.4h4v-23.4H293v-4h-12.9v-21.4H299.9z M165.8,137.5v-21.4h24.6v21.4
			H165.8z M194.4,137.5v-21.4h24.6v21.4H194.4z M222.9,137.5v-21.4h24.6v21.4H222.9z M276.1,137.5h-24.6v-21.4h24.6V137.5z"/>
		
			<linearGradient id="SVGID_00000102505412496862909280000015874177375281625238_" gradientUnits="userSpaceOnUse" x1="112.7923" y1="139.0332" x2="309.1706" y2="139.0332">
			<stop  offset="0" style="stop-color:#D5D5D5"/>
			<stop  offset="1" style="stop-color:#8D8D8D"/>
		</linearGradient>
		<path style="fill:url(#SVGID_00000102505412496862909280000015874177375281625238_);" d="M152.3,167.4h3.4h130.5
			c1.1,0,2.1-0.8,2.4-1.9l20.4-76.2c0.2-0.8,0-1.6-0.4-2.2c-0.5-0.6-1.2-1-2-1H137.1c-2.9-8.4-10.8-14.2-19.8-14.2h-2
			c-1.4,0-2.5,1.1-2.5,2.5s1.1,2.5,2.5,2.5h2c7.2,0,13.5,4.8,15.4,11.8l0.1,0.5c0,0,0,0,0,0l19.6,73.1h-0.1c-7,0-12.7,5.7-12.7,12.7
			v18.3c0,7,5.7,12.7,12.7,12.7h147.6c1.4,0,2.5-1.1,2.5-2.5s-1.1-2.5-2.5-2.5H152.3c-4.3,0-7.7-3.5-7.7-7.7v-18.3
			C144.5,170.8,148,167.4,152.3,167.4z M303.4,91.2l-19.1,71.2H157.6l-19.1-71.2H303.4z"/>
		<path class="st15" d="M98.9,0.5c1.9,0.1,3.1,1.6,3,3.3c-0.1,1.7-1.4,3-3.4,2.9c-1.9-0.1-3.1-1.5-3-3.3C95.7,1.6,97,0.3,98.9,0.5z
			 M98.8,1.9c-0.8-0.1-1.5,0.5-1.6,1.6c-0.1,1,0.5,1.6,1.4,1.7c0.9,0.1,1.5-0.5,1.6-1.5C100.2,2.6,99.7,2,98.8,1.9z M105.6,1.1
			l1.4,0.1l-8.8,11.9L96.9,13L105.6,1.1z M105.3,7.5c1.9,0.1,3.1,1.6,3,3.3c-0.1,1.7-1.5,3-3.4,2.9c-1.9-0.1-3.1-1.5-2.9-3.3
			C102.1,8.7,103.4,7.4,105.3,7.5z M105.2,9c-0.9-0.1-1.5,0.5-1.6,1.6c-0.1,1,0.5,1.7,1.4,1.7c0.9,0.1,1.5-0.5,1.6-1.5
			C106.7,9.7,106.1,9.1,105.2,9z"/>
	</g>
</g>
<g id="Secure">
	<g>
		<path class="st2" d="M3.5,82.8c9,36.4,36.2,40.8,75.6,86.6s64,67.7,121.8,67.7s78-22.6,128.5-50.1s79.5-30.9,80.2-73.7
			c0.7-42.8-83.8-41.8-147.9-49.5s-87.4-62.1-154-62.1S-5.5,46.4,3.5,82.8z"/>
		<g>
			
				<linearGradient id="SVGID_00000012454852565617905530000016003840956223996582_" gradientUnits="userSpaceOnUse" x1="41.5509" y1="144.9319" x2="113.946" y2="178.734">
				<stop  offset="0" style="stop-color:#FFC600"/>
				<stop  offset="1" style="stop-color:#F6921E"/>
			</linearGradient>
			<path style="fill:url(#SVGID_00000012454852565617905530000016003840956223996582_);" d="M82.8,99.7l-28.2,60.5
				c-12.4-1-24.6,5.6-30.1,17.5c-7.1,15.2-0.5,33.3,14.8,40.4c15.2,7.1,33.3,0.5,40.4-14.8c5.5-11.9,2.7-25.5-6-34.3l1.9-4l-4.8-7.1
				l8.6-0.9l1.9-4l-1.2-5.5l4.9-2.6l-4.8-7.1l8.6-0.9l-1.2-5.5l4.9-2.6l3.8-8.1l0-8.1l5.6-4l-5.7-12.5L82.8,99.7z M53.2,205.1
				c-1.6,3.5-5.9,5.1-9.4,3.4c-3.5-1.6-5.1-5.9-3.4-9.4c1.7-3.6,5.9-5.1,9.4-3.4C53.3,197.4,54.8,201.6,53.2,205.1z"/>
			
				<linearGradient id="SVGID_00000121260422285139834450000003083969133879793843_" gradientUnits="userSpaceOnUse" x1="70.1677" y1="126.8746" x2="77.0435" y2="130.1128">
				<stop  offset="0" style="stop-color:#FFC600"/>
				<stop  offset="1" style="stop-color:#FF7900"/>
			</linearGradient>
			<path style="fill:url(#SVGID_00000121260422285139834450000003083969133879793843_);" d="M91.4,97.4l-29.9,64.3
				c-1-0.3-2-0.6-2.9-0.8l29.1-62.4L91.4,97.4z"/>
			
				<linearGradient id="SVGID_00000058575875703367532950000014882581396588730502_" gradientUnits="userSpaceOnUse" x1="21.1137" y1="188.1921" x2="56.7789" y2="207.6216">
				<stop  offset="0" style="stop-color:#FFC600"/>
				<stop  offset="1" style="stop-color:#FF7900"/>
			</linearGradient>
			<path style="fill:url(#SVGID_00000058575875703367532950000014882581396588730502_);" d="M37.2,197.7c-2.4,5.2-0.2,11.5,5.1,13.9
				c5.2,2.4,11.5,0.2,13.9-5.1c2.4-5.2,0.2-11.5-5.1-13.9C45.9,190.2,39.7,192.5,37.2,197.7z M53.2,205.1c-1.6,3.5-5.9,5.1-9.4,3.4
				c-3.5-1.6-5.1-5.9-3.4-9.4c1.7-3.6,5.9-5.1,9.4-3.4C53.3,197.4,54.8,201.6,53.2,205.1z"/>
		</g>
		
			<linearGradient id="SVGID_00000008130334210520017790000007912404349042854036_" gradientUnits="userSpaceOnUse" x1="205.9866" y1="54.8746" x2="205.9866" y2="210.2494">
			<stop  offset="0" style="stop-color:#D5D5D5"/>
			<stop  offset="1" style="stop-color:#8D8D8D"/>
		</linearGradient>
		<path style="fill:url(#SVGID_00000008130334210520017790000007912404349042854036_);" d="M320.5,210.2H91.4V62.7
			c0-4.3,3.5-7.8,7.8-7.8h213.4c4.3,0,7.8,3.5,7.8,7.8V210.2z"/>
		
			<linearGradient id="SVGID_00000133508538105286952780000017168952212927991424_" gradientUnits="userSpaceOnUse" x1="205.9866" y1="80.5817" x2="205.9866" y2="248.7997">
			<stop  offset="0" style="stop-color:#F2F9FD"/>
			<stop  offset="1" style="stop-color:#D2EDF3"/>
		</linearGradient>
		<path style="fill:url(#SVGID_00000133508538105286952780000017168952212927991424_);" d="M309.1,203.6H102.8
			c-2.6,0-4.7-2.1-4.7-4.7V66.3c0-2.6,2.1-4.7,4.7-4.7h206.3c2.6,0,4.7,2.1,4.7,4.7v132.6C313.9,201.5,311.7,203.6,309.1,203.6z"/>
		
			<linearGradient id="SVGID_00000059996584970717547220000004158815785481745071_" gradientUnits="userSpaceOnUse" x1="205.9841" y1="61.2408" x2="205.9841" y2="88.6791">
			<stop  offset="0" style="stop-color:#0A3757"/>
			<stop  offset="1" style="stop-color:#0E0E1E"/>
		</linearGradient>
		<path style="fill:url(#SVGID_00000059996584970717547220000004158815785481745071_);" d="M313.8,66.3v15.9H98.1V66.3
			c0-2.6,2.1-4.7,4.7-4.7h206.3C311.7,61.5,313.8,63.7,313.8,66.3z"/>
		
			<linearGradient id="SVGID_00000122696250558398232600000012463661587084145542_" gradientUnits="userSpaceOnUse" x1="344.8712" y1="216.1249" x2="65.6888" y2="216.1249">
			<stop  offset="0" style="stop-color:#D5D5D5"/>
			<stop  offset="1" style="stop-color:#8D8D8D"/>
		</linearGradient>
		<path style="fill:url(#SVGID_00000122696250558398232600000012463661587084145542_);" d="M342.9,222H69.1c-1.8,0-3.3-1.5-3.3-3.3
			v-5.2c0-1.8,1.5-3.3,3.3-3.3h273.9c1.8,0,3.3,1.5,3.3,3.3v5.2C346.2,220.5,344.7,222,342.9,222z"/>
		
			<linearGradient id="SVGID_00000084531546216641323150000017927629880508710790_" gradientUnits="userSpaceOnUse" x1="205.9866" y1="209.9212" x2="205.9866" y2="215.2713">
			<stop  offset="0" style="stop-color:#737373"/>
			<stop  offset="1" style="stop-color:#4D4C4D"/>
		</linearGradient>
		<path style="fill:url(#SVGID_00000084531546216641323150000017927629880508710790_);" d="M215.6,215h-19.3c-2.6,0-4.7-2.1-4.7-4.7
			l0,0h28.7l0,0C220.3,212.9,218.2,215,215.6,215z"/>
		<path class="st59" d="M214.6,113h-99.1c-1.1,0-2-0.9-2-2V93.3c0-1.1,0.9-2,2-2h99.1c1.1,0,2,0.9,2,2V111
			C216.6,112.1,215.7,113,214.6,113z"/>
		<path class="st32" d="M214.6,129.4h-99.1c-1.1,0-2-0.9-2-2v-7.1c0-1.1,0.9-2,2-2h99.1c1.1,0,2,0.9,2,2v7.1
			C216.6,128.5,215.7,129.4,214.6,129.4z"/>
		<path class="st60" d="M276.7,75h-160c-1.7,0-3.1-1.4-3.1-3.1v0c0-1.7,1.4-3.1,3.1-3.1h160c1.7,0,3.1,1.4,3.1,3.1v0
			C279.8,73.6,278.4,75,276.7,75z"/>
		<path class="st60" d="M292.3,75h-3.4c-1.7,0-3-1.3-3-3v-0.3c0-1.7,1.3-3,3-3h3.4c1.7,0,3,1.3,3,3V72C295.3,73.6,294,75,292.3,75z"
			/>
		<path class="st59" d="M293.3,193.4H115.5c-1.1,0-2-0.9-2-2v-50.5c0-1.1,0.9-2,2-2h177.8c1.1,0,2,0.9,2,2v50.5
			C295.3,192.5,294.4,193.4,293.3,193.4z"/>
		
			<linearGradient id="SVGID_00000065051376313170990790000002689640226743057850_" gradientUnits="userSpaceOnUse" x1="266.0923" y1="93.0928" x2="293.1739" y2="120.1745">
			<stop  offset="0" style="stop-color:#49E2A8"/>
			<stop  offset="1" style="stop-color:#00844E"/>
		</linearGradient>
		<circle style="fill:url(#SVGID_00000065051376313170990790000002689640226743057850_);" cx="279.8" cy="106.8" r="15.5"/>
		<g>
			
				<linearGradient id="SVGID_00000081622754393838923990000004816719416419624892_" gradientUnits="userSpaceOnUse" x1="205.9866" y1="204.575" x2="205.9866" y2="60.3167">
				<stop  offset="0" style="stop-color:#0A3757"/>
				<stop  offset="1" style="stop-color:#0E0E1E"/>
			</linearGradient>
			<path style="fill:url(#SVGID_00000081622754393838923990000004816719416419624892_);" d="M309.1,204.6H102.8
				c-3.1,0-5.7-2.6-5.7-5.7V66.3c0-3.1,2.6-5.7,5.7-5.7h206.3c3.1,0,5.7,2.6,5.7,5.7v132.6C314.9,202,312.3,204.6,309.1,204.6z
				 M102.8,62.5c-2,0-3.7,1.7-3.7,3.7v132.6c0,2,1.7,3.7,3.7,3.7h206.3c2,0,3.7-1.7,3.7-3.7V66.3c0-2-1.7-3.7-3.7-3.7H102.8z"/>
		</g>
		<path class="st15" d="M282.6,58.9l-14.2-30.7C237,42.3,206,17.1,206,17.1s-31.1,25.2-62.5,11.2l-14.2,30.7c0,0,12.2,6.9,14.2,22.9
			c2,16-7.1,45.6,7.3,61c14.4,15.4,44.4,21.1,55.2,33.4c10.8-12.2,40.8-17.9,55.2-33.4c14.4-15.4,5.3-45.1,7.3-61
			C270.4,65.9,282.6,58.9,282.6,58.9z"/>
		
			<linearGradient id="SVGID_00000168813237190406616240000012979255122864125580_" gradientUnits="userSpaceOnUse" x1="180.7477" y1="84.1981" x2="230.4709" y2="133.9212">
			<stop  offset="0" style="stop-color:#E91C60"/>
			<stop  offset="1" style="stop-color:#6A1A6E"/>
		</linearGradient>
		<path style="fill:url(#SVGID_00000168813237190406616240000012979255122864125580_);" d="M229.8,131.9h-47.7
			c-1.9,0-3.5-1.6-3.5-3.5v-38c0-1.9,1.6-3.5,3.5-3.5h47.7c1.9,0,3.5,1.6,3.5,3.5v38C233.3,130.4,231.8,131.9,229.8,131.9z"/>
		<g>
			
				<linearGradient id="SVGID_00000016076421219711768940000002490711808398938768_" gradientUnits="userSpaceOnUse" x1="193.6692" y1="65.6873" x2="218.0275" y2="90.0457">
				<stop  offset="0" style="stop-color:#D5D5D5"/>
				<stop  offset="1" style="stop-color:#8D8D8D"/>
			</linearGradient>
			<path style="fill:url(#SVGID_00000016076421219711768940000002490711808398938768_);" d="M221.1,86.9h-7V75.3
				c0-4.5-3.6-8.1-8.1-8.1s-8.1,3.6-8.1,8.1v11.6h-7V75.3c0-8.3,6.8-15.1,15.1-15.1s15.1,6.8,15.1,15.1V86.9z"/>
		</g>
		
			<linearGradient id="SVGID_00000106841623150906652010000014644820791334112154_" gradientUnits="userSpaceOnUse" x1="205.9866" y1="119.762" x2="205.9866" y2="99.5978">
			<stop  offset="0" style="stop-color:#0A3757"/>
			<stop  offset="1" style="stop-color:#0E0E1E"/>
		</linearGradient>
		<path style="fill:url(#SVGID_00000106841623150906652010000014644820791334112154_);" d="M211.6,104.8c0-3.3-2.9-5.9-6.2-5.6
			c-2.5,0.3-4.5,2.2-4.9,4.7c-0.4,2.5,0.9,4.7,2.9,5.8v7.3c0,1.5,1.2,2.7,2.7,2.7h0c1.5,0,2.7-1.2,2.7-2.7v-7.3
			C210.4,108.7,211.6,106.9,211.6,104.8z"/>
		
			<linearGradient id="SVGID_00000041980110491715644860000007818358040269977732_" gradientUnits="userSpaceOnUse" x1="147.71" y1="24.0299" x2="265.1745" y2="140.7846">
			<stop  offset="0" style="stop-color:#E91C60"/>
			<stop  offset="1" style="stop-color:#6A1A6E"/>
		</linearGradient>
		<path style="fill:url(#SVGID_00000041980110491715644860000007818358040269977732_);" d="M206,35.1c9.3,5.5,24.7,12.4,42.3,12.4
			c4.1,0,8.1-0.4,12-1.1l4.1,8.8c-4.7,5.5-9.5,13.7-10.8,24.8c-0.8,6.4-0.3,13.4,0.3,20.8c0.8,11.6,1.9,26-3.6,31.8
			c-5.5,5.9-15.8,10.6-25.7,15.2c-6.5,3-12.9,5.9-18.5,9.3c-5.6-3.4-11.9-6.3-18.5-9.3c-9.9-4.5-20.2-9.3-25.7-15.2
			c-5.5-5.9-4.4-20.3-3.6-31.8c0.5-7.4,1-14.4,0.3-20.8c-1.4-11.1-6.1-19.3-10.8-24.8l4.1-8.8c3.9,0.7,7.9,1.1,12,1.1
			C181.3,47.5,196.7,40.5,206,35.1 M206,17.1c0,0-19,15.4-42.3,15.4c-6.5,0-13.3-1.2-20.1-4.2l-14.2,30.7c0,0,12.2,6.9,14.2,22.9
			c2,16-7.1,45.6,7.3,61c14.4,15.4,44.4,21.1,55.2,33.4c10.8-12.2,40.8-17.9,55.2-33.4c14.4-15.4,5.3-45.1,7.3-61
			c2-16,14.2-22.9,14.2-22.9l-14.2-30.7c-6.8,3.1-13.7,4.2-20.1,4.2C225,32.5,206,17.1,206,17.1L206,17.1z"/>
	</g>
</g>
</svg>
