<svg xmlns="http://www.w3.org/2000/svg" xmlns:xlink="http://www.w3.org/1999/xlink" id="Layer_1" x="0px" y="0px" viewBox="0 0 141.7 141.7" style="enable-background:new 0 0 141.7 141.7;" xml:space="preserve"> <style type="text/css"> .st0{fill:#FFFFFF;} .st1{fill:#31383F;} </style> <g> <path class="st0" d="M5.2,24.1l47.1,56.2v54.8l26.3-12.8v-11.8c0,0,18.7,25.2,24.6,25.2c5.9,0,36.1-29.5,34.4-68.8 c0,0-22.8-2-34.4-14.2L126.3,25c0,0,14.5-19.8-60.6-19.8C-4.2,5,5.2,24.1,5.2,24.1z"></path> <path class="st1" d="M138,64.5c-12.8,0-24.5-4.5-31.8-11.9L128,26.1c1.6-1.7,2.4-3.4,2.4-5.3c0-5.4-6.7-9.9-19.9-13.2 C98.5,4.6,82.7,3,65.9,3C49.1,3,33.3,4.6,21.4,7.6C8.1,10.9,1.4,15.3,1.4,20.8c0,1.9,0.7,3.5,2.2,5.1l46.5,56.4v54.1 c0,0.8,0.4,1.5,1.1,1.9c0.7,0.4,1.5,0.4,2.2,0.1l26.9-13.3c0.8-0.4,1.3-1.2,1.3-2l0-5.6c5.5,8,12.3,15.1,20.3,20.7 c0.8,0.5,1.9,0.5,2.6,0c22.4-15.6,35.7-42.3,35.7-71.4C140.3,65.5,139.3,64.5,138,64.5z M6.8,20.8c0-1.3,0.6-2.5,1.7-3.3 c2.2-1.6,6.8-4,16.4-6.1c11.3-2.5,25.9-3.9,41.1-3.9c15.2,0,29.9,1.4,41.1,3.9c9.6,2.2,14.2,4.5,16.4,6.1c1,0.8,1.7,2,1.7,3.3 s-0.6,2.5-1.7,3.3c-2.2,1.6-6.8,4-16.4,6.1c-11.3,2.5-25.9,3.9-41.1,3.9c-15.2,0-29.8-1.4-41.1-3.9C15.2,28,10.6,25.6,8.4,24 C7.4,23.3,6.8,22.1,6.8,20.8z M77.1,121.8l-22.4,11.1V81.5c0-0.5-0.2-1-0.5-1.4L14.9,32.5l8,1.9c11.7,2.7,27,4.3,43,4.3 c16,0,31.3-1.5,43-4.3l8-1.9l-16.5,20c-7.3,7.5-19.1,12-31.9,12c-1.3,0-2.3,1-2.3,2.3c0,15.6,3.9,30.5,10.9,43.4L77.1,121.8z M135.7,69.5c-0.8,26-12.5,49.3-32.1,63.8l-0.3,0.2l-0.3-0.2c-19.6-14.5-31.3-37.7-32.1-63.8l0-0.5l0.5,0 c12.5-0.6,24-5.1,31.6-12.5l0.3-0.3l0.3,0.3c7.6,7.3,19.1,11.9,31.6,12.5l0.5,0L135.7,69.5z"></path> <path class="st1" d="M93.5,88.8c-0.6,0-1.2,0.2-1.6,0.7c-0.9,0.9-0.9,2.4,0,3.3l8.3,8.3c0.4,0.4,1,0.7,1.6,0.7 c0.7,0,1.4-0.3,1.8-0.8l13.9-16.7c0.8-1,0.7-2.4-0.3-3.2c-1-0.8-2.4-0.7-3.2,0.3l-12.3,14.7l-6.6-6.6 C94.7,89.1,94.1,88.8,93.5,88.8z"></path> </g> </svg>