<svg xmlns="http://www.w3.org/2000/svg" xmlns:xlink="http://www.w3.org/1999/xlink" id="Layer_1" x="0px" y="0px" viewBox="0 0 141.7 141.7" style="enable-background:new 0 0 141.7 141.7;" xml:space="preserve"> <style type="text/css"> .st0{fill:#FFFFFF;} .st1{fill:#31383F;} </style> <g> <circle class="st0" cx="57.6" cy="57.7" r="53.2"></circle> <path class="st1" d="M98.6,95.4l1.3-1.6c18.9-22.1,17.7-55.5-2.9-76C86.5,7.2,72.4,1.4,57.4,1.4c-15,0-29,5.8-39.6,16.4 C7.2,28.4,1.4,42.5,1.4,57.4c0,15,5.8,29,16.4,39.6c20.6,20.6,54,21.9,76,2.9l1.6-1.3l41,41c0.9,0.9,2.3,0.9,3.2,0 c0.4-0.4,0.7-1,0.7-1.6s-0.2-1.2-0.7-1.6L98.6,95.4z M93.8,93.8c-10,10-23.2,15.1-36.4,15.1c-13.2,0-26.4-5-36.4-15.1l0,0 C0.9,73.8,0.9,41.1,21,21c9.7-9.7,22.7-15.1,36.4-15.1c0,0,0,0,0,0c13.8,0,26.7,5.4,36.4,15.1C113.9,41.1,113.9,73.8,93.8,93.8z"></path> <path class="st1" d="M57.4,19.3c-1.2,0-2.3,1-2.3,2.3c0,1.2,1,2.3,2.3,2.3C75.9,23.8,91,38.9,91,57.4c0,1.2,1,2.3,2.3,2.3 s2.3-1,2.3-2.3C95.5,36.4,78.4,19.3,57.4,19.3z"></path> </g> </svg>