<?xml version="1.0" encoding="utf-8"?>
<!-- Generator: Adobe Illustrator 22.1.0, SVG Export Plug-In . SVG Version: 6.00 Build 0)  -->
<svg version="1.1" id="Layer_1" xmlns="http://www.w3.org/2000/svg" xmlns:xlink="http://www.w3.org/1999/xlink" x="0px" y="0px"
	 viewBox="0 0 141.7 141.7" style="enable-background:new 0 0 141.7 141.7;" xml:space="preserve">
<style type="text/css">
	.st0{fill:#FFFFFF;}
	.st1{fill:#31383F;}
</style>
<g>
	<circle class="st0" cx="130.3" cy="121.1" r="7.2"/>
	<path class="st0" d="M61.7,139.1c0,0,50.2-21.8,56.8-113.4c0,0-32.6,1.4-56.8-22.8c0,0-23.3,23.5-56.5,23.3
		C5.3,26.2-3.1,91,61.7,139.1z"/>
	<path class="st1" d="M130.3,112c-1.6,0-3.1,0.4-4.6,1.3l-1.3,0.7l-22.1-16.2l0.9-1.7c8.5-15.5,14-32.5,16.5-50.5l0.2-1.2l16-8
		c1.1-0.6,1.6-2,1-3.1c-0.3-0.6-0.8-1-1.3-1.2c-0.6-0.2-1.2-0.2-1.8,0.1l-13.2,6.6l0.3-3.9c0.2-3.6,0.3-6.8,0.3-9.8
		c0-1.3-1-2.3-2.3-2.3c-22.6,0-43.3-8.2-55.4-22.1c-0.4-0.5-1-0.7-1.7-0.7C61,0,60.4,0.3,60,0.7C47.9,14.5,27.2,22.8,4.6,22.8
		c-1.3,0-2.3,1-2.3,2.3c0,47.4,21.7,90.8,58.1,116.2c0.8,0.5,1.9,0.5,2.7,0c14.1-9.8,26.1-22.5,35.6-37.5l1.3-2l21.7,15.9l-0.3,1.4
		c-0.2,0.7-0.2,1.4-0.2,2c0,5.1,4.1,9.2,9.2,9.2s9.2-4.1,9.2-9.2C139.5,116.1,135.3,112,130.3,112z M95.1,100.8
		c-8.7,13.8-19.4,25.5-32.1,34.8l-1.3,1l-1.3-1C27.8,111.5,8.3,72.9,7,29.6l-0.1-2.2l2.2-0.1c20.2-1,38.8-8.3,51-20.1l1.6-1.5
		l1.6,1.5c12.3,11.8,30.9,19.1,51,20.1l2.2,0.1l-0.1,2.2c-0.1,3.2-0.3,6.5-0.7,10.5l-0.1,1.2L60.7,68.8c-0.7,0.4-1.2,1.1-1.3,1.9
		c-0.1,0.8,0.3,1.6,0.9,2.1l35.9,26.3L95.1,100.8z M99.8,92.7L98.6,95L66.2,71.2L115,46.8l-0.8,4.4C111.5,65.9,106.7,79.9,99.8,92.7
		z M130.3,126.3c-2.8,0-5.1-2.3-5.1-5.1c0-2.8,2.3-5.1,5.1-5.1c2.8,0,5.1,2.3,5.1,5.1C135.4,124,133.1,126.3,130.3,126.3z"/>
</g>
</svg>
