<?xml version="1.0" encoding="utf-8"?>
<!-- Generator: Adobe Illustrator 22.1.0, SVG Export Plug-In . SVG Version: 6.00 Build 0)  -->
<svg version="1.1" id="Layer_1" xmlns="http://www.w3.org/2000/svg" xmlns:xlink="http://www.w3.org/1999/xlink" x="0px" y="0px"
	 viewBox="0 0 141.7 141.7" style="enable-background:new 0 0 141.7 141.7;" xml:space="preserve">
<style type="text/css">
	.st0{fill:#FFFFFF;}
	.st1{fill:#31383F;}
</style>
<g>
	<path class="st0" d="M2.4,29v53.6h18.1l2-6.4c0,0,39.7,44.7,54.3,33.6c0,0,8.1,5.2,11.9-5.8c0,0,9.8,3.8,12.2-6.3
		c0,0,9.1,2,9.1-9.3l9.4-5.8l2.5,6.5h17.3V34.9L104.2,40l1.7,6.4c0,0-25.2-11.5-34-11c-8.8,0.4-13.8,6.5-13.8,6.5H31.4l0.5-7.7
		L2.4,29z"/>
	<path class="st1" d="M139.5,32.8c-22.6,0-35.3,5.5-36.7,6.2c-0.6,0.3-1,0.8-1.2,1.4c-0.2,0.5-0.1,1.1,0.1,1.6l0.8,1.6l-1.7-0.6
		c-4.3-1.6-10.7-4.1-17.1-7c-9.9-4.4-16.6-3.7-24.7,2.6l-0.2,0.2H33.9L34,38c0.1-0.9,0.2-1.8,0.3-2.7c0.1-0.7-0.2-1.4-0.7-1.8
		c-3.9-3.7-18.7-5.8-31.3-6.6c-0.6,0-1.2,0.2-1.7,0.6c-0.5,0.4-0.7,1-0.7,1.7v53.7c0,1.2,1,2.3,2.3,2.3h17.9c1,0,1.8-0.6,2.2-1.6
		c0.1-0.2,0.3-1,0.7-2.2l0.4-1.1l0.8,0.9c0.5,0.5,1.1,1.1,1.7,1.7l0.5,0.6c2.7,2.8,5.4,5.6,7.2,7.2c11.1,9.3,24.4,19.3,27.1,21
		c2.1,1.4,6.7,3.4,10.2,3.4c2.7,0,4.9-0.6,6.3-1.8l0.3-0.3l0.4,0.2c2,0.8,4.2,0.7,6.3-0.1c2.5-1,4.6-2.9,5.8-5.4l0.2-0.5l0.5,0.1
		c2.2,0.5,4.8,0.1,7-1c2.2-1.1,3.8-2.8,4.6-4.8l0.2-0.5l0.5,0c2.2,0.1,4.5-0.7,6.3-2.3c2.5-2.1,3.6-5.2,3-8.4l-0.1-0.5l5.9-4
		l0.3,0.9c0.3,1.1,0.6,2,0.8,2.7c0.3,1,1.2,1.7,2.2,1.7h17.9c1.2,0,2.3-1,2.3-2.3V35.1C141.7,33.8,140.7,32.8,139.5,32.8z M18.7,80
		l-0.2,0.5h-14v-49l0.8,0.1c9,0.7,19.9,2.3,23.9,4.3l0.5,0.2l-0.1,0.5C28.1,49.8,20.8,73.2,18.7,80z M106.5,95.1
		c-1.4,1.2-3.2,1.5-4.4,0.9l-0.1-0.1C99.7,94,89.5,83.5,84.4,78.2c-0.4-0.4-1-0.7-1.6-0.7c-0.6,0-1.2,0.2-1.6,0.6
		c-0.4,0.4-0.7,1-0.7,1.6c0,0.6,0.2,1.2,0.6,1.6c2.1,2.2,12.7,13.2,17,17.1l0.3,0.3l-0.1,0.4c-0.4,1.5-1.8,2.4-2.6,2.8
		c-2.2,1.1-4.5,0.9-5.4,0c-0.1-0.1-0.1-0.1-0.1-0.1C86.5,99,77.6,89.4,75.5,87.2c-0.8-0.9-2.3-1-3.2-0.1c-0.9,0.8-1,2.3-0.1,3.2
		l0.1,0.1c2.1,2.3,9.3,10,13.7,13.9l0.4,0.3l-0.2,0.5c-0.6,1.6-2,3-3.6,3.6c-1.6,0.6-3,0.4-4.2-0.7c-4.4-3.7-13.1-13-14.8-14.8
		c-0.4-0.4-1-0.7-1.6-0.7c-0.6,0-1.2,0.2-1.6,0.6c-0.9,0.9-1,2.3-0.1,3.2c1.8,1.9,7.9,8.4,12.5,12.8l1.1,1l-1.5,0.2
		c-0.4,0.1-0.9,0.1-1.5,0.1c-2.1,0-5.8-1.4-7.7-2.6C61,106.3,47.8,96.5,36.5,87c-1.6-1.4-4.4-4.3-6.8-6.8c-1.7-1.8-3.4-3.5-4.5-4.6
		l-0.3-0.3l0.1-0.4c2.6-8.6,6.1-20.9,8.1-31l0.1-0.6h20.6l-1.2,1.2c-3.9,4-9.3,11.9-7.9,17.7c0.6,2.3,2.2,4.1,4.7,4.9
		c6.5,2.1,12.3,0.2,16.7-5.8l0.2-0.2l0.3,0c1.8-0.3,2.8-0.7,4.3-1.4c0.6-0.3,1.2-0.6,2.1-0.9l0.4-0.2l0.3,0.3
		c3.4,3.2,8.2,7.1,12.8,10.8c8.8,7.1,18.8,15.2,21.1,20C109,92.6,107.3,94.4,106.5,95.1z M110.4,85.6L110,85
		c-4.1-5.4-12.5-12.2-20.7-18.9c-5.4-4.4-10.5-8.5-13.9-11.8c-0.6-0.6-1.5-0.8-2.4-0.5c-1.9,0.7-3.1,1.2-4,1.6l-0.1,0.1
		c-1.5,0.7-2.1,0.9-4.2,1.2c-0.7,0.1-1.3,0.4-1.7,1c-3.4,5.1-7.4,6.7-12.3,5.1c-1.2-0.4-1.5-1-1.7-1.6c-0.8-3.2,3-9.6,6.8-13.5
		c11.3-11.3,16.6-11.8,26-7.6c10,4.5,20.2,8.2,23.1,9.2l0.3,0.1l0.1,0.3c3.6,8.7,8.4,22.1,11.3,31l0.2,0.5L110.4,85.6z M137.2,86.5
		h-13.9l-0.2-0.5c-2.9-9.3-11.2-33.4-15.8-43.1l-0.3-0.7l0.8-0.3c4.6-1.6,14.5-4.2,28.7-4.6l0.7,0V86.5z"/>
</g>
</svg>
