<?xml version="1.0" encoding="utf-8"?>
<!-- Generator: Adobe Illustrator 22.1.0, SVG Export Plug-In . SVG Version: 6.00 Build 0)  -->
<svg version="1.1" id="Layer_1" xmlns="http://www.w3.org/2000/svg" xmlns:xlink="http://www.w3.org/1999/xlink" x="0px" y="0px"
	 viewBox="0 0 141.7 141.7" style="enable-background:new 0 0 141.7 141.7;" xml:space="preserve">
<style type="text/css">
	.st0{fill:#FFFFFF;}
	.st1{fill:#31383F;}
</style>
<polygon class="st0" points="273.4,146.1 273.4,186.6 410.6,186.6 410.6,91.5 376.1,91.5 376.1,127.5 342,127.5 342,109.5 
	307.7,109.5 307.7,145.8 "/>
<path class="st1" d="M410.4,88.9h-34.3c-1.3,0-2.3,1-2.3,2.3v34.2h-29.6v-16c0-1.3-1-2.3-2.3-2.3h-34.3c-1.3,0-2.3,1-2.3,2.3v34.2
	h-32c-1.3,0-2.3,1-2.3,2.3v39.7c0,1.3,1,2.3,2.3,2.3h137.1c1.3,0,2.3-1,2.3-2.3V91.2C412.7,89.9,411.7,88.9,410.4,88.9z
	 M305.2,183.4h-29.6v-35h29.6V183.4z M339.5,183.4h-29.6v-71.6h29.6V183.4z M373.8,183.4h-29.6v-53.3h29.6V183.4z M408.1,183.4
	h-29.6V93.5h29.6V183.4z"/>
<path class="st1" d="M274.6,109.1L328,73.5l21.5,17.2c0.8,0.6,1.9,0.7,2.8,0.1l54.3-37l2.4,3.7l2.9-9.9l-10.3-1.1L404,50L351.1,86
	l-21.5-17.2c-0.4-0.3-0.9-0.5-1.4-0.5c-0.4,0-0.9,0.1-1.3,0.4L272,105.3c-1.1,0.7-1.4,2.2-0.6,3.2
	C272.1,109.5,273.6,109.8,274.6,109.1z"/>
<g>
	<polygon class="st0" points="2.4,99.7 2.4,140.2 139.6,140.2 139.6,45.1 105.1,45.1 105.1,81.1 71,81.1 71,63.1 36.7,63.1 
		36.7,99.4 	"/>
	<path class="st1" d="M139.4,42.5h-34.3c-1.3,0-2.3,1-2.3,2.3v34.2H73.2v-16c0-1.3-1-2.3-2.3-2.3H36.6c-1.3,0-2.3,1-2.3,2.3v34.2
		h-32c-1.3,0-2.3,1-2.3,2.3v39.7c0,1.3,1,2.3,2.3,2.3h137.1c1.3,0,2.3-1,2.3-2.3V44.8C141.7,43.5,140.7,42.5,139.4,42.5z M34.3,137
		H4.6v-35h29.6V137z M68.5,137H38.9V65.4h29.6V137z M102.8,137H73.2V83.7h29.6V137z M137.1,137h-29.6V47.1h29.6V137z"/>
	<path class="st1" d="M3.6,62.7l53.4-35.6l21.5,17.2c0.8,0.6,1.9,0.7,2.8,0.1l54.3-37l2.4,3.7l2.9-9.9l-10.3-1.1l2.3,3.5L80.1,39.6
		L58.6,22.4c-0.4-0.3-0.9-0.5-1.4-0.5c-0.4,0-0.9,0.1-1.3,0.4L1.1,58.9C0,59.6-0.3,61,0.4,62.1C1.1,63.1,2.6,63.4,3.6,62.7z"/>
</g>
</svg>
