<svg xmlns="http://www.w3.org/2000/svg" xmlns:xlink="http://www.w3.org/1999/xlink" id="Layer_1" x="0px" y="0px" viewBox="0 0 141.7 141.7" style="enable-background:new 0 0 141.7 141.7;" xml:space="preserve"> <style type="text/css"> .st0{fill:#FFF3C8;} .st1{fill:#FFCB11;} </style> <path class="st0" d="M14,67.3v55.3c0,0,1.3,16,16.7,16s78.3,0,78.3,0s19.3,1.3,19.3-21.7s0-49,0-49s4.7-11-17-11s-86.7,0-86.7,0 S14,56,14,67.3z"></path> <g> <path class="st1" d="M119.5,53.3h-4.4v-8.9c0-24.4-19.9-44.3-44.3-44.3C46.4,0.1,26.5,20,26.5,44.4v8.9h-4.4 c-7.3,0-13.3,6-13.3,13.3v17.7v35.4c0,12.2,9.9,22.1,22.1,22.1h79.7c12.2,0,22.1-9.9,22.1-22.1V84.3V66.6 C132.8,59.2,126.8,53.3,119.5,53.3z M35.4,44.4C35.4,24.9,51.3,9,70.8,9s35.4,15.9,35.4,35.4v8.9H35.4V44.4z M124,119.7 c0,7.3-6,13.3-13.3,13.3H30.9c-7.3,0-13.3-6-13.3-13.3V84.3V66.6c0-2.4,2-4.4,4.4-4.4h97.4c2.4,0,4.4,2,4.4,4.4v17.7v35.4H124z"></path> <path class="st1" d="M71.7,84.4c-0.3-0.1-0.6-0.1-0.9-0.1s-0.6,0-0.9,0.1c-4.5,0.5-8,4.2-8,8.8c0,3.3,1.8,6.1,4.4,7.6v10.1 c0,2.4,2,4.4,4.4,4.4s4.4-2,4.4-4.4v-10.1c2.6-1.5,4.4-4.4,4.4-7.6C79.7,88.6,76.2,84.8,71.7,84.4z"></path> </g> </svg>