<svg version="1.1" id="Layer_1" xmlns="http://www.w3.org/2000/svg" x="0" y="0" width="381.333" height="130.333" viewBox="0 0 381.333 130.333" xml:space="preserve"><linearGradient id="SVGID_1_" gradientUnits="userSpaceOnUse" x1="21.478" y1="32.808" x2="21.478" y2="100.511"><stop offset="0" stop-color="#383838"/><stop offset="1" stop-color="#000"/></linearGradient><path fill="url(#SVGID_1_)" d="M2.93 39.435v-6.627h37.097v6.627H24.931v61.077h-6.905V39.435H2.93z"/><linearGradient id="SVGID_2_" gradientUnits="userSpaceOnUse" x1="64.529" y1="32.808" x2="64.529" y2="100.511"><stop offset="0" stop-color="#383838"/><stop offset="1" stop-color="#000"/></linearGradient><path fill="url(#SVGID_2_)" d="M65.564 32.808l31.573 67.704H89.83L79.182 78.235H50.015l-10.546 22.276H31.92l31.988-67.704h1.656zm-.854 14.384L53.108 71.699h23.146L64.71 47.192z"/><linearGradient id="SVGID_3_" gradientUnits="userSpaceOnUse" x1="123.872" y1="32.808" x2="123.872" y2="100.511"><stop offset="0" stop-color="#383838"/><stop offset="1" stop-color="#000"/></linearGradient><path fill="url(#SVGID_3_)" d="M99.823 32.808h7.914l16.21 26.345 16.305-26.345h7.807l-20.194 32.714 21.529 34.99h-7.912l-17.58-28.572-17.638 28.571H98.35l21.628-34.946-20.155-32.757z"/><linearGradient id="SVGID_4_" gradientUnits="userSpaceOnUse" x1="158.96" y1="32.808" x2="158.96" y2="100.511"><stop offset="0" stop-color="#383838"/><stop offset="1" stop-color="#000"/></linearGradient><path fill="url(#SVGID_4_)" d="M155.577 32.808h6.766v67.704h-6.766V32.808z"/><linearGradient id="SVGID_5_" gradientUnits="userSpaceOnUse" x1="342.01" y1="32.808" x2="342.01" y2="100.511"><stop offset="0" stop-color="#383838"/><stop offset="1" stop-color="#000"/></linearGradient><path fill="url(#SVGID_5_)" d="M311.7 32.808h20.03l10.984 17.952 10.979-17.952h20.03L352.991 64.64l25.477 35.871h-20.156l-15.583-23.802-15.577 23.802h-21.601l26.004-35.898L311.7 32.808z"/><linearGradient id="SVGID_6_" gradientUnits="userSpaceOnUse" x1="203.106" y1="32.808" x2="203.106" y2="100.511"><stop offset="0" stop-color="#383838"/><stop offset="1" stop-color="#000"/></linearGradient><path fill="url(#SVGID_6_)" d="M177.638 100.511V32.808h15.042c6.175 0 14.842.399 17.699 1.197 4.056 1.073 7.281 3.068 9.678 5.982 2.396 2.916 3.594 6.353 3.594 10.312 0 2.575-.544 4.917-1.634 7.017-1.09 2.103-2.863 4.074-5.317 5.914 4.112 1.933 7.121 4.352 9.021 7.25 1.905 2.899 2.854 6.328 2.854 10.287 0 3.805-.982 7.27-2.948 10.399s-4.502 5.472-7.604 7.023c-3.103 1.548-11.537 2.322-17.005 2.322h-23.38zm17.283-55.415v14.268h2.818c3.143 0 5.476-.659 7.001-1.977 1.523-1.32 2.287-3.116 2.287-5.386 0-2.12-.725-3.797-2.173-5.041-1.447-1.242-3.649-1.864-6.605-1.864h-3.328zm0 25.776v17.351h3.231c5.354 0 8.961-.675 10.822-2.026 1.86-1.351 2.794-3.313 2.794-5.892 0-2.916-1.093-5.216-3.278-6.902-2.186-1.688-5.815-2.531-10.893-2.531h-2.676z"/><g><linearGradient id="SVGID_7_" gradientUnits="userSpaceOnUse" x1="270.846" y1="3.1" x2="270.846" y2="101.714"><stop offset="0" stop-color="#383838"/><stop offset="1" stop-color="#000"/></linearGradient><path fill="url(#SVGID_7_)" d="M299.05 42.016V24.723c-.684-7.608-7.083-21.623-27.951-21.623-26.21 0-26.69 23.127-26.69 23.418v13.5c-7.808 6.531-11.832 15.688-11.832 25.835 0 19.772 17.229 35.86 38.404 35.86 21.181 0 38.134-16.088 38.134-35.86-.001-9.152-3.819-17.494-10.065-23.837zm-46.836-15.411c0-1.557 1.023-15.171 18.745-15.171 17.658 0 20.283 12.274 20.283 14.276v9.834c-6.24-3.496-13.021-5.552-20.536-5.552-6.66 0-12.247 1.595-18.492 4.394v-7.781zm18.769 66.771c-16.667 0-30.227-12.343-30.227-27.522 0-15.176 13.56-27.525 30.227-27.525 16.67 0 30.235 12.349 30.235 27.525.001 15.179-13.565 27.522-30.235 27.522z"/><linearGradient id="SVGID_8_" gradientUnits="userSpaceOnUse" x1="270.922" y1="42.409" x2="270.922" y2="89.428"><stop offset="0" stop-color="#383838"/><stop offset="1" stop-color="#000"/></linearGradient><path fill="url(#SVGID_8_)" d="M270.921 42.409c-14.287 0-25.864 10.525-25.864 23.51 0 12.986 11.577 23.509 25.864 23.509 14.281 0 25.866-10.521 25.866-23.509 0-12.985-11.585-23.51-25.866-23.51zm8.106 41.495l-15.319-.206 4.385-19.309c-3.569-1.043-6.18-4.058-6.18-7.654 0-4.458 3.978-8.074 8.881-8.074 4.9 0 8.879 3.616 8.879 8.074 0 3.479-2.43 6.413-5.81 7.547l5.164 19.622z"/></g><g><path d="M180.64 111.433h2.639l3.296 9.919 3.327-9.919h2.636l2.386 14.221h-2.618l-1.524-8.98-3.021 8.98h-2.386l-2.994-8.98-1.562 8.98h-2.64l2.461-14.221zM203.259 111.076c2.012 0 3.741.728 5.19 2.183 1.447 1.458 2.172 3.234 2.172 5.329 0 2.076-.714 3.833-2.145 5.269-1.428 1.438-3.16 2.155-5.198 2.155-2.136 0-3.909-.736-5.322-2.213-1.411-1.477-2.118-3.229-2.118-5.26 0-1.359.33-2.611.987-3.75a7.293 7.293 0 0 1 2.714-2.713c1.15-.668 2.392-1 3.72-1zm-.03 2.649c-1.316 0-2.423.456-3.318 1.373-.896.914-1.346 2.078-1.346 3.489 0 1.573.564 2.817 1.694 3.731a4.633 4.633 0 0 0 3.02 1.074c1.283 0 2.379-.464 3.279-1.392.903-.928 1.356-2.073 1.356-3.432 0-1.354-.456-2.501-1.364-3.438-.909-.939-2.017-1.405-3.321-1.405zM212.639 125.654v-14.221h2.234c1.296 0 2.246.082 2.848.25.851.228 1.529.646 2.031 1.258.503.612.755 1.334.755 2.166 0 .541-.115 1.032-.343 1.474-.229.442-.602.856-1.117 1.244.864.406 1.496.912 1.896 1.521.398.609.599 1.329.599 2.161 0 .799-.206 1.529-.62 2.185a3.932 3.932 0 0 1-1.596 1.475c-.653.327-1.554.489-2.701.489h-3.986zm2.707-11.641v2.998h.59c.662 0 1.15-.14 1.472-.417.318-.277.48-.653.48-1.131 0-.445-.153-.796-.455-1.057-.306-.261-.77-.393-1.39-.393h-.697zm0 5.414v3.646h.678c1.123 0 1.881-.143 2.273-.425.39-.283.585-.697.585-1.238 0-.612-.228-1.095-.687-1.45-.458-.354-1.222-.532-2.29-.532h-.559zM223.396 111.433h2.688v14.221h-2.688v-14.221zM228.595 111.433h2.707v11.64h3.942v2.581h-6.649v-14.221zM236.779 111.433h7.764v2.649h-5.076v2.572h5.076v2.6h-5.076v3.742h5.076v2.658h-7.764v-14.221zM259 113.365l-2.004 1.771c-.703-.98-1.422-1.472-2.149-1.472-.357 0-.646.096-.873.286-.226.192-.338.406-.338.642 0 .239.079.464.241.678.22.283.882.892 1.985 1.829 1.032.862 1.658 1.405 1.878 1.633.549.555.938 1.084 1.166 1.59.231.505.347 1.06.347 1.658 0 1.167-.404 2.13-1.211 2.891-.808.761-1.858 1.14-3.154 1.14-1.014 0-1.897-.247-2.646-.744-.753-.497-1.397-1.277-1.933-2.339l2.275-1.373c.684 1.257 1.472 1.886 2.364 1.886.464 0 .854-.137 1.172-.406.315-.272.473-.585.473-.939 0-.321-.118-.646-.357-.966-.238-.321-.766-.815-1.578-1.48-1.552-1.263-2.551-2.237-3.004-2.924-.45-.687-.678-1.373-.678-2.054 0-.988.376-1.833 1.128-2.539s1.681-1.057 2.784-1.057c.708 0 1.386.165 2.025.491.643.329 1.338.928 2.087 1.798zM261.306 111.433h7.765v2.649h-5.076v2.572h5.076v2.6h-5.076v3.742h5.076v2.658h-7.765v-14.221zM271.061 111.433h2.707v11.64h3.942v2.581h-6.649v-14.221zM279.274 111.433h7.056v2.638h-4.367v2.583h4.367v2.6h-4.367v6.4h-2.688v-14.221zM288.282 119.186h4.911v2.457h-4.911v-2.457zM303.448 113.365l-2.005 1.771c-.702-.98-1.422-1.472-2.149-1.472-.356 0-.646.096-.873.286-.225.192-.338.406-.338.642 0 .239.08.464.242.678.22.283.881.892 1.984 1.829 1.032.862 1.658 1.405 1.878 1.633.549.555.939 1.084 1.167 1.59.23.505.346 1.06.346 1.658 0 1.167-.403 2.13-1.211 2.891-.807.761-1.858 1.14-3.154 1.14-1.013 0-1.896-.247-2.646-.744-.752-.497-1.397-1.277-1.933-2.339l2.276-1.373c.684 1.257 1.471 1.886 2.363 1.886.464 0 .854-.137 1.173-.406.315-.272.472-.585.472-.939 0-.321-.118-.646-.356-.966-.239-.321-.767-.815-1.579-1.48-1.551-1.263-2.551-2.237-3.003-2.924-.45-.687-.679-1.373-.679-2.054 0-.988.376-1.833 1.129-2.539.752-.706 1.68-1.057 2.783-1.057.709 0 1.387.165 2.026.491.643.329 1.337.928 2.087 1.798zM304.343 111.433h7.86v2.668h-2.592v11.553h-2.745v-11.553h-2.523v-2.668zM320.238 111.076c2.013 0 3.742.728 5.191 2.183 1.447 1.458 2.172 3.234 2.172 5.329 0 2.076-.714 3.833-2.144 5.269-1.428 1.438-3.16 2.155-5.2 2.155-2.133 0-3.906-.736-5.32-2.213-1.411-1.477-2.117-3.229-2.117-5.26 0-1.359.327-2.611.985-3.75a7.312 7.312 0 0 1 2.713-2.713 7.295 7.295 0 0 1 3.72-1zm-.027 2.649c-1.317 0-2.424.456-3.319 1.373-.897.914-1.345 2.078-1.345 3.489 0 1.573.562 2.817 1.693 3.731a4.632 4.632 0 0 0 3.018 1.074c1.285 0 2.378-.464 3.28-1.392.903-.928 1.356-2.073 1.356-3.432 0-1.354-.455-2.501-1.364-3.438-.911-.939-2.017-1.405-3.319-1.405zM329.804 111.433h2.866c1.57 0 2.69.14 3.354.42.667.28 1.203.747 1.609 1.397.406.65.609 1.422.609 2.312 0 .934-.226 1.716-.673 2.345-.447.626-1.123 1.104-2.026 1.425l3.369 6.323h-2.957l-3.198-6.023h-.247v6.023h-2.707v-14.222zm2.707 5.559h.846c.861 0 1.455-.112 1.778-.34.324-.225.486-.601.486-1.125 0-.31-.08-.579-.239-.81a1.353 1.353 0 0 0-.647-.494c-.27-.099-.764-.151-1.482-.151h-.741v2.92zM344.908 111.433h2.746l5.469 14.221h-2.814l-1.111-2.93h-5.804l-1.156 2.93h-2.814l5.484-14.221zm1.39 3.769l-1.908 4.884h3.806l-1.898-4.884zM367.811 113.752l-1.908 1.886c-1.205-1.277-2.61-1.914-4.217-1.914-1.4 0-2.572.464-3.517 1.392-.947.928-1.42 2.057-1.42 3.382 0 1.373.492 2.537 1.472 3.489.98.956 2.191 1.434 3.63 1.434.936 0 1.724-.198 2.366-.59s1.159-1.01 1.554-1.848h-4.118v-2.542h7.152l.021.599c0 1.244-.323 2.424-.969 3.539-.643 1.115-1.478 1.966-2.504 2.553-1.024.585-2.227.879-3.604.879-1.478 0-2.792-.321-3.951-.961-1.155-.643-2.072-1.554-2.745-2.74s-1.01-2.465-1.01-3.838c0-1.883.623-3.52 1.866-4.912 1.475-1.658 3.396-2.484 5.763-2.484 1.235 0 2.394.228 3.471.687.908.386 1.797 1.048 2.668 1.989zM370.784 111.433h7.764v2.649h-5.076v2.572h5.076v2.6h-5.076v3.742h5.076v2.658h-7.764v-14.221z"/></g></svg>