<?xml version="1.0" encoding="utf-8"?>
<!-- Generator: Adobe Illustrator 22.0.1, SVG Export Plug-In . SVG Version: 6.00 Build 0)  -->
<svg version="1.0" id="Layer_1" xmlns="http://www.w3.org/2000/svg" xmlns:xlink="http://www.w3.org/1999/xlink" x="0px" y="0px"
	 viewBox="0 0 141.7 141.7" style="enable-background:new 0 0 141.7 141.7;" xml:space="preserve">
<style type="text/css">
	.st0{opacity:0.6;fill:#39BCA3;}
	.st1{fill:#31383F;}
</style>
<g>
	<circle class="st0" cx="59.3" cy="74.1" r="56"/>
	<path class="st1" d="M61.2,82L39.3,60c-1.7-1.8-4.6-1.8-6.4,0c-1.8,1.7-1.8,4.6,0,6.4l25,25.2c0.9,0.9,2,1.3,3.2,1.3
		c1.2,0,2.3-0.5,3.2-1.3l76.1-75.7c1.7-1.7,1.8-4.6,0-6.4c-0.8-0.9-2-1.3-3.2-1.3c-1.2,0-2.3,0.5-3.2,1.3l-27.5,27.3l-0.5-0.7
		c-11.4-14-28.3-22-46.3-22c-8.4,0-16.6,1.7-24.2,5.1c-7.4,3.3-14,8-19.4,13.9c-5.5,5.9-9.7,12.8-12.5,20.3
		c-2.9,7.9-4,16.2-3.4,24.7c2.1,29.4,25.8,53.1,55.2,55.2c1.2,0.1,2.6,0.1,4.4,0.1c13.6,0,27-4.7,37.5-13.2
		c11.6-9.3,19.2-22.6,21.5-37.3c0.5-3,0.7-6.1,0.7-9.2c0-2.5-2-4.5-4.5-4.5c-2.5,0-4.5,2-4.5,4.5c0,2.5-0.2,5.2-0.6,7.8
		c-3.8,24.5-25.4,42.9-50.3,42.9c-1.2,0-2.4,0-3.6-0.1c-25-1.8-45.1-22-46.9-46.9c-1-14.3,3.8-27.8,13.5-38.3
		C32.2,29,45.7,23.1,59.7,23.1c15.7,0,30.3,7.1,40,19.6l0.4,0.5l-0.2,0.2L61.2,82z"/>
</g>
</svg>
