<svg xmlns="http://www.w3.org/2000/svg" xmlns:xlink="http://www.w3.org/1999/xlink" id="Layer_1" x="0px" y="0px" viewBox="0 0 283.5 283.5" style="enable-background:new 0 0 283.5 283.5;" xml:space="preserve"> <style type="text/css"> .st0{fill:#C42A87;} .st1{fill:none;} .st2{fill:#FFFFFF;} .st3{fill:#F0CCE1;} .st4{fill:#31383F;} </style> <g> <circle class="st0" cx="141.7" cy="141.7" r="136.8"></circle> <path class="st1" d="M100.3,201.5c-2.2,0-4.2,0.8-5.8,2.4c-1.5,1.5-2.4,3.6-2.4,5.8s0.8,4.2,2.4,5.8c1.5,1.5,3.6,2.4,5.8,2.4 c2.2,0,4.2-0.9,5.8-2.4c1.5-1.5,2.4-3.6,2.4-5.8s-0.8-4.2-2.4-5.8C104.5,202.4,102.4,201.5,100.3,201.5z"></path> <path class="st1" d="M83.3,184.6c-2.2,0-4.2,0.8-5.8,2.4c-1.5,1.5-2.4,3.6-2.4,5.8c0,2.2,0.8,4.2,2.4,5.8c1.5,1.5,3.6,2.4,5.8,2.4 c2.2,0,4.2-0.8,5.8-2.4c3.2-3.2,3.2-8.4,0-11.6C87.5,185.4,85.5,184.6,83.3,184.6z"></path> <path class="st1" d="M116.8,218.1c-2.2,0-4.2,0.8-5.8,2.4c-1.5,1.5-2.4,3.6-2.4,5.8s0.8,4.2,2.4,5.8c1.5,1.5,3.6,2.4,5.8,2.4 c2.2,0,4.2-0.9,5.8-2.4c1.5-1.5,2.4-3.6,2.4-5.8s-0.8-4.2-2.4-5.8C121,218.9,119,218.1,116.8,218.1z"></path> <path class="st1" d="M146.2,134.8L146.2,134.8c-0.1-0.1-0.1-0.1-0.1-0.1l-0.1-0.1l0,0l0,0l-0.2-0.2l-3.8-3.8l-0.7-0.7l-0.7,0.7 l-14,14c-3.2,3.2-7.5,5-12.1,5c-4.6,0-8.8-1.8-12-5c-3.2-3.2-5-7.5-5-12c0-4.6,1.8-8.8,5-12l27.8-27.8l2.1-2.1l-3,0.5 c-1.4,0.2-2.8,0.6-4.1,1.1c-2.5,0.9-5.1,1.4-7.7,1.4c-5.8,0-11.5-2.3-15.5-6.3L90.9,75.8l-0.7-0.7l-0.7,0.7l-45.1,45.1l-0.7,0.7 l0.7,0.7l7.9,7.9c3.1,3.1,5.2,7.1,6,11.4c2.3,12.5,8.3,23.9,17.3,32.9l3.2,3.2l0.4,0.4l0.5-0.1c1.1-0.3,2.3-0.4,3.4-0.4 c4.1,0,7.9,1.6,10.7,4.4c3,3,4.6,7.2,4.4,11.5l-0.1,1.1l1.1-0.1c0.3,0,0.5,0,0.8,0c4.1,0,7.9,1.6,10.7,4.4 c2.9,2.9,4.5,6.9,4.4,11.1l0,1l1,0l0.1,0c0.1,0,0.1,0,0.2,0c4.1,0,7.9,1.6,10.7,4.4c3.4,3.4,5,8.2,4.3,13l-0.1,0.9l0.9,0.2 c0.5,0.1,0.9,0.1,1.3,0.1c1.9,0,3.7-0.7,5-2.1c1.3-1.3,2.1-3.1,2.1-5c0-1.9-0.7-3.7-2.1-5l0,0l0,0l-29.4-29.4c-0.7-0.7-1-1.5-1-2.5 c0-0.9,0.4-1.8,1-2.5c0.7-0.7,1.5-1,2.5-1c0.9,0,1.8,0.4,2.5,1l39.6,39.6c1.3,1.3,3.1,2.1,5,2.1c1.9,0,3.7-0.7,5-2.1 c1.3-1.3,2.1-3.1,2.1-5c0-1.9-0.7-3.6-2-5l-36.5-36.5c-0.7-0.7-1-1.5-1-2.5c0-0.9,0.4-1.8,1-2.5c0.7-0.7,1.5-1,2.5-1 c0.9,0,1.8,0.4,2.5,1l36.4,36.4c0,0,0,0,0,0c0,0,0,0,0.1,0.1l0,0l7.9,7.9c1.3,1.3,3.1,2.1,5,2.1c1.9,0,3.7-0.7,5-2.1 c1.3-1.3,2.1-3.1,2.1-5c0-1.9-0.7-3.7-2.1-5l-47-47c-0.7-0.7-1-1.5-1-2.5c0-0.9,0.4-1.8,1-2.5c0.7-0.7,1.5-1,2.5-1 c0.9,0,1.8,0.4,2.5,1l43.6,43.6c1.3,1.3,3.1,2.1,5,2.1c1.9,0,3.7-0.7,5-2.1c1.3-1.3,2.1-3.1,2.1-5c0-1.9-0.7-3.7-2.1-5L146.2,134.8 z"></path> <path class="st2" d="M40.7,122.5l11.4,11.4c0,0,6.8,23.1,17.7,37s61.1,61.1,61.1,61.1s13.5,2.7,15.6-11.6c0,0,13.5,12,20.5,5.3 c7.1-6.7,5.7-10.3,5.7-10.3s13.1,10.8,17.9,3.5c4.8-7.3,2-15.6,2-15.6s8.5,1.5,10.8-4.2c2.2-5.7,5.1-12.3,0.7-15.1 c-4.3-2.8-59.2-59.2-59.2-59.2l-17,17c0,0-15.7,8.5-22-0.7s-0.7-17.6-0.7-17.6l37.1-37.1c0,0-26.9,6.2-32.8,0.4 c-5.9-5.9-17.1-17.1-17.1-17.1L40.7,122.5z"></path> <path class="st3" d="M235.3,42.6L193,85.2c0,0-7.9,6.2-19.5,1.1c-11.6-5.1-28.7-0.5-34.4,4.6C133.5,96,108,122,108,122 s-9.2,11.4-2.4,18.1c6.8,6.8,12.6,10.7,22.7,0.5S143,126,143,126l57.8,57.8l14-14c0,0,11-19.1,13.4-33.4l42.7-42.7 C270.9,93.7,262.4,61.6,235.3,42.6z"></path> <path class="st3" d="M61.3,30.9L96.3,66l-59.8,59.8l-24.3-24.3c0,0,6.1-38,48.5-70.3"></path> <circle class="st3" cx="84.5" cy="192.9" r="11.4"></circle> <circle class="st3" cx="101.7" cy="209.6" r="11.4"></circle> <circle class="st3" cx="118.2" cy="226.2" r="11.4"></circle> <path class="st4" d="M141.7,1.4C64.2,1.4,1.4,64.2,1.4,141.7S64.2,282,141.7,282S282,219.2,282,141.7S219.2,1.4,141.7,1.4z M263.3,90.4c0.4,1.1,0.9,2.1,1.3,3.2L228.2,130c-3.1,3.1-5.1,6.9-5.8,11.1c-2.3,12.5-8.2,23.9-17.2,33l-3.7,3.7l-29.2-29.2 l0.8,0.1c0.7,0.1,1.3,0.1,1.8,0.1c3,0,5.9-0.6,8.6-1.7c1-0.4,1.9-1.2,2.3-2.3c0.4-1,0.4-2.2,0-3.2c-0.7-1.6-2.2-2.6-3.9-2.6 c-0.5,0-1.1,0.1-1.6,0.3c-1.7,0.7-3.6,1-5.5,1c-10.3,0-20.6-9.8-21.8-10.9l-4.4-4.4l4.5-4.5c0.8-0.8,1.2-1.9,1.2-3 c0-1.1-0.4-2.2-1.2-3c-0.8-0.8-1.9-1.2-3-1.2c-1.1,0-2.2,0.4-3,1.2l-24.6,24.6c-1.8,1.8-4.1,2.7-6.6,2.7s-4.8-1-6.6-2.7 c-1.8-1.8-2.7-4.1-2.7-6.6s1-4.8,2.7-6.6L139,96.3c1.7-1.7,3.5-3.1,5.5-4.3c4.7-2.9,10.2-4.5,15.8-4.5c4.3,0,8.6,0.9,12.4,2.7 c3,1.4,6.1,2,9.4,2c6,0,11.8-2.4,16-6.6l37-37C247.2,60.7,256.7,74.8,263.3,90.4z M141.3,159.4l47,47c1.2,1.2,1.9,2.8,1.9,4.5 c0,1.7-0.7,3.3-1.9,4.5c-1.2,1.2-2.8,1.9-4.5,1.9c-1.7,0-3.3-0.7-4.5-1.9l-44.5-44.5c-0.8-0.8-1.9-1.2-3-1.2c-1.1,0-2.2,0.4-3,1.2 c-0.8,0.8-1.2,1.9-1.2,3c0,1.1,0.4,2.2,1.2,3l36.5,36.5c1.2,1.2,1.8,2.8,1.8,4.5c0,1.7-0.7,3.3-1.9,4.5c-1.2,1.2-2.8,1.9-4.5,1.9 c-1.7,0-3.3-0.7-4.5-1.9l-39.6-39.6c-0.8-0.8-1.9-1.2-3-1.2c-1.1,0-2.2,0.4-3,1.2c-0.8,0.8-1.2,1.9-1.2,3c0,1.1,0.4,2.2,1.2,3 l29.4,29.4c1.2,1.2,1.9,2.8,1.9,4.5c0,1.7-0.7,3.3-1.9,4.5c-1.2,1.2-2.8,1.9-4.5,1.9c-0.4,0-0.8,0-1.2-0.1l-0.3-0.1l0-0.3 c0.7-5-0.9-10.1-4.5-13.6c-3-3-7-4.7-11.2-4.7c-0.1,0-0.2,0-0.2,0l-0.4,0l0-0.3c0.1-4.4-1.6-8.5-4.6-11.6c-3.2-3.2-7.5-4.9-12-4.6 l-0.3,0l0-0.3c0.2-4.5-1.5-8.9-4.6-12c-3-3-7-4.6-11.2-4.6c-1.2,0-2.4,0.1-3.6,0.4l-0.2,0l-3.3-3.3c-8.9-8.9-14.8-20.2-17.1-32.6 c-0.8-4.5-3-8.5-6.2-11.8l-8.1-8.1l45.5-45.5l11.4,11.4c4.2,4.2,10,6.5,16,6.5c2.7,0,5.4-0.5,8-1.4c1.3-0.5,2.6-0.8,4-1l0.9-0.1 l-28.4,28.4c-3.4,3.3-5.2,7.8-5.2,12.5c0,4.7,1.8,9.2,5.2,12.5c3.3,3.3,7.8,5.2,12.5,5.2c4.7,0,9.2-1.8,12.5-5.2l14.2-14.2 l57.1,57.1c1.2,1.2,1.9,2.8,1.9,4.5c0,1.7-0.7,3.3-1.9,4.5l0,0c-1.2,1.2-2.8,1.9-4.5,1.9c-1.7,0-3.3-0.7-4.5-1.9l-43.6-43.6 c-0.8-0.8-1.9-1.2-3-1.2c-1.1,0-2.2,0.4-3,1.2c-0.8,0.8-1.2,1.9-1.2,3C140,157.5,140.5,158.6,141.3,159.4z M125.7,226.2 c0,2-0.8,3.9-2.2,5.3c-1.4,1.4-3.3,2.2-5.3,2.2c-2,0-3.9-0.8-5.3-2.2c-1.4-1.4-2.2-3.3-2.2-5.3c0-2,0.8-3.9,2.2-5.3 c1.4-1.4,3.3-2.2,5.3-2.2c2,0,3.9,0.8,5.3,2.2C125,222.4,125.7,224.2,125.7,226.2z M109.2,209.7c0,2-0.8,3.9-2.2,5.3h0 c-1.4,1.4-3.3,2.2-5.3,2.2c-2,0-3.9-0.8-5.3-2.2c-1.4-1.4-2.2-3.3-2.2-5.3c0-2,0.8-3.9,2.2-5.3c1.4-1.4,3.3-2.2,5.3-2.2 c2,0,3.9,0.8,5.3,2.2C108.4,205.8,109.2,207.7,109.2,209.7z M90.1,198c-1.4,1.4-3.3,2.2-5.3,2.2c-2,0-3.9-0.8-5.3-2.2 c-1.4-1.4-2.2-3.3-2.2-5.3c0-2,0.8-3.9,2.2-5.3c1.4-1.4,3.3-2.2,5.3-2.2c2,0,3.9,0.8,5.3,2.2C93,190.4,93,195.1,90.1,198z M141.7,9.8c17.8,0,35.1,3.5,51.3,10.4c13.2,5.6,25.3,13.2,36,22.7l-36.8,36.8c-2.6,2.6-6.3,4.1-10,4.1c-2.1,0-4.1-0.4-6-1.3 c-4.9-2.2-10.4-3.4-15.9-3.4c-6.4,0-12.8,1.6-18.4,4.7l-0.1,0.1l-0.1,0c-2.4-0.6-4.8-0.9-7.2-0.9c-3.5,0-7,0.6-10.3,1.8 c-1.7,0.6-3.4,0.9-5.2,0.9c-3.8,0-7.3-1.5-10-4.1L97.6,70.1l1.5-1.5c0.8-0.8,1.2-1.9,1.2-3c0-1.1-0.4-2.2-1.2-3L68.5,32 c6.9-4.6,14.2-8.5,21.9-11.8C106.6,13.3,123.9,9.8,141.7,9.8z M48.5,48.5c4.2-4.1,8.5-8,13.1-11.5l28.4,28.4l0.2,0.2l-54.6,54.6 l-0.2,0.2l-19.3-19.3c1.2-3.6,2.5-7.2,4-10.7C26.8,74.7,36.3,60.6,48.5,48.5z M235,235c-12.1,12.1-26.2,21.6-41.9,28.3 c-16.3,6.9-33.5,10.4-51.3,10.4s-35.1-3.5-51.3-10.4c-15.7-6.6-29.8-16.2-41.9-28.3c-12.1-12.1-21.6-26.2-28.3-41.9 c-6.9-16.3-10.4-33.5-10.4-51.3c0-10.7,1.3-21.1,3.7-31.3l18.9,18.9c0.8,0.8,1.9,1.2,3,1.2c1.1,0,2.2-0.4,3-1.2l1.8-1.8l8.1,8.1 c2,2,3.4,4.6,3.9,7.4c2.6,14.1,9.4,26.8,19.5,37l1.7,1.7l-0.2,0.2c-2.8,3-4.4,6.8-4.4,10.9c0,4.2,1.7,8.2,4.7,11.2 c3,3,7,4.6,11.2,4.6c0.3,0,0.5,0,0.8,0l0.3,0l0,0.3c-0.2,4.5,1.5,8.9,4.6,12c3,3,7,4.7,11.2,4.7c0.1,0,0.2,0,0.2,0l0.4,0l0,0.3 c-0.1,4.4,1.6,8.5,4.6,11.6c3,3,7,4.7,11.2,4.7c4.2,0,8.2-1.7,11.2-4.7c0.2-0.2,0.5-0.5,0.7-0.8l0.1-0.1l0.2,0.1 c1.6,0.6,3.2,0.8,4.9,0.8c4,0,7.7-1.5,10.5-4.3c1.5-1.5,2.6-3.2,3.4-5.1l0.2-0.4l0.8,0.8c2.8,2.8,6.5,4.3,10.5,4.3 c4,0,7.7-1.5,10.5-4.3c1.5-1.5,2.7-3.3,3.4-5.3l0.1-0.4l0.3,0.2c2.5,1.8,5.6,2.8,8.7,2.8c4,0,7.7-1.5,10.5-4.3 c2.8-2.8,4.3-6.5,4.3-10.5c0-1.2-0.1-2.4-0.4-3.5l-0.1-0.3l0.3-0.1c2.8-0.6,5.4-2,7.5-4c2.8-2.8,4.3-6.5,4.3-10.5 c0-3.1-0.9-6.1-2.7-8.6l-0.1-0.2l3.8-3.8c10.2-10.2,17-23.2,19.6-37.4c0.4-2.5,1.7-4.7,3.5-6.6l33.5-33.5c4,12.7,6,25.8,6,39.3 c0,17.8-3.5,35.1-10.4,51.3C256.6,208.8,247.1,222.9,235,235z"></path> </g> </svg>