<?xml version="1.0" encoding="utf-8"?>
<!-- Generator: Adobe Illustrator 21.0.2, SVG Export Plug-In . SVG Version: 6.00 Build 0)  -->
<svg version="1.1" id="Layer_1" xmlns="http://www.w3.org/2000/svg" xmlns:xlink="http://www.w3.org/1999/xlink" x="0px" y="0px"
	 viewBox="0 0 141.7 56.7" style="enable-background:new 0 0 141.7 56.7;" xml:space="preserve">
<style type="text/css">
	.st0{fill:#343637;}
	.st1{fill:#ADAEB0;}
	.st2{fill:#FFCC12;}
	.st3{fill:#23B3E8;}
	.st4{fill:#C52B87;}
	.st5{fill:#B2267B;}
	.st6{fill:#F9BA19;}
	.st7{fill:#4BA7DD;}
</style>
<g>
	<path class="st0" d="M16.5,25.6l-6.1,15.8H7.6L1.4,25.6H4l5,13.2l4.9-13.2H16.5z"/>
	<path class="st0" d="M24.1,39.5c2.1,0,3.6-0.9,4.6-2.6h2.6c-0.5,1.4-1.4,2.6-2.6,3.5s-2.7,1.3-4.6,1.3c-2.4,0-4.3-0.8-5.8-2.4
		c-1.5-1.5-2.2-3.5-2.2-5.8s0.7-4.3,2.1-5.8c1.5-1.6,3.4-2.4,5.7-2.4c2.4,0,4.3,0.8,5.7,2.4c1.4,1.5,2.1,3.4,2.1,5.8v1H18.6
		c0.2,1.5,0.7,2.6,1.7,3.6C21.3,39,22.6,39.5,24.1,39.5z M24,27.5c-1.5,0-2.7,0.5-3.7,1.4c-0.9,0.9-1.5,2-1.7,3.4h10.7
		c-0.2-1.4-0.8-2.5-1.7-3.4C26.6,28,25.4,27.5,24,27.5z"/>
	<path class="st0" d="M35.6,25.6v2.5c0.6-0.8,1.3-1.4,2.1-1.9s1.8-0.8,2.8-0.8c1.1,0,2,0.1,2.7,0.4c0.8,0.3,1.4,0.7,2,1.3
		c1.3,1.3,2,3,2,5.1v9.2h-2.4v-9.1c0-1.5-0.4-2.6-1.2-3.5s-1.9-1.3-3.2-1.3S38,27.9,37,28.8c-0.9,0.9-1.4,2.1-1.4,3.5v9.1h-2.4V25.6
		H35.6z"/>
	<path class="st0" d="M51,41.4V27.7h-3.2v-2.1H51V20h2.4v5.6H57v2.1h-3.6v13.7C53.4,41.4,51,41.4,51,41.4z"/>
	<path class="st0" d="M66.5,25.4v2.4h-0.3c-1.7,0-3.1,0.7-4.2,2c-1,1.3-1.5,2.9-1.5,4.7v6.9h-2.4V25.6h2.4v3.9
		c0.5-1.6,1.6-2.8,3.3-3.6c0.7-0.3,1.5-0.5,2.5-0.5H66.5z"/>
	<path class="st0" d="M79.5,38.9c-1.3,1.8-3.1,2.8-5.6,2.8c-2.3,0-4.1-0.8-5.5-2.4s-2.1-3.5-2.1-5.8s0.7-4.2,2.1-5.8
		c1.4-1.6,3.3-2.4,5.7-2.4c2.4,0,4.2,0.9,5.5,2.8v-2.6H82v15.8h-2.4L79.5,38.9L79.5,38.9z M74.2,39.5c1.7,0,3-0.6,4-1.8
		c0.9-1.1,1.4-2.5,1.4-4.2s-0.5-3.1-1.4-4.2c-1-1.2-2.3-1.8-4-1.8s-3,0.6-4.1,1.8c-1,1.1-1.5,2.5-1.5,4.2s0.5,3.1,1.5,4.2
		C71.1,38.9,72.5,39.5,74.2,39.5z"/>
	<rect x="84.3" y="25.6" class="st1" width="2.8" height="15.8"/>
	<rect x="84.3" y="20" class="st1" width="2.8" height="3.2"/>
	<path class="st1" d="M103.3,27.6c-1.4-1.6-3.4-2.4-5.7-2.4c-2.3,0-4.1,0.8-5.4,2.3v-1.9h-2.8v22h2.8v-8.1c1.3,1.6,3.1,2.4,5.3,2.4
		c2.4,0,4.4-0.8,5.8-2.4s2.2-3.6,2.2-5.9C105.5,31.2,104.7,29.2,103.3,27.6z M97.3,27.8c1.6,0,2.9,0.6,3.9,1.7
		c0.9,1.1,1.4,2.4,1.4,4.1c0,1.6-0.5,3-1.4,4.1c-1,1.1-2.3,1.7-3.9,1.7s-2.9-0.6-3.9-1.7c-0.9-1.1-1.4-2.4-1.4-4.1
		c0-1.6,0.5-3,1.4-4.1C94.4,28.3,95.7,27.8,97.3,27.8z"/>
	<g>
		<path class="st1" d="M51.7,50.2c-0.4,0.6-1,0.9-1.9,0.9c-0.8,0-1.4-0.3-1.8-0.8c-0.5-0.5-0.7-1.2-0.7-1.9c0-0.8,0.2-1.4,0.7-1.9
			s1.1-0.8,1.9-0.8c0.8,0,1.4,0.3,1.8,0.9v-0.9h0.8v5.2h-0.8V50.2z M50,50.4c0.6,0,1-0.2,1.3-0.6s0.5-0.8,0.5-1.4s-0.2-1-0.5-1.4
			s-0.8-0.6-1.3-0.6c-0.6,0-1,0.2-1.4,0.6c-0.3,0.4-0.5,0.8-0.5,1.4s0.2,1,0.5,1.4C48.9,50.2,49.4,50.4,50,50.4z"/>
		<path class="st1" d="M57.3,51v-0.8c-0.2,0.3-0.4,0.5-0.7,0.6c-0.3,0.2-0.6,0.3-0.9,0.3s-0.7,0-0.9-0.1c-0.3-0.1-0.5-0.2-0.7-0.4
			c-0.4-0.4-0.7-1-0.7-1.7v-3.1h0.8v3c0,0.5,0.1,0.9,0.4,1.2s0.6,0.4,1.1,0.4c0.4,0,0.8-0.1,1.1-0.4s0.5-0.7,0.5-1.2v-3h0.8V51H57.3
			z"/>
		<path class="st1" d="M62.2,47.2c-0.1-0.5-0.5-0.8-1.3-0.8s-1.2,0.3-1.2,0.8c0,0.2,0.1,0.4,0.3,0.5s0.4,0.2,0.6,0.3
			c0.3,0.1,0.5,0.1,0.8,0.2s0.6,0.1,0.8,0.3c0.3,0.1,0.5,0.3,0.6,0.4c0.2,0.2,0.3,0.4,0.3,0.8c0,0.5-0.2,0.9-0.6,1.2
			c-0.4,0.3-0.9,0.4-1.6,0.4c-0.7,0-1.3-0.2-1.7-0.5s-0.6-0.7-0.6-1.2h0.8c0,0.5,0.3,0.8,0.8,1c0.2,0.1,0.4,0.1,0.5,0.1
			c0.2,0,0.3,0,0.5,0s0.3-0.1,0.5-0.1c0.3-0.1,0.5-0.4,0.5-0.7c0-0.2-0.1-0.4-0.3-0.5s-0.4-0.2-0.6-0.3C61,49,60.8,49,60.5,48.9
			s-0.6-0.1-0.8-0.2c-0.3-0.1-0.5-0.2-0.6-0.4c-0.2-0.2-0.3-0.4-0.3-0.8c0-0.5,0.2-0.8,0.5-1.1c0.3-0.3,0.9-0.4,1.5-0.4
			s1.2,0.2,1.5,0.5s0.5,0.6,0.5,1h-0.6V47.2z"/>
		<path class="st1" d="M64.3,51v-4.5h-1.1v-0.7h1.1v-1.9h0.8v1.9h1.2v0.7h-1.2v4.6L64.3,51L64.3,51z"/>
		<path class="st1" d="M69.6,45.7v0.8h-0.1c-0.6,0-1,0.2-1.4,0.7c-0.3,0.4-0.5,1-0.5,1.6v2.3h-0.8v-5.2h0.8v1.3
			c0.2-0.5,0.5-0.9,1.1-1.2C68.9,45.8,69.2,45.7,69.6,45.7L69.6,45.7z"/>
		<path class="st1" d="M74,50.2c-0.4,0.6-1,0.9-1.9,0.9c-0.8,0-1.4-0.3-1.8-0.8c-0.5-0.5-0.7-1.2-0.7-1.9c0-0.8,0.2-1.4,0.7-1.9
			s1.1-0.8,1.9-0.8s1.4,0.3,1.8,0.9v-0.9h0.8v5.2H74V50.2z M72.3,50.4c0.6,0,1-0.2,1.3-0.6s0.5-0.8,0.5-1.4s-0.2-1-0.5-1.4
			s-0.8-0.6-1.3-0.6c-0.6,0-1,0.2-1.4,0.6c-0.3,0.4-0.5,0.8-0.5,1.4s0.2,1,0.5,1.4C71.3,50.2,71.7,50.4,72.3,50.4z"/>
		<path class="st1" d="M76.6,51h-0.8v-7.3h0.8V51z"/>
		<path class="st1" d="M78.4,43.9v1h-0.9v-1H78.4z M77.6,45.8h0.8V51h-0.8V45.8z"/>
		<path class="st1" d="M83.5,50.2c-0.4,0.6-1,0.9-1.9,0.9c-0.8,0-1.4-0.3-1.8-0.8c-0.5-0.5-0.7-1.2-0.7-1.9c0-0.8,0.2-1.4,0.7-1.9
			s1.1-0.8,1.9-0.8s1.4,0.3,1.8,0.9v-0.9h0.8v5.2h-0.8V50.2z M81.7,50.4c0.6,0,1-0.2,1.3-0.6s0.5-0.8,0.5-1.4s-0.2-1-0.5-1.4
			s-0.8-0.6-1.3-0.6c-0.6,0-1,0.2-1.4,0.6c-0.3,0.4-0.5,0.8-0.5,1.4s0.2,1,0.5,1.4C80.7,50.2,81.2,50.4,81.7,50.4z"/>
	</g>
	<g>
		<path class="st2" d="M114.8,26.4c-0.1-1.8-0.3-3.6-0.7-5.4c-2.2-0.8-4.6-1.6-7.4-2.3c6.1,9.8,5.7,21.1-1.3,33.8
			c2-2.5,4.6-6.3,6.6-11.1C114,36.4,115,31.4,114.8,26.4z"/>
		<path class="st3" d="M121.9,21.3c0.3-3.1,0.2-6.1-0.2-9.1c-6-2.7-12.2-4.3-12.2-4.3c11,16.8,5.3,32-0.2,40.7
			c2.2-2.7,4.6-6,6.7-9.7C119.3,32.9,121.3,27,121.9,21.3z"/>
		<path class="st4" d="M118.5,0.3c0,0,14.2,5.4,21.8,12.7c0,0-1.3,26.5-37.2,43.4C103.1,56.4,134.3,29.4,118.5,0.3z"/>
		<path class="st5" d="M103.1,56.4c17.1-8,26.4-18.3,31.4-26.8c-5.8,0.1-10.5,0.8-14.1,1.7C115.1,46.1,103.1,56.4,103.1,56.4z"/>
		<path class="st6" d="M114.3,33.4c-1.7,0.8-2.9,1.5-3.4,1.9c-0.3,5.4-2.2,11.2-5.5,17.3l0,0c2-2.5,4.6-6.3,6.6-11.1
			C113.1,38.8,113.9,36.1,114.3,33.4z"/>
		<path class="st7" d="M119.4,31.6c-1.6,0.4-2.9,0.9-4.1,1.4c-1,6.2-3.5,11.6-6,15.6l0,0c2.2-2.7,4.6-6,6.7-9.7
			C117.3,36.4,118.5,34,119.4,31.6z"/>
	</g>
</g>
</svg>
