<?xml version="1.0" encoding="utf-8"?>
<!-- Generator: Adobe Illustrator 23.0.0, SVG Export Plug-In . SVG Version: 6.00 Build 0)  -->
<svg version="1.1" id="Layer_1" xmlns="http://www.w3.org/2000/svg" xmlns:xlink="http://www.w3.org/1999/xlink" x="0px" y="0px"
	 viewBox="0 0 283.46 161.59" style="enable-background:new 0 0 283.46 161.59;" xml:space="preserve">
<style type="text/css">
	.st0{fill:url(#SVGID_1_);}
	.st1{opacity:0.25;fill:#010101;enable-background:new    ;}
	.st2{fill:#FFFFFF;}
	.st3{fill:url(#SVGID_2_);}
	.st4{fill:url(#SVGID_3_);}
	.st5{fill:url(#SVGID_4_);}
	.st6{fill:url(#SVGID_5_);}
	.st7{fill:url(#SVGID_6_);}
	.st8{fill:url(#SVGID_7_);}
	.st9{fill:url(#SVGID_8_);}
	.st10{fill:url(#SVGID_9_);}
</style>
<g>
	
		<linearGradient id="SVGID_1_" gradientUnits="userSpaceOnUse" x1="240.9155" y1="45.7195" x2="59.4857" y2="197.9572" gradientTransform="matrix(1 0 0 -1 0 161.5918)">
		<stop  offset="0.05" style="stop-color:#FFCC12"/>
		<stop  offset="0.8" style="stop-color:#C42A86"/>
	</linearGradient>
	<path class="st0" d="M34.53,0h243.21c4.09,0,6.86,4.18,5.26,7.95l-41.99,100.39h-60.24l-20.45,44.89
		c-3.69,8.09-13.8,10.88-21.11,5.83L4.93,66.31c-4.49-3.1-6.16-8.95-3.99-13.95l17.67-42.05C21.33,4.05,27.51,0,34.33,0H34.53z"/>
	<polygon class="st1" points="54.27,61.51 5.95,61.51 40.07,68.58 	"/>
	<path class="st2" d="M49.75,61.51H252c4.09,0,6.86,4.18,5.26,7.94l-18.54,45.14c-2.24,5.28-7.42,8.7-13.15,8.7H25.89
		c-6.16,0-10.31-6.31-7.87-11.97l16.75-39.98C37.36,65.37,43.24,61.51,49.75,61.51L49.75,61.51z"/>
	<polygon class="st1" points="87.37,123.3 169.58,132.89 173.95,123.3 	"/>
	<g>
		<path class="st2" d="M39.91,20.52c5.04,0,8.23,2.79,9.56,5.75l-5.37,2.24c-0.65-1.63-2.72-2.82-5.04-2.82
			c-3.84,0-7.04,3.33-7.04,7.62c0,2.92,2.07,5.51,5.75,5.51c1.63,0,2.89-0.58,3.91-1.36l0.41-1.91h-5.24l1.12-4.9h10.95l-2.01,8.95
			c-2.18,2.76-5.54,4.39-9.49,4.39c-6.23,0-11.5-3.84-11.5-10.31C25.93,26.17,31.67,20.52,39.91,20.52z"/>
		<path class="st2" d="M51.52,34.4l2.99-13.5h5.95L57.5,34.27c-0.07,0.17-0.1,0.54-0.1,0.95c0.03,1.87,1.36,3.67,4.15,3.67
			c3.03,0,4.52-1.97,5.1-4.63l2.96-13.37h5.95l-2.99,13.47c-1.19,5.51-4.12,9.63-11.02,9.63c-6.84,0-10.2-3.33-10.2-8.1
			C51.35,35.52,51.45,34.74,51.52,34.4z"/>
		<path class="st2" d="M89.15,40.15h-9.39l-1.94,3.44h-6.63L84.73,20.9h7.35l3.57,22.69H89.6L89.15,40.15z M82.39,35.21h6.33
			l-1.12-9.39L82.39,35.21z"/>
		<path class="st2" d="M108.12,35.89h-3.23l-1.7,7.69h-5.85l5-22.69h10.34c3.91,0,7.35,2.55,7.35,6.63c0,4.05-2.72,7.14-6.06,8.03
			l2.72,8.03h-6.46L108.12,35.89z M113.93,28.1c0-1.36-1.09-2.28-2.48-2.28h-4.35l-1.12,5.1h4.52
			C112.6,30.93,113.93,29.84,113.93,28.1z"/>
		<path class="st2" d="M135.37,40.15h-9.39l-1.94,3.44h-6.63l13.54-22.69h7.35l3.57,22.69h-6.05L135.37,40.15z M128.6,35.21h6.33
			l-1.12-9.39L128.6,35.21z"/>
		<path class="st2" d="M152.56,29.16l-3.16,14.42h-5.85l5-22.69h6.02l6.16,13.78l3.03-13.78h5.89l-5,22.69H159L152.56,29.16z"/>
		<path class="st2" d="M177.65,25.99h-6.36l1.16-5.1h18.54l-1.12,5.1h-6.36l-3.84,17.59h-5.85L177.65,25.99z"/>
		<path class="st2" d="M193.78,20.89h16.63l-1.09,4.93h-10.78l-0.82,3.78h10.51l-1.09,4.97h-10.51l-0.92,4.08h10.78l-1.09,4.93
			h-16.63L193.78,20.89z"/>
		<path class="st2" d="M213.83,20.89h16.63l-1.09,4.93h-10.78l-0.82,3.78h10.51l-1.09,4.97h-10.51l-0.92,4.08h10.78l-1.09,4.93
			h-16.63L213.83,20.89z"/>
		<path class="st2" d="M253.3,30.65c0,5.85-3.84,12.93-14.93,12.93h-9.49l5-22.69h9.35C248.26,20.89,253.3,24.74,253.3,30.65z
			 M247.24,31.06c0-2.82-2.07-5.07-5.07-5.07h-3.57l-2.75,12.48h3.6C244.32,38.48,247.24,35.08,247.24,31.06z"/>
	</g>
	<g>
		
			<linearGradient id="SVGID_2_" gradientUnits="userSpaceOnUse" x1="179.0007" y1="-29.8318" x2="-4.5304" y2="124.1692" gradientTransform="matrix(1 0 0 -1 0 161.5918)">
			<stop  offset="0.05" style="stop-color:#FFCC12"/>
			<stop  offset="0.8" style="stop-color:#C42A86"/>
		</linearGradient>
		<path class="st3" d="M58.33,89.48l-6.69,14.48h-6.31l-1.52-23.11h6.55l0.1,15.42l7.35-15.42h4.54l0.55,15.42l6.9-15.42h6.86
			l-11.71,23.11h-6.31L58.33,89.48z"/>
		
			<linearGradient id="SVGID_3_" gradientUnits="userSpaceOnUse" x1="187.07" y1="-20.4122" x2="3.0899" y2="133.9654" gradientTransform="matrix(1 0 0 -1 0 161.5918)">
			<stop  offset="0.05" style="stop-color:#FFCC12"/>
			<stop  offset="0.8" style="stop-color:#C42A86"/>
		</linearGradient>
		<path class="st4" d="M87.94,100.46h-9.56l-1.97,3.5h-6.76l13.79-23.11h7.49l3.64,23.11H88.4L87.94,100.46z M81.04,95.44h6.45
			l-1.14-9.56L81.04,95.44z"/>
		
			<linearGradient id="SVGID_4_" gradientUnits="userSpaceOnUse" x1="197.3283" y1="-7.7687" x2="13.5353" y2="146.4519" gradientTransform="matrix(1 0 0 -1 0 161.5918)">
			<stop  offset="0.05" style="stop-color:#FFCC12"/>
			<stop  offset="0.8" style="stop-color:#C42A86"/>
		</linearGradient>
		<path class="st5" d="M107.25,96.13h-3.29l-1.73,7.83h-5.96l5.09-23.11h10.53c3.99,0,7.49,2.6,7.49,6.76
			c0,4.12-2.77,7.28-6.17,8.18l2.77,8.18h-6.58L107.25,96.13z M113.18,88.19c0-1.39-1.11-2.32-2.53-2.32h-4.44l-1.14,5.2h4.61
			C111.82,91.07,113.18,89.96,113.18,88.19z"/>
		
			<linearGradient id="SVGID_5_" gradientUnits="userSpaceOnUse" x1="206.6789" y1="3.6174" x2="22.886" y2="157.8379" gradientTransform="matrix(1 0 0 -1 0 161.5918)">
			<stop  offset="0.05" style="stop-color:#FFCC12"/>
			<stop  offset="0.8" style="stop-color:#C42A86"/>
		</linearGradient>
		<path class="st6" d="M130.17,96.13h-3.29l-1.73,7.83h-5.96l5.09-23.11h10.53c3.99,0,7.49,2.6,7.49,6.76
			c0,4.12-2.77,7.28-6.17,8.18l2.77,8.18h-6.58L130.17,96.13z M136.09,88.19c0-1.39-1.11-2.32-2.53-2.32h-4.44l-1.14,5.2h4.61
			C134.74,91.07,136.09,89.96,136.09,88.19z"/>
		
			<linearGradient id="SVGID_6_" gradientUnits="userSpaceOnUse" x1="215.5815" y1="14.3924" x2="31.6014" y2="168.77" gradientTransform="matrix(1 0 0 -1 0 161.5918)">
			<stop  offset="0.05" style="stop-color:#FFCC12"/>
			<stop  offset="0.8" style="stop-color:#C42A86"/>
		</linearGradient>
		<path class="st7" d="M157.93,100.46h-9.56l-1.97,3.5h-6.76l13.79-23.11h7.49l3.64,23.11h-6.17L157.93,100.46z M151.04,95.44h6.44
			l-1.14-9.56L151.04,95.44z"/>
		
			<linearGradient id="SVGID_7_" gradientUnits="userSpaceOnUse" x1="227.4837" y1="28.9614" x2="43.7714" y2="183.1144" gradientTransform="matrix(1 0 0 -1 0 161.5918)">
			<stop  offset="0.05" style="stop-color:#FFCC12"/>
			<stop  offset="0.8" style="stop-color:#C42A86"/>
		</linearGradient>
		<path class="st8" d="M175.44,89.27l-3.22,14.69h-5.96l5.09-23.11h6.13l6.27,14.03l3.09-14.03h5.99l-5.09,23.11h-5.75L175.44,89.27
			z"/>
		
			<linearGradient id="SVGID_8_" gradientUnits="userSpaceOnUse" x1="238.3545" y1="41.9055" x2="54.1167" y2="196.4994" gradientTransform="matrix(1 0 0 -1 0 161.5918)">
			<stop  offset="0.05" style="stop-color:#FFCC12"/>
			<stop  offset="0.8" style="stop-color:#C42A86"/>
		</linearGradient>
		<path class="st9" d="M201,86.04h-6.48l1.18-5.2h18.88l-1.14,5.2h-6.48l-3.92,17.91h-5.96L201,86.04z"/>
		
			<linearGradient id="SVGID_9_" gradientUnits="userSpaceOnUse" x1="247.5757" y1="53.214" x2="63.5019" y2="207.6701" gradientTransform="matrix(1 0 0 -1 0 161.5918)">
			<stop  offset="0.05" style="stop-color:#FFCC12"/>
			<stop  offset="0.8" style="stop-color:#C42A86"/>
		</linearGradient>
		<path class="st10" d="M220.69,94.64l-5.72-13.79h6.41l3.15,8.52l6.83-8.52h7.07l-11.78,13.79l-2.04,9.32h-5.96L220.69,94.64z"/>
	</g>
</g>
</svg>
